<?xml version="1.0" encoding="UTF-8"?>
<svg width="56px" height="56px" viewBox="0 0 56 56" version="1.1" xmlns="http://www.w3.org/2000/svg" xmlns:xlink="http://www.w3.org/1999/xlink">
    <!-- Generator: Sketch 52.4 (67378) - http://www.bohemiancoding.com/sketch -->
    <title>AA</title>
    <desc>Created with Sketch.</desc>
    <g id="AA" stroke="none" stroke-width="1" fill="none" fill-rule="evenodd">
        <circle id="Oval" stroke="#EAEAEA" fill="#FFFFFF" cx="28" cy="28" r="27.5"></circle>
        <path d="M19.8984701,43 C17.3234718,39.7959627 14.8128547,36.6485982 12.2688277,33.5305821 C11.8496192,33.0167318 11.9608229,32.7073084 12.3268682,32.252914 C17.3800491,25.9819673 22.4232315,19.7024185 27.44788,13.4066774 C27.8719658,12.8751169 28.0848622,12.8574067 28.5152886,13.3963043 C33.5684695,19.7218998 38.639209,26.032568 43.719947,32.3343811 C44.0664828,32.7639812 44.1133054,33.0309 43.73653,33.4918725 C41.3458957,36.4158349 38.972576,39.3552304 36.6382751,42.3272635 C36.1407852,42.9607844 35.9091109,42.8198615 35.4862445,42.2862769 C33.2177879,39.4217704 30.8947049,36.6033105 28.6494157,33.7198287 C28.0912028,33.0030696 27.8207536,33.099717 27.3181424,33.736021 C24.8762959,36.8269657 22.3981132,39.886538 19.8984701,43 Z M20.9138373,23.8639984 C20.9718778,24.0312338 20.9840712,24.1615307 21.0508909,24.2450218 C23.2278971,26.9696174 25.4285585,29.6739726 27.5787393,32.4210855 C28.1101269,33.0998941 28.2766885,32.530383 28.5132401,32.2384169 C30.6278162,29.6251429 32.730199,27.0007368 34.8352643,24.3786077 C34.9618316,24.2209865 35.1169314,24.0633653 34.9571981,23.8639984 L20.9138373,23.8639984 Z" id="Combined-Shape" fill="#23548C"></path>
    </g>
</svg>