<svg width="56" height="56" xmlns="http://www.w3.org/2000/svg"><g fill="none" fill-rule="evenodd"><rect fill="#3F444E" width="56" height="56" rx="28"/><g fill="#FFF"><path d="M39.965 20.645c-2.003-2.92-5.107-3.32-6.198-3.351-2.608-.275-5.137 1.56-6.465 1.56-1.354 0-3.4-1.534-5.604-1.489-2.836.044-5.49 1.686-6.946 4.237-3.003 5.2-.763 12.841 2.115 17.044 1.44 2.059 3.121 4.357 5.323 4.275 2.154-.088 2.958-1.372 5.558-1.372 2.575 0 3.33 1.372 5.576 1.32 2.312-.036 3.767-2.066 5.156-4.145 1.664-2.358 2.332-4.683 2.358-4.802-.053-.017-4.488-1.711-4.533-6.83-.038-4.272 3.498-6.35 3.66-6.447zM30.587 14.529c1.158-1.449 1.951-3.42 1.731-5.42-1.677.074-3.774 1.16-4.981 2.577-1.069 1.248-2.023 3.295-1.776 5.22 1.883.14 3.817-.95 5.026-2.377"/></g></g></svg>