<svg width="56" height="56" xmlns="http://www.w3.org/2000/svg"><g fill="none" fill-rule="evenodd"><rect fill="#113872" width="56" height="56" rx="28"/><path d="M14.218 26.91s-.11-8.477 8.753-8.807c.99-.22 7.101-.11 9.028 0 1.926.11 8.477 1.486 8.532 8.752.055 7.266-5.175 8.917-8.588 9.083-3.412.164-7.762.109-9.028 0-1.265-.11-8.256-.66-8.697-9.029m8.642 12.175c1.102.11 9.028-.054 9.028-.054 7.377.22 10.184-5.284 10.184-5.284.55 3.852.99 4.182 1.706 4.788.715.605 2.972.44 2.972.44L44.219 25.71c-2.312-10.9-10.404-10.624-12.22-10.844-1.817-.221-9.028-.055-9.028-.055-12.495 1.045-12.22 11.999-12.22 11.999.275 12 11.009 12.165 12.11 12.275" fill="#FFF"/></g></svg>