<svg width="56" height="56" xmlns="http://www.w3.org/2000/svg"><g fill="none" fill-rule="evenodd"><rect fill="#0096D7" width="56" height="56" rx="28"/><path d="M39.75 15H12v4.263h26.364v.003c.763 0 1.376.616 1.376 1.375v14.321l-.006.01a1.378 1.378 0 0 1-1.378 1.367H17.64c-.76 0-1.378-.614-1.378-1.377v-5.788c0-.76.619-1.375 1.378-1.375h17.827v-4.26H16.25c-2.348 0-4.25 1.899-4.25 4.246v8.565a4.25 4.25 0 0 0 4.25 4.251h23.5A4.25 4.25 0 0 0 44 36.35v-17.1c0-2.347-1.9-4.25-4.25-4.25" fill="#FFF"/></g></svg>