<?xml version="1.0" encoding="UTF-8"?>
<svg width="56px" height="56px" viewBox="0 0 56 56" version="1.1" xmlns="http://www.w3.org/2000/svg" xmlns:xlink="http://www.w3.org/1999/xlink">
    <!-- Generator: Sketch 52.4 (67378) - http://www.bohemiancoding.com/sketch -->
    <title>ACN</title>
    <desc>Created with Sketch.</desc>
    <g id="ACN" stroke="none" stroke-width="1" fill="none" fill-rule="evenodd">
        <g>
            <rect id="Rectangle-1" stroke="#E1E1E1" fill="#FFFFFF" x="0.5" y="0.5" width="55" height="55" rx="27.5"></rect>
            <path d="M15.162584,12 C15.40646,12.081292 15.569044,12.243876 15.81292,12.325168 C25.3240841,16.145892 34.9165402,20.0479081 44.4277043,23.8686321 C45.0780403,24.1125081 44.9967483,24.0312161 44.9967483,24.7628441 C44.9967483,26.8764362 44.9967483,28.9087362 44.9967483,31.0223282 C44.9967483,31.1849122 44.9967483,31.4287882 44.9967483,31.6726642 C34.9978322,35.7372643 24.9989161,39.7205723 15,43.7851723 C15,40.6147843 15,37.5256883 15,34.4365922 C20.7717321,32.3230002 26.5434641,30.1281162 32.3151962,28.0145242 C32.3151962,27.9332322 32.3151962,27.9332322 32.3151962,27.8519402 C26.5434641,25.5757641 20.7717321,23.3808801 15,21.1047041 C15,18.0969001 15,15.007804 15,12 C15.081292,12 15.162584,12 15.162584,12 Z" id="Shape" fill="#AA1133" fill-rule="nonzero"></path>
        </g>
    </g>
</svg>