<svg width="56" height="56" xmlns="http://www.w3.org/2000/svg"><g fill-rule="nonzero" fill="none"><rect fill="#2367B5" width="56" height="56" rx="28"/><path d="M45.726 33.206c-.251.504-.7 1.206-1.116 1.623H11.312c-.243-.33-.822-1.085-1.073-1.623h35.487m-2.484 3.324c-.415.581-1.038 1.128-1.704 1.5H14.262c-.545-.372-1.081-.919-1.583-1.5h30.563m-3.772 3.08c-2.951 2.204-6.179 3.323-8.628 3.488 0-.91 0-2.16.251-3.488h8.377m9.363-17.294c.25 2.699-.624 5.988-2.276 9.311h-12.27c.45-.79 1.038-1.536 1.695-2.29 3.565-4.192 9.043-6.778 12.85-7.02M25.037 43.097c-2.363-.165-5.599-1.284-8.576-3.488h8.455c.164 1.328.164 2.577.12 3.488m2.943.252c-.952-.911-1.783-2.16-2.648-3.74h5.261c-.83 1.58-1.739 2.829-2.613 3.74m-6.256-11.723H9.408c-1.662-3.323-2.484-6.612-2.241-9.31 3.773.242 9.293 2.828 12.859 7.02.614.754 1.237 1.5 1.696 2.29m11.57 0H22.672c-.164-.954-.164-1.874-.164-2.95 0-5.823 2.57-11.853 5.469-14.552 2.864 2.699 5.478 8.73 5.478 14.552 0 1.076-.087 1.996-.165 2.95" fill="#FFF"/></g></svg>