<svg width="56" height="56" xmlns="http://www.w3.org/2000/svg"><g fill="none" fill-rule="evenodd"><rect fill="#0B1A59" width="56" height="56" rx="28"/><g fill="#FFF"><path d="M29.557 10c.856.167 1.717.313 2.568.503 7.223 1.606 12.912 7.955 13.728 15.314.027.245.017.495.025.743.064.16.137.323-.103.407-.25-.207-.25-.513-.3-.793-.706-3.956-4.093-7.179-8.091-7.634-5.846-.664-10.298 3.444-10.769 8.706-.07.79-.129.846-.893.855-.684.008-1.37-.002-2.054.002-.454.003-.662-.139-.647-.657.077-2.617 1.018-4.896 2.674-6.886 1.852-2.227 4.225-3.635 7.092-4.019 3.913-.524 7.356.519 10.119 3.456.104.11.225.22.256.4-.83-1.271-2.422-2.614-3.82-3.449-1.975-1.18-4.136-1.817-6.402-1.77-4.99.104-8.832 2.304-11.308 6.7-.96 1.706-1.512 3.546-1.502 5.525.002.508-.246.703-.73.7-.706-.005-1.411.007-2.117-.003-.732-.01-.89-.17-.833-.895.135-1.684.447-3.334 1.13-4.89 2.122-4.825 5.748-7.866 10.92-8.904 4.795-.963 9.03.36 12.715 3.519a9.035 9.035 0 0 1 1.565 1.764c.114.229.312.395.37.498-.077-.097-.246-.295-.377-.52-2.735-3.593-6.288-5.906-10.768-6.585a16.019 16.019 0 0 0-16.639 8.457c-1.123 2.16-1.665 4.459-1.843 6.864-.017.224.01.465-.216.617-.779.177-1.568.063-2.351.077-.398.008-.585.135-.54.541-.036.171-.018.378-.266.412-.61-9.234 6.13-17.551 15.249-18.836.347-.049.736.037 1.044-.219h.623a8.826 8.826 0 0 0 2.367 0h.124z"/><path d="M10.15 29.055c.123-.103.094-.248.104-.382.07-.03.128-.015.176.044.145.244.103.524.144.788.71 4.604 4.658 7.91 9.33 8.004 4.213.085 8.45-2.937 9.411-7.696.095-.468.13-.945.19-1.418.056-.435.273-.617.695-.62a108.32 108.32 0 0 1 1.992 0c.793.009.941.16.884.972-.09 1.292-.358 2.55-.884 3.737-1.614 3.645-4.365 5.981-8.254 6.82-3.766.812-7.153-.142-10.089-2.637-.422-.359-.784-.797-1.13-1.237-.18-.297-.43-.55-.59-.862.167.32.411.588.602.892 1.628 1.998 3.533 3.666 6.003 4.493 4.955 1.66 9.466.857 13.331-2.756 2.495-2.332 3.748-5.275 3.932-8.68.033-.609.136-.721.749-.739.684-.02 1.37-.018 2.054 0 .633.016.74.135.76.79.06 1.911-.44 3.714-1.216 5.423-1.911 4.21-5.094 7.066-9.556 8.28-4.844 1.316-9.331.412-13.315-2.72a11.117 11.117 0 0 1-1.758-1.752c-.277-.37-.585-.718-.842-1.105.259.393.57.747.848 1.126 1.446 1.74 3.113 3.216 5.12 4.284a16.182 16.182 0 0 0 6.58 1.883c2.475.17 4.85-.164 7.11-1.136 5.32-2.29 8.574-6.29 9.742-11.98.15-.737.205-1.474.206-2.223.002-.684.175-.847.848-.87.519-.018 1.038-.021 1.556 0 .433.017.74-.071.738-.587 0-.103.059-.197.16-.25.116-.106.09-.247.097-.381.319 2.625-.055 5.18-1.01 7.614-2.525 6.433-7.218 10.415-14.034 11.524-10.085 1.64-18.917-5.342-20.471-14.731-.105-.632-.143-1.274-.213-1.912"/></g></g></svg>