<?xml version="1.0" encoding="UTF-8"?>
<svg width="56px" height="56px" viewBox="0 0 56 56" version="1.1" xmlns="http://www.w3.org/2000/svg" xmlns:xlink="http://www.w3.org/1999/xlink">
    <!-- Generator: Sketch 52.4 (67378) - http://www.bohemiancoding.com/sketch -->
    <title>ALGN</title>
    <desc>Created with Sketch.</desc>
    <g id="ALGN" stroke="none" stroke-width="1" fill="none" fill-rule="evenodd">
        <g>
            <circle id="Oval" stroke="#EAEAEA" fill="#FFFFFF" cx="28" cy="28" r="27.5"></circle>
            <g id="align" transform="translate(5.000000, 18.000000)" fill-rule="nonzero">
                <path d="M10.9841121,13.4560748 C10.9626168,11.3065421 10.9841121,9.17850467 10.9841121,7.02897196 L10.9841121,4.94392523 L8.51214953,4.94392523 L8.51214953,5.93271028 C7.6953271,5.20186916 6.53457944,4.72897196 5.45981308,4.66448598 C3.28878505,4.6 1.44018692,5.80373832 0.623364486,7.88878505 C-0.300934579,10.2962617 0.322429907,13.2196262 2.08504673,14.7028037 C3.71869159,16.0785047 5.84672897,16.164486 7.86728972,14.9607477 C7.97476636,14.8962617 8.29719626,14.7028037 8.51214953,14.6168224 L8.51214953,15.5411215 L10.9841121,15.5411215 L10.9841121,13.4560748 Z M5.61028037,13.6065421 C3.91214953,13.5850467 2.72990654,12.2093458 2.72990654,10.2747664 C2.72990654,8.27570093 3.93364486,6.9 5.69626168,6.92149533 C7.4588785,6.92149533 8.6411215,8.29719626 8.61962617,10.317757 C8.61962617,12.2738318 7.39439252,13.6280374 5.61028037,13.6065421 Z" id="Shape" fill="#46423E"></path>
                <rect id="Rectangle-path" fill="#46423E" x="13.7140187" y="0.193457944" width="2.47196262" height="15.3476636"></rect>
                <rect id="Rectangle-path" fill="#46423E" x="18.9158879" y="4.94392523" width="2.47196262" height="10.5971963"></rect>
                <path d="M45.8495327,11.8439252 C45.8495327,10.6401869 45.8495327,9.45794393 45.7420561,8.27570093 C45.4626168,5.02990654 42.4747664,3.67570093 39.7018692,5.3953271 C39.5514019,5.48130841 39.2074766,5.71775701 39.2074766,5.71775701 L39.2074766,4.94392523 L36.735514,4.94392523 L36.735514,15.5411215 L39.2074766,15.5411215 L39.2074766,14.8747664 C39.2074766,14.788785 39.2074766,14.7028037 39.2074766,14.6168224 C39.2074766,14.4878505 39.2074766,14.3803738 39.2074766,14.2514019 L39.2074766,9.2 C39.2719626,7.71682243 40.0028037,6.92149533 41.271028,6.9 C42.6037383,6.9 43.3560748,7.73831776 43.3775701,9.30747664 C43.3775701,10.2962617 43.3775701,11.371028 43.3990654,12.3813084 L43.3990654,15.5196262 L45.871028,15.5196262 L45.8495327,11.8439252 Z" id="Shape" fill="#46423E"></path>
                <circle id="Oval" fill="#19A3D7" cx="20.1626168" cy="1.56915888" r="1.52616822"></circle>
                <path d="M34.0056075,4.94392523 L31.5336449,4.94392523 L31.5336449,5.84672897 C29.1261682,4.25607477 26.3102804,4.3635514 24.6336449,6.25514019 C22.8065421,8.29719626 22.7420561,11.9728972 24.5046729,14.1009346 C26.1598131,16.1 28.6962617,16.3364486 31.4261682,14.6813084 C31.5766355,16.9598131 30.3084112,18.3140187 28.1588785,18.3570093 C27.3205607,18.3570093 26.5252336,18.1850467 25.7514019,17.9056075 C25.6224299,17.8626168 25.4074766,17.7336449 25.2140187,17.6476636 L24.4186916,19.5392523 C24.4831776,19.6037383 24.5691589,19.646729 24.6551402,19.711215 C24.7196262,19.7542056 24.7841121,19.8186916 24.8700935,19.8616822 C29.0616822,22.2261682 33.8551402,19.5392523 33.9626168,14.7242991 C34.0056075,12.617757 34.0056075,10.5327103 33.9841121,8.42616822 L34.0056075,8.42616822 L34.0056075,4.94392523 Z M28.588785,13.5850467 C26.8691589,13.5420561 25.7084112,12.1233645 25.7514019,10.1028037 C25.7943925,8.1682243 27.0196262,6.85700935 28.7392523,6.9 C30.5018692,6.92149533 31.6626168,8.31869159 31.6411215,10.3392523 C31.6196262,12.3168224 30.3943925,13.6495327 28.588785,13.5850467 Z" id="Shape" fill="#46423E"></path>
            </g>
        </g>
    </g>
</svg>