<svg width="56" height="56" xmlns="http://www.w3.org/2000/svg"><g fill="none" fill-rule="evenodd"><circle fill="#003483" cx="28" cy="28" r="28"/><path d="M42.37 27.827c.03-8.553-6.006-14.74-14.416-14.776-8.461-.036-14.59 6.073-14.619 14.572-.028 8.572 5.982 14.72 14.42 14.75 8.506.03 14.583-6.02 14.614-14.546m3.467.072c-.027 10.2-7.683 17.827-17.88 17.815-10.207-.012-17.832-7.657-17.817-17.863.015-10.192 7.684-17.849 17.865-17.834 10.172.014 17.86 7.723 17.832 17.882" fill="#FFF"/><path d="M27.899 42.975c-8.703-.03-14.903-6.31-14.874-15.066.03-8.682 6.352-14.92 15.08-14.884 8.676.037 14.901 6.356 14.87 15.092-.032 8.71-6.301 14.888-15.076 14.858z" fill="#003483"/><path d="M23.334 20.61c-1.087 0-2.08-.01-3.072.002-1.357.017-2.05.74-2.056 2.072-.016 4.733-.001 9.465-.02 14.197-.002.75.242 1.112 1.041 1.09 1.306-.036 2.613-.01 4.107-.01V20.61zM32.877 37.964c1.487 0 2.697-.06 3.898.017 1.08.07 1.374-.363 1.364-1.394-.044-4.431-.01-8.863-.022-13.295-.006-2.184-.497-2.663-2.662-2.688-.353-.004-1.905.008-2.604 0v1.498c.071 4.027.027 8.057.026 12.085v3.777zM30.821 37.871v-5.938c0-4.282.01-8.564-.005-12.846-.005-1.554-.91-2.476-2.715-2.768h-3.658v2.26c1.258.287 1.042 1.2 1.044 2.014.015 5.139.008 10.277.008 15.415v1.863h5.326z" fill="#FFF"/></g></svg>