<?xml version="1.0" encoding="UTF-8"?>
<svg width="56px" height="56px" viewBox="0 0 56 56" version="1.1" xmlns="http://www.w3.org/2000/svg" xmlns:xlink="http://www.w3.org/1999/xlink">
    <title>AMC</title>
    <g id="AMC" stroke="none" stroke-width="1" fill="none" fill-rule="evenodd">
        <g id="Amc_theatres_logo" fill-rule="nonzero">
            <circle id="Oval" fill="#CE2540" cx="27.9858586" cy="27.9858586" r="27.9858586"></circle>
            <g id="Group" transform="translate(4.383838, 21.777778)" fill="#FFFFFF">
                <path d="M46.9919192,10.5494949 C46.9070707,10.4080808 46.7939394,10.2808081 46.6383838,10.210101 C46.4969697,10.1252525 46.3272727,10.0828283 46.1717172,10.0828283 C46.0161616,10.0828283 45.8464646,10.1252525 45.7050505,10.210101 C45.5636364,10.2949495 45.4363636,10.4080808 45.3515152,10.5494949 C45.2666667,10.6909091 45.2242424,10.8606061 45.2242424,11.0161616 C45.2242424,11.1858586 45.2666667,11.3414141 45.3515152,11.4969697 C45.4363636,11.6383838 45.5494949,11.7656566 45.7050505,11.8363636 C45.8464646,11.9212121 46.0020202,11.9636364 46.1717172,11.9636364 C46.3414141,11.9636364 46.4969697,11.9212121 46.6383838,11.8363636 C46.779798,11.7515152 46.8929293,11.6383838 46.9919192,11.4969697 C47.0767677,11.3555556 47.1191919,11.1858586 47.1191919,11.0161616 C47.1191919,10.8606061 47.0767677,10.6909091 46.9919192,10.5494949 L46.9919192,10.5494949 Z M46.8646465,11.4262626 C46.7939394,11.5535354 46.6949495,11.6525253 46.5676768,11.7090909 C46.440404,11.779798 46.3131313,11.8080808 46.1717172,11.8080808 C46.030303,11.8080808 45.9030303,11.779798 45.7757576,11.7090909 C45.6484848,11.6383838 45.5494949,11.5393939 45.4787879,11.4262626 C45.4080808,11.2989899 45.3656566,11.1717172 45.3656566,11.0161616 C45.3656566,10.8747475 45.4080808,10.7333333 45.4787879,10.620202 C45.5494949,10.4929293 45.6484848,10.3939394 45.7757576,10.3232323 C45.9030303,10.2525253 46.030303,10.210101 46.1717172,10.210101 C46.3131313,10.210101 46.440404,10.2525253 46.5676768,10.3232323 C46.6949495,10.3939394 46.7939394,10.4929293 46.8646465,10.620202 C46.9353535,10.7474747 46.9777778,10.8747475 46.9777778,11.0161616 C46.9636364,11.1717172 46.9353535,11.2989899 46.8646465,11.4262626 L46.8646465,11.4262626 Z" id="Shape"></path>
                <path d="M13.3212121,0.41010101 C13.2222222,0.395959596 10.789899,0.0565656566 7.97575758,1.04646465 C5.35959596,1.96565657 1.85252525,4.2 0.197979798,9.71515152 C-0.0848484848,10.6484848 0.197979798,11.9070707 2.13535354,11.7373737 L9.36161616,11.7373737 C10.1676768,11.7373737 10.8323232,11.0868687 10.8323232,10.2666667 C10.8323232,9.46060606 10.1676768,8.7959596 9.36161616,8.7959596 L3.67676768,8.7959596 C5.82626263,4.21414141 9.64444444,3.37979798 11.6383838,3.28080808 L11.6383838,10.3232323 C11.6383838,11.1292929 12.2888889,11.7939394 13.1090909,11.7939394 C13.9151515,11.7939394 14.579798,11.1434343 14.579798,10.3232323 L14.579798,1.86666667 C14.579798,1.13131313 14.0424242,0.509090909 13.3212121,0.41010101 L13.3212121,0.41010101 Z" id="Path"></path>
                <path d="M28.169697,0.395959596 C28.240404,0.395959596 28.1838384,0.395959596 28.169697,0.395959596 C28.1272727,0.395959596 28.0707071,0.395959596 28.1414141,0.395959596 C28.1414141,0.395959596 28.1414141,0.395959596 28.169697,0.395959596 C28.169697,0.395959596 28.169697,0.395959596 28.169697,0.395959596 L28.169697,0.395959596 Z" id="Path"></path>
                <path d="M28.1555556,0.395959596 C26.3171717,0.438383838 25.1151515,1.03232323 24.2525253,1.96565657 C23.4747475,1.1030303 22.1454545,0.381818182 20.3494949,0.395959596 C18.3414141,0.254545455 14.8626263,2.06464646 15.1171717,5.33131313 L15.1171717,10.3232323 C15.1171717,11.1292929 15.7676768,11.7939394 16.5878788,11.7939394 C17.4080808,11.7939394 18.0585859,11.1434343 18.0585859,10.3232323 L18.0585859,5.34545455 C18.0727273,3.62020202 19.9252525,3.35151515 20.3494949,3.33737374 C22.4424242,3.28080808 22.7535354,5.09090909 22.7535354,5.34545455 L22.7535354,10.3232323 C22.7535354,11.1292929 23.4464646,11.7939394 24.2525253,11.7939394 C25.0585859,11.7939394 25.7515152,11.1434343 25.7515152,10.3232323 L25.7515152,5.34545455 C25.8363636,3.50707071 27.5757576,3.30909091 28.1555556,3.33737374 C28.4949495,3.36565657 30.3474747,3.46464646 30.4464646,5.34545455 L30.4464646,10.3232323 C30.4464646,11.1292929 31.0969697,11.7939394 31.9171717,11.7939394 C32.7232323,11.7939394 33.3878788,11.1434343 33.3878788,10.3232323 L33.3878788,5.33131313 C33.4444444,5.04848485 33.2181818,0.551515152 28.1555556,0.395959596 L28.1555556,0.395959596 Z" id="Path"></path>
                <path d="M45.0121212,7.01414141 C44.2909091,6.64646465 43.4,6.92929293 43.0323232,7.66464646 C42.4808081,8.73939394 41.3919192,9.4040404 40.189899,9.4040404 C39.3414141,9.4040404 38.5353535,9.07878788 37.9414141,8.47070707 C37.3333333,7.86262626 37.0080808,7.07070707 37.0080808,6.22222222 C37.0080808,5.37373737 37.3333333,4.56767677 37.9414141,3.97373737 C38.5494949,3.36565657 39.3414141,3.04040404 40.189899,3.04040404 C41.4767677,3.04040404 42.6505051,3.76161616 43.1030303,4.82222222 C43.4282828,5.57171717 44.2909091,5.91111111 45.040404,5.58585859 C45.789899,5.26060606 46.1292929,4.3979798 45.8040404,3.64848485 C44.8848485,1.52727273 42.6222222,0.098989899 40.189899,0.098989899 C36.810101,0.098989899 34.0666667,2.84242424 34.0666667,6.22222222 C34.0666667,7.86262626 34.7030303,9.38989899 35.8626263,10.5494949 C37.0222222,11.7090909 38.5494949,12.3454545 40.189899,12.3454545 C42.5090909,12.3454545 44.6020202,11.0585859 45.6484848,8.99393939 C46.030303,8.25858586 45.7333333,7.36767677 45.0121212,7.01414141 L45.0121212,7.01414141 Z" id="Path"></path>
                <path d="M46.5667523,11.2565657 C46.5159048,11.1717172 46.4650574,11.1151515 46.4142099,11.0868687 C46.4989557,11.0585859 46.5837014,11.0020202 46.6175997,10.9454545 C46.6684472,10.8888889 46.6853963,10.8181818 46.6853963,10.7616162 C46.6853963,10.7050505 46.6684472,10.6484848 46.6345489,10.6060606 C46.6006506,10.5494949 46.5498031,10.5212121 46.4989557,10.4929293 C46.4481082,10.4646465 46.3633624,10.4505051 46.2447184,10.4505051 L45.8040404,10.4505051 L45.8040404,11.610101 L46.0243794,11.610101 L46.0243794,11.1151515 L46.1938709,11.1151515 C46.2108201,11.1151515 46.2616675,11.1575758 46.312515,11.2282828 L46.3633624,11.2989899 L46.5498031,11.5959596 L46.8040404,11.5959596 L46.5667523,11.2565657 L46.5667523,11.2565657 Z M46.1769218,10.9737374 L46.0243794,10.9737374 L46.0243794,10.5777778 L46.1938709,10.5777778 C46.2786167,10.5777778 46.3294641,10.5919192 46.3633624,10.6060606 C46.3972607,10.620202 46.4142099,10.6484848 46.431159,10.6767677 C46.4481082,10.7050505 46.4481082,10.7333333 46.4481082,10.7616162 C46.4481082,10.8181818 46.431159,10.8606061 46.3803116,10.9030303 C46.3464133,10.959596 46.2786167,10.9737374 46.1769218,10.9737374 L46.1769218,10.9737374 Z" id="Shape"></path>
            </g>
        </g>
    </g>
</svg>