<?xml version="1.0" encoding="UTF-8"?>
<svg width="56px" height="56px" viewBox="0 0 56 56" version="1.1" xmlns="http://www.w3.org/2000/svg" xmlns:xlink="http://www.w3.org/1999/xlink">
    <title>AZN</title>
    <g id="AZN" stroke="none" stroke-width="1" fill="none" fill-rule="evenodd">
        <circle id="Oval" stroke="#EAEAEA" fill="#FFFFFF" cx="28" cy="28" r="27.5"></circle>
        <path d="M28.3193983,36.9321408 C27.9354199,37.1881263 27.5514416,37.4441119 27.1674632,37.7000975 C22.6877158,35.2042382 13.088257,30.4045088 12.2563039,30.0205304 C11.3603545,29.5725557 9.82444106,28.9325918 10.0164302,27.4606748 C10.2724158,25.4127902 13.9202101,20.8690464 15.4561235,18.9491547 C23.7756545,8.83772474 27.4874452,5.70190154 29.9193081,6.0218835 C32.5431602,6.34186546 34.0150772,9.09371031 34.2070664,21.7649959 C32.7351493,21.3170212 31.1352395,20.8690464 29.407337,20.4210717 C29.2793442,18.5651763 28.8953658,15.8133315 28.767373,14.8533856 C28.6393803,13.7654469 28.3833947,13.3814686 27.9994163,13.3174722 C27.4874452,13.2534758 26.2715138,14.4054108 25.1835751,15.5573459 C24.671604,16.069317 23.2636833,17.4772376 21.7277699,19.0771474 C20.4478421,19.013151 19.5518926,19.2691366 19.1039179,19.9091005 C18.7199395,20.4210717 18.6559431,21.125032 18.8479323,22.0209815 C18.0159792,22.8529346 17.3120189,23.5568949 16.8000478,24.068866 C15.0721452,25.7967686 13.2162498,27.2046892 13.1522534,27.9086495 C13.088257,28.484617 13.9202101,29.0605846 15.200138,29.8285413 C18.143972,31.4284511 25.6315498,35.5242201 28.3193983,36.9321408 Z M39.9667416,24.2608552 C37.0229076,23.2369129 29.7913153,20.5490645 22.1757447,19.5251222 C19.5518926,19.2051402 18.5279503,20.1010897 19.5518926,22.596949 C20.6398313,25.0928083 23.3916761,29.1885774 26.2715138,32.3244006 C29.1513514,35.3962274 32.2871746,36.2281805 33.3111169,31.4924475 C33.3751133,31.3004583 33.3751133,31.1724655 33.4391096,30.9804763 C33.6950952,29.7645449 33.8870844,28.5486134 33.9510808,27.5246712 C32.6711529,26.9487036 31.1992359,26.3087397 29.7913153,25.7327722 C29.8553117,26.8207109 29.9833045,28.7406026 30.0473009,30.1485232 C30.0473009,30.3405124 30.0473009,30.5325016 30.0473009,30.6604944 C30.1112973,33.0283609 29.3433406,33.0283609 27.9994163,32.068415 C26.4635029,30.9804763 21.6637735,24.6448335 21.087806,21.8289923 C21.087806,21.6370031 21.1518024,21.6370031 21.2157988,21.7009995 C21.2797952,21.7009995 21.2797952,21.7009995 21.3437916,21.7649959 C21.3437916,21.7649959 21.3437916,21.7649959 21.3437916,21.7649959 L21.3437916,21.7649959 C22.4317303,22.2129706 26.0155282,23.6208913 29.6633225,25.1568047 C31.1352395,25.7967686 32.6071566,26.3727361 33.8870844,27.0127 C35.1670122,27.5886676 36.3189473,28.1646351 37.2148968,28.6126098 C38.8148066,29.4445629 39.3907741,30.0205304 38.7508102,30.7244908 C35.4869942,34.0523031 23.9676437,38.7880361 19.9998674,44.6757042 C19.9998674,44.6757042 19.9998674,44.6757042 19.935871,44.7397006 C19.8718746,44.803697 19.8718746,44.8676934 19.8078782,44.9316897 C19.8078782,44.9316897 19.8078782,44.9956861 19.7438818,44.9956861 C19.5518926,45.3796645 19.2959071,45.955632 19.1679143,46.7235887 C18.9759251,48.0035166 19.6798854,49.1554516 21.5357808,49.6674227 C21.9837555,49.7954155 22.4957266,49.9234083 23.0716942,49.9874047 C23.199687,49.9874047 23.2636833,49.9874047 23.3916761,49.9874047 C26.9114777,50.1793939 36.1269581,48.1315093 38.878803,46.9155779 C41.7586406,45.6356501 40.9266875,44.3557222 40.0947344,43.7157583 C39.4547705,43.2037872 36.2549509,41.4118882 34.7190375,40.5799351 C34.2710627,40.8359207 33.9510808,41.0279098 33.5671024,41.3478918 C36.1909545,42.9478016 37.2788932,43.7797547 37.9188571,44.2277294 C38.1748426,44.4197186 38.0468499,44.6117078 37.6628715,44.6757042 C37.5988751,44.6757042 37.4708823,44.6757042 37.4068859,44.6757042 C34.9110267,44.8676934 30.1112973,45.1876753 27.8714236,45.3156681 C27.5514416,45.3156681 27.1674632,45.3796645 26.9754741,45.3796645 C27.5514416,44.8676934 28.1274091,44.4197186 28.4473911,44.163733 C33.2471205,40.7719243 41.2466695,36.0361913 43.614536,33.9883067 C45.4064349,32.3883969 50.1421679,27.7806567 39.9667416,24.2608552 Z" id="Shape" fill="#FCAF17" fill-rule="nonzero"></path>
    </g>
</svg>