<svg width="56" height="56" xmlns="http://www.w3.org/2000/svg"><g fill="none" fill-rule="evenodd"><rect fill="#014DA2" width="56" height="56" rx="28"/><g transform="translate(12 12)"><path d="M21.106 13.893c0-3.669-1.873-6.899-4.712-8.79A75.624 75.624 0 0 1 21.864 0c-2.283 1.343-4.745 2.915-6.73 4.577-1.464-.77-2.812-1.238-4.58-1.238C4.724 3.339 0 8.063 0 13.893c0 2.632.967 5.036 2.56 6.885-2.021 4.368-2.377 7.883-.595 9.071 1.906 1.27 6.053-1.033 8.542-4.787 0 0-3.85 3.471-5.961 2.675-1.305-.493-1.307-2.482-.234-5.337a10.505 10.505 0 0 0 6.242 2.045c2.89 0 5.508-1.163 7.414-3.045l.376.705c4.6-.374 17.201-.705 17.201-.705 0-.664-7.963-.094-15.423-3.058.63-1.352.984-2.86.984-4.45zm-20.31 0c0-5.389 4.37-9.758 9.758-9.758 1.52 0 2.642.379 3.925 1C9.08 9.81 5.266 15.305 2.939 19.99a9.713 9.713 0 0 1-2.143-6.097zm16.78 6.77a9.732 9.732 0 0 1-7.022 2.988 9.726 9.726 0 0 1-5.937-2.016c1.799-4.28 5.75-10.205 11.213-15.947a9.743 9.743 0 0 1 4.48 8.205 9.706 9.706 0 0 1-.924 4.142c-1.783-.778-3.45-1.777-4.844-3.063l3.033 5.69z" fill="#FFF"/><circle stroke="#FFF" stroke-width="2" cx="10.528" cy="13.925" r="9.528"/></g></g></svg>