<svg width="56" height="56" xmlns="http://www.w3.org/2000/svg"><g fill="none" fill-rule="evenodd"><rect fill="#F37938" width="56" height="56" rx="28"/><path d="M11.694 35.47a1.588 1.588 0 0 1-.632-.317c-1.815-1.775.514-3.828 3.158-5.011v-3.355c.63.355.947.395.986.474l2.052-2.052-.67-1.736c5.958-2.092 8.366-2.881 13.22-3.71l-.87-.828 1.461-.83c3.236 1.106 6.314 1.382 5.761 4.144.158-1.855-2.13-2.565-5.682-3.59l-.67.433 1.301 1.066c-5.8 1.026-9.392 2.17-13.654 3.67l.592 1.5-2.13 2.13c.354.08 4.064 1.381 7.931-1.38.04 0 .08-.04.08-.08-.12-.197-.356-.394-.672-.67 1.105.078 1.856 1.104 1.698 2.13h-.514c.08-.316 0-.71-.158-.947-2.96 2.21-6.471 2.526-9.431 1.5v2.605c-1.421.512-4.026 2.09-3.986 3.63.08.75.473 1.026.829 1.223" fill="#231F20"/><path d="M23.848 34.798c-3.236 1.658-6.313 2.96-11.05 3.157-6.155-.118-7.142-4.261-4.221-8.603 2.762-4.38 7.142-8.286 14.127-10.773 2.012-.71 5.012-1.539 7.853-1.578 4.143-.04 8.129 1.263 7.892 5.248-.157 3.039-4.538 7.34-6.826 10.457-.987 1.343-1.145 2.21.512 2.132 6.117-.395 11.642-2.526 16.772-4.736-3.473 2.368-21.428 11.366-21.507 5.21.04-.75.394-1.58.947-2.447.592-.868 1.381-1.816 2.21-2.723 1.223-1.421 4.262-4.775 5.249-6.827 1.736-3.828-2.132-4.025-5.407-5.209l-1.46.828.868.829c-4.854.829-7.261 1.618-13.22 3.71l.672 1.736-2.053 2.052c-.04-.08-.355-.118-.987-.473v3.354c-2.643 1.183-4.972 3.236-3.157 5.012.198.157.435.276.632.315 3.275 1.855 12.154-.67 12.154-.67" fill="#FFF"/></g></svg>