<svg width="56" height="56" xmlns="http://www.w3.org/2000/svg"><g fill="none" fill-rule="evenodd"><rect fill="#E31837" width="56" height="56" rx="28"/><g fill="#FFF"><path d="M22.817 22.431a73.106 73.106 0 0 1 3.84 1.646 85.125 85.125 0 0 0-11.628 5.79 73.043 73.043 0 0 0-3.822-1.865 80.42 80.42 0 0 1 11.61-5.571M18.021 20.737A66.518 66.518 0 0 0 6 25.896c1.216.44 2.422.908 3.61 1.41a68.548 68.548 0 0 1 11.667-5.46 72.97 72.97 0 0 0-3.256-1.109M31.546 22.268a70.804 70.804 0 0 0-10.203-3.995 70.712 70.712 0 0 0-3.668 1.164 70.894 70.894 0 0 1 10.503 4.042 83.52 83.52 0 0 1 3.368-1.211M36.906 20.67A77.11 77.11 0 0 0 26.516 17a72.942 72.942 0 0 0-3.372.782A70.816 70.816 0 0 1 33.41 21.67a83.763 83.763 0 0 1 3.496-1M45.513 23.561a90.663 90.663 0 0 0-23.482 11.96 84.719 84.719 0 0 1 5.229 3.49 95.123 95.123 0 0 1 22.265-13.178 79.427 79.427 0 0 0-4.012-2.272M39.713 20.806A82.327 82.327 0 0 0 15.27 31.794a80.811 80.811 0 0 1 4.93 2.64 85.211 85.211 0 0 1 23.986-11.557 77.93 77.93 0 0 0-4.473-2.071"/></g></g></svg>