<svg width="56" height="56" xmlns="http://www.w3.org/2000/svg"><g fill="none" fill-rule="evenodd"><rect fill="#00BAFF" width="56" height="56" rx="28"/><g fill="#FFF"><path d="M48.726 29.126c.012.343-.034.683-.067 1.022-.048.5-.118.997-.205 1.49-.132.746-.302 1.482-.512 2.208a20.835 20.835 0 0 1-1.594 3.95 21.015 21.015 0 0 1-10.63 9.64 20.362 20.362 0 0 1-5.389 1.379c-.573.065-1.147.104-1.724.129-.591.025-1.182.018-1.772-.012-.8-.041-1.597-.13-2.389-.262a20.617 20.617 0 0 1-7.4-2.767 20.68 20.68 0 0 1-2.872-2.116A20.95 20.95 0 0 1 7.056 29.2c-.011-.194.007-.39-.035-.582V27.36c.023-.123.006-.248.01-.372.002-.052 0-.104.015-.155.068-.053.058.021.06.044l.022.26c.09 1.188.293 2.356.588 3.509.29 1.14.68 2.244 1.16 3.318.378.85.812 1.67 1.301 2.46a20.782 20.782 0 0 0 2.932 3.722 20.885 20.885 0 0 0 5.85 4.167 20.755 20.755 0 0 0 5.795 1.782c.136.021.274.046.413.052.01.001.021.004.032.007.097.014.194.031.293.033.191.04.387.036.58.057.751.079 1.505.102 2.259.083a18.82 18.82 0 0 0 3.34-.39 17.879 17.879 0 0 0 3.242-1.014 18.069 18.069 0 0 0 4.823-2.981c.44-.377.865-.768 1.263-1.188.482-.509.944-1.036 1.37-1.593.417-.547.805-1.114 1.16-1.703a17.75 17.75 0 0 0 1.073-2.071 18.103 18.103 0 0 0 1.41-5.112c.061-.51.1-1.02.126-1.533.023-.44.023-.88.01-1.32a18.006 18.006 0 0 0-.092-1.335 18.485 18.485 0 0 0-.508-2.79 18.263 18.263 0 0 0-3.787-7.227c-.361-.422-.734-.832-1.132-1.218a18.99 18.99 0 0 0-2.323-1.924 17.964 17.964 0 0 0-2.341-1.392 18.24 18.24 0 0 0-4.973-1.626 15.62 15.62 0 0 0-.753-.113c-.035-.005-.08.004-.093-.048.05-.047.112-.03.168-.023a20.76 20.76 0 0 1 11.25 4.978c.406.351.8.714 1.176 1.098a21.26 21.26 0 0 1 2.248 2.697 21.107 21.107 0 0 1 2.611 5.066 20.841 20.841 0 0 1 1.097 4.949c.019.203.04.407.03.612"/><path d="M25.182 46.17c-.333-.02-.659-.087-.986-.145a20.661 20.661 0 0 1-7.878-3.19 20.738 20.738 0 0 1-2.538-2.003 20.92 20.92 0 0 1-6.63-13.128c-.031-.266-.046-.535-.069-.802-.002-.03-.01-.061-.014-.092-.05-.077-.026-.163-.022-.243.026-.456.073-.91.134-1.364a21.006 21.006 0 0 1 .952-4.053c.232-.674.497-1.334.796-1.981.454-.985.98-1.93 1.58-2.832a20.59 20.59 0 0 1 2.35-2.922 20.555 20.555 0 0 1 3.035-2.615 21.034 21.034 0 0 1 5.364-2.722 21.068 21.068 0 0 1 3.082-.782 19.668 19.668 0 0 1 1.623-.215c.394-.036.79-.054 1.186-.05.027 0 .056.01.08-.01h1.337c.024.02.053.01.08.01.857-.007 1.706.09 2.551.224 1.054.167 2.088.414 3.103.743a20.964 20.964 0 0 1 5.31 2.598 20.424 20.424 0 0 1 2.818 2.308c.87.83 1.648 1.74 2.356 2.712.56.767 1.063 1.57 1.513 2.409a20.894 20.894 0 0 1 2.45 8.532c.014.233.021.468.015.702 0 .033-.011.07.01.101v1.28c-.034.11-.012.224-.023.335-.005.05.009.104-.02.15l-.081-.82a17.591 17.591 0 0 0-.215-1.51 20.925 20.925 0 0 0-4.057-9.082 20.798 20.798 0 0 0-2.55-2.747 20.872 20.872 0 0 0-5.393-3.522 20.663 20.663 0 0 0-4.007-1.334c-.676-.151-1.36-.27-2.049-.346-.076-.008-.151-.02-.228-.019-.043.042-.098.034-.148.024-.41-.08-.828-.076-1.243-.102-.362-.024-.723-.018-1.084-.017-.49.001-.978.034-1.467.077-.704.063-1.4.17-2.092.317-.923.196-1.828.46-2.71.802-.597.231-1.185.485-1.755.779a18.35 18.35 0 0 0-3.48 2.317c-.459.39-.904.796-1.324 1.229a19.031 19.031 0 0 0-1.388 1.604 18.203 18.203 0 0 0-3.695 9.083c-.052.458-.084.917-.108 1.377a16.762 16.762 0 0 0 .063 2.447 18.209 18.209 0 0 0 2.864 8.282 18.69 18.69 0 0 0 1.53 2.04c.34.394.69.777 1.065 1.136a19.182 19.182 0 0 0 2.387 1.963c.736.506 1.5.965 2.3 1.358a18.09 18.09 0 0 0 3.468 1.288c.563.145 1.131.265 1.705.358.05.008.124-.016.147.064" opacity=".808"/><path d="M11.266 27.898c0-.93.002-1.86-.002-2.789 0-.092.023-.115.115-.115 1.273.003 2.547 0 3.82.003 1.032.001 1.8.86 1.693 1.892a1.59 1.59 0 0 1-.335.823c-.036.047-.04.071.004.12.455.509.6 1.099.39 1.749-.212.649-.673 1.042-1.339 1.187a1.457 1.457 0 0 1-.31.031c-1.312 0-2.624 0-3.935.002-.083 0-.103-.022-.103-.104.003-.933.002-1.866.002-2.8zm2.654 1.66c.396 0 .793.004 1.189-.001a.546.546 0 0 0 .556-.567c-.005-.309-.248-.54-.571-.54-.786 0-1.571.002-2.357-.001-.075 0-.1.015-.099.096.006.307.005.614 0 .922 0 .074.021.093.094.093.396-.004.792-.002 1.188-.002zm-.018-3.314v-.002c-.39 0-.779.002-1.168-.001-.07-.001-.096.016-.095.092.005.265.003.53.001.796 0 .053.006.082.072.082.782-.002 1.564 0 2.346-.003.166-.001.301-.08.393-.22a.477.477 0 0 0-.381-.742c-.39-.01-.779-.002-1.168-.002zM25.283 13.938c0-.93 0-1.858-.002-2.788 0-.083.015-.11.105-.11 1.27.003 2.54 0 3.809.002.866.002 1.543.557 1.696 1.402.086.477-.025.915-.315 1.304-.042.056-.04.082.006.135.47.533.601 1.145.356 1.81-.244.661-.742 1.034-1.437 1.137-.092.013-.187.01-.28.01-1.277 0-2.554 0-3.83.003-.098 0-.11-.03-.11-.117.003-.93.002-1.859.002-2.788zm2.67 1.66l1.147-.001a.546.546 0 0 0 .577-.605.544.544 0 0 0-.557-.5c-.793-.003-1.586 0-2.379-.003-.073 0-.085.027-.084.091.002.311.003.622 0 .933-.002.069.018.087.086.086.403-.003.807-.001 1.21-.001zm-.046-2.348v-.001c.39 0 .779.003 1.168-.001a.478.478 0 0 0 .469-.478.48.48 0 0 0-.473-.485c-.779-.003-1.557 0-2.336-.003-.067 0-.08.023-.078.084.003.265.004.53-.001.796-.001.076.024.09.094.09.386-.004.771-.002 1.157-.002zM31.534 45.017h-.099c-.487 0-.974-.001-1.46.002-.068 0-.106-.022-.145-.074-.51-.686-1.022-1.369-1.531-2.055a.177.177 0 0 0-.163-.08c-.46.003-.919.003-1.378 0-.079-.001-.104.016-.104.101.004.667 0 1.335.004 2.002 0 .078-.014.108-.1.107a56.235 56.235 0 0 0-1.19-.001c-.068 0-.087-.017-.087-.087.002-1.876.002-3.752 0-5.628 0-.072.023-.086.089-.085 1.255.001 2.511-.005 3.767.003a1.777 1.777 0 0 1 1.737 1.413 1.801 1.801 0 0 1-.99 2.007c-.071.035-.072.056-.028.115.536.718 1.07 1.438 1.603 2.157l.075.103zm-3.652-4.553c-.379 0-.758.002-1.136-.002-.074 0-.092.021-.091.093.004.308.004.615 0 .922-.001.075.023.093.094.093.327-.004.654-.002.98-.002.414 0 .828.005 1.241-.002.333-.005.573-.244.571-.554-.002-.315-.249-.547-.585-.548h-1.074zM25.283 34.94c0-.93 0-1.859-.002-2.788 0-.085.01-.118.11-.118 1.67.004 3.34.004 5.01 0 .087 0 .107.024.106.11-.005.342-.005.685 0 1.027.001.085-.017.11-.106.11-1.208-.004-2.415-.001-3.622-.005-.103 0-.128.027-.124.127.007.244.007.49 0 .734-.004.097.029.112.116.112 1.159-.004 2.317-.002 3.476-.006.093 0 .123.02.122.119-.007.342-.006.685 0 1.027 0 .086-.027.104-.107.103-1.155-.002-2.31-.001-3.465-.001-.14 0-.14 0-.14.146 0 .283.004.566-.002.849-.002.086.02.11.108.11 1.207-.004 2.414-.001 3.621-.005.104 0 .125.028.123.127-.006.338-.006.678 0 1.016.002.09-.026.107-.11.107-1.667-.003-3.333-.003-5 0-.101.001-.116-.032-.116-.122.003-.926.002-1.852.002-2.779M32.284 27.896c0-.93 0-1.86-.002-2.788 0-.087.013-.118.11-.118 1.67.004 3.34.003 5.01 0 .083 0 .113.016.111.107-.005.346-.005.692 0 1.038.001.085-.025.103-.106.103-1.206-.002-2.413 0-3.62-.004-.105 0-.135.024-.131.13.009.245.007.49 0 .734-.002.089.025.109.11.109 1.162-.003 2.324 0 3.486-.005.102 0 .125.026.123.126-.007.332-.006.664 0 .995.002.098-.017.128-.122.128-1.158-.005-2.316-.002-3.475-.006-.103 0-.124.029-.122.127.007.293.006.587 0 .88-.001.086.026.103.106.103 1.207-.002 2.414 0 3.62-.004.106 0 .134.025.132.131-.008.343-.005.685-.002 1.028 0 .067-.017.088-.087.088-1.684-.002-3.367-.002-5.05 0-.088 0-.093-.034-.093-.104.002-.933.002-1.866.002-2.798M43.364 28.517l1.693 2.28h-.434c-.369 0-.738-.003-1.107.001-.076 0-.125-.02-.172-.084-.506-.684-1.017-1.364-1.523-2.048a.185.185 0 0 0-.172-.085c-.275.005-.55.005-.825 0-.078-.001-.099.02-.099.1.004.667 0 1.334.005 2.002 0 .093-.025.116-.116.114a47.622 47.622 0 0 0-1.158 0c-.08 0-.106-.016-.105-.102.002-1.866.002-3.732 0-5.598 0-.076.012-.107.1-.107 1.123.004 2.247 0 3.37.003.936.002 1.663.631 1.809 1.558.128.816-.377 1.648-1.175 1.934l-.091.032zm-1.585-1.176h.918c.326-.002.565-.23.57-.542a.542.542 0 0 0-.562-.56c-.633-.005-1.265-.001-1.898-.004-.067 0-.081.023-.08.085.002.314.003.629-.001.943-.001.068.022.08.083.08.324-.004.647-.002.97-.002zM24.911 30.796c-.476 0-.942 0-1.407.002-.06 0-.076-.034-.096-.076-.131-.273-.265-.545-.393-.82-.026-.055-.056-.074-.117-.074-1.022.002-2.045.002-3.068 0-.066 0-.096.022-.124.08-.127.275-.262.547-.392.82-.02.045-.043.07-.1.07-.462-.003-.925-.002-1.388-.002-.017-.037.01-.06.023-.086l2.804-5.64c.03-.059.062-.08.127-.079.39.003.78.002 1.169 0 .053 0 .087.01.114.064l2.834 5.698c.005.009.006.019.014.043zm-3.549-4.318l-1.01 2.097c.026.004.04.008.053.008.63 0 1.259-.001 1.888.002.088 0 .068-.033.043-.084l-.658-1.365-.316-.658zM31.446 23.752c-.477 0-.94-.002-1.402.002-.062 0-.084-.028-.106-.076-.13-.273-.264-.545-.392-.82-.026-.055-.056-.074-.117-.074-1.023.002-2.046.002-3.069 0-.067 0-.096.023-.123.08-.127.272-.26.541-.388.811-.022.047-.042.08-.105.079-.462-.004-.925-.002-1.387-.002-.017-.039.01-.062.023-.088.934-1.878 1.87-3.755 2.802-5.634.031-.063.066-.083.134-.082.386.003.773.002 1.159 0 .057 0 .093.012.121.069.94 1.892 1.882 3.784 2.824 5.675.008.015.014.031.026.06zm-3.562-4.298c-.324.672-.645 1.34-.969 2.008-.04.082-.004.082.06.082.609-.001 1.217-.003 1.826 0 .092.001.101-.016.061-.098-.31-.639-.617-1.28-.925-1.92-.012-.023-.016-.054-.053-.072zM31.505 24.993c-.033.044-.054.075-.077.104-.925 1.193-1.849 2.386-2.775 3.577a.314.314 0 0 0-.073.208c.003.605 0 1.21.004 1.813 0 .085-.023.104-.104.103a52.732 52.732 0 0 0-1.18 0c-.079.001-.096-.021-.096-.098.003-.608 0-1.216.004-1.824a.286.286 0 0 0-.066-.19c-.937-1.205-1.872-2.412-2.807-3.618l-.043-.06c.023-.029.053-.015.078-.015.49 0 .98.001 1.47-.002.068 0 .107.022.146.075.607.82 1.216 1.64 1.825 2.46l.082.108.215-.287c.563-.759 1.126-1.517 1.688-2.277.04-.055.082-.08.153-.08.511.004 1.023.003 1.556.003"/></g></g></svg>