<?xml version="1.0" encoding="UTF-8"?>
<svg width="56px" height="56px" viewBox="0 0 56 56" version="1.1" xmlns="http://www.w3.org/2000/svg" xmlns:xlink="http://www.w3.org/1999/xlink">
    <title>BB</title>
    <g id="BB" stroke="none" stroke-width="1" fill="none" fill-rule="evenodd">
        <g id="g27">
            <circle id="Oval" fill="#121212" cx="28" cy="28" r="28"></circle>
            <path d="M21.451,17.896 C21.451,16.632 20.677,15.032 17.424,15.032 C16.089,15.032 12.415,15.032 12.415,15.032 L10.991,21.62 C10.991,21.62 13.698,21.62 16.213,21.62 C20.29,21.62 21.451,19.69 21.451,17.896 L21.451,17.896 Z" id="path29" fill="#FFFFFF" fill-rule="nonzero"></path>
            <path d="M34.944,17.896 C34.944,16.632 34.172,15.032 30.92,15.032 C29.584,15.032 25.91,15.032 25.91,15.032 L24.487,21.6190004 C24.487,21.6190004 27.193,21.6190004 29.706,21.6190004 C33.785,21.62 34.944,19.69 34.944,17.896 L34.944,17.896 Z" id="path31" fill="#FFFFFF" fill-rule="nonzero"></path>
            <path d="M19.644,27.811 C19.644,26.547 18.87,24.943 15.617,24.943 C14.282,24.943 10.608,24.943 10.608,24.943 L9.184,31.535 C9.184,31.535 11.891,31.535 14.404,31.535 C18.482,31.535 19.644,29.6 19.644,27.811 Z" id="path33" fill="#FFFFFF" fill-rule="nonzero"></path>
            <path d="M33.137,27.811 C33.137,26.547 32.362,24.943 29.112,24.943 C27.775,24.943 24.103,24.943 24.103,24.943 L22.677,31.535 C22.677,31.535 25.384,31.535 27.899,31.535 C31.978,31.535 33.137,29.6 33.137,27.811 L33.137,27.811 Z" id="path35" fill="#FFFFFF" fill-rule="nonzero"></path>
            <path d="M47.254,23.79 C47.254,22.525 46.479,20.922 43.229,20.922 C41.892,20.922 38.22,20.922 38.22,20.922 L36.794,27.513 C36.794,27.513 39.503,27.513 42.014,27.513 C46.093,27.513 47.254,25.583 47.254,23.79 L47.254,23.79 Z" id="path37" fill="#FFFFFF" fill-rule="nonzero"></path>
            <path d="M45.308,34.113 C45.308,32.848 44.535,31.249 41.283,31.249 C39.948,31.249 36.274,31.249 36.274,31.249 L34.85,37.837 C34.85,37.837 37.555,37.837 40.07,37.837 C44.148,37.837 45.308,35.902 45.308,34.113 Z" id="path39" fill="#FFFFFF" fill-rule="nonzero"></path>
            <path d="M31.198,38.135 C31.198,36.865 30.426,35.262 27.176,35.262 C25.838,35.262 22.164,35.262 22.164,35.262 L20.74,41.8530004 C20.74,41.8530004 23.447,41.8530004 25.96,41.8530004 C30.039,41.854 31.198,39.924 31.198,38.135 L31.198,38.135 Z" id="path41" fill="#FFFFFF" fill-rule="nonzero"></path>
        </g>
    </g>
</svg>