<svg width="56" height="56" xmlns="http://www.w3.org/2000/svg" xmlns:xlink="http://www.w3.org/1999/xlink"><defs><circle id="a" cx="28" cy="28" r="28"/></defs><g fill="none" fill-rule="evenodd"><mask id="b" fill="#fff"><use xlink:href="#a"/></mask><use fill="#064381" xlink:href="#a"/><g mask="url(#b)" fill="#FFF"><path d="M19.173 27.585V14.64c0-.466 0-.467.456-.467 3.894 0 7.787-.006 11.68.003 1.417.003 2.753.323 3.88 1.264 1.165.972 1.657 2.265 1.602 3.785-.052 1.443-.622 2.695-1.403 3.864-.314.47-.606.956-.926 1.422-.116.169-.061.22.085.302 1.312.74 2.456 1.686 3.361 2.919 1.094 1.488 1.687 3.163 1.705 5.032.033 3.416-2.016 6.383-5.258 7.637a9.45 9.45 0 0 1-3.409.625c-3.833.01-7.666.002-11.5.01-.234 0-.278-.07-.278-.296.007-4.385.005-8.77.005-13.155zm9.642-1.602c.39-.6.77-1.183 1.147-1.767.416-.643.85-1.274 1.239-1.934.591-1.008.617-2.059.04-3.076-.572-1.01-1.456-1.523-2.607-1.521-.839 0-1.678.007-2.516-.004-.212-.003-.29.031-.29.281.009 5.81.007 11.619.006 17.428 0 .606.004 1.213-.002 1.82-.002.14.027.203.181.2.837-.02 1.677.046 2.507-.118 1.719-.339 2.998-1.263 3.614-2.986.618-1.732.6-3.497.04-5.24a4.429 4.429 0 0 0-2.151-2.607c-.376-.206-.779-.34-1.208-.476z"/></g></g></svg>