<?xml version="1.0" encoding="UTF-8"?>
<svg width="56px" height="56px" viewBox="0 0 56 56" version="1.1" xmlns="http://www.w3.org/2000/svg" xmlns:xlink="http://www.w3.org/1999/xlink">
    <!-- Generator: Sketch 52.4 (67378) - http://www.bohemiancoding.com/sketch -->
    <title>BBY</title>
    <desc>Created with Sketch.</desc>
    <g id="BBY" stroke="none" stroke-width="1" fill="none" fill-rule="evenodd">
        <g>
            <rect id="Rectangle-1" stroke="#E1E1E1" fill="#FFFFFF" x="0.5" y="0.5" width="55" height="55" rx="27.5"></rect>
            <g id="Page-1" transform="translate(7.000000, 13.000000)">
                <path d="M6.6540126,15.6565519 C5.49261444,15.5344048 4.64111199,14.3834839 4.75057057,13.0930415 C4.86429377,11.8020726 5.89680564,10.8559587 7.0582038,10.9781059 C8.21960196,11.0992 9.0711044,12.2464354 8.96117198,13.5416163 C8.8517134,14.8325852 7.81967538,15.778699 6.6540126,15.6565519 L6.6540126,15.6565519 Z M9.34403393,0 L0.940495987,7.2954742 L0,18.367971 L6.97139277,27.4284551 L37.6784518,30.6255674 L40,3.25388218 L9.34403393,0 Z" id="Fill-1" fill="#010101"></path>
                <path d="M9.95227815,13.6284203 C9.79427627,15.492894 8.28287834,16.8806271 6.55435909,16.6993887 C4.83439973,16.5163753 3.59612876,14.8503849 3.75307346,12.9903999 C3.91486972,11.1284935 5.42760579,9.74282297 7.15732875,9.92336669 C8.87539891,10.1065093 10.1127509,11.7729888 9.95227815,13.6284203 Z M9.70547491,1.13932993 L1.92396106,7.82264765 L1.02174317,17.9889179 L7.49266462,26.3304651 L36.7751327,29.4430294 L38.9044206,4.25381409 L9.70547491,1.13932993 Z" id="Fill-3" stroke="#000000" fill="#F6EB16"></path>
                <path d="M20.6478613,19.5991024 L20.8169775,16.8208943 C20.8169775,16.8208943 24.8863875,16.6556814 24.7581206,18.5987478 C24.6261773,20.538183 20.6478613,19.5991024 20.6478613,19.5991024 L20.6478613,19.5991024 Z M21.3243262,10.8891181 C21.3243262,10.8891181 24.5857365,10.5582386 24.4059994,12.2534856 C24.2234029,13.9482788 21.1282494,13.1816731 21.1282494,13.1816731 L21.3243262,10.8891181 Z M28.5031869,15.7306711 C28.5031869,15.7306711 31.6530785,15.0425869 31.5717884,11.467363 C31.4904982,7.89350079 25.0628566,6.99844665 25.0628566,6.99844665 L14.4502014,5.83333307 L13.0057692,22.9019974 C13.0057692,22.9019974 21.4734262,23.8914589 23.9362322,24.1088681 C26.402306,24.3344472 31.3720352,24.0979749 31.8626356,20.5672314 C32.3528275,17.0351263 28.5031869,15.7306711 28.5031869,15.7306711 L28.5031869,15.7306711 Z" id="Fill-17" fill="#010101"></path>
            </g>
        </g>
    </g>
</svg>