<?xml version="1.0" encoding="UTF-8"?>
<svg width="56px" height="56px" viewBox="0 0 56 56" version="1.1" xmlns="http://www.w3.org/2000/svg" xmlns:xlink="http://www.w3.org/1999/xlink">
    <!-- Generator: Sketch 52.4 (67378) - http://www.bohemiancoding.com/sketch -->
    <title>BIDU</title>
    <desc>Created with Sketch.</desc>
    <g id="BIDU" stroke="none" stroke-width="1" fill="none" fill-rule="evenodd">
        <g>
            <rect id="Rectangle-1" stroke="#E1E1E1" fill="#FFFFFF" x="0.5" y="0.5" width="55" height="55" rx="27.5"></rect>
            <g id="baidu" transform="translate(12.000000, 10.000000)">
                <path d="M5.087,18.9895 C8.962,18.157 8.4335,13.521 8.3195,12.508 C8.1285,10.9455 6.292,8.217 3.8,8.435 C0.662,8.714 0.204,13.2465 0.204,13.2465 C-0.2205,15.345 1.2185,19.824 5.087,18.9895 Z M12.283,11.218 C14.422,11.218 16.151,8.753 16.151,5.708 C16.151,2.6625 14.422,0.2015 12.283,0.2015 C10.1425,0.2015 8.4095,2.6625 8.4095,5.708 C8.4095,8.753 10.1425,11.218 12.283,11.218 Z M21.505,11.5805 C24.3675,11.955 26.203,8.901 26.57,6.5865 C26.945,4.275 25.095,1.5865 23.0725,1.125 C21.0405,0.658 18.505,3.91 18.2765,6.0315 C17.998,8.6265 18.645,11.214 21.505,11.5805 Z M32.8445,15.469 C32.8445,14.3615 31.928,11.025 28.5145,11.025 C25.095,11.025 24.6415,14.174 24.6415,16.399 C24.6415,18.523 24.8195,21.4845 29.0655,21.3925 C33.309,21.2985 32.8445,16.5835 32.8445,15.469 Z M28.5145,25.1865 C28.5145,25.1865 24.0885,21.763 21.505,18.0605 C17.998,12.6015 13.02,14.8255 11.356,17.597 C9.697,20.376 7.118,22.131 6.749,22.597 C6.3765,23.0535 1.403,25.741 2.5065,30.647 C3.6125,35.5505 7.491,35.458 7.491,35.458 C7.491,35.458 10.3495,35.737 13.664,34.996 C16.986,34.257 19.8445,35.1785 19.8445,35.1785 C19.8445,35.1785 27.5935,37.777 29.711,32.777 C31.8315,27.7815 28.5145,25.1865 28.5145,25.1865 Z" id="Fill-1" fill="#2529D8"></path>
                <path d="M12.9705,20.414 L12.9705,23.7075 L10.2865,23.7075 C10.2865,23.7075 7.6035,23.93 6.6645,26.971 C6.337,29 6.954,30.1965 7.061,30.4515 C7.1695,30.7065 8.037,32.192 10.2135,32.6265 L15.25,32.6265 L15.25,20.4495 L12.9705,20.414 Z M12.93,30.6285 L10.901,30.6285 C10.901,30.6285 9.4875,30.5545 9.0575,28.9275 C8.835,28.2055 9.0905,27.373 9.202,27.046 C9.305,26.718 9.7795,25.96 10.758,25.6685 L12.93,25.6685 L12.93,30.6285 Z" id="Fill-2" fill="#FFFFFE"></path>
                <path d="M16.485,24.003 L16.485,30.415 C16.485,30.415 16.59,32.012 18.84,32.5925 L24.636,32.5925 L24.636,24.003 L22.1345,24.003 L22.1345,30.4515 L19.7465,30.4515 C19.7465,30.4515 18.983,30.3415 18.84,29.727 L18.84,23.9655 L16.485,24.003" id="Fill-3" fill="#FFFFFE"></path>
            </g>
        </g>
    </g>
</svg>