<?xml version="1.0" encoding="UTF-8"?>
<svg width="56px" height="56px" viewBox="0 0 56 56" version="1.1" xmlns="http://www.w3.org/2000/svg" xmlns:xlink="http://www.w3.org/1999/xlink">
    <!-- Generator: Sketch 52.4 (67378) - http://www.bohemiancoding.com/sketch -->
    <title>BLK</title>
    <desc>Created with Sketch.</desc>
    <g id="BLK" stroke="none" stroke-width="1" fill="none" fill-rule="evenodd">
        <g>
            <circle id="Oval-7" stroke="#E1E1E1" fill="#FFFFFF" cx="28" cy="28" r="27.5"></circle>
            <path d="M33.8923513,26.9376771 C36.5269122,26.0878187 39.0764873,24.0481586 39.0764873,20.3087819 C39.0764873,13 30.2379603,13 27.4334278,13 C18,13 18,13 18,13 C18,43 18,43 18,43 C27.0084986,43 27.0084986,43 27.0084986,43 C32.2776204,43 40.776204,41.7252125 40.776204,34.3314448 C40.776204,30.2521246 38.3116147,27.6175637 33.8923513,26.9376771 Z M26.7535411,16.6543909 C30.7478754,16.6543909 33.4674221,17.0793201 33.4674221,20.6487252 C33.4674221,25.4929178 28.5382436,25.2379603 26.1586402,25.2379603 C23.4390935,25.2379603 23.4390935,25.2379603 23.4390935,25.2379603 C23.4390935,16.5694051 23.4390935,16.5694051 23.4390935,16.5694051 L26.7535411,16.6543909 Z M26.8385269,39.0906516 C23.4390935,39.0056657 23.4390935,39.0056657 23.4390935,39.0056657 C23.4390935,29.1473088 23.4390935,29.1473088 23.4390935,29.1473088 C26.5835694,29.1473088 26.5835694,29.1473088 26.5835694,29.1473088 C31.3427762,29.1473088 35.1671388,29.8271955 35.1671388,34.0764873 C35.1671388,38.2407932 32.0226629,39.0906516 26.8385269,39.0906516 Z" id="path28" fill="#000000" fill-rule="nonzero"></path>
        </g>
    </g>
</svg>