<svg width="56" height="56" xmlns="http://www.w3.org/2000/svg" xmlns:xlink="http://www.w3.org/1999/xlink"><defs><linearGradient x1="-7.319%" y1="-5.391%" x2="98.77%" y2="97.129%" id="b"><stop stop-color="#DFF4FF" offset="0%"/><stop stop-color="#D6EAF5" offset="9.84%"/><stop stop-color="#BFD0D9" offset="26.78%"/><stop stop-color="#98A5AC" offset="48.79%"/><stop stop-color="#646B6E" offset="74.69%"/><stop stop-color="#2B2B2B" offset="100%"/></linearGradient><path d="M27.992 0C12.533 0 0 12.532 0 27.992 0 43.45 12.533 55.983 27.992 55.983c15.46 0 27.992-12.532 27.992-27.991C55.984 12.532 43.453 0 27.992 0z" id="a"/><radialGradient cx="-3.29%" cy=".85%" fx="-3.29%" fy=".85%" r="74.777%" gradientTransform="matrix(1 0 0 .99997 0 0)" id="d"><stop stop-color="#FFF" offset="0%"/><stop stop-color="#A8A8A8" offset="30.64%"/><stop stop-color="#4F4F4F" offset="64.61%"/><stop stop-color="#161616" offset="88.53%"/><stop offset="100%"/></radialGradient><radialGradient cx="-390.027%" cy="-65.14%" fx="-390.027%" fy="-65.14%" r="1186.357%" gradientTransform="matrix(.87272 0 0 1 -.496 0)" id="e"><stop stop-color="#FFF" offset="0%"/><stop stop-color="#FDFDFD" offset="31.02%"/><stop stop-color="#F6F6F6" offset="45.05%"/><stop stop-color="#E9E9E9" offset="55.67%"/><stop stop-color="#D7D7D7" offset="64.56%"/><stop stop-color="#BFBFBF" offset="72.38%"/><stop stop-color="#A2A2A2" offset="79.44%"/><stop stop-color="gray" offset="85.93%"/><stop stop-color="#575757" offset="91.99%"/><stop stop-color="#2B2B2B" offset="97.46%"/><stop stop-color="#141414" offset="100%"/></radialGradient><radialGradient cx="-485.27%" cy="-103.16%" fx="-485.27%" fy="-103.16%" r="965.794%" gradientTransform="matrix(1 0 0 .98453 0 -.016)" id="f"><stop stop-color="#FFF" offset="0%"/><stop stop-color="#FDFDFD" offset="31.02%"/><stop stop-color="#F6F6F6" offset="45.05%"/><stop stop-color="#E9E9E9" offset="55.67%"/><stop stop-color="#D7D7D7" offset="64.56%"/><stop stop-color="#BFBFBF" offset="72.38%"/><stop stop-color="#A2A2A2" offset="79.44%"/><stop stop-color="gray" offset="85.93%"/><stop stop-color="#575757" offset="91.99%"/><stop stop-color="#2B2B2B" offset="97.46%"/><stop stop-color="#141414" offset="100%"/></radialGradient><radialGradient cx="-141.32%" cy="-113.479%" fx="-141.32%" fy="-113.479%" r="986.89%" gradientTransform="matrix(1 0 0 .99964 0 0)" id="g"><stop stop-color="#FFF" offset="0%"/><stop stop-color="#FDFDFD" offset="31.02%"/><stop stop-color="#F6F6F6" offset="45.05%"/><stop stop-color="#E9E9E9" offset="55.67%"/><stop stop-color="#D7D7D7" offset="64.56%"/><stop stop-color="#BFBFBF" offset="72.38%"/><stop stop-color="#A2A2A2" offset="79.44%"/><stop stop-color="gray" offset="85.93%"/><stop stop-color="#575757" offset="91.99%"/><stop stop-color="#2B2B2B" offset="97.46%"/><stop stop-color="#141414" offset="100%"/></radialGradient><radialGradient cx="16.19%" cy="9.75%" fx="16.19%" fy="9.75%" r="111.963%" id="h"><stop stop-color="#FFF" offset="0%"/><stop stop-color="#FDFDFD" offset="34.35%"/><stop stop-color="#F6F6F6" offset="48.14%"/><stop stop-color="#EAEAEA" offset="58.24%"/><stop stop-color="#D8D8D8" offset="66.54%"/><stop stop-color="#C2C2C2" offset="73.73%"/><stop stop-color="#A6A6A6" offset="80.16%"/><stop stop-color="#848484" offset="86.02%"/><stop stop-color="#5F5F5F" offset="91.26%"/><stop stop-color="#404040" offset="94.94%"/><stop stop-color="#404040" offset="95.66%"/><stop stop-color="#404040" offset="100%"/><stop offset="100%"/></radialGradient><radialGradient cx="33.56%" cy="-65.13%" fx="33.56%" fy="-65.13%" r="278.087%" gradientTransform="rotate(.14 .336 0)" id="i"><stop stop-color="#FFF" offset="0%"/><stop stop-color="#E0EFF7" offset="19.57%"/><stop stop-color="#B2D9EC" offset="24.06%"/><stop stop-color="#8BC5E2" offset="28.72%"/><stop stop-color="#6BB5DA" offset="33.5%"/><stop stop-color="#52A9D4" offset="38.44%"/><stop stop-color="#41A0CF" offset="43.59%"/><stop stop-color="#369BCD" offset="49.11%"/><stop stop-color="#39C" offset="55.62%"/><stop stop-color="#3396C8" offset="60.6%"/><stop stop-color="#328EBC" offset="65.53%"/><stop stop-color="#3180A8" offset="70.45%"/><stop stop-color="#2F6D8C" offset="75.36%"/><stop stop-color="#2D5468" offset="80.27%"/><stop stop-color="#2A373D" offset="85.12%"/><stop stop-color="#292929" offset="100%"/></radialGradient><radialGradient cx="-66.441%" cy="-165.13%" fx="-66.441%" fy="-165.13%" r="349.775%" gradientTransform="scale(1 .99999) rotate(2.426 -.664 -1.651)" id="j"><stop stop-color="#FFF" offset="0%"/><stop stop-color="#E0EFF7" offset="19.57%"/><stop stop-color="#B2D9EC" offset="24.06%"/><stop stop-color="#8BC5E2" offset="28.72%"/><stop stop-color="#6BB5DA" offset="33.5%"/><stop stop-color="#52A9D4" offset="38.44%"/><stop stop-color="#41A0CF" offset="43.59%"/><stop stop-color="#369BCD" offset="49.11%"/><stop stop-color="#39C" offset="55.62%"/><stop stop-color="#3396C8" offset="60.6%"/><stop stop-color="#328EBC" offset="65.53%"/><stop stop-color="#3180A8" offset="70.45%"/><stop stop-color="#2F6D8C" offset="75.36%"/><stop stop-color="#2D5468" offset="80.27%"/><stop stop-color="#2A373D" offset="85.12%"/><stop stop-color="#292929" offset="100%"/></radialGradient><radialGradient cx="-3.29%" cy=".85%" fx="-3.29%" fy=".85%" r="74.777%" gradientTransform="matrix(1 0 0 .99998 0 0)" id="k"><stop stop-color="#E6E6E6" offset="0%"/><stop stop-color="#D6D6D6" offset="10.45%"/><stop stop-color="#ADADAD" offset="30.74%"/><stop stop-color="#6C6C6C" offset="58.84%"/><stop stop-color="#121212" offset="93.35%"/><stop offset="100%"/></radialGradient><linearGradient x1="-40.121%" y1="-18.937%" x2="109.892%" y2="126.024%" id="l"><stop stop-color="#F0F4FF" offset="0%"/><stop stop-color="#EBEFF9" offset="10.86%"/><stop stop-color="#DCE0EA" offset="24.75%"/><stop stop-color="#C4C7CF" offset="40.28%"/><stop stop-color="#A2A4AB" offset="57.01%"/><stop stop-color="#76777C" offset="74.69%"/><stop stop-color="#414243" offset="92.91%"/><stop stop-color="#2B2B2B" offset="100%"/></linearGradient></defs><g fill="none" fill-rule="evenodd"><circle fill="#161616" cx="28" cy="28" r="28"/><mask id="c" fill="#fff"><use xlink:href="#a"/></mask><use fill="url(#b)" xlink:href="#a"/><path d="M56.535 27.992c0 15.762-12.78 28.542-28.543 28.542C12.23 56.534-.55 43.754-.55 27.992-.55 12.228 12.23-.551 27.992-.551c15.763 0 28.543 12.78 28.543 28.543z" fill="#333" mask="url(#c)"/><path d="M56.333 27.992c0 15.653-12.688 28.342-28.341 28.342-15.654 0-28.341-12.69-28.341-28.342C-.35 12.339 12.338-.351 27.99-.351c15.654 0 28.342 12.69 28.342 28.343z" fill="url(#d)" mask="url(#c)"/><path fill="url(#e)" d="M28.721 9.41l1.852-4.908V9.41h1.407V2.38h-2.114l-1.923 5.033h.019L26.039 2.38h-2.114v7.03h1.407V4.502l1.852 4.908z"/><path fill="url(#f)" d="M48.023 12.362l-2.402 3.504 3.775-1.857 1.022 1.229-5.94 2.982-1.2-1.453 2.303-3.472-.013-.018-3.832 1.64-1.213-1.444L44.53 8.17l1.024 1.228-2.508 3.377 3.88-1.73z"/><path d="M15.29 11.353c-.564-.55-1.44-.716-2.26-.207.157-.407.093-.82.01-1.05-.354-.644-.477-.725-.769-.97-.944-.791-1.936-.115-2.645.731l-3.431 4.088 5.393 4.524 3.617-4.31c.826-.986.955-1.962.086-2.806zm-6.976 1.971l2.06-2.455c.239-.285.779-.273 1.126.018.382.32.383.774.125 1.079L9.59 14.394l-1.275-1.07zm5.686.408l-2.148 2.56-1.347-1.13 2.165-2.58c.245-.291.79-.376 1.157-.068.417.35.458.878.173 1.218z" fill="url(#g)"/><path d="M11.253 27.992c0-9.245 7.494-16.74 16.74-16.74 9.244 0 16.74 7.495 16.74 16.74 0 9.245-7.496 16.74-16.74 16.74-9.246 0-16.74-7.495-16.74-16.74z" fill="url(#h)"/><path d="M11.227 27.992h16.765V11.226c-9.26 0-16.765 7.506-16.765 16.766z" fill="url(#i)"/><path d="M27.992 27.992v16.766c9.26 0 16.766-7.508 16.766-16.766H27.992z" fill="url(#j)"/><path fill="url(#k)" d="M44.897 27.694H28.289V11.087h-.594v16.607H11.088v.595h16.607v16.607h.594V28.29h16.608z"/><path d="M27.695 44.426c-8.844-.157-15.98-7.293-16.138-16.137h-.297c.158 9.007 7.427 16.278 16.435 16.435v-.298z" fill="url(#l)"/><path d="M44.429 28.289c-.159 8.844-7.295 15.98-16.14 16.137v.298c9.009-.157 16.278-7.427 16.436-16.435h-.296z" fill="#12404F"/></g></svg>