<svg width="56" height="56" xmlns="http://www.w3.org/2000/svg"><g fill="none" fill-rule="evenodd"><circle fill="#0F6CA4" cx="28" cy="28" r="28"/><g stroke="#FFF" stroke-width=".8" fill="#FFF"><path d="M18.158 46.389l9.829-17.011 9.824 17.01H18.158zm3.952-.789h11.754c.79 0 1.381.051 1.973.147v-.096c-.393-.201-1.036-.396-1.58-.74l-6.27-3.649-6.274 3.648c-.54.345-1.184.54-1.577.741v.096a11.824 11.824 0 0 1 1.974-.147zm-.79-1.38l6.27-3.699v-7.149c0-.642.099-1.332.099-1.923l-.099-.048a8.808 8.808 0 0 1-.739 1.626L20.676 43.63c-.393.69-.739 1.083-1.036 1.479l.051.095c.493-.294.937-.591 1.628-.984zm7.06-3.7l6.274 3.7c.687.393 1.133.69 1.628.984l.048-.096c-.294-.396-.64-.789-1.036-1.479l-6.171-10.603a9.026 9.026 0 0 1-.743-1.626l-.096.048c0 .591.096 1.281.096 1.924v7.149zM39.145 45.897l-9.824-17.01h19.652l-9.828 17.01zm5.877-16.222H33.27c-.79 0-1.382-.051-1.974-.15v.099c.393.199 1.036.393 1.58.742l6.27 3.648 6.27-3.648c.544-.35 1.188-.544 1.581-.742v-.099c-.592.099-1.183.15-1.974.15zm.79 1.38l-6.27 3.696v7.153c0 .639-.099 1.328-.099 1.92l.1.05a8.962 8.962 0 0 1 .738-1.628l6.171-10.6c.397-.69.743-1.086 1.04-1.48l-.051-.098c-.493.297-.937.59-1.628.987zm-7.064 3.696l-6.27-3.696c-.691-.396-1.135-.69-1.628-.987l-.052.099c.298.393.643.79 1.04 1.479l6.172 10.6c.345.594.591 1.185.738 1.629l.1-.052c0-.59-.1-1.28-.1-1.92v-7.152zM29.32 27.503l9.825-17.011 9.828 17.01H29.321zm3.949-.786h11.753c.79 0 1.382.048 1.974.147v-.099c-.394-.198-1.037-.396-1.58-.741l-6.271-3.648-6.27 3.648c-.545.345-1.188.543-1.58.741v.099c.592-.1 1.183-.147 1.974-.147zm6.273-5.079l6.27 3.695c.692.396 1.136.69 1.629.988l.051-.1c-.297-.392-.643-.789-1.04-1.479l-6.171-10.599a8.931 8.931 0 0 1-.739-1.63l-.099.052c0 .59.1 1.28.1 1.923v7.15zm-7.064 3.695l6.27-3.695v-7.15c0-.642.1-1.332.1-1.922l-.1-.052a8.896 8.896 0 0 1-.738 1.63l-6.172 10.599c-.397.69-.742 1.087-1.04 1.479l.052.099c.493-.297.937-.591 1.628-.988zM27.987 27.01L18.158 10h19.653l-9.824 17.01zm5.877-16.22H22.11c-.79 0-1.383-.052-1.974-.148v.096c.394.198 1.037.396 1.577.741l6.274 3.648 6.27-3.648c.544-.345 1.188-.543 1.58-.741v-.096a11.82 11.82 0 0 1-1.973.147zm-6.274 5.078l-6.27-3.699c-.692-.393-1.136-.69-1.629-.984l-.051.096c.298.396.644.79 1.036 1.48l6.175 10.601c.346.591.592 1.182.739 1.627l.099-.048c0-.591-.099-1.284-.099-1.923v-7.15zm7.064-3.699l-6.274 3.7v7.15c0 .638-.096 1.331-.096 1.922l.096.048c.15-.444.397-1.035.743-1.626l6.17-10.603c.398-.69.743-1.083 1.037-1.479l-.048-.096c-.495.294-.94.592-1.628.984zM7 27.503l9.824-17.011 9.828 17.01H7zm3.951-.786h11.75c.79 0 1.383.048 1.978.147v-.099c-.397-.198-1.037-.396-1.58-.741l-6.274-3.648-6.27 3.648c-.544.345-1.184.543-1.581.741v.099c.595-.1 1.187-.147 1.977-.147zm-.79-1.384l6.27-3.695v-7.15c0-.642.1-1.332.1-1.922l-.1-.052a9.145 9.145 0 0 1-.739 1.63L9.518 24.742c-.397.69-.74 1.087-1.037 1.479l.049.099c.495-.297.937-.591 1.631-.988zm7.06-3.695l6.27 3.695c.692.396 1.136.69 1.629.988l.051-.1c-.298-.392-.643-.789-1.037-1.479L17.96 14.143a9.182 9.182 0 0 1-.739-1.63l-.098.052c0 .59.098 1.28.098 1.923v7.15zM16.824 45.897L7 28.887h19.652l-9.828 17.01zm5.877-16.222h-11.75c-.79 0-1.382-.051-1.978-.15v.099c.397.199 1.037.393 1.581.742l6.27 3.648 6.274-3.648c.544-.35 1.184-.544 1.58-.742v-.099c-.595.099-1.187.15-1.977.15zm-6.27 5.076l-6.27-3.696c-.695-.396-1.136-.69-1.632-.987l-.048.099c.298.393.64.79 1.037 1.479l6.174 10.6c.342.594.592 1.185.74 1.629l.098-.052c0-.59-.099-1.28-.099-1.92v-7.152zm7.06-3.696l-6.27 3.696v7.153c0 .639-.098 1.328-.098 1.92l.098.05a9.215 9.215 0 0 1 .74-1.628l6.173-10.6c.394-.69.74-1.086 1.037-1.48l-.051-.098c-.493.297-.937.59-1.629.987z"/></g></g></svg>