<?xml version="1.0" encoding="UTF-8"?>
<svg width="56px" height="56px" viewBox="0 0 56 56" version="1.1" xmlns="http://www.w3.org/2000/svg" xmlns:xlink="http://www.w3.org/1999/xlink">
    <title>BNTX</title>
    <g id="BNTX" stroke="none" stroke-width="1" fill="none" fill-rule="evenodd">
        <g id="809dc5903">
            <circle id="Oval" stroke="#EAEAEA" fill="#FFFFFF" cx="28" cy="28" r="27.5"></circle>
            <path d="M37.8371349,12 C39.3865546,12 40.7524343,12.2134187 41.8878218,12.627451 C43.0189409,13.0414833 43.9579832,13.609177 44.6878752,14.3091903 C45.4134987,15.0092037 45.964119,15.845805 46.3269308,16.8104575 C46.6940109,17.77511 46.877551,18.8037882 46.877551,19.8751501 L46.877551,19.8751501 L46.877551,22.6197146 C46.877551,25.8594104 43.0744298,27.8954248 41.6018407,27.8954248 C41.5420835,27.8954248 41.4951314,27.942377 41.4951314,28.0021342 C41.4951314,28.0618914 41.5420835,28.1088435 41.6018407,28.1088435 C43.0701614,28.1088435 46.877551,30.1491263 46.877551,33.3845538 L46.877551,33.3845538 L46.877551,36.1291183 C46.877551,37.2303588 46.7025477,38.2761104 46.352541,39.2236895 C46.0068027,40.1627318 45.4689876,40.9907963 44.743364,41.6908097 C44.0177404,42.390823 43.0786981,42.9585167 41.9433107,43.372549 C40.8079232,43.7908497 39.42497,44 37.8371349,44 L37.8371349,44 L9,44 L9,25.5947712 L13.8659464,25.5947712 L13.8659464,25.6203815 L37.8371349,25.6203815 C39.1133787,25.6203815 40.1420568,25.2362278 40.8890223,24.4764572 C41.6317194,23.720955 42.0116046,22.6069094 42.0116046,21.164199 C42.0116046,19.7214886 41.6317194,18.6245165 40.8847539,17.8988929 C40.1377884,17.1818061 39.1133787,16.8147259 37.8371349,16.8147259 L37.8371349,16.8147259 L9,16.8147259 L9,12 Z M15.7781779,30.4052288 L13.8659464,30.4052288 L13.8659464,39.2108844 L15.7781779,39.2108844 L15.7781779,39.1852741 L37.8414032,39.1852741 C39.1176471,39.1852741 40.1420568,38.8224623 40.8890223,38.1011071 C41.6359877,37.3797519 42.015873,36.2785114 42.015873,34.835801 C42.015873,32.1467254 40.8036548,30.6655996 38.4133653,30.430839 L38.4133653,30.430839 L15.7781779,30.430839 L15.7781779,30.4052288 Z" id="Combined-Shape" fill="#3C9673"></path>
        </g>
    </g>
</svg>