<svg width="56" height="56" xmlns="http://www.w3.org/2000/svg"><g fill="none" fill-rule="evenodd"><circle fill="#552548" cx="28" cy="28" r="28"/><g fill="#FFF"><path d="M28 4c13.233 0 24 10.766 24 24S41.233 52.001 28 52.001C14.766 52.001 4 41.234 4 28 4 14.766 14.766 4 28 4zm.001 46.795c12.57 0 22.796-10.225 22.796-22.795C50.797 15.43 40.57 5.206 28 5.206 15.432 5.206 5.205 15.431 5.205 28c0 12.57 10.227 22.795 22.796 22.795z"/><path d="M46.127 33.778c.373 0 .672-.3.672-.672a.672.672 0 1 0-1.344 0 .67.67 0 0 0 .672.672M9.914 33.78a.675.675 0 1 0-.002-1.35.675.675 0 0 0 .002 1.35M10.507 28.531L7.99 28.47l.034-1.325c.012-.48.323-.717.66-.708.312.007.524.21.567.448.048-.27.313-.476.625-.47.383.011.678.267.667.752l-.035 1.365zm-1.743-1.546c-.156-.004-.268.107-.273.289l-.015.671.528.013.016-.67c.005-.183-.093-.299-.256-.303zm1.025-.023c-.162-.005-.292.105-.296.313l-.017.695.573.014.017-.694c.005-.2-.098-.324-.277-.328zM10.734 25.143l-2.463-.528.372-1.743.463.1-.263 1.218.519.11.255-1.192.46.098-.255 1.194.562.12.261-1.22.462.101zM12.053 20.81l-1.017.112-.152.361.825.346-.207.495-2.323-.972.454-1.086c.204-.486.646-.653 1.078-.472.407.17.52.525.475.8l1.106-.157-.239.573zm-1.559-.71c-.19-.08-.373.02-.455.216l-.217.523.627.263.219-.524c.08-.195.024-.393-.174-.477zM13.725 17.877l-1.265.076.089.297.647.427-.296.447-2.102-1.391.297-.447.936.62-.445-1.364.366-.55.434 1.486 1.704-.153zM14.424 16.364l-.098-.502c.257 0 .56-.089.802-.338.207-.217.207-.408.1-.511-.315-.304-1.098.955-1.781.3-.302-.293-.302-.795.108-1.223.278-.288.597-.445.935-.465l.081.494a1.07 1.07 0 0 0-.705.337c-.158.163-.176.324-.067.428.285.274 1.094-.954 1.772-.302.333.32.353.798-.116 1.286-.339.352-.694.49-1.031.496M18.47 13.3l-.61-.866-.973.683.61.867-.44.309-1.448-2.061.44-.308.567.81.975-.684-.567-.81.44-.31 1.448 2.062zM20.163 12.335l-1.096-2.267.48-.233 1.1 2.267zM23.292 11.119l-.734-.711-.378.116.265.856-.512.156-.743-2.404 1.126-.348c.501-.156.912.076 1.05.525.13.421-.069.737-.31.877l.828.749-.592.184zm-.454-1.652c-.06-.198-.253-.272-.455-.212l-.542.168.2.65.544-.167c.2-.063.318-.233.253-.439zM25.138 10.693l-.293-2.503 1.773-.209.055.47-1.24.143.062.527 1.213-.142.054.47-1.212.143.066.568 1.24-.145.053.47zM31.786 10.868l.191-1.045-1.17-.213-.19 1.043-.53-.098.455-2.476.53.097-.18.973 1.168.215.18-.975.532.098-.454 2.478zM35.245 12.01l.013-.455-1-.405-.308.336-.561-.228 1.845-1.97.621.251-.044 2.7-.566-.229zm.099-2.1l-.772.858.728.294.044-1.151zM37.031 12.96l1.08-1.737-.625-.39.25-.4 1.705 1.06-.248.401-.623-.386-1.081 1.738zM40.32 15.496l.719-.78-.878-.805-.72.781-.393-.363 1.704-1.854.396.362-.672.728.878.805.668-.728.4.366-1.706 1.854zM42.637 18.303l.254-.378-.633-.874-.439.12-.357-.492 2.608-.689.395.544-1.471 2.262-.357-.493zm1.197-1.727l-1.107.317.459.637.648-.954zM44.264 21.402l1.41-1.097-1.763.29-.227-.524 2.021-1.667.242.55-1.492 1.134 1.86-.287.166.385-1.477 1.162 1.845-.322.24.554-2.598.346zM45.336 25.243l.387-.237-.21-1.058-.448-.074-.12-.595 2.66.462.13.66-2.281 1.44-.118-.598zm1.807-1.068L46.004 24l.153.77.986-.595zM45.526 27.379l1.031-.022 1.468-.994.012.611-.994.641 1.022.605.01.606-1.507-.934-1.032.023zM11.562 39.463l.888-.583-.653-.994-.888.581-.295-.45 2.107-1.38.295.45-.827.542.651.996.83-.543.294.452-2.108 1.382zM13.777 40.323c.538-.536 1.315-.527 1.854.014.537.539.541 1.316.003 1.851-.537.536-1.315.528-1.85-.011-.539-.54-.547-1.317-.007-1.854zm1.468 1.476c.335-.333.375-.797.048-1.126-.331-.331-.792-.291-1.127.04-.332.332-.375.797-.045 1.128.329.33.791.288 1.124-.042zM17.882 45.315l.984-1.528-1.581 1.144-.197-.128.385-1.911-.981 1.528-.452-.29 1.363-2.121.63.407-.336 1.657 1.368-.993.635.41-1.363 2.118zM19.947 46.371l.915-2.347 1.662.646-.171.441-1.162-.453-.193.493 1.137.443-.172.44-1.137-.443-.207.535 1.162.453-.172.44zM23.146 47.108l.371-.354c.138.217.38.425.72.493.292.057.455-.045.483-.189.084-.433-1.397-.41-1.215-1.342.081-.41.505-.681 1.086-.567.395.078.697.26.896.534l-.369.336a1.073 1.073 0 0 0-.666-.412c-.222-.044-.368.028-.396.176-.077.39 1.394.404 1.212 1.327-.089.455-.483.73-1.146.6-.479-.095-.788-.32-.976-.602M26.719 48.01l.083-2.517 1.78.058-.016.472-1.245-.04-.016.528 1.219.04-.015.471-1.219-.04-.02.574 1.245.04-.014.472zM31.658 47.72l-.63-.807-.39.062.142.885-.528.084-.396-2.489 1.163-.185c.518-.081.892.205.966.67.07.434-.17.718-.43.825l.714.858-.611.097zm-.218-1.698c-.033-.206-.212-.307-.423-.272l-.559.088.107.672.56-.09c.21-.033.35-.186.315-.398zM34.443 46.998l-1.76-2.048.572-.205 1.308 1.587.008-2.057.574-.202-.07 2.698zM37.245 45.805l-1.188-2.22.472-.254 1.188 2.22zM38.307 43.77c-.465-.626-.308-1.395.302-1.85.44-.33.877-.282 1.207-.133l-.232.458a.677.677 0 0 0-.693.058c-.37.274-.425.755-.14 1.137.283.382.76.465 1.13.189a.68.68 0 0 0 .253-.646l.503-.096c.045.36-.03.796-.471 1.124-.61.453-1.396.38-1.86-.24M42.112 42.29l-1.84-1.72 1.215-1.303.344.321-.85.912.387.361.831-.894.347.322-.832.894.418.39.851-.91.346.322zM43.952 39.633l-.19-.475a1.1 1.1 0 0 0 .725-.484c.164-.25.13-.438.006-.518-.366-.238-.904 1.142-1.696.624-.351-.23-.445-.723-.12-1.221.22-.332.5-.545.83-.628l.172.468a1.09 1.09 0 0 0-.631.463c-.124.19-.111.35.015.433.332.218.899-1.14 1.686-.626.384.25.494.72.125 1.286-.268.407-.593.609-.922.678M23.5 27.268H19.33v-9.965h4.065c1.695 0 2.834 1.038 2.834 2.581 0 1.178-.717 1.945-1.475 2.238.945.314 1.665 1.33 1.665 2.417 0 1.657-1.146 2.729-2.92 2.729zm-2.776-1.26h2.541c1.077 0 1.718-.599 1.718-1.603 0-.797-.531-1.6-1.718-1.6h-2.541v3.204zm0-4.462h2.47c.984 0 1.597-.57 1.597-1.486 0-.91-.626-1.498-1.598-1.498h-2.47v2.984zM36.844 27.268h-1.391v-4.491h-5.17v4.49h-1.394v-9.964h1.394v4.212h5.17v-4.212h1.39zM27.285 39.132h-1.391v-4.494h-5.17v4.494H19.33v-9.966h1.393v4.214h5.17v-4.214h1.39zM33.147 39.308c-1.558 0-2.919-.563-3.825-1.585l-.048-.055.844-1.08.07.08c.356.415 1.362 1.38 3.003 1.38 1.635 0 2.218-.835 2.218-1.616 0-1.095-1.153-1.404-2.484-1.763-1.554-.418-3.315-.892-3.315-2.847 0-1.633 1.455-2.818 3.464-2.818 1.434 0 2.653.487 3.529 1.407l.051.055-.848 1.036-.068-.078c-.846-.947-1.972-1.145-2.767-1.145-1.134 0-1.923.603-1.923 1.47 0 .895 1.06 1.182 2.289 1.516 1.644.447 3.507.953 3.507 3.078 0 1.434-.971 2.965-3.697 2.965"/></g></g></svg>