<?xml version="1.0" encoding="UTF-8"?>
<svg width="56px" height="56px" viewBox="0 0 56 56" version="1.1" xmlns="http://www.w3.org/2000/svg" xmlns:xlink="http://www.w3.org/1999/xlink">
    <!-- Generator: Sketch 53.2 (72643) - https://sketchapp.com -->
    <title>BUD</title>
    <desc>Created with Sketch.</desc>
    <g id="BUD" stroke="none" stroke-width="1" fill="none" fill-rule="evenodd">
        <rect id="Rectangle-1" fill="#CD1B25" x="0" y="0" width="56" height="56" rx="28"></rect>
        <g id="Group-87" transform="translate(9.000000, 17.000000)">
            <path d="M32.7359651,0.477574775 C34.2959651,0.686912727 35.7389651,1.21859407 36.716686,2.6297727 C38.0771512,4.59440011 37.516186,7.20139862 35.3761744,8.66676429 C34.9163372,8.98169749 34.4206744,9.24290679 33.8941744,9.55691372 C34.6474186,9.90334024 35.3426163,10.165939 35.9833953,10.5285753 C37.6567674,11.473838 38.647186,12.8697331 38.6440116,14.9010523 C38.6403837,17.1129949 37.8431512,18.8761577 35.9258023,20.0131591 C34.4170465,20.9074768 32.7418605,21.2478825 31.0358372,21.2844704 C28.0146977,21.3488464 24.9917442,21.3025327 21.8803605,21.3025327 C23.3705233,18.4991641 22.4771512,15.5035936 22.7809884,12.5233066 C21.0296163,12.8970582 19.4170116,13.2643259 17.7939767,13.5769434 C17.1949186,13.6922645 16.9940233,13.8432472 17.2674767,14.5069226 C18.1848837,16.7318331 18.7163721,19.1174521 20.0768372,21.2733551 L14.2880581,21.2733551 C14.3456512,19.164692 13.3493372,17.3218697 12.7729535,15.3618736 C12.6296512,14.8746534 12.4137907,14.9181883 12.0278721,15.0367514 C10.1463488,15.6124308 8.27888372,16.2274768 6.513,17.1116055 C5.03644186,17.8503091 4.00022093,18.9660062 3.96484884,20.7611255 C3.95577907,21.2284308 3.7907093,21.3469939 3.36624419,21.3386574 C2.24023256,21.3164268 1.11376744,21.3307841 -4.05009359e-13,21.3307841 C2.49101163,15.4081873 4.31131395,9.29616755 6.48669767,3.31892064 C6.69666279,2.74185187 7.0549186,2.12541644 7.00095349,1.56224177 C6.95972271,1.13677804 6.31484829,0.57868177 6.513,0.329781587 C6.68795603,0.110017717 7.40144743,0.00886162835 8.65347421,0.0263133204 C10.4054449,-0.0643509051 11.5480814,0.0792769029 12.0813837,0.457196745 C12.8713605,1.01620318 13.0151163,2.54270293 13.416,3.65469501 C14.2213953,5.88933133 15.0249767,8.12443079 15.7922791,10.3720349 C15.9999767,10.9796708 16.2058605,11.220502 16.9151163,11.031079 C18.5181977,10.6017509 20.1484884,10.2669028 21.7815,9.97188452 C22.4948372,9.84313242 22.8000349,9.6129533 22.758314,8.80477913 C22.6825814,7.34265543 22.7111512,5.8726584 22.7442558,4.40729274 C22.7755465,3.00676626 22.7320116,1.63541743 21.7334302,0.226554488 C25.5690349,0.384021089 29.1633837,-0.00223521978 32.7359651,0.477574775 Z" id="Fill-4" fill="#FFFFFF"></path>
            <path d="M27.3953686,15.0679669 C27.3949151,14.1805962 27.4271128,13.2922994 27.3835779,12.4072444 C27.3545547,11.8181341 27.5862872,11.6541836 28.1277523,11.5212632 C29.3821012,11.2123508 30.559357,11.22995 31.7402407,11.8190604 C33.4213221,12.6582647 34.1196942,13.9615324 33.8240198,15.8627101 C33.5882058,17.3822628 32.5030081,18.3275255 30.7498221,18.5896611 C29.8487407,18.7248971 28.9462988,18.7378649 28.0397756,18.7536116 C27.5445663,18.7624112 27.378136,18.5646517 27.3890198,18.0760421 C27.4116942,17.0738135 27.3958221,16.0706586 27.3953686,15.0679669" id="Fill-16" fill="#CD1B25"></path>
            <path d="M27.3090244,5.78873796 C27.3090244,5.48121495 27.3090244,5.17322881 27.3090244,4.8657058 C27.3090244,2.69683494 27.3090244,2.68896161 29.4168384,2.82882901 C29.8258849,2.85615409 30.2358384,2.94646582 30.6344547,3.05020852 C31.7405128,3.33874291 32.55135,3.95147324 32.6941988,5.19870135 C32.82435,6.33755538 32.1704198,7.37915063 31.0076756,7.92379981 C30.0059198,8.39342079 28.90485,8.49623722 27.8559314,8.79125553 C27.3570942,8.93158606 27.2995012,8.61248462 27.3053965,8.21187106 C27.3185477,7.40416003 27.3090244,6.596449 27.3090244,5.78873796" id="Fill-18" fill="#CD1B25"></path>
            <path d="M9.27356512,5.11325256 C10.0018674,7.28953361 10.7084023,9.47461426 11.4738907,11.6374643 C11.674786,12.2057335 11.4983791,12.3872832 11.0113326,12.5178879 C9.47944884,12.9291536 8.00334419,13.4918651 6.59390233,14.2356632 C6.43835581,14.3181016 6.2166,14.4102659 6.07919302,14.3560789 C5.86378605,14.2708617 5.95947209,14.0309567 6.01933256,13.8554277 C7.01473953,10.9362748 8.01286744,8.01851134 9.01054186,5.10028472 L9.27356512,5.11325256 Z" id="Fill-20" fill="#CD1B25"></path>
        </g>
    </g>
</svg>