<?xml version="1.0" encoding="UTF-8"?>
<svg width="56px" height="56px" viewBox="0 0 56 56" version="1.1" xmlns="http://www.w3.org/2000/svg" xmlns:xlink="http://www.w3.org/1999/xlink">
    <!-- Generator: Sketch 55.1 (78136) - https://sketchapp.com -->
    <title>Beyond Meat Inc</title>
    <desc>Created with Sketch.</desc>
    <g id="Beyond-Meat-Inc" stroke="none" stroke-width="1" fill="none" fill-rule="evenodd">
        <rect id="Rectangle-1" x="0" y="0" width="56" height="56" rx="28"></rect>
        <circle id="Oval" fill="#FFFFFF" cx="28" cy="28" r="28"></circle>
        <path d="M45.2307692,28.3589744 C45.2307692,28.3589744 44.8717949,28.3589744 44.8717949,28.3589744 C44.8717949,28.3589744 44.5128205,28.3589744 44.5128205,28.3589744 C44.5128205,28.3589744 44.1538462,28.3589744 44.1538462,28.3589744 C44.1538462,28.3589744 43.7948718,28.3589744 43.7948718,28.3589744 C43.4358974,28.3589744 43.0769231,28.3589744 42.7179487,28.3589744 C40.9230769,28 39.4871795,27.6410256 37.6923077,26.9230769 C36.7670288,26.5641026 37.6923077,26.9230769 36.7670288,26.5641026 C35.8974359,26.2051282 36.2588806,26.3615112 35.8974359,26.2051282 C34.4615385,25.4871795 33.025641,25.1282051 31.5897436,24.4102564 C30.5128205,24.0512821 29.4358974,23.6923077 28,23.6923077 C27.2820513,23.6923077 26.9230769,23.6923077 26.2051282,23.6923077 C25.4871795,23.6923077 24.7692308,24.0512821 24.4102564,24.0512821 C24.7692308,23.6923077 24.7692308,23.6923077 25.1282051,23.3333333 C25.4871795,22.974359 25.8461538,22.2564103 25.8461538,21.5384615 C25.8461538,21.1794872 26.2051282,20.8205128 25.8461538,20.1025641 C25.8461538,20.1025641 26.2051282,20.1025641 26.5641026,19.7435897 C27.6410256,19.025641 28.7179487,18.3076923 30.1538462,17.5897436 C31.9487179,16.8717949 34.4615385,16.1538462 36.974359,16.5128205 C43.7948718,17.2307692 46.6666667,18.6666667 51.6923077,13.2820513 C46.6666667,5.38461538 38.0512821,0 28,0 C16.8717949,0 7.17948718,6.46153846 2.51282051,16.1538462 C3.58974359,17.2307692 6.1025641,18.6666667 11.1282051,17.5897436 C11.8461538,17.2307692 13.2820513,16.8717949 14.3589744,16.8717949 C15.4358974,16.8717949 16.5128205,17.2307692 17.5897436,17.5897436 C25.8461538,19.3846154 27.2820513,14.7179487 27.2820513,14.7179487 C27.2820513,18.3076923 25.8461538,19.7435897 23.6923077,20.4615385 C24.0512821,20.4615385 24.0512821,20.4615385 24.0512821,20.8205128 C24.4102564,21.1794872 24.7692308,21.5384615 24.4102564,22.2564103 C24.4102564,22.974359 24.0512821,23.3333333 23.6923077,23.6923077 C22.974359,24.7692308 21.8974359,25.8461538 21.1794872,26.9230769 C21.1794872,27.2820513 21.1794872,27.2820513 21.5384615,27.2820513 C23.3333333,25.8461538 24.7692308,25.4871795 26.2051282,25.1282051 C26.5641026,25.1282051 27.2820513,25.1282051 27.6410256,25.1282051 C28.7179487,25.1282051 29.7948718,25.4871795 30.8717949,25.8461538 C32.0683761,26.3247863 33.8612128,27.0183108 36.2503052,27.9267273 C36.2503052,27.9267273 36.6113146,28.0708096 37.3333333,28.3589744 C39.1282051,29.0769231 40.5641026,29.4358974 42.7179487,29.7948718 C43.4358974,29.7948718 44.1538462,29.7948718 44.8717949,29.7948718 C45.5897436,29.7948718 46.3076923,29.7948718 46.6666667,29.7948718 C46.6666667,30.8717949 46.6666667,32.3076923 46.6666667,33.7435897 L46.6666667,46.3076923 C46.6666667,47.025641 45.9487179,47.7435897 45.2307692,47.7435897 C44.5128205,47.7435897 44.1538462,47.025641 44.1538462,46.6666667 L44.1538462,45.2307692 C43.7948718,42.7179487 43.0769231,40.5641026 42,38.0512821 C41.6410256,39.4871795 41.2820513,40.5641026 40.9230769,42 C40.5641026,43.0769231 40.2051282,44.5128205 39.8461538,45.5897436 L39.4871795,47.025641 C39.1282051,47.7435897 38.7692308,48.1025641 38.0512821,47.7435897 C37.6923077,47.3846154 37.3333333,47.025641 37.3333333,46.6666667 C37.3333333,46.6666667 38.0512821,40.5641026 37.6923077,36.974359 C34.4615385,39.1282051 30.8717949,39.8461538 27.2820513,39.8461538 C27.2820513,42 26.9230769,44.1538462 26.9230769,46.3076923 C26.9230769,47.025641 26.2051282,47.3846154 25.4871795,47.3846154 C24.7692308,47.3846154 24.4102564,47.025641 24.4102564,46.3076923 L24.0512821,44.1538462 C23.6923077,42.7179487 23.6923077,41.2820513 23.3333333,39.4871795 C22.974359,40.9230769 22.6153846,42.3589744 22.6153846,44.1538462 L22.2564103,46.3076923 C22.2564103,47.025641 21.5384615,47.3846154 20.8205128,47.3846154 C20.1025641,47.3846154 19.7435897,46.6666667 19.7435897,46.3076923 L19.7435897,43.7948718 C19.7435897,42 19.7435897,40.5641026 19.3846154,39.1282051 C19.3846154,39.1282051 19.3846154,38.7692308 19.025641,38.7692308 C17.9487179,37.3333333 17.2307692,35.8974359 16.8717949,34.1025641 C16.5128205,33.025641 16.1538462,31.5897436 15.7948718,30.5128205 C16.5128205,30.1538462 17.5897436,29.4358974 17.5897436,29.4358974 C17.5897436,29.0769231 17.5897436,29.0769231 17.2307692,29.0769231 C16.8717949,29.0769231 16.1538462,29.4358974 15.7948718,29.4358974 C15.0769231,29.4358974 14,29.4358974 13.2820513,29.4358974 C12.2051282,29.4358974 11.4871795,28.7179487 11.4871795,27.6410256 C11.4871795,27.2820513 11.4871795,26.9230769 11.4871795,26.5641026 C11.1282051,24.4102564 10.7692308,22.974359 10.4102564,21.1794872 C10.4102564,20.8205128 10.4102564,20.8205128 10.0512821,20.4615385 C9.33333333,20.4615385 8.61538462,20.4615385 8.25641026,20.4615385 C5.38461538,20.4615385 2.87179487,19.7435897 2.15384615,17.5897436 C0.717948718,20.8205128 0,24.4102564 0,28 C0,43.4358974 12.5641026,56 28,56 C43.4358974,56 56,43.4358974 56,28 C56,26.9230769 56,25.4871795 55.6410256,24.4102564 C53.4871795,26.2051282 50.2564103,28 45.9487179,28.3589744 C45.5897436,28.3589744 45.2307692,28.3589744 45.2307692,28.3589744 Z" id="Path" fill="#79C045" fill-rule="nonzero"></path>
    </g>
</svg>