<svg width="56" height="56" xmlns="http://www.w3.org/2000/svg"><defs><linearGradient x1="50%" y1="0%" x2="50%" y2="100%" id="a"><stop stop-color="#42B2DF" offset="2.978%"/><stop stop-color="#1F85CC" offset="99.322%"/></linearGradient></defs><g fill="none" fill-rule="evenodd"><rect fill="url(#a)" width="56" height="56" rx="28"/><path d="M19.962 32.736l-.065.062c-1.038 1.057-2.239 1.618-3.477 1.618-2.584 0-4.46-1.939-4.46-4.613 0-2.67 1.876-4.611 4.46-4.611 1.238 0 2.44.563 3.477 1.623l.065.064 1.661-2.01-.044-.054c-1.382-1.633-3.04-2.428-5.079-2.428-2.045 0-3.915.689-5.263 1.93C9.773 25.662 9 27.557 9 29.803c0 2.244.773 4.145 2.237 5.49 1.348 1.247 3.218 1.931 5.263 1.931 2.039 0 3.697-.794 5.08-2.428l.043-.05-1.661-2.01zM23.303 36.95h2.935V22.62h-2.935zM37.737 33.835c-.783.477-1.512.716-2.166.716-.949 0-1.377-.5-1.377-1.615v-7.604h2.99v-2.699h-2.99v-4.459l-2.878 1.54v2.92h-2.482v2.698h2.482v8.089c0 2.204 1.306 3.71 3.255 3.748 1.323.026 2.12-.368 2.605-.656l.028-.021.707-2.763-.174.106zM40.169 36.95h2.937V22.62H40.17z" fill="#FFF"/><path d="M44.865 20.077C42.177 16.271 37.715 14 33.174 14c-4.539 0-9.002 2.27-11.685 6.077l-.138.196h3.384l.037-.04c2.303-2.377 5.31-3.634 8.402-3.634 3.093 0 6.099 1.257 8.406 3.633l.037.041H45l-.135-.196z" fill="#E13B2B"/></g></svg>