<svg width="56" height="56" xmlns="http://www.w3.org/2000/svg"><g fill="none" fill-rule="evenodd"><rect fill="#FEC40E" width="56" height="56" rx="28"/><g fill="#000"><path d="M19.9 36.192c.854-.794 1.001-1.776 1.001-2.657v-3.7H16.26v5.02c0 .72-.522 1.302-1.167 1.302-.644 0-1.124-.582-1.124-1.302V20.63c0-.718.48-1.3 1.124-1.3.645 0 1.167.582 1.167 1.3v5.055h4.635V20.44c0-2.897-1.7-5.28-5.84-5.286-4.253 0-5.86 2.395-5.86 5.292V35.3c0 2.87 2.048 5.042 4.665 5.042h1.438l4.602-4.151zM38.196 36.775V20.451h-3.203v-4.808h11.59v4.808h-3.218v19.863h-1.374zM40.272 40.35L28.984 29.817 17.288 40.35z"/><path d="M32.204 15.668H25.74l-3.767 18.821 7.015-6.306L36.3 35.01l-4.096-19.341zm-4.468 11.31l1.25-7.111 1.242 7.112h-2.492z"/></g></g></svg>