<?xml version="1.0" encoding="UTF-8"?>
<svg width="56px" height="56px" viewBox="0 0 56 56" version="1.1" xmlns="http://www.w3.org/2000/svg" xmlns:xlink="http://www.w3.org/1999/xlink">
    <!-- Generator: Sketch 52.4 (67378) - http://www.bohemiancoding.com/sketch -->
    <title>CBK</title>
    <desc>Created with Sketch.</desc>
    <defs>
        <linearGradient x1="84.5100697%" y1="100.00233%" x2="11.1555277%" y2="25.5723728%" id="linearGradient-1">
            <stop stop-color="#FEDF33" offset="0%"></stop>
            <stop stop-color="#FBB809" offset="40.3005452%"></stop>
            <stop stop-color="#EE960D" offset="72.6001884%"></stop>
            <stop stop-color="#E17A10" offset="100%"></stop>
        </linearGradient>
        <linearGradient x1="5.58358483%" y1="76.0331947%" x2="87.9206273%" y2="73.2404709%" id="linearGradient-2">
            <stop stop-color="#FEDF33" offset="0%"></stop>
            <stop stop-color="#FBB809" offset="44.000199%"></stop>
            <stop stop-color="#EE960D" offset="72.2265068%"></stop>
            <stop stop-color="#E17A10" offset="100%"></stop>
        </linearGradient>
        <linearGradient x1="72.6097109%" y1="23.387988%" x2="18.7991041%" y2="100%" id="linearGradient-3">
            <stop stop-color="#FEDF33" offset="0%"></stop>
            <stop stop-color="#FAB609" offset="44.066419%"></stop>
            <stop stop-color="#EE960D" offset="74.17896%"></stop>
            <stop stop-color="#D87301" offset="100%"></stop>
        </linearGradient>
    </defs>
    <g id="CBK" stroke="none" stroke-width="1" fill="none" fill-rule="evenodd">
        <g>
            <circle id="Oval-8" stroke="#E1E1E1" fill="#FFFFFF" cx="28" cy="28" r="27.5"></circle>
            <g id="Group-31" transform="translate(7.000000, 9.000000)" fill-rule="nonzero">
                <path d="M11.3548603,32.945104 C11.3471359,32.945104 11.3381241,32.9425292 11.3329745,32.9335174 L3.1837244,18.8184497 L0.628232851,14.3923641 L0.332130556,13.878691 L0.293508518,13.8130336 C0.290933715,13.807884 0.290933715,13.7988721 0.29608332,13.7885729 L8.05911306,0.342953938 L8.05911306,0.398312193 C7.89046349,0.707288501 7.76944777,0.945457738 7.7050777,1.09479629 C7.38065258,1.82990242 7.1965542,2.84694943 7.24418804,3.83567362 C7.37550297,6.43879901 8.75945935,9.00716457 9.45594345,10.2121722 C11.0883683,13.0393054 14.2437888,18.5068986 14.2437888,18.5068986 C14.2437888,18.5068986 17.4004968,23.9744919 19.0329216,26.8029125 C19.7281183,28.0066327 21.2614132,30.4900298 23.4512828,31.9048838 C24.2816566,32.4417301 25.2575068,32.7893285 26.0531208,32.8768718 C26.6363136,32.9425292 28.5725651,32.945104 30.7662969,32.945104 L11.3548603,32.945104 Z" id="path225" fill="url(#linearGradient-1)" transform="translate(15.529057, 16.644029) scale(-1, 1) rotate(-180.000000) translate(-15.529057, -16.644029) "></path>
                <path d="M0.360453384,36.3219576 C0.482756506,36.108249 0.603772227,35.8971152 0.723500546,35.691131 L0.360453384,36.3219576 Z M39.4099091,32.3825097 C38.934858,31.7362342 38.1469684,31.0654981 37.266386,30.6149077 C34.9452014,29.4266363 32.0305249,29.3403804 30.6401316,29.3403804 L21.0605786,29.3403804 L11.4823131,29.3403804 C10.0919197,29.3403804 7.17338097,29.4266363 4.85605866,30.6149077 C3.97418879,31.0654981 3.1862992,31.7362342 2.71124813,32.3825097 C2.40999623,32.7931907 1.63755546,34.1089148 0.723500546,35.691131 L2.67133869,32.3155648 L10.0018016,19.6179259 C10.0056638,19.6114889 10.0146756,19.6063393 10.0224,19.6063393 L32.1000446,19.6063393 C32.1064816,19.6063393 32.1154934,19.6127763 32.1193556,19.6192133 L41.738818,36.2794733 C40.6779994,34.4423517 39.7484956,32.8421119 39.4099091,32.3825097 Z" id="path249" fill="url(#linearGradient-2)" transform="translate(21.049636, 27.964148) scale(-1, 1) rotate(-180.000000) translate(-21.049636, -27.964148) "></path>
                <path d="M26.0531208,36.0001073 C25.2575068,35.912564 24.2816566,35.5649656 23.4512828,35.0281193 C22.5346531,34.4359147 21.7338895,33.6570369 21.0605786,32.8627103 C21.9965193,31.7594074 22.6839916,30.6277817 23.0882356,29.926148 C24.7206605,27.0977274 27.8786558,21.6301341 27.8786558,21.6301341 C27.8786558,21.6301341 31.0340763,16.1625409 32.6677886,13.3354077 C33.3616979,12.1304001 34.7469416,9.56203452 34.8756818,6.95890913 C34.924603,5.97018494 34.7379298,4.95313793 34.4173669,4.2180318 C34.1920717,3.70435869 33.2973278,2.14274093 32.258395,0.342953938 L41.8276487,16.9156707 C41.8276487,16.9169581 41.8289361,16.9182455 41.8289361,16.9208203 L41.8289361,16.9311195 C41.8289361,16.9336943 41.8276487,16.9362691 41.8263613,16.9375565 L30.7868953,36.0554655 C30.7830331,36.0644773 30.7753087,36.0683395 30.7662969,36.0683395 C28.5725651,36.0683395 26.6363136,36.0657647 26.0531208,36.0001073" id="path273" fill="url(#linearGradient-3)" transform="translate(31.444757, 18.205647) scale(-1, 1) rotate(-180.000000) translate(-31.444757, -18.205647) "></path>
            </g>
        </g>
    </g>
</svg>