<?xml version="1.0" encoding="UTF-8"?>
<svg width="56px" height="56px" viewBox="0 0 56 56" version="1.1" xmlns="http://www.w3.org/2000/svg" xmlns:xlink="http://www.w3.org/1999/xlink">
    <!-- Generator: Sketch 52.4 (67378) - http://www.bohemiancoding.com/sketch -->
    <title>CCL</title>
    <desc>Created with Sketch.</desc>
    <g id="CCL" stroke="none" stroke-width="1" fill="none" fill-rule="evenodd">
        <g>
            <rect id="Rectangle-1" stroke="#E1E1E1" fill="#FFFFFF" x="0.5" y="0.5" width="55" height="55" rx="27.5"></rect>
            <g id="Page-1" transform="translate(10.000000, 9.000000)">
                <polygon id="Fill-1" fill="#000000" points="2.187432 10.737736 9.329912 35.466616 10.267752 35.466616 3.018872 10.494536"></polygon>
                <g id="Group-17" transform="translate(0.000000, 0.556320)">
                    <path d="M9.32976,34.94336 L9.29901653,34.9202391 L2.17829629,10.1502469 L3.04945158,9.9288398 L10.2676,34.94336 L9.32976,34.94336 Z M10.2368684,34.9202802 L3.02770371,9.96847307 L2.21802347,10.1720809 L9.35414353,34.88046 L10.2368684,34.9202802 Z" id="Stroke-2" fill="#000000" fill-rule="nonzero"></path>
                    <g id="Group-6" transform="translate(3.040000, 7.600000)" fill="#ED1721">
                        <path d="M10.74032,12.55672 C11.10512,16.85984 14.84888,20.09136 19.05624,19.6992 C23.24992,19.42256 26.3188,15.64992 25.8476,11.38328 C25.48888,7.00872 21.74512,3.7772 17.5332,4.12528 C13.34104,4.446 10.27216,8.21864 10.74032,12.55672 M0.78584,2.60224 C1.02752,2.15688 7.1516,0.67032 7.10904,0.7296 C11.76024,-0.12616 10.56552,1.8088 10.62176,1.78296 C9.76904,3.572 13.24072,2.774 13.19816,2.71776 C22.04456,0.99104 30.57328,2.90776 30.5292,2.95184 C28.72192,14.33208 34.40368,21.76792 34.39456,21.80592 C27.29768,20.95624 25.34296,21.66 25.3764,21.68888 C19.19152,23.712 14.49624,21.55056 14.48408,21.57184 C11.39696,18.83432 6.03136,20.90912 6.05264,20.8696 C6.384,10.37704 0.55328,2.94728 0.78584,2.60224" id="Fill-4"></path>
                    </g>
                    <path d="M15.88704,19.92264 C15.54808,15.87944 17.64416,12.37432 20.57168,12.19344 C23.60104,11.9016 26.33552,15.02064 26.77784,19.10336 C27.12136,23.19064 25.02528,26.69576 22.09472,26.94808 C19.0684,27.16848 16.33544,24.04944 15.88704,19.92264" id="Fill-7" fill="#093B82"></path>
                    <path d="M0.43016,2.23896 L2.07024,6.92208 L3.1236,6.68952 L0.43016,2.23896 Z M3.85624,7.04672 L0.00456,7.94352 L0,0.96368 L3.85624,7.04672 Z" id="Fill-9" fill="#000000"></path>
                    <path d="M1.71912,8.79624 C1.71152,9.33128 2.10064,9.804 2.5384,9.8496 C3.06432,9.804 3.45496,9.32976 3.47472,8.79624 C3.45496,8.1624 3.06432,7.68968 2.5384,7.74288 C2.10064,7.6912 1.71,8.1624 1.71912,8.79624 M0.63992,8.6716 C0.68552,7.78848 1.40448,7.06952 2.29824,7.01632 C3.18136,7.06952 3.90184,7.78848 3.95656,8.6716 C3.90184,9.5608 3.18136,10.27824 2.29824,10.32688 C1.406,10.27824 0.68552,9.5608 0.63992,8.6716" id="Fill-11" fill="#000000"></path>
                    <path d="M1.36648,9.14888 C1.33,8.52568 1.67808,8.056 2.06872,8.09552 C2.53536,8.05752 2.88344,8.52568 2.888,9.14888 C2.88344,9.68392 2.53536,10.15208 2.06872,10.20224 C1.67808,10.15208 1.33,9.6824 1.36648,9.14888" id="Fill-13" fill="#000000"></path>
                    <path d="M1.48352,7.97696 C1.54128,7.65472 1.81944,7.35528 2.18576,7.39024 C2.50344,7.35528 2.78312,7.65472 2.77096,7.97696 C2.7816,8.39648 2.50344,8.69744 2.18576,8.6792 C1.81944,8.69744 1.54128,8.398 1.48352,7.97696" id="Fill-15" fill="#000000"></path>
                </g>
            </g>
        </g>
    </g>
</svg>