<?xml version="1.0" encoding="UTF-8"?>
<svg width="56px" height="56px" viewBox="0 0 56 56" version="1.1" xmlns="http://www.w3.org/2000/svg" xmlns:xlink="http://www.w3.org/1999/xlink">
    <!-- Generator: Sketch 52.4 (67378) - http://www.bohemiancoding.com/sketch -->
    <title>CL</title>
    <desc>Created with Sketch.</desc>
    <g id="CL" stroke="none" stroke-width="1" fill="none" fill-rule="evenodd">
        <g>
            <circle id="Oval-8" stroke="#E1E1E1" fill="#FFFFFF" cx="28" cy="28" r="27.5"></circle>
            <path d="M48.9999595,25.2271916 C48.9999595,25.2271916 48.4386386,14.1530875 35.78263,14 L31.7513252,14 L29.6428925,23.3808633 L36.2488511,23.4086974 C38.8575244,23.4280266 39.3554454,25.5720252 39.3554454,25.5720252 C39.3554454,25.5720252 39.5077598,27.8296796 37.0073302,28.0863718 L28.5666408,28.0894644 L24.9126426,43.955672 L33.8435214,43.9641768 L35.3225943,37.6381055 L36.0370027,37.6396518 C49.153047,37.3721352 48.9999595,25.2271916 48.9999595,25.2271916 M7.00140224,25.2271916 C7.00140224,25.2271916 7.30680412,14.1530875 19.9628127,14 L29.4542392,14 L27.3272504,23.3808633 L19.4973647,23.4086974 C16.8879183,23.4280266 16.3899972,25.5720252 16.3899972,25.5720252 C16.3899972,25.5720252 16.2376829,27.8296796 18.7373393,28.0863718 L26.2595036,28.0894644 L24.096949,37.6272811 L19.7076668,37.640425 C6.59316884,37.3721352 7.00140224,25.2271916 7.00140224,25.2271916" id="Fill-1" fill="#007AC2"></path>
        </g>
    </g>
</svg>