<?xml version="1.0" encoding="UTF-8"?>
<svg width="56px" height="56px" viewBox="0 0 56 56" version="1.1" xmlns="http://www.w3.org/2000/svg" xmlns:xlink="http://www.w3.org/1999/xlink">
    <!-- Generator: Sketch 52.4 (67378) - http://www.bohemiancoding.com/sketch -->
    <title>CMCSA</title>
    <desc>Created with Sketch.</desc>
    <g id="CMCSA" stroke="none" stroke-width="1" fill="none" fill-rule="evenodd">
        <g>
            <circle id="Oval-8" stroke="#E1E1E1" fill="#FFFFFF" cx="28" cy="28" r="27.5"></circle>
            <g id="Page-1" transform="translate(7.000000, 13.000000)">
                <g id="Group-3" transform="translate(0.000000, 0.148724)" fill="#FFFFFF">
                    <path d="M20.9210776,2.79105672 C21.4990478,1.84731045 22.4579955,0.859840299 23.4906,0.442191045 C25.2679209,-0.366465672 27.6501672,-0.0187119403 29.1002642,1.26087761 C30.503503,2.53216119 31.215309,4.27453433 30.8794657,6.2225194 C31.2236149,6.15904925 31.5710552,5.93870597 31.9354209,5.81333284 C34.1136224,5.19853433 36.4173537,5.86520597 37.8140104,7.73279552 C38.8630701,9.06598209 39.1371672,11.137303 38.5074806,12.7478776 C38.1949881,13.5579448 37.6619955,14.2863627 36.9689955,14.9079 L37.038891,14.978109 C39.065391,15.0765269 41.0569433,16.6502731 41.6715851,18.5797657 C42.3381,20.5260269 41.7518239,22.6058104 40.3285254,24.0292657 C39.1656896,25.1786239 37.6704582,25.5763701 36.0083239,25.5428328 L5.83257761,25.5428328 C3.35489104,25.5962731 1.44044328,24.4986313 0.409719403,22.2953552 C-0.398937313,20.4041015 0.000376119403,17.9851836 1.51049552,16.5435493 C2.46270448,15.5477731 3.65562985,15.139997 4.94195821,14.9346985 C3.4852791,13.5831761 2.78350299,11.7339224 3.19284627,9.75083284 C3.4852791,8.14386269 4.85513731,6.51667612 6.42872687,5.95531791 C7.81519701,5.40398955 9.69312985,5.5008403 10.9628463,6.24916119 L11.0079806,6.19399701 C10.6254358,4.00717612 11.5944134,2.03427313 13.408406,0.824735821 C15.0257194,-0.269301493 17.611697,-0.241092537 19.1953164,0.9219 C19.9071224,1.35772836 20.4933985,2.10620597 20.9210776,2.79105672" id="Fill-1"></path>
                </g>
                <path d="M29.4643164,3.75674328 C30.1126522,5.06485522 29.7318313,6.77886269 29.0551299,7.95329552 L23.8195478,19.7325716 L23.7742567,19.7877358 L21.8817493,7.83810896 C21.729891,6.69063134 22.9558836,6.20104925 23.6775627,5.6497209 C23.640891,5.48109403 23.4553388,5.4894 23.3385851,5.41088507 L21.5695701,5.39239254 L21.5158164,5.33895224 C21.5258463,3.85547463 22.3244731,2.48561642 23.6775627,1.76566119 C25.0911448,0.948855224 27.0822269,1.17092239 28.3083761,2.21841493 C28.8062642,2.66254925 29.2256373,3.17861642 29.4643164,3.75674328" id="Fill-4" fill="#645FAA"></path>
                <path d="M19.8184209,3.3474 C20.2462567,4.13928806 20.4935552,5.03821343 20.3431075,6.03367612 L18.2081597,19.715803 C18.2197567,19.7324149 18.1998537,19.7509075 18.1829284,19.7590567 L17.6300328,18.6582806 L12.2791075,6.70865373 C11.7812194,5.17001194 12.2424358,3.56131791 13.3632716,2.45850448 C14.4925701,1.31259403 16.3502866,1.00182537 17.8271821,1.62336269 C18.6090403,1.96092985 19.355794,2.58246716 19.8184209,3.3474" id="Fill-6" fill="#C9234A"></path>
                <path d="M37.2092575,9.10751194 C37.9292127,10.3352284 37.7673246,12.1931015 36.9668172,13.3324299 C36.4709664,14.1326239 35.6521231,14.5319373 34.9588097,15.0564672 L23.8714366,22.6674 L23.8460485,22.6674 L23.9698545,22.3033478 L29.8470336,9.0374597 C30.7274664,7.47374328 32.4080933,6.68185522 34.1855709,6.92069104 C35.4034142,7.14307164 36.6212575,7.93480299 37.2092575,9.10751194" id="Fill-8" fill="#0089CF"></path>
                <path d="M12.0219358,9.0374597 L18.1379507,22.6659896 L18.0395328,22.6659896 L5.70908507,14.1677284 C4.45425672,13.1103627 3.93991343,11.5265866 4.36586866,9.92619851 C4.68494328,8.72669104 5.68056269,7.60585522 6.86502537,7.16125075 C8.80439104,6.45132537 10.9893313,7.20638507 12.0219358,9.0374597" id="Fill-10" fill="#F36F21"></path>
                <path d="M40.4267866,18.7283328 C41.0414284,20.0264149 40.7993015,21.8038925 39.9205925,22.9079597 C39.0487791,23.9656388 37.8824955,24.543609 36.5142045,24.5067806 L23.366794,24.5152433 L34.3806672,16.8524373 C35.4568388,16.1591239 37.0923313,16.033594 38.2667642,16.5949522 C39.1736821,16.9508552 40.0274731,17.839594 40.4267866,18.7283328" id="Fill-12" fill="#0DB14B"></path>
                <path d="M1.49388358,18.7283328 C0.880965672,20.0264149 1.12136866,21.8038925 2.00180149,22.9079597 C2.87377164,23.9656388 4.03645075,24.543609 5.40646567,24.5067806 L18.5538761,24.5152433 L7.53984627,16.8524373 C6.46398806,16.1591239 4.82865224,16.033594 3.65578657,16.5949522 C2.74839851,16.9508552 1.8949209,17.839594 1.49388358,18.7283328" id="Fill-14" fill="#FDB913"></path>
            </g>
        </g>
    </g>
</svg>