<svg width="56" height="56" xmlns="http://www.w3.org/2000/svg"><g fill="none" fill-rule="evenodd"><rect fill="#F90" width="56" height="56" rx="28"/><path d="M34.494 11s4.075 4.008 5.946 6.075v1.57c-1.744-1.819-5.363-3.338-8.73-3.338-7.615 0-12.398 5.653-12.398 12.65 0 6.971 4.53 12.625 12.399 12.625 3.922 0 7.06-1.819 8.805-3.685v1.493c-2.379 3.213-6.73 5.305-12.145 5.305C18.68 43.695 12 36.772 12 27.957c0-8.814 7.414-15.713 16.371-15.713 2.278 0 4.328.374 6.123.997V11z" fill="#000"/><path d="M23.816 27.957c0 5.03 3.137 9.114 8.502 9.114 5.364 0 8.502-4.084 8.502-9.114 0-5.03-3.138-9.113-8.502-9.113-5.365 0-8.502 4.083-8.502 9.113z" fill="#000"/><path d="M30.092 27.907c0-5.08.48-7.32 2.226-7.32s2.227 2.24 2.227 7.32-.481 7.32-2.227 7.32-2.226-2.24-2.226-7.32z" fill="#F90"/></g></svg>