<?xml version="1.0" encoding="UTF-8"?>
<svg width="56px" height="56px" viewBox="0 0 56 56" version="1.1" xmlns="http://www.w3.org/2000/svg" xmlns:xlink="http://www.w3.org/1999/xlink">
    <!-- Generator: Sketch 52.4 (67378) - http://www.bohemiancoding.com/sketch -->
    <title>COST</title>
    <desc>Created with Sketch.</desc>
    <g id="COST" stroke="none" stroke-width="1" fill="none" fill-rule="evenodd">
        <g>
            <circle id="Oval-8" stroke="#E1E1E1" fill="#FFFFFF" cx="28" cy="28" r="27.5"></circle>
            <path d="M17.6887688,54.0403 L38.3112312,54.0403 C35.1201133,55.3049553 31.6412249,56 28,56 C24.3587751,56 20.8798867,55.3049553 17.6887688,54.0403 Z M11.4671691,50.6002667 L44.5328309,50.6002667 C43.2889638,51.5117406 41.9670595,52.3230047 40.5790083,53.0221687 L15.4209876,53.0221667 C14.0329405,52.3230047 12.7110362,51.5117406 11.4671691,50.6002667 Z M7.43285076,47 L48.5671492,47 C47.7222464,47.9141433 46.8171618,48.771841 45.8581884,49.5668 L10.1418116,49.5668 C9.18283822,48.771841 8.27775362,47.9141433 7.43285076,47 Z" id="Combined-Shape" fill="#005DAA"></path>
            <path d="M43.0891554,12.6976307 C40.3282867,11.8988375 37.1947687,11.4599999 34.0730376,11.4599999 C22.9470539,11.4599999 12.8347489,18.4868415 11.0821186,27.2708469 C9.36938258,35.8553806 16.49596,42.5222666 27.3191095,42.5222666 C29.7862109,42.5222666 34.9933272,42.1632177 37.3751998,41.3254368 L40.0254525,30.0652631 C37.4676821,31.7825325 34.7358274,32.8605861 31.5633218,32.8605861 C27.4351657,32.8605861 24.3714627,30.3046291 25.0324392,26.9897732 C25.6861621,23.7166251 29.5776724,21.1198671 33.7049218,21.1198671 C36.8257461,21.1198671 39.3155148,22.5179819 41.2041485,24.154556 L43.0891554,12.6976307 Z" id="Fill-4" fill="#E31837"></path>
        </g>
    </g>
</svg>