<svg width="56" height="56" xmlns="http://www.w3.org/2000/svg" xmlns:xlink="http://www.w3.org/1999/xlink"><defs><path id="a" d="M43.987.047v30.788H0V.047h43.987z"/></defs><g fill="none" fill-rule="evenodd"><path d="M56 28c0 15.464-12.536 28-28 28S0 43.464 0 28 12.536 0 28 0s28 12.536 28 28" fill="#00A1E0"/><g transform="translate(7 13.003)"><mask id="b" fill="#fff"><use xlink:href="#a"/></mask><path d="M17.977 5.794a6.306 6.306 0 0 1 4.564-1.96c2.375 0 4.448 1.325 5.552 3.292a7.672 7.672 0 0 1 3.138-.667c4.285 0 7.759 3.504 7.759 7.827 0 4.322-3.474 7.827-7.759 7.827a7.702 7.702 0 0 1-1.528-.153 5.67 5.67 0 0 1-7.432 2.335 6.472 6.472 0 0 1-5.957 3.943 6.474 6.474 0 0 1-6.072-4.236 5.937 5.937 0 0 1-1.235.129C5.689 24.13 3 21.413 3 18.06a6.08 6.08 0 0 1 3.004-5.258 6.948 6.948 0 0 1-.575-2.776c0-3.855 3.13-6.98 6.99-6.98a6.981 6.981 0 0 1 5.558 2.747" fill="#FFF" mask="url(#b)"/></g></g></svg>