<?xml version="1.0" encoding="UTF-8"?>
<svg width="56px" height="56px" viewBox="0 0 56 56" version="1.1" xmlns="http://www.w3.org/2000/svg" xmlns:xlink="http://www.w3.org/1999/xlink">
    <!-- Generator: Sketch 53.2 (72643) - https://sketchapp.com -->
    <title>CRON</title>
    <desc>Created with Sketch.</desc>
    <g id="CRON" stroke="none" stroke-width="1" fill="none" fill-rule="evenodd">
        <rect id="Rectangle-1" fill="#FAFAFA" x="0" y="0" width="56" height="56" rx="28"></rect>
        <g id="Group-13" transform="translate(6.000000, 6.000000)">
            <path d="M43.5605873,22.1201782 C43.5372673,34.7917382 34.2387473,44.0664982 21.6301073,43.9952182 C9.00254733,43.9239382 -0.0420926676,34.5418182 0.000147332398,21.5591782 C0.0406273324,8.9316182 9.35630733,-0.026341802 22.4190273,5.81979724e-05 C34.6290273,0.024698198 43.5839073,9.3940582 43.5605873,22.1201782" id="Fill-19" fill="#8AC633"></path>
            <path d="M6.01062967,21.4202371 C6.75976596,10.9588178 13.4494289,5.09692978 23.7655737,5.86220768 C32.307383,6.49545548 38.3253066,14.1523734 37.6105229,23.4772577 C36.9106392,32.60389 29.7156197,38.7228021 20.4639935,38.0605822 C11.6945461,37.4327149 5.38441795,30.1677484 6.01062967,21.4202371" id="Fill-31" fill="#FEFEFE"></path>
        </g>
    </g>
</svg>