<svg width="56" height="56" xmlns="http://www.w3.org/2000/svg"><g fill="none" fill-rule="evenodd"><rect fill="#049FD9" width="56" height="56" rx="28"/><path d="M17.14 41.198h2.194V32.51H17.14v8.688zm19.872-8.53c-.208-.061-.97-.311-1.998-.311-2.672 0-4.63 1.902-4.63 4.497 0 2.799 2.164 4.499 4.63 4.499.974 0 1.722-.232 1.998-.31v-2.331c-.097.052-.814.46-1.845.46-1.46 0-2.4-1.027-2.4-2.318 0-1.331.982-2.318 2.4-2.318 1.048 0 1.755.418 1.845.464v-2.332zm-22.885 0c-.206-.061-.967-.311-1.999-.311-2.668 0-4.626 1.902-4.626 4.497 0 2.799 2.162 4.499 4.626 4.499.98 0 1.727-.232 2-.31v-2.331c-.095.052-.812.46-1.843.46-1.46 0-2.402-1.027-2.402-2.318 0-1.331.982-2.318 2.402-2.318 1.05 0 1.754.418 1.842.464v-2.332zm29.782-.311c-2.673 0-4.589 2.015-4.589 4.497 0 2.485 1.916 4.499 4.589 4.499 2.672 0 4.59-2.014 4.59-4.5 0-2.481-1.918-4.496-4.59-4.496zm2.267 4.497c0 1.264-.968 2.286-2.267 2.286-1.301 0-2.267-1.022-2.267-2.286 0-1.262.966-2.285 2.267-2.285 1.299 0 2.267 1.023 2.267 2.285zM27.648 32.63a9.35 9.35 0 0 0-2.137-.277c-2.02 0-3.237 1.091-3.237 2.716 0 1.438 1.017 2.156 2.239 2.542l.468.15c.543.172.978.426.978.866 0 .493-.502.811-1.593.811-.958 0-1.877-.274-2.07-.323v2c.108.023 1.2.237 2.366.237 1.678 0 3.597-.733 3.597-2.915 0-1.059-.648-2.034-2.071-2.486l-.605-.192c-.36-.114-1.005-.299-1.005-.828 0-.418.477-.712 1.356-.712.759 0 1.681.255 1.714.265v-1.854zM5.177 23.173c0-.599-.49-1.084-1.089-1.084-.598 0-1.088.485-1.088 1.084v2.281a1.089 1.089 0 0 0 2.177 0v-2.28zm5.979-2.993a1.088 1.088 0 0 0-2.177 0v5.274a1.088 1.088 0 0 0 2.177 0V20.18zm5.979-4.095a1.088 1.088 0 0 0-2.178 0V27.62a1.088 1.088 0 0 0 2.178 0V16.085zm5.978 4.095a1.088 1.088 0 0 0-2.177 0v5.274a1.088 1.088 0 0 0 2.177 0V20.18zm5.972 2.993c0-.599-.486-1.084-1.081-1.084-.6 0-1.089.485-1.089 1.084v2.281a1.085 1.085 0 1 0 2.17 0v-2.28zm5.981-2.993a1.085 1.085 0 0 0-2.17 0v5.274a1.085 1.085 0 1 0 2.17 0V20.18zm5.983-4.095a1.085 1.085 0 0 0-2.17 0V27.62a1.085 1.085 0 1 0 2.17 0V16.085zm5.982 4.095c0-.599-.486-1.085-1.099-1.085-.6 0-1.085.486-1.085 1.085v5.274c0 .602.486 1.088 1.085 1.088.613 0 1.099-.486 1.099-1.088V20.18zM53 23.173a1.085 1.085 0 0 0-2.171 0v2.281a1.087 1.087 0 1 0 2.171 0v-2.28z" fill="#FFF"/></g></svg>