<svg width="56" height="56" xmlns="http://www.w3.org/2000/svg"><g fill="none" fill-rule="evenodd"><circle fill="#D81E00" cx="28" cy="28" r="28"/><path d="M48.452 20.892c-1.768-1.73-7.117-6.949-8.678-8.471A1.482 1.482 0 0 0 38.737 12h-2.94c-.41 0-.801.169-1.083.466l-6.236 6.588-.478.038-.478-.038-6.236-6.588A1.491 1.491 0 0 0 20.204 12h-2.94c-.388 0-.76.15-1.038.42-1.56 1.523-6.91 6.741-8.677 8.472A1.827 1.827 0 0 0 7 22.2v3.144c0 .49.197.96.546 1.304L28 46.807l20.455-20.16c.348-.344.545-.814.545-1.304v-3.144c0-.492-.197-.963-.548-1.307" fill="#FFF"/></g></svg>