<svg width="56" height="56" xmlns="http://www.w3.org/2000/svg"><g fill="none" fill-rule="evenodd"><rect fill="#023164" width="56" height="56" rx="28"/><path d="M15.815 53.217A28.124 28.124 0 0 1 4.157 42.689c2.567-1.751 5.16-3.467 7.728-5.216.448-.185.262-.612.09-.925.225.15.447.304.67.46 1.045 5.404 2.108 10.807 3.17 16.209zM26.074 55.935a27.93 27.93 0 0 1-5.409-.905c-1.022-7.01-2.041-14.02-3.062-21.03a1.914 1.914 0 0 0-.237-.546c.883-.118 1.56-.744 2.278-1.212 7.42-5.015 14.854-10.011 22.271-15.029l-.428-.544c.421-.011.843-.017 1.265-.02-5.556 13.097-11.107 26.195-16.678 39.286z" fill="#A70836"/><path d="M4.181 42.727A27.858 27.858 0 0 1 .005 28.525c4.06 2.643 8.121 5.286 12.177 7.935.173.313.358.74-.09.926-2.63 1.79-5.284 3.546-7.91 5.34zM.38 23.38a27.796 27.796 0 0 1 1.75-6.112c13.188-.239 26.376-.462 39.564-.687l.429.545c-7.418 5.017-14.852 10.013-22.271 15.028-.72.468-1.395 1.095-2.279 1.212a15.102 15.102 0 0 0-.314-.12C11.63 29.962 6.006 26.669.38 23.38z" fill="#EF2243"/></g></svg>