<?xml version="1.0" encoding="UTF-8"?>
<svg width="56px" height="56px" viewBox="0 0 56 56" version="1.1" xmlns="http://www.w3.org/2000/svg" xmlns:xlink="http://www.w3.org/1999/xlink">
    <!-- Generator: Sketch 52.4 (67378) - http://www.bohemiancoding.com/sketch -->
    <title>DB</title>
    <desc>Created with Sketch.</desc>
    <g id="DB" stroke="none" stroke-width="1" fill="none" fill-rule="evenodd">
        <g>
            <rect id="Rectangle-1" stroke="#E1E1E1" fill="#FFFFFF" x="0.5" y="0.5" width="55" height="55" rx="27.5"></rect>
            <g id="Page-1" transform="translate(11.000000, 11.000000)" fill="#0014A4">
                <path d="M4.80794,29.19223 L29.22334,29.19223 L29.22334,4.80794 L4.80794,4.80794 L4.80794,29.19223 Z M0.09129,33.91483 L33.9235,33.91483 L33.9235,0.05032 L0.09129,0.05032 L0.09129,33.91483 Z" id="Fill-3"></path>
                <path d="M7.520018,25.825193 C9.340208,23.328233 11.064858,20.958433 12.793758,18.591863 C15.179198,15.327013 17.577388,12.071683 19.944638,8.793573 C20.279198,8.330323 20.627358,8.144003 21.198218,8.156073 C22.895498,8.192113 24.594138,8.169163 26.430308,8.169163 C26.239908,8.471763 26.114958,8.699733 25.962808,8.907813 C21.992458,14.341523 18.013608,19.769283 14.056348,25.212513 C13.718728,25.677123 13.362408,25.850183 12.794438,25.838113 C11.096988,25.802073 9.398178,25.825193 7.520018,25.825193" id="Fill-5"></path>
            </g>
        </g>
    </g>
</svg>