<svg width="56" height="56" xmlns="http://www.w3.org/2000/svg"><g fill="none" fill-rule="evenodd"><rect fill="#092083" width="56" height="56" rx="28"/><g fill="#D7F5FC"><path d="M18.807 36.026l-8.723-5.628 8.826-5.627-8.842-5.629c1.227-.784 2.377-1.52 3.529-2.253 1.522-.97 3.066-1.91 4.56-2.922.57-.386 1-.425 1.538.012.374.305.829.51 1.247.76 2.25 1.455 4.498 2.91 6.798 4.4-.214.15-.334.24-.46.32-2.534 1.612-5.063 3.232-7.61 4.826-.583.365-.67.598-.01.979.956.55 1.87 1.172 2.802 1.763l5.297 3.367-4.004 2.622-.35.234c-.289.164-.58.323-.867.492-1.257.74-2.408 1.652-3.73 2.284M28.527 18.63l7.47-4.68c.302-.19.543-.44.978-.16 2.775 1.788 5.57 3.547 8.479 5.392-1.19.764-2.283 1.469-3.379 2.167-1.627 1.037-3.26 2.065-4.883 3.11-.175.113-.47.131-.43.488.038.324.34.35.497.43 2.831 1.463 5.356 3.407 8.184 5.047l-2.014 1.394c-1.996 1.247-4.01 2.465-5.975 3.759-.617.406-1.054.486-1.676.02-.626-.47-1.278-.94-2.03-1.22l-.007-.007c-.588-.556-1.307-.915-1.999-1.314l-.003.009-.346-.185.008-.047-.043-.022-3.594-2.36 8.827-5.628-8.817-5.611.753-.581M24.749 41.686l-5.833-3.783c2.519-1.602 5.017-3.094 7.4-4.75 1.071-.744 1.815-.744 2.877.002 2.103 1.477 4.325 2.786 6.495 4.167.28.178.548.374.865.59l-1.764 1.23c-2.092 1.31-4.202 2.594-6.266 3.947-.575.377-.972.405-1.526-.002-.71-.521-1.495-.939-2.248-1.401"/></g></g></svg>