<svg width="56" height="56" xmlns="http://www.w3.org/2000/svg" xmlns:xlink="http://www.w3.org/1999/xlink"><defs><radialGradient cx="34.14%" cy="32.345%" fx="34.14%" fy="32.345%" r="75.006%" gradientTransform="rotate(54.244 .475 .392) scale(1 1.42372)" id="a"><stop stop-color="#F2592B" offset="0%"/><stop stop-color="#FFC44A" offset="100%"/></radialGradient><path d="M55.685 27.723c0 15.16-12.293 27.441-27.452 27.441-15.16 0-27.441-12.281-27.441-27.441C.792 12.563 13.073.271 28.232.271c15.16 0 27.453 12.293 27.453 27.452" id="c"/><filter x="-9.1%" y="-9.1%" width="118.2%" height="118.2%" filterUnits="objectBoundingBox" id="b"><feGaussianBlur stdDeviation="2.5" in="SourceAlpha" result="shadowBlurInner1"/><feOffset dx="5" dy="5" in="shadowBlurInner1" result="shadowOffsetInner1"/><feComposite in="shadowOffsetInner1" in2="SourceAlpha" operator="arithmetic" k2="-1" k3="1" result="shadowInnerInner1"/><feColorMatrix values="0 0 0 0 0.756862745 0 0 0 0 0.22745098 0 0 0 0 0.145098039 0 0 0 1 0" in="shadowInnerInner1"/></filter></defs><g fill="none" fill-rule="evenodd"><rect fill="#FFF" width="56" height="56" rx="28"/><path d="M55.685 27.723c0 15.16-12.293 27.441-27.452 27.441-15.16 0-27.441-12.281-27.441-27.441C.792 12.563 13.073.271 28.232.271c15.16 0 27.453 12.293 27.453 27.452" fill="url(#a)"/><use filter="url(#b)" xlink:href="#c" fill="#000"/></g></svg>