<?xml version="1.0" encoding="UTF-8"?>
<svg width="56px" height="56px" viewBox="0 0 56 56" version="1.1" xmlns="http://www.w3.org/2000/svg" xmlns:xlink="http://www.w3.org/1999/xlink">
    <!-- Generator: Sketch 52.4 (67378) - http://www.bohemiancoding.com/sketch -->
    <title>DGX</title>
    <desc>Created with Sketch.</desc>
    <g id="DGX" stroke="none" stroke-width="1" fill="none" fill-rule="evenodd">
        <rect id="Rectangle-1" stroke="#E1E1E1" fill="#FFFFFF" x="0.5" y="0.5" width="55" height="55" rx="27.5"></rect>
        <path d="M40.0315154,44.5315154 C36.6240653,46.8749429 32.4755332,48.25 28,48.25 C24.9866759,48.25 22.1215869,47.6266631 19.5311161,46.5041153 C25.078497,47.7102439 31.6760418,46.0166882 37.1761116,41.6761116 L40.0315154,44.5315154 Z M44.5773838,40.2878151 L41.6716134,37.1818098 C47.1208591,30.2807724 48.4018411,21.650316 45.0152605,15.5344809 C47.522049,18.9315617 49,23.1087659 49,27.625 C49,32.3982409 47.3490502,36.7927675 44.5773838,40.2878151 Z M36.3886966,32.5 L28,32.5 L32.0565253,36.5565253 C26.709011,40.3854426 20.6120962,41.0752997 17.3933983,37.8566017 C13.5857864,34.0489899 15.2478445,26.2135733 21.1057089,20.3557089 C26.9635733,14.4978445 34.7989899,12.8357864 38.6066017,16.6433983 C42.0676198,20.1044164 41.0094175,26.8933386 36.3886966,32.5 Z M8.81652887,36.0287113 C7.6490801,33.4619527 7,30.6179231 7,27.625 C7,16.234127 16.4020203,7 28,7 C31.4735366,7 34.7501017,7.82827569 37.6361126,9.29470121 C30.9583523,6.89416864 22.1869555,9.19819066 15.6925731,15.6925731 C9.70744092,21.6777052 7.28126911,29.5967531 8.81652887,36.0287113 Z" id="Combined-Shape" fill="#35792A"></path>
    </g>
</svg>