<?xml version="1.0" encoding="UTF-8"?>
<svg width="56px" height="56px" viewBox="0 0 56 56" version="1.1" xmlns="http://www.w3.org/2000/svg" xmlns:xlink="http://www.w3.org/1999/xlink">
    <!-- Generator: Sketch 53 (72520) - https://sketchapp.com -->
    <title>DHI</title>
    <desc>Created with Sketch.</desc>
    <g id="DHI" stroke="none" stroke-width="1" fill="none" fill-rule="evenodd">
        <g>
            <rect id="Rectangle-1" stroke="#E1E1E1" fill="#FFFFFF" x="0.5" y="0.5" width="55" height="55" rx="27.5"></rect>
            <g id="Page-1" transform="translate(9.000000, 14.000000)">
                <path d="M0.951219512,0 L38.0487805,0 C38.0481106,0.966484138 38.0494503,1.93150391 38.0454312,2.89798805 C-5.19274375,2.90238116 44.6790627,2.89798805 1.4402179,2.89945242 C1.27677186,2.89798805 1.11466555,2.88773746 0.951219512,2.87455813 L0.951219512,0 Z" id="Fill-1" fill="#E52B28"></path>
                <g id="Group" transform="translate(0.731707, 5.820567)" fill="#28487A">
                    <path d="M10.2078234,17.8808323 C10.2013698,18.3280494 10.2988917,18.7952579 10.1282283,19.2239643 C9.94752585,19.7222706 9.51728195,20.076194 9.05333561,20.2768494 C8.38072098,20.5648749 7.64428683,20.6441004 6.92291122,20.6448409 C6.91143805,14.2527472 6.92076,7.86065362 6.91932585,1.46856 C7.82714049,1.47078128 8.73638927,1.46411745 9.64492098,1.47078128 C9.91095512,1.46707915 10.2157112,1.6484834 10.2178624,1.95205787 C10.252282,2.60955574 10.2286185,3.26927489 10.2099746,3.92751319 C10.2056722,8.57886638 10.2028039,13.2294791 10.2078234,17.8808323 M15.8260917,4.00155574 C15.5414137,3.12118979 15.0566722,2.30005787 14.3862088,1.67587915 C13.5508185,0.891028085 12.41856,0.506747234 11.3006429,0.488236596 C7.84721854,0.483794043 4.39379415,0.489717447 0.939652683,0.484534468 C0.691545366,0.481572766 0.42120878,0.533402553 0.232618537,0.713325957 C0.0648234146,0.861411064 0.168081951,1.11685787 0.287116098,1.26050043 C0.51156,1.49447489 0.854320976,1.48262809 1.14975512,1.51076426 C1.14616976,7.7962366 1.15405756,14.0839302 1.14545268,20.3694026 C1.05223317,20.4560323 0.959730732,20.5426621 0.865794146,20.6285515 C0.632745366,20.6633515 0.37818439,20.6907472 0.19031122,20.8551217 C0.036857561,20.9824749 -0.085044878,21.2379217 0.0849014634,21.4082196 C0.295003902,21.5925855 0.589720976,21.5955472 0.852169756,21.6036919 C3.94920878,21.6014706 7.04553073,21.6059132 10.1432868,21.6007302 C11.2733941,21.5451983 12.399199,21.2919728 13.4418234,20.8343898 C14.2700429,20.4567728 15.0717307,19.8999728 15.514882,19.0618111 C15.8017112,18.5479557 15.9135746,17.9489515 15.8992332,17.3610536 C15.897799,13.2539132 15.8985161,9.14529191 15.8992332,5.03741106 C15.8913454,4.69237277 15.9386722,4.33474723 15.8260917,4.00155574" id="Fill-3"></path>
                    <path d="M29.7779971,10.566983 C28.9555141,10.5840128 28.1337483,10.566983 27.3112654,10.5729064 C27.3026605,7.53790213 27.3055288,4.50437872 27.3105483,1.46863404 C28.0778166,1.4730766 28.845802,1.46048936 29.6130702,1.47381702 C30.0232361,1.479 30.404002,1.8647617 30.3810556,2.29642979 C30.3789044,4.7790766 30.384641,7.26246383 30.3789044,9.74511064 C30.3975483,10.1190255 30.1766898,10.5484723 29.7779971,10.566983 M37.9519141,20.7345064 C37.5568068,20.6315872 37.1480751,20.7100723 36.7486654,20.6700894 C36.6231776,20.6256638 36.5371288,20.5116383 36.4345873,20.4309319 C36.431719,18.2103957 36.4353044,15.9883787 36.4324361,13.7678426 C36.3851093,13.1710596 36.1040166,12.6105574 35.7562361,12.1411277 C34.9997239,11.2267021 33.766358,11.0630681 32.6900312,10.8476043 C33.30528,10.5966 33.9169434,10.2900638 34.3894946,9.79842128 C35.1130215,9.10834468 35.5016751,8.09914468 35.5282068,7.09142553 C35.5432654,6.06593617 35.4966556,5.04118723 35.4012849,4.02088085 C35.3561093,3.4248383 35.0757337,2.88506809 34.7473141,2.40527234 C34.3055971,1.77665106 33.7498654,1.22355319 33.090158,0.843714894 C32.7925727,0.668234043 32.4541141,0.568276596 32.109919,0.573459574 C28.3517385,0.5742 24.592841,0.5742 20.8339434,0.573459574 C20.7063044,0.575680851 20.5829678,0.609740426 20.4589141,0.634914894 C20.4388361,0.891102128 20.4137385,1.14654894 20.3864898,1.40273617 C20.6855093,1.49602979 21.0003044,1.46937447 21.3086459,1.46789362 C21.4355678,1.60413191 21.6370654,1.72778298 21.5969093,1.94842979 C21.5954751,8.03028511 21.5969093,14.1121404 21.5961922,20.1932553 C21.4549288,20.3406 21.3143824,20.4879447 21.1745532,20.6360298 C20.9264459,20.6552809 20.6094995,20.559766 20.4417044,20.8085489 C20.2559824,20.972183 20.3119141,21.2261489 20.3728654,21.4364298 C20.5241678,21.4608638 20.6754702,21.4860383 20.829641,21.489 C23.3809873,21.4904809 25.9316166,21.4815957 28.4822459,21.4927021 C28.5711629,21.2261489 28.561841,20.9477489 28.4901337,20.6789745 C28.4492605,20.6575021 28.3689483,20.6123362 28.3280751,20.5901234 C28.0240361,20.5923447 27.7164117,20.6278851 27.415958,20.5760553 C27.3234556,20.4709149 27.3040946,20.3272723 27.2954898,20.1925149 C27.327758,17.3618681 27.2954898,14.5297404 27.3141337,11.6983532 C27.8892263,11.699834 28.4650361,11.6953915 29.0401288,11.6983532 C29.4696556,11.7146426 29.9278654,11.7842426 30.27708,12.063383 C30.4305337,12.1803702 30.4290995,12.3891702 30.4305337,12.5653915 C30.4262312,15.1065319 30.4319678,17.6461915 30.4276654,20.1873319 C30.4032849,20.5153404 30.6133873,20.7863362 30.7811824,21.041783 C30.9762263,21.3194426 31.2465629,21.6111702 31.6065337,21.6015447 C33.5426312,21.6059872 35.4787288,21.6000638 37.4155434,21.6045064 C37.5955288,21.617834 37.7661922,21.5548979 37.930402,21.4815957 C38.0279239,21.2416979 38.0128654,20.9818085 37.9519141,20.7345064" id="Fill-5"></path>
                    <path d="M18.0869298,9.20363745 C18.814759,8.91042894 19.7297444,9.26287149 20.0452566,10.0114417 C20.3507298,10.6763438 20.0674859,11.5315353 19.4500859,11.8869396 C18.667042,12.4067183 17.4802859,12.0054077 17.1941737,11.0791353 C16.9224029,10.332046 17.373442,9.45834383 18.0869298,9.20363745" id="Fill-7"></path>
                </g>
            </g>
        </g>
    </g>
</svg>