<svg width="56" height="56" xmlns="http://www.w3.org/2000/svg"><defs><linearGradient x1="97.244%" y1="0%" x2="0%" y2="100%" id="a"><stop stop-color="#FFD22A" offset="0%"/><stop stop-color="#29DEAA" offset="100%"/></linearGradient></defs><g fill="none" fill-rule="evenodd"><rect fill="url(#a)" width="56" height="56" rx="28"/><path d="M47.371 30.995c.075.677-.1 1.96-.13 2.128-.055.39-.35 1.288-.397 1.399-.237.544-.47.994-.72 1.44-.424.764-1.433 1.976-2.034 2.494-2.228 1.927-5.679 3.024-8.64 3.386-2.008.243-4.316.205-6.446-.188-.731-.135-1.82-.384-1.82-.384s.002.436-.033.743a3.098 3.098 0 0 1-.182.626c-.155.32-.409.485-.777.554-.446.086-.919.111-1.332-.063-.676-.287-.92-.921-1.036-1.647-.096-.586-.196-1.602-.196-1.602s-.506-.239-.928-.45a23.828 23.828 0 0 1-3.604-2.209 43.492 43.492 0 0 1-1.864-1.563c-.794-.75-1.507-1.5-2.05-2.462-.423-.751-.544-1.42-.224-2.215.445-1.108 2.034-1.945 3.123-2.422.8-.352 3.284-1.164 4.317-1.313.487-.07 1.243-.204 1.289-.236a.217.217 0 0 0 .046-.042c.024-.034.064-1.133.056-1.534-.01-.396.292-2.988.389-3.536.052-.3.277-1.441.507-1.74.149-.202.415-.188.63-.053 1.184.735 1.543 3.288 1.631 4.588.053.79.08 1.981.08 1.981s1.357-.039 2.193-.017c.812.02 1.706.149 2.55.283 1.078.17 3.18.63 4.386 1.242.994.503 1.923 1.352 2.223 2.25.28.823.238 1.391-.188 2.134-.478.84-1.385 1.461-2.304 1.513-.274.018-1.303-.12-1.619-.364-.126-.1-.118-.276-.028-.395.034-.043.514-.295.799-.447.142-.077.26-.16.37-.26.237-.211.449-.439.425-.705-.033-.349-.4-.564-.752-.702-1.646-.653-4.933-1.197-6.524-1.291-.621-.037-1.505-.068-1.505-.068l.187 8.772s.732.14 1.307.235a34.92 34.92 0 0 0 2.105.184c2.835.075 6-.177 8.6-1.408 1.143-.538 2.19-1.206 2.983-2.11 1.047-1.202 1.595-2.84 1.45-4.553-.16-1.875-1.478-4.094-2.528-5.447-2.78-3.575-7.543-6.513-11.733-8.236-4.279-1.759-8.507-2.772-13.05-2.941-1.169-.042-3.723.017-5.011.374-.186.051-.371.114-.543.15a1.548 1.548 0 0 0-.406.17 2.03 2.03 0 0 0-.065.063s.08.043.156.077c.137.06.712.094 1.01.148.265.05.545.192.653.389.104.184.12.33-.007.484-.293.358-1.394.295-1.877.22-.504-.082-1.13-.234-1.246-.673-.132-.517.11-1.023.376-1.492.534-.936 1.295-1.424 2.413-1.727 1.585-.436 3.588-.742 5.086-.8 3.39-.125 6.599.465 9.883 1.464a46.84 46.84 0 0 1 6.143 2.39c1.29.621 3.329 1.77 4.473 2.52.36.237 2.473 1.788 2.8 2.06.685.56 1.581 1.364 2.228 2.008 1.254 1.243 2.814 3.147 3.574 4.657.18.364.323.72.556 1.14.081.142.429 1.003.486 1.252.057.246.14.607.153.62.017.133.176.87.163 1.157zM23.627 29.99s-1.296.092-2.186.191c-1.135.121-3.267.49-4.495.931-.37.13-1.12.444-1.186.821-.066.396.176.702.45 1.021.156.184 1.044 1.039 1.293 1.247 1.044.87 3.16 2.216 4.722 2.87.533.221 1.42.538 1.42.538s-.066-2.523-.053-5.008c.005-1.314.035-2.61.035-2.61z" fill="#FFF"/></g></svg>