<?xml version="1.0" encoding="UTF-8"?>
<svg width="56px" height="56px" viewBox="0 0 56 56" version="1.1" xmlns="http://www.w3.org/2000/svg" xmlns:xlink="http://www.w3.org/1999/xlink">
    <!-- Generator: Sketch 53.2 (72643) - https://sketchapp.com -->
    <title>DLR</title>
    <desc>Created with Sketch.</desc>
    <g id="DLR" stroke="none" stroke-width="1" fill="none" fill-rule="evenodd">
        <g>
            <rect id="Rectangle-1" stroke="#E1E1E1" fill="#FFFFFF" x="0.5" y="0.5" width="55" height="55" rx="27.5"></rect>
            <g id="Group" transform="translate(12.000000, 10.000000)">
                <path d="M18.981818,34.5084075 L18.981818,30.1302083 L16.7999998,30.7878788 L16.7999998,35.3773476 L14.6183712,36.2462121 L14.6183712,0.120975379 L16.7999998,0.99535626 L16.7999998,7.4109419 L18.981818,8.03239753 L18.981818,1.86981312 L25.4545455,4.46403522 L25.4545455,8.50268308 L27.6363636,9.06247615 L27.6363636,11.5329861 L29.8493395,12.0087595 L29.8493395,9.05381944 L27.6675213,8.39459405 L27.6675213,5.35097985 L31.9396307,7.06321023 L31.9396307,29.3477746 L18.981818,34.5084075 Z M16.7999998,11.5151515 L16.7999998,15.2644807 L18.981818,15.3692787 L18.981818,11.8453677 L16.7999998,11.5151515 Z M16.7999998,22.6666667 L16.7999998,26.5752249 L18.981818,26.1408617 L18.981818,22.4406664 L16.7999998,22.6666667 Z M21.1030301,20.4034979 L21.1030301,27.3099846 L23.2848483,26.7317708 L23.2848483,20.2588482 L21.1030301,20.4034979 Z M25.4545455,24.8400213 L25.4545455,28.0603101 L27.6363636,27.4590436 L27.6363636,24.4164891 L25.4545455,24.8400213 Z M27.6363636,15.7307647 L27.6363636,24.4169697 L29.8493395,23.9364252 L29.8181818,15.8415009 L27.6363636,15.7307647 Z M21.1030301,6.44578598 L21.1030301,10.2261679 L23.316006,10.7019413 L23.316006,7.11442551 L21.1030301,6.44578598 Z M23.2848483,13.9125631 L23.2848483,17.3527528 L25.5636365,17.3527528 L25.5958807,14.2247475 L23.2848483,13.9125631 Z M18.8242428,17.2078007 L18.8242428,20.5524347 L21.103031,20.4039714 L21.103031,17.2532256 L18.8242428,17.2078007 Z" id="Combined-Shape" fill="#468ECA"></path>
                <polygon id="Path-2" fill="#1B51A2" points="0.0729166667 7.09753788 0.0729166667 28.9457863 12.7249053 35.6254735 12.7249053 0.584003434"></polygon>
            </g>
        </g>
    </g>
</svg>