<svg width="56" height="56" xmlns="http://www.w3.org/2000/svg" xmlns:xlink="http://www.w3.org/1999/xlink"><defs><rect id="a" width="56" height="56" rx="28"/></defs><g fill="none" fill-rule="evenodd"><mask id="b" fill="#fff"><use xlink:href="#a"/></mask><use fill="#003F87" xlink:href="#a"/><g mask="url(#b)"><path fill="#FFF" d="M-5 21h19v15H-5z"/><path d="M21.012 28.241c0-3.844.01-7.688-.011-11.531-.003-.544.12-.716.675-.71 3.806.04 7.613.028 11.419.06 1.171.01 2.324.201 3.425.648 2.185.886 3.231 2.66 3.643 4.928.117.65.178 1.306.177 1.968-.003 3.136.019 6.273-.008 9.409-.017 1.994-.371 3.906-1.742 5.442-1.274 1.428-2.97 1.908-4.768 2.025-3.092.202-6.189.055-9.283.09-.963.01-1.928-.03-2.889.013-.518.023-.653-.138-.65-.669.023-3.89.012-7.782.012-11.673" fill="#FEFEFE"/><path d="M29.01 28.013c0-2.12.012-4.24-.01-6.36-.005-.466.077-.651.589-.653 2.225-.007 2.628.386 2.628 2.704v8.905c0 .4-.012.795-.119 1.19-.197.73-.662 1.097-1.378 1.163-1.71.159-1.71.159-1.71-1.578v-5.37" fill="#014890"/></g></g></svg>