<svg width="56" height="56" xmlns="http://www.w3.org/2000/svg"><g fill="none" fill-rule="evenodd"><rect fill="#FBC400" width="56" height="56" rx="28"/><path d="M17.474 25.998c-.827-6.54 3.738-11.405 9.11-11.94 5.9-.59 11.165 3.389 11.485 9.963.41-1.033.61-2.02.812-3.003.303-1.472.53-2.958.604-4.461.025-.515.187-.551.634-.433 2.436.644 4.877 1.265 7.324 1.861.448.109.597.276.548.752-.48 4.62-2.068 8.772-5.158 12.204-5.025 5.578-11.292 7.39-18.44 5.8-5.044-1.122-8.493-4.416-10.625-9.175-1.34-2.993-1.88-6.15-1.75-9.436.015-.36.13-.532.468-.633a60.806 60.806 0 0 0 2.785-.896c.384-.134.48-.07.437.35-.247 2.448-.005 4.84.831 7.158.24.666.548 1.298.935 1.889" fill="#221F20"/><path d="M22.286 38.55c-.244.224-.504.428-.727.674a608.448 608.448 0 0 0-3.655 4.065c-.214.24-.433.363-.758.358-1.37-.022-2.741-.01-4.103-.01-.063-.253.101-.324.193-.426 1.346-1.495 2.701-2.98 4.041-4.483.233-.26.466-.38.804-.375 1.248.02 2.497.005 3.746.006.119 0 .237.015.356.023l.103.168M45.943 43.584c-.874 0-1.592.005-2.31-.001-.764-.006-1.612.2-2.265-.098-.651-.297-1.108-1.103-1.646-1.691a883.854 883.854 0 0 1-2.44-2.681c-.168-.186-.33-.38-.596-.684.92 0 1.692-.012 2.465.003.726.013 1.534-.24 2.155.095.618.334 1.051 1.073 1.564 1.636.838.922 1.675 1.843 2.511 2.766.156.172.303.353.562.655" fill="#221F1F"/><path d="M29.602 38.355c1.447 0 2.894.001 4.34-.002.16 0 .264.088.369.206 1.433 1.613 2.869 3.224 4.302 4.838.034.038.05.095.13.25h-1.154l-3.014-.004c-.213 0-.408-.002-.588-.2-1.494-1.627-3-3.242-4.501-4.861l.116-.227" fill="#231F20"/><path d="M34.629 24.085c.006 3.798-2.995 6.853-6.735 6.856-3.63.004-6.63-3.093-6.637-6.85-.006-3.822 2.968-6.898 6.686-6.914 3.69-.017 6.679 3.071 6.686 6.908" fill="#FDC400"/><path d="M25.614 41.586l-1.842 2.061H19.2c.018-.274.2-.39.326-.53 1.315-1.48 2.637-2.951 3.958-4.425.15-.168.284-.341.54-.339 1.425.01 2.85.005 4.433.005l-2.843 3.228" fill="#221F20"/></g></svg>