<?xml version="1.0" encoding="UTF-8"?>
<svg width="56px" height="56px" viewBox="0 0 56 56" version="1.1" xmlns="http://www.w3.org/2000/svg" xmlns:xlink="http://www.w3.org/1999/xlink">
    <title>DPZ</title>
    <g id="DPZ" stroke="none" stroke-width="1" fill="none" fill-rule="evenodd">
        <circle id="Oval" stroke="#EAEAEA" fill="#FFFFFF" cx="28" cy="28" r="27.5"></circle>
        <g id="Domino's_pizza_logo" transform="translate(6.000000, 6.000000)" fill-rule="nonzero">
            <path d="M14.2195122,14.1926829 L27.5268293,0.885365854 C28.5195122,-0.107317073 29.6463415,-0.295121951 30.8536585,0.885365854 L43.2219512,13.2536585 C44.1073171,14.1390244 44.0268293,15.4804878 43.2219512,16.2853659 L16.3121951,43.1682927 C15.3463415,44.1341463 14.0853659,44.295122 12.9585366,43.1682927 L0.858536585,31.0682927 C-0.107317073,30.102439 -0.0268292683,28.5731707 0.858536585,27.6878049 L14.2195122,14.1926829 Z" id="path3022" fill="#FFFFFF"></path>
            <path d="M14.4341463,15.5609756 L28.3585366,29.4853659 L15.695122,42.1487805 C14.9170732,42.9268293 14.1121951,42.9536585 13.3073171,42.1487805 L1.71707317,30.5585366 C0.992682927,29.8341463 1.04634146,29.0292683 1.71707317,28.3585366 L14.4341463,15.5609756 Z" id="path3000" fill="#006491"></path>
            <path d="M29.2439024,28.6536585 L15.3195122,14.7292683 L27.9829268,2.06585366 C28.7609756,1.28780488 29.5658537,1.26097561 30.3707317,2.06585366 L41.9609756,13.6560976 C42.6853659,14.3804878 42.6317073,15.1853659 41.9609756,15.8560976 L29.2439024,28.6536585 Z" id="path3002" fill="#E31837"></path>
            <circle id="Oval" fill="#FFFFFF" cx="29.1634146" cy="14.7560976" r="3.43414634"></circle>
            <circle id="Oval" fill="#FFFFFF" cx="19.5317073" cy="29.4853659" r="3.43414634"></circle>
            <circle id="Oval" fill="#FFFFFF" cx="9.49756098" cy="29.4853659" r="3.43414634"></circle>
        </g>
    </g>
</svg>