<svg width="56" height="56" xmlns="http://www.w3.org/2000/svg"><g transform="translate(-3)" fill="none" fill-rule="evenodd"><rect fill="#AB1A2F" x="3" width="56" height="56" rx="28"/><path d="M17.932.048c.083.051.623.384 1.204.747 5.129 3.177 8.928 7.267 11.222 12.073.706 1.484 1.495 3.851 1.796 5.387 1.277 6.395-1.557 13.9-8.253 21.904-2.107 2.512-5.325 5.647-8.045 7.827-4.245 3.394-10.34 7.048-15.311 9.177-.343.155-.582.27-.54.28.156 0 3.114-.914 4.868-1.516 8.222-2.823 15.561-6.862 21.219-11.668 1.65-1.411 4.194-4.007 5.44-5.554 3.134-3.913 4.982-7.712 5.813-11.937.321-1.61.394-4.443.166-6.104-1.08-7.713-6.613-14.346-15.79-18.966C20.195.94 17.476-.253 17.932.048" fill="#FFF"/><path d="M57.39 8.615c-5.605.509-11.377 1.848-16.194 3.737-1.816.716-4.972 2.138-5.232 2.377-.093.083-.332.218-.529.311-.198.094-.498.26-.675.374-.166.114-.425.26-.57.332-.146.073-.8.488-1.454.924-7.412 4.93-10.9 11.294-9.218 16.786.28.934 1.017 2.523 1.142 2.45.135-.083 1.94-2.865 2.501-3.852.489-.85.489-.86.489-1.826 0-1.734.373-3.302 1.172-4.942 2.315-4.765 7.682-9.166 15.229-12.498 4.194-1.848 9.52-3.364 14.315-4.07.602-.093 1.11-.186 1.142-.207.062-.073-.457-.042-2.118.104M33.494 40.255c-.415.467-.997 1.121-1.298 1.454-.623.695-.696.602.8 1.245 1.307.582 2.896 1.121 4.39 1.516l1.163.3 1.11-1.183c.624-.664 1.133-1.235 1.153-1.276.01-.042-.54-.28-1.225-.52-1.536-.54-3.197-1.276-4.328-1.91-.467-.27-.893-.487-.935-.487-.041.01-.425.394-.83.861" fill="#FFF"/></g></svg>