<svg width="56" height="56" xmlns="http://www.w3.org/2000/svg" xmlns:xlink="http://www.w3.org/1999/xlink"><defs><rect id="a" width="56" height="56" rx="28"/></defs><g fill="none" fill-rule="evenodd"><mask id="b" fill="#fff"><use xlink:href="#a"/></mask><use fill="#00A1F3" xlink:href="#a"/><g mask="url(#b)"><path d="M22.295 24.35l-.275.366s1.938-.094 1.938.085c-.029.106-.546.302-.79.404-.254.093-1.959.749-1.959.749s.197.392.546.438c.193.025.843-.134.878-.176.034-.043 1.04.344 1.04.344l-.07.59 1.041-.21-.057-1.088 1.37-.68s.017-.8-.077-.871c-.19-.146-.58-.26-.854-.301l-2.73.35z" fill="#FFF"/><path d="M33.242 10.218l-2.547 6.686c.297-1.452-.154-3.353-2.068-4.492-2.065-1.23-5.03-1.122-7.667.565.884-.277 1.818-.343 2.753-.28.82.056 1.628.252 2.316.583.882.427 1.432 1.03 1.713 1.694.232.55.288 1.12.204 1.643-.081.507-.289.963-.587 1.293-.197.215-.471.283-.535.31.199-.721.085-1.102-.013-1.444-.418-1.483-1.93-2.258-3.249-2.198-1.792.08-3.031.746-3.964 2.175 1.667-1.295 4.165-.717 4.207.765.026.974-2.009 1.609-3.804.84-2.091-.892-3.739-1.37-5.417-1.28-.437.021-.872.09-1.319.19-2.149.49-3.901 1.573-4.436 3.503.133-.299.74-1.483 3.408-1.714a12.392 12.392 0 0 1 1.898-.006c2.281.153 3.849 1.544 5.533 1.812 1.61.254 2.524.046 3.458-.897 1.514 2.572 4.076 1.43 4.076 1.43.202 1.033.342 1.948.358 2.346.038.84-.702 1.061-.665 1.86.039.872 1.822 5.386 1.822 5.386.317.345.323.873-.287 1.29-.24.167-.722.224-.839.205a1.67 1.67 0 0 0-.083-.361c-.497-.262-1.576-.258-1.998.18l.195.323c.364-.23 1-.27 1.366-.07-.127.087-.275.283-.362.439-.264.636.115 1.437.115 1.437l-.288.487c-.07-.086-.126-.13-.194-.199-.2-.198-.498-.125-.498-.125l-2.27.303-.274.43s1.677.246 2.041.334c.595.145.873 1.024.43 1.56-.427.15-.69.491-.767.972.075.278.66 1.023.56 1.726-.176 1.21-1.403 1.655-2.25 1.644-.069 0-.314-.03-.514-.066L16.298 40.2-.781 52.936l17.088-10.301L2.19 56.785l16.337-13.289L6.951 58.968l14.16-15.349-8.578 15.849 11.213-16.251-4.936 15.609 7.644-16.472-1.35 14.916 3.933-16.004 2.698 13.315-.213-14.714 6.78 11.18-4.283-12.885 10.64 8.367L36.31 36.3l14.265 4.658-12.184-6.716 16.962.616L40.1 32.009l19.017-3.507-17.571 1.046 19.44-7.269-18.567 4.799 18.47-10.373-18.267 7.99L58.474 12.09 41.82 22.796 54.515 9.383 40.269 21.436l8.958-13.212-11.25 12.56 5.554-12.56-8.288 12.628 2.716-11.634-5.906 12.418 1.189-11.418z" fill="#FFF"/><path d="M5.973 32.102c3.207 1.174 5.7-.058 6.027-2.32 0 0 2.112.46 3.946-.972 1.462-1.141 1.511-2.498.957-4.157 1.278-.42 2.812-1.48 3.347-2.69-1.288.945-3.29 1.177-5.593.949-1.669-.163-3.41-.823-5.314-1.427-.491-.157-.99-.31-1.505-.45-3.628-.987-6.625-.621-8.568.413-1.809.964-2.42 2.45-2.24 3.754 1.03-2.845 5.453-2.943 9.723-1.568l.597.194c2.89.928 5.716 1.736 7.828 1.21-.094 1.35-1.325 2.248-3.05 2.045-1.14-.133-2.148-.604-3.598-.722-2.25-.181-3.982.52-4.575 2.26 1.256-1.378 5.632-1.254 5.255.834-.253.956-1.604.881-2.515.705-1.66-.438-2.545-.45-3.521-.327-2.01.248-2.69 1.458-2.74 2.137.678-.78 1.61-1.307 5.539.132M17.857 14.523c.47-.478 1.072-.937 1.578-1.283-1.83-.73-4.757-1.538-7.58-1.426-4.17.17-7.514 2.139-8.999 5.049 1.221-1.236 3.385-2.204 5.295-2.667 2.732-.665 5.831-.561 8.995.755.083.034.168.07.25.106.13-.179.285-.358.461-.534" fill="#FFF"/></g></g></svg>