<svg width="56" height="56" xmlns="http://www.w3.org/2000/svg"><g fill="none" fill-rule="evenodd"><rect fill="#E40878" width="56" height="56" rx="28"/><g fill="#FFF"><path d="M30.325 26.168c0 3.344-.002 6.687.003 10.03 0 .43.018.86.06 1.288.16 1.652.728 2.293 2.345 2.608.454.089.934.174 1.386.12.92-.108 1.144.27 1.08 1.119-.043.548-.25.65-.733.65-4.3-.013-8.6-.02-12.899.007-.662.004-.79-.263-.75-.823.033-.492-.103-1.01.728-.947.588.044 1.199-.039 1.783-.152 1.541-.298 2.2-.988 2.265-2.56.087-2.082.076-4.168.08-6.253.01-5.23-.028-10.46.03-15.69.012-1.006-.382-1.07-1.166-.956-3.389.492-5.755 2.89-6.5 6.625-.09.453-.144.914-.232 1.369-.076.393.179 1.037-.65.902-.624-.102-1.115-.121-1.05-1.098.194-2.87.222-5.751.27-8.629.01-.577.194-.712.743-.71 7.265.015 14.53.013 21.797 0 .489 0 .694.094.704.647.05 2.943.106 5.888.254 8.828.048.958-.563.863-1.112.956-.797.136-.507-.502-.564-.848-.26-1.574-.613-3.112-1.429-4.511-1.205-2.068-3.051-3.152-5.382-3.54-.805-.133-1.099.057-1.086.943.052 3.541.022 7.084.022 10.625h.003z"/><path d="M39.802 29.33c0 .792-.019 1.584.007 2.376.014.422-.116.578-.56.572a189.381 189.381 0 0 0-4.787.001c-.426.005-.59-.134-.586-.564.014-1.585.015-3.17-.004-4.754-.006-.465.153-.64.633-.633 1.562.02 3.125.021 4.687-.005.487-.008.635.165.618.63-.03.79-.008 1.584-.008 2.376M22.602 29.33c0 .792-.019 1.584.007 2.376.014.422-.116.578-.56.572a189.381 189.381 0 0 0-4.787.001c-.426.005-.59-.134-.586-.564.014-1.585.015-3.17-.004-4.754-.006-.465.153-.64.633-.633 1.562.02 3.125.021 4.687-.005.487-.008.635.165.618.63-.03.79-.008 1.584-.008 2.376"/></g></g></svg>