<?xml version="1.0" encoding="UTF-8"?>
<svg width="56px" height="56px" viewBox="0 0 56 56" version="1.1" xmlns="http://www.w3.org/2000/svg" xmlns:xlink="http://www.w3.org/1999/xlink">
    <!-- Generator: Sketch 52.4 (67378) - http://www.bohemiancoding.com/sketch -->
    <title>DVA</title>
    <desc>Created with Sketch.</desc>
    <g id="DVA" stroke="none" stroke-width="1" fill="none" fill-rule="evenodd">
        <g>
            <rect id="Rectangle-1" stroke="#E1E1E1" fill="#FFFFFF" x="0.5" y="0.5" width="55" height="55" rx="27.5"></rect>
            <path d="M40.4149827,8 C42.2629576,14.8372368 38.9917984,21.8530481 34.2744568,26.7192018 C39.4639384,29.4668132 43.154477,34.7171726 44,40.5289592 C41.2672698,35.3110679 34.7303627,33.0626533 29.1742623,33.877061 C24.3243426,39.2424114 19.5028325,44.7944534 13.4570052,48.8840788 C16.8796821,43.0749979 22.7347594,33.5664442 22.7347594,29.4614019 C18.9914602,27.5931344 15.0939376,25.8439165 12,22.9515515 C13.7370424,23.1233618 16.2329232,23.639427 17.8926867,23.639427 C20.1893673,23.639427 22.6644119,22.814915 24.9953496,21.3524985 C25.7759364,17.6538429 26.359009,13.9037795 26.2818974,10.1104253 C28.5573687,12.9026803 29.9426735,16.4214086 30.2673544,20.0118373 C31.2622595,20.0446909 33.566106,18.7740065 35.5292614,16.4611002 C37.4924168,14.1481938 39.8227525,9.75983247 40.4149827,8 Z" id="Fill-1" fill="#F5B749"></path>
        </g>
    </g>
</svg>