<svg width="56" height="56" xmlns="http://www.w3.org/2000/svg"><g fill="none" fill-rule="evenodd"><rect fill="#FFE000" width="56" height="56" rx="28"/><path d="M32.68 34.036c.129.071.244 0 .363-.043.058-.02.126-.032.16.026.036.06-.015.11-.055.156-.056.062-.114.124-.164.191-.158.212-.206.395.085.554.227.125.26.214-.026.39-.455.279-.865.64-.83 1.281.018.334-.005.672-.02 1.007-.013.28-.1.464-.445.476-.618.021-1.239-.005-1.854.087-.104.016-.253.07-.32-.076-.06-.127.027-.229.105-.322.434-.528.86-1.062 1.306-1.58.18-.209.194-.387.028-.605-.618-.812-1.173-1.665-1.596-2.6-.097-.213-.24-.2-.407-.105-.113.064-.229.127-.333.204-.223.166-.166.314.043.44.04.024.1.028.129.06.103.113.362-.042.37.19.007.212-.13.386-.288.52-.108.091-.243.149-.36.23-.05.034-.168.072-.084.153.235.225-.019.285-.125.361-.308.224-.683.299-1.064.381.038.06.046.083.061.094.102.072.3-.07.333.118.032.174-.12.28-.245.37a.907.907 0 0 1-.54.158c-.133.001-.264.006-.382.1.063.21.292.313.348.53.037.14.064.234-.138.278-.223.047-.441.11-.67.097-.21-.012-.293.087-.326.289-.085.521-.38.952-.631 1.4-.119.212-.29.188-.451.061a42.423 42.423 0 0 1-1.257-1.012c-.265-.225-.012-.37.128-.48.328-.258.67-.5 1.023-.722.463-.293.762-.64.851-1.237.123-.815.382-1.61.6-2.408.081-.3-.047-.382-.3-.361-.82.068-1.638.116-2.456-.005-.097-.014-.208-.01-.246.098-.102.294-.23.58-.223.904.005.215.19.193.304.245.387.179.415.253.174.604-.131.19-.312.329-.495.464-.36.267-.353.435.02.688.093.063.283.066.261.199-.025.157-.22.163-.35.194-.191.047-.472-.012-.527.202-.041.162.244.224.361.356.04.045.086.084.127.127.297.309.278.356-.104.507-.244.097-.483.206-.738.266-.152.036-.204.15-.26.271-.16.348-.324.695-.483 1.045-.093.207-.225.232-.391.091-.366-.308-.748-.595-1.084-.94-.182-.187-.143-.336.027-.479.174-.145.353-.288.543-.41.59-.378.793-.764.5-1.614-.262-.764-.494-1.527-.536-2.338-.007-.142-.082-.206-.204-.261a40.363 40.363 0 0 1-1.193-.569c-.205-.101-.32-.077-.313.182.004.12.01.242 0 .361-.016.184.054.254.24.262.303.012.58.117.818.314.129.106.196.19.001.32-.25.17-.417.422-.565.69-.127.23-.062.355.172.425.103.031.209.056.303.104.285.144.31.348.064.547-.123.1-.238.202-.313.341-.102.187-.132.363.084.499.226.143.184.304.023.47-.133.137-.257.286-.403.409-.176.147-.169.278.005.404.25.18.199.32-.012.506-.204.18-.365.411-.546.618-.087.099-.161.244-.27.282-.673.236-.637.85-.747 1.382-.058.282-.086.57-.13.854-.07.438-.303.678-.735.687-.498.012-.998.029-1.498-.037-.252-.034-.24-.113-.13-.296.303-.51.725-.922 1.094-1.378.488-.601.674-1.255.564-2.043-.28-1.998-.903-3.902-1.467-5.823-.476-1.625-.946-3.255-.968-4.968a4.11 4.11 0 0 1 .414-1.909c.197.32.368.607.659.795.214.138.343.109.42-.148.133-.438.323-.852.553-1.247.16-.276.359-.443.702-.282.29.135.599.23.884.374.206.103.303.043.388-.147.095-.213.115-.441.152-.665.028-.17.077-.246.25-.158.866.445 1.606.192 2.277-.426.215-.198.203.015.22.126.09.574.013 1.126-.22 1.657-.05.112-.166.257-.048.354.1.082.213-.062.311-.119.442-.254.771-.636 1.112-1.005.07-.076.119-.216.242-.184.13.034.161.173.163.294.01.524.122 1.06-.164 1.553-.035.06-.084.133-.008.192.076.058.164.028.234-.019.253-.167.448-.393.622-.64.193-.275.382-.552.581-.822.046-.062.098-.157.196-.129.11.032.063.144.068.218.022.313.067.62.19.912.075.176.147.21.259.024.16-.27.342-.522.579-.73.067-.058.116-.174.233-.12.091.042.07.143.077.225.016.207.074.402.179.58.083.142.193.235.373.234.193 0 .282-.125.339-.272.079-.204.168-.393.334-.544.18-.164.29-.244.341.1.045.306.129.613.352.851.089.094.18.23.327.157.126-.063.036-.196.028-.295-.022-.279-.02-.553.086-.816.052-.13.135-.236.282-.242.147-.005.143.146.183.234.11.243.242.468.42.667.062.07.113.18.225.137.125-.049.12-.177.093-.281-.068-.267-.021-.526.045-.78.028-.107.084-.252.211-.264.14-.015.133.143.172.236.086.203.246.32.442.393.142.052.28.048.397-.072.127-.13.036-.252-.026-.36-.26-.452-.383-.928-.296-1.45.085-.503.565-.94 1.123-1.017.464-.064.848.145 1.05.576.125.268.128.541-.03.793-.214.34-.575.336-.908.014-.07-.068-.118-.236-.241-.156-.105.068-.016.201.016.3.215.678.848.858 1.381.4.553-.474.719-1.142.9-1.803.274-.99.623-1.943 1.327-2.72.791-.876 1.768-1.212 2.9-.908 1.078.29 1.619 1.117 1.885 2.158.199.774.11 1.523-.198 2.254-.12.286-.335.491-.548.703-.15.149-.24.316-.02.483.892.678 1.374 1.647 1.803 2.641.356.825.664 1.671.975 2.515.099.268.245.45.506.562.404.175.78.409 1.199.553.107.037.218.084.162.26-.123.393-.03.509.394.531.31.017.367.12.2.392-.057.09-.139.165-.216.24-.291.285-.292.282.107.436.1.039.207.075.286.143.151.13.34.261-.012.412-.249.107-.3.295-.045.49.085.063.146.158.225.23.176.164.14.313-.021.457-.199.177-.51.3-.397.65.157.479.185 1.039.727 1.301.085.042.177.076.252.132.496.376.49.496-.04.808-.178.106-.279.237-.275.462.004.251-.02.505-.055.755-.086.607-.09.61-.675.717-.433.08-.868.151-1.303.218-.175.027-.386.073-.476-.133-.08-.184.042-.334.166-.476.4-.46.863-.864 1.215-1.371.15-.215.154-.39.002-.586-.821-1.055-1.419-2.248-2.073-3.406a.966.966 0 0 0-.726-.51 32.628 32.628 0 0 1-4.115-1.03c-.406-.129-.454-.087-.39.344.07.478.136.542.618.592.35.036.654.293 1.037.2.103-.026.086.118.063.197a1.063 1.063 0 0 1-.375.559c-.21.16-.197.277.036.386.278.13.342.268.037.46-.127.08-.21.211-.04.35.157.125.097.24-.045.3-.662.282-.667.81-.543 1.4.03.14.004.29.023.431.027.2-.075.294-.245.334-.59.14-1.182.276-1.774.412-.102.023-.22.07-.298-.039-.092-.129-.025-.252.049-.365.362-.551.712-1.112 1.096-1.647.211-.294.172-.546.01-.83a5.28 5.28 0 0 0-1.562-1.71c-.195-.138-.324-.284-.353-.542-.043-.386-.32-.69-.42-1.064-.043-.159-.183-.13-.288-.038-.28.246-.536.517-.693.862-.127.277.047.533.423.647.504.153.509.178.1.574-.035.033-.081.054-.065.122" fill="#1C2E28"/><path d="M15.12 24.245c-.269.763-.705 1.389-1.529 1.702-.079.03-.161.094-.235.016-.062-.066.022-.125.04-.188.036-.123.085-.253.077-.376-.047-.68.064-1.334.287-1.976.018-.051.01-.11.019-.218-.421.304-.833.505-1.418.335.69-.435.575-1.08.57-1.694-.003-.425.009-.84.237-1.23.141-.239-.142-.22-.237-.235-.273-.045-.533-.101-.746-.278-.192-.16-.305-.292.023-.46.533-.274.832-.755 1.112-1.245.256-.447.592-.808 1.157-.9.17-.028.213-.115.184-.277-.062-.346-.102-.697-.151-1.045-.085-.341-.09-.692-.135-1.038-.02-.154.044-.16.164-.109l1.927 1.379c.271.194.56.147.845.043 1.242-.456 2.482-.92 3.725-1.374.393-.144.464-.1.554.29.13.561.245 1.127.393 1.684.051.194-.014.311-.175.368-.289.103-.428.293-.477.571-.018.11-.023.258-.18.276-.145.017-.145-.137-.206-.216-.03-.039-.04-.09-.062-.143-.216.18-.18.371-.242.528-.025.062-.07.141-.128.164-.085.032-.12-.06-.152-.119-.117-.218-.263-.24-.479-.104-.236.149-.492.268-.743.394-.16.081-.206.182-.119.344.248.46.488.923.727 1.387a.37.37 0 0 0 .283.206c.457.07.89.482 1.384.08.086-.07.16.034.173.12.044.308-.045.607-.126.899-.043.156-.213.168-.374.135-.495-.102-.99-.202-1.487-.295-.223-.042-.368-.18-.513-.326-.133-.134-.216-.316-.438-.38.375.63.517 1.37 1.059 1.917.231.234.534.317.864.346-.233.455-.664.618-1.197.54-.496-.074-.852-.326-1.168-.68.07.383.228.732.209 1.115-.02.41-.053.433-.438.283a13.484 13.484 0 0 0-.832-.293c-.265-.083-.462-.007-.642.212-.325.396-.539.842-.708 1.307-.091.253-.183.19-.322.056-.252-.245-.327-.549-.31-.875.012-.21.059-.418.09-.627-.038-.033-.014-.082-.034-.12a.302.302 0 0 0-.1.124" fill="#1C2E28"/><path d="M27.288 20.806c-.65-.265-1.257-.097-1.85.05-1.158.284-2.248.162-3.257-.48-.277-.177-.573-.125-.86-.174-.398-.067-.789-.14-1.112-.406-.28-.233-.278-.278.003-.498.469-.367 1.003-.586 1.58-.705.378-.079.398-.117.188-.43-.218-.325-.218-.33.163-.37.416-.042.797-.195 1.167-.371 1.13-.538 2.281-.552 3.423-.096.659.263 1.334.38 2.026.458.163.019.304.008.187.255-.11.235.13.233.249.25.433.059.868.018 1.292-.078.545-.125 1.079-.3 1.652-.25.298.027.552.128.76.346.164.172.126.303-.094.334-.356.05-.617.253-.835.501-1.19 1.355-2.693 1.612-4.37 1.285-.392-.077-.392-.079-.312.379" fill="#DD2D32"/><path d="M14.5 15.093c-.252-.005-.234.045-.241.12-.027.266.28.52.181.787-.407-.28-.179-.602-.423-.893-.037-.044-.023-.101.141-.107a.536.536 0 0 1 .342.093" fill="#A98D4C"/><path d="M15.01 24.5c-.002-.033-.019-.071-.003-.1.083-.147.097-.331.34-.4.025-.006.085.027.106.052.164.202-.147.29-.195.442l-.248.006" fill="#6E5D42"/><path d="M36.632 23.326c-.319.024-.62-.154-.88-.402-.18-.171-.249-.124-.365.074-.518.886-1.202 1.56-2.11 1.925-.076.03-.179.154-.256.005-.075-.145.07-.17.128-.243.52-.655.848-1.433 1.165-2.219.249-.617.473-1.249.86-1.786.54-.749 1.343-.893 2.067-.363.746.548.965 1.436.555 2.275-.24.49-.61.744-1.164.734" fill="#FFE000"/><path d="M17 17.519c-.009-.26.214-.508.465-.519.26-.01.535.25.535.504 0 .244-.242.483-.5.495-.26.013-.49-.208-.5-.48" fill="#F8D900"/></g></svg>