<svg width="56" height="56" xmlns="http://www.w3.org/2000/svg" xmlns:xlink="http://www.w3.org/1999/xlink"><defs><rect id="a" width="56" height="56" rx="28"/></defs><g fill="none" fill-rule="evenodd"><mask id="b" fill="#fff"><use xlink:href="#a"/></mask><use fill="#0071CF" xlink:href="#a"/><path d="M28.255 21.76c-1.03-.1-1.684.17-2.435.346-5.206-3.07-10.96-6.52-16.169-9.012 4.593 3.626 9.522 6.915 13.735 10.92-.502.078-.41.747-.87.868-5.102-2.657-10.391-6.052-15.3-8.321 4.89 3.734 9.872 7.377 14.606 11.266-.116.983.158 1.576.348 2.255-2.862 5.408-6.48 10.99-8.868 16.294 3.545-4.615 6.813-9.503 10.78-13.694.077.5.747.407.869.867-2.464 5.227-6.073 10.24-8.171 15.251 3.573-4.989 7.397-9.726 11.128-14.56 1.033.105 1.734-.12 2.433-.346 5.205 3.015 10.945 6.423 16.171 8.84-4.673-3.431-9.301-6.903-13.737-10.573.46-.176.471-.803.87-1.04C38.799 33.67 44 37.09 48.948 39.267a469.055 469.055 0 0 1-14.434-11.094c-.075-.847-.357-1.49-.347-2.424 2.912-5.304 6.41-10.945 8.868-16.122-3.566 4.591-6.971 9.345-10.78 13.694-.308-.33-.738-.539-1.045-.866 2.72-5.033 6.021-10.408 8.347-15.255-3.757 4.864-7.4 9.84-11.302 14.56" fill="#FFF" mask="url(#b)"/></g></svg>