<svg width="56" height="56" xmlns="http://www.w3.org/2000/svg"><g fill="none" fill-rule="evenodd"><circle fill="#0099D8" cx="28" cy="28" r="28"/><g fill="#FFF"><path d="M41.932 37.628H23.39c-5.478 0-9.933-4.456-9.933-9.933 0-5.477 4.455-9.933 9.933-9.933h18.542v-3.455H23.39c-7.384 0-13.39 6.005-13.39 13.388s6.006 13.39 13.39 13.39h18.542v-3.457z"/><path d="M15.982 27.723c0 4.244 3.452 7.698 7.696 7.698h18.228v-3.457H23.678a4.245 4.245 0 0 1-4.24-4.24 4.246 4.246 0 0 1 4.24-4.242h18.228v-3.456H23.678c-4.244 0-7.696 3.453-7.696 7.697"/><path d="M41.932 25.983H23.563a1.727 1.727 0 1 0 0 3.456h18.369v-3.456z"/></g></g></svg>