<svg width="56" height="56" xmlns="http://www.w3.org/2000/svg"><g fill="none" fill-rule="evenodd"><rect fill="#B32541" width="56" height="56" rx="28"/><g fill="#FFF"><path d="M26.667 22.246l.662-3.135H13.584l-1.821 8.622-1.546 6.942h14.131l.718-3.303h-7.838l.717-3.36h6.624l.718-3.135h-6.625l.552-2.631zM37.486 28.125c-.528 2.413-1.248 4.444-4.03 4.422-2.794-.02-1.866-3.05-1.6-4.814.376-2.507 1.331-5.136 4.195-4.927 2.898.213 1.875 3.311 1.435 5.319zm.717-.113h4.803c.17-1.011.485-2.521.552-3.75.076-1.44-.483-2.499-1.711-3.192-1.76-.989-4.351-.936-6.293-1.007-2.662-.098-5.83.25-7.507 2.63-.865 1.229-1.352 3.132-1.543 4.62-.237 1.815-1.14 4.862.494 6.353 1.215 1.111 3.933 1.48 5.513 1.458 1.61-.023 3.172-.129 4.754-.45l4.14 5.094h6.458l-9.66-11.756z"/></g></g></svg>