<?xml version="1.0" encoding="UTF-8"?>
<svg width="56px" height="56px" viewBox="0 0 56 56" version="1.1" xmlns="http://www.w3.org/2000/svg" xmlns:xlink="http://www.w3.org/1999/xlink">
    <!-- Generator: Sketch 52.4 (67378) - http://www.bohemiancoding.com/sketch -->
    <title>ENEL</title>
    <desc>Created with Sketch.</desc>
    <defs>
        <linearGradient x1="64.8487881%" y1="16.148419%" x2="50%" y2="100%" id="linearGradient-1">
            <stop stop-color="#E91200" offset="0%"></stop>
            <stop stop-color="#FC4B00" offset="100%"></stop>
        </linearGradient>
        <linearGradient x1="76.2227042%" y1="10.7116913%" x2="26.0232469%" y2="69.5357348%" id="linearGradient-2">
            <stop stop-color="#FFFFFF" offset="0%"></stop>
            <stop stop-color="#F94503" offset="100%"></stop>
        </linearGradient>
    </defs>
    <g id="ENEL" stroke="none" stroke-width="1" fill="none" fill-rule="evenodd">
        <rect id="Rectangle-1" stroke="#E1E1E1" fill="#FFFFFF" x="0.5" y="0.5" width="55" height="55" rx="27.5"></rect>
        <g id="Page-1" transform="translate(7.000000, 6.000000)">
            <path d="M42.7260086,24.6219494 L18.9944655,24.6219494 L18.9944655,18.1150395 L36.1100271,18.1150395 C35.8429755,17.089162 35.52073,16.1314626 35.0594704,15.2279155 C32.6300618,10.4688528 28.7997239,7.52210448 23.564091,6.74113944 C17.8470542,5.88834852 13.1435287,7.94563823 9.58367248,12.5211109 C7.49266233,15.2086068 6.47653169,18.3201396 6.47353811,21.7454546 C6.46960905,26.2032511 8.01479121,30.036502 11.2232145,33.1056436 C14.694012,36.4257985 18.8671139,37.7492943 23.5988912,37.0541807 C27.484049,36.4834102 30.6108974,34.5236074 33.0401189,31.4220121 C33.0966225,31.3498717 33.1578037,31.2815679 33.2344516,31.1905591 C34.9594352,32.4871988 36.6725068,33.7748446 38.4523726,35.1126804 C37.7159538,35.9411939 37.0356646,36.7866261 36.2739252,37.549163 C33.5870071,40.2390488 30.4107023,42.090987 26.7445743,43.0685612 C24.4854875,43.6710307 22.1878585,43.8714136 19.8575497,43.7035474 C16.4173117,43.4558675 13.2264132,42.425839 10.2925254,40.5963543 C7.09676242,38.6035947 4.58247364,35.9471689 2.75308923,32.6409767 C0.919651022,29.3273628 -0.00093477904,25.7629873 7.12255945e-07,21.9689828 C0.00155986442,15.2872882 2.53187672,9.73694573 7.45711366,5.3015398 C10.2098904,2.82260318 13.4291654,1.22419411 17.0413467,0.470902794 C21.5771075,-0.474972473 25.9890091,-0.00451918504 30.1857478,1.96025224 C36.2320775,4.79089672 40.2664773,9.44064821 42.2099916,15.8956699 C42.5641063,17.0717402 42.7777101,18.264289 42.73817,19.5104241 C42.6879653,21.0915371 42.7260086,22.6754804 42.7260086,24.2581657 L42.7260086,24.6219494 Z" id="Fill-4" fill="url(#linearGradient-1)"></path>
            <path d="M42.7233332,24.7531423 L18.8697146,24.7531423 L18.8697146,17.9897136 L36.0733189,17.9897136 L42.7355571,17.9897136 C42.7620528,18.0931358 42.7620528,18.5766005 42.7355571,19.4401078 C42.6850942,21.0835523 42.7233332,22.7299386 42.7233332,24.3750174 L42.7233332,24.7531423 Z" id="Fill-4-Copy-2" fill="#D8D8D8"></path>
            <path d="M26.1862856,36.4942231 C28.896464,35.5418292 31.1740632,33.8164443 33.0457468,31.4267053 C33.1033962,31.3531021 33.1658179,31.2834133 33.24402,31.1905591 C35.0039819,32.5134913 36.7517903,33.8272472 38.5677471,35.1922109 C37.8163957,36.0375246 37.1223119,36.9001 36.3451264,37.6780992 C33.6037245,40.422529 30.3630124,42.3120197 26.6225446,43.3094167 L26.1862856,36.4942231 Z" id="Fill-4-Copy" fill="url(#linearGradient-2)"></path>
        </g>
    </g>
</svg>