<svg width="56" height="56" xmlns="http://www.w3.org/2000/svg"><g fill="none" fill-rule="evenodd"><rect fill="#F30F00" width="56" height="56" rx="28"/><path d="M12.663 30.007c-1.071 0-2.143.03-3.212-.012-.601-.024-.65.222-.489.69.585 1.7 2.728 2.473 4.382 1.439 1.659-1.038 3.383-.777 5.134-.572.287.034.615.107.696.455.085.362-.17.602-.402.819-.385.36-.833.637-1.31.86-3.935 1.831-7.755 1.596-11.345-.832-2.347-1.587-2.61-3.996-.86-6.22.932-1.183 2.106-2.08 3.389-2.841 2.19-1.301 4.502-2.293 7.025-2.73 1.423-.248 2.337.236 2.903 1.563.653 1.527.832 3.133.6 4.769-.231 1.626-1.378 2.54-3.23 2.658a6.7 6.7 0 0 1-.41.016h-2.871v-.062" fill="#FDFEFD"/><path d="M28.466 34.558c-.935.036-1.867.01-2.775-.25-1.386-.4-2.033-1.418-1.674-2.821.447-1.752 1.156-3.42 2.028-4.994.755-1.365 2.044-2.115 3.525-2.508 1.698-.45 3.415-.514 5.133-.117 1.775.41 2.41 1.387 1.986 3.148a17.18 17.18 0 0 1-2.044 4.905c-1.112 1.834-2.829 2.554-4.882 2.635-.431.017-.864.002-1.297.002M48.536 34.58c-.136-.008-.273-.009-.409-.024-1.516-.172-1.676-.422-1.184-1.833.458-1.314.937-2.624 1.237-3.985.256-1.159-.142-1.506-1.272-1.129-1.032.344-1.908.966-2.747 1.64-1.676 1.348-3.165 2.892-4.608 4.483-.748.824-1.868.994-2.839.46-.282-.156-.319-.342-.243-.619.813-2.98 1.897-5.862 3.087-8.707.117-.28.339-.371.587-.395.407-.038.819-.053 1.228-.044.927.021.977.076 1.05.97.064.784.485 1.108 1.249.913.712-.182 1.341-.565 1.98-.916.859-.473 1.716-.953 2.662-1.228a4.716 4.716 0 0 1 1.14-.192c1.913-.066 2.826 1.03 2.46 2.914-.452 2.316-1.257 4.525-2.002 6.754-.232.696-.653 1.014-1.376.937" fill="#FEFEFE"/><path d="M21.333 30.474c-1.246.005-1.576-.493-1.121-1.687.493-1.294 1.378-1.783 2.667-1.472.632.152.852.515.7 1.159-.35 1.481-.926 1.995-2.246 2" fill="#FCFCFB"/><path d="M10.047 27.309c1.356-1.137 2.646-2.203 4.288-2.702.71-.215.947-.007 1.018.745.181 1.905.02 2.083-1.9 2.083-1.047 0-2.093-.008-3.139-.015-.038 0-.076-.03-.267-.111" fill="#F01900"/><path d="M29.732 32.042c-.934.012-1.056-.082-.986-.84.137-1.46.49-2.87 1.142-4.19.318-.643 1.195-.926 1.874-.678.29.106.299.319.282.546-.118 1.555-.465 3.056-1.097 4.485-.267.605-.784.702-1.215.677" fill="#F21800"/></g></svg>