<?xml version="1.0" encoding="UTF-8"?>
<svg width="56px" height="56px" viewBox="0 0 56 56" version="1.1" xmlns="http://www.w3.org/2000/svg" xmlns:xlink="http://www.w3.org/1999/xlink">
    <!-- Generator: Sketch 52.4 (67378) - http://www.bohemiancoding.com/sketch -->
    <title>EQR</title>
    <desc>Created with Sketch.</desc>
    <defs>
        <polygon id="path-1" points="6.06856216 7.94132516 11.9787883 7.94132516 11.9787883 0.0210211548 0.15833601 0.0210211548 0.15833601 7.94132516 6.06856216 7.94132516"></polygon>
    </defs>
    <g id="EQR" stroke="none" stroke-width="1" fill="none" fill-rule="evenodd">
        <g>
            <rect id="Rectangle-1" stroke="#E1E1E1" fill="#FFFFFF" x="0.5" y="0.5" width="55" height="55" rx="27.5"></rect>
            <g id="Page-1" transform="translate(12.000000, 14.000000)">
                <polygon id="Fill-1" fill="#4897A2" points="0.0151819452 18.3995833 19.8909174 18.3995833 19.8909174 10.7621306 0.0151819452 10.7621306"></polygon>
                <g id="Group-14" transform="translate(0.000000, 0.002803)">
                    <polygon id="Fill-2" fill="#54ABB7" points="21.9201596 18.3998168 33.1926371 18.3998168 33.1926371 10.7593278 21.9201596 10.7593278"></polygon>
                    <g id="Group-6" fill="#4897A2">
                        <path d="M0.0152520157,0.858667462 C0.0152520157,0.523963963 0.230134932,0.233638458 0.671345615,0.232003479 C0.847689747,0.229200658 19.8909875,0.232003479 19.8909875,0.232003479 L19.8909875,7.86945617 L0.0152520157,7.86945617 L0.0152520157,0.858667462 Z" id="Fill-4"></path>
                    </g>
                    <path d="M21.9193654,0.231933408 L32.3488946,0.231933408 C33.2259439,0.231933408 33.1918429,0.710281465 33.1918429,1.5160924 L33.1918429,7.87686029 L21.9193654,7.87686029 L21.9193654,0.231933408 Z" id="Fill-7" fill="#54ABB7"></path>
                    <g id="Group-11" transform="translate(21.488292, 21.021155)">
                        <mask id="mask-2" fill="white">
                            <use xlink:href="#path-1"></use>
                        </mask>
                        <g id="Clip-10"></g>
                        <path d="M6.06714907,7.94132516 C9.33196798,7.94132516 11.9789985,6.16527115 11.9789985,3.98047245 C11.9789985,1.79847658 9.33196798,0.0210211548 6.06714907,0.0210211548 C2.80840293,0.0210211548 0.15833601,1.79847658 0.15833601,3.98047245 C0.15833601,6.16527115 2.80840293,7.94132516 6.06714907,7.94132516" id="Fill-9" fill="#54ABB7" mask="url(#mask-2)"></path>
                    </g>
                    <path d="M19.8786317,28.8284118 L0.900733128,28.8284118 C0.0222824241,28.8284118 9.34273549e-05,28.6032518 9.34273549e-05,27.7960395 L9.34273549e-05,21.1834849 L19.8786317,21.1834849 L19.8786317,28.8284118 Z" id="Fill-12" fill="#4897A2"></path>
                </g>
            </g>
        </g>
    </g>
</svg>