<svg width="56" height="56" xmlns="http://www.w3.org/2000/svg" xmlns:xlink="http://www.w3.org/1999/xlink"><defs><path d="M21.128 15.843c-.799-.867-1.705-1.853-2.44-2.622l-3.343.001c1.353 1.46 2.757 2.986 4.044 4.356h3.23l3.967-4.34-3.177-.017c-.561.693-1.656 1.917-2.281 2.622" id="a"/></defs><g fill="none" fill-rule="evenodd"><rect fill="#731E23" width="56" height="56" rx="28"/><g transform="translate(11 20)"><path d="M5.692.13A6.77 6.77 0 0 0 2.98.96C1.057 2.01-.06 3.614.002 6.06c.04 1.523-.034 3.05.026 4.57.028.685.162 1.407.414 2.031.596 1.475 1.733 2.346 3.076 2.93 1.8.782 3.746.566 5.613.565v-2.322c-.184 0-.34.003-.495 0-.9-.02-1.802.01-2.697-.074-1.354-.126-2.99-1.226-2.868-3.435.048-.862.223-1.097 1.027-1.098 1.411 0 2.822.002 4.233-.001.432-.001.564-.15.57-.617.003-.318.003-.636 0-.954-.005-.49-.133-.628-.597-.629-1.41-.002-2.822 0-4.233-.002-.145 0-.294.003-.435-.028-.287-.061-.512-.24-.504-.56.016-.641-.04-1.333.156-1.918.442-1.314 1.454-1.926 2.68-2.053C6.873 2.37 7.79 2.417 8.7 2.4c.141-.002.282 0 .43 0V.079H6.21c-.299 0-.376.037-.519.05M23.222.08V2.4h.487c.985 0 1.97-.009 2.956.004.802.01 1.024.263 1.024 1.108v11.726c0 .642.203.894.797.927.473.027.948.021 1.422.01.715-.017.916-.253.916-1.042V3.368c.001-.626.19-.86.761-.94.156-.022.315-.025.473-.026 1.094-.007 2.189-.011 3.283-.016V.079h-12.12zM13.007 10.35a100.57 100.57 0 0 1-.001-4.41 6.07 6.07 0 0 1 .977-3.195c.747-1.173 1.751-1.967 3.004-2.39.11-.037.347-.012.175-.275h-1.826c-.092.026-.184.063-.278.076-2.752.381-4.82 2.832-4.891 5.843-.034 1.443-.057 2.89.008 4.33.109 2.447 1.219 4.218 3.238 5.3.968.52 2.008.585 3.062.55.233-.007.465 0 .697 0l.014-.111c-.111-.07-.216-.162-.336-.204-2.222-.779-3.776-2.973-3.843-5.514M20.374 6.587c.008 1.193.005 2.386 0 3.58a4.222 4.222 0 0 1-.707 2.378c-.053.078-.097.163-.178.299l2.783.001s.935-1.155.935-2.487c0-1.352.027-2.704 0-4.056-.055-2.71-2.65-4.56-5-3.514.089.06.136.098.186.128 1.327.798 1.97 2.035 1.981 3.671" fill="#FFF"/><mask id="b" fill="#fff"><use xlink:href="#a"/></mask><use fill="#FFF" xlink:href="#a"/><path fill="#EF8230" mask="url(#b)" d="M18.55 12.86l4.12 4.784 4.067-3.848-.092-1.168z"/></g></g></svg>