<svg width="56" height="56" xmlns="http://www.w3.org/2000/svg"><g fill="none" fill-rule="evenodd"><rect fill="#766760" width="56" height="56" rx="28"/><path d="M19.62 13.404h13.996c.997 0 1.914-.134 2.75-.404l.324.445-.728 5.501h-1.254c-.108-1.133-.452-2.016-1.032-2.65-.58-.633-1.436-.95-2.568-.95h-3.034c-.674 0-1.011.364-1.011 1.092v8.94c0 .916.35 1.375 1.051 1.375h4.45c.62 0 1.153-.162 1.598-.486.445-.323.775-.647.99-.97h1.052l-.89 6.31h-1.173c-.296-1.942-1.173-2.913-2.629-2.913h-3.398c-.7 0-1.051.337-1.051 1.012V40.87c0 .674.35 1.01 1.051 1.01h1.861c1.78 0 3.202-.37 4.267-1.111 1.066-.742 1.787-1.625 2.165-2.65l1.213.324-.769 5.38H19.944v-1.416c1.725 0 2.588-.31 2.588-.93V16.64c0-1.213-.97-1.82-2.912-1.82v-1.416z" fill="#FFF"/></g></svg>