<svg width="56" height="56" xmlns="http://www.w3.org/2000/svg" xmlns:xlink="http://www.w3.org/1999/xlink"><defs><rect id="a" width="56" height="56" rx="28"/><path id="c" d="M55.987 27.872V.16H0v27.713h55.987z"/><path id="e" d="M0 55.84h55.987V.232H0z"/></defs><g fill="none" fill-rule="evenodd"><mask id="b" fill="#fff"><use xlink:href="#a"/></mask><use fill="#FFF" xlink:href="#a"/><g mask="url(#b)"><path d="M33.877 52.436h9.325a28.163 28.163 0 0 0 3.705-2.906h-13.03v2.906zM45.353 27.944H33.877v2.386H22.11v-2.386H10.633v2.386H.043c.147 2.485.61 4.883 1.347 7.155h9.243v-3.198H22.11v3.198h11.767v-3.198h11.476v3.198h9.243c.739-2.272 1.2-4.67 1.348-7.155h-10.59v-2.386z" fill="#EE293D"/><g transform="translate(0 .072)"><mask id="d" fill="#fff"><use xlink:href="#c"/></mask><path d="M22.11 25.476v2.396h11.767v-2.396h11.476v2.396h10.634C55.64 12.507 43.24.16 27.994.16 12.747.16.347 12.507 0 27.872h10.633v-2.396H22.11z" fill="#EE293D" mask="url(#d)"/></g><path d="M45.353 38.762H33.877v3.205H22.11v-3.205H10.633v3.205H3.284a28.44 28.44 0 0 0 3.642 5.332h3.707v-3.055H22.11V47.3h11.767v-3.055h11.476V47.3h3.707a28.513 28.513 0 0 0 3.644-5.332h-7.35v-3.205zM22.11 49.53H9.08a28.122 28.122 0 0 0 3.706 2.906h9.324V49.53z" fill="#EE293D"/><mask id="f" fill="#fff"><use xlink:href="#e"/></mask><path fill="#EE293D" mask="url(#f)" d="M22.11 55.84h11.767v-2.883H22.11z"/></g></g></svg>