<?xml version="1.0" encoding="UTF-8"?>
<svg width="56px" height="56px" viewBox="0 0 56 56" version="1.1" xmlns="http://www.w3.org/2000/svg" xmlns:xlink="http://www.w3.org/1999/xlink">
    <title>ETSY</title>
    <g id="ETSY" stroke="none" stroke-width="1" fill="none" fill-rule="evenodd">
        <circle id="Oval" fill="#F45800" cx="28" cy="28" r="28"></circle>
        <path d="M22.6199335,13.6035481 L22.6199335,26.9266971 C22.6199335,26.9266971 27.3145251,26.9266971 29.8270297,26.7359862 C31.8028828,26.3900456 32.166564,26.1993347 32.5302452,24.2234816 L33.2576075,21.3295553 L35.4064309,21.3295553 L35.0427498,27.6540594 L35.2334606,34.1337933 L33.0668966,34.1337933 L32.5302452,31.6035481 C31.9935937,29.8028828 31.2662314,29.4369841 29.8270297,29.2640138 C28.0263644,29.0733029 22.6199335,29.0733029 22.6199335,29.0733029 L22.6199335,40.2476284 C22.6199335,42.3964519 23.710977,43.3145251 26.2234816,43.3145251 L33.794259,43.3145251 C36.1337933,43.3145251 38.47111,43.1238142 39.9280522,39.710977 L41.8861648,35.3800665 L43.7045707,35.3800665 C43.5138598,36.2803992 42.6135272,44.2148577 42.4405569,46 C42.4405569,46 35.5971418,45.8270297 32.720956,45.8270297 L19.7437477,45.8270297 L12,46 L12,44.0418874 L14.5125046,43.4874954 C16.3309104,43.1238142 16.8675619,42.5871627 16.8675619,41.1479611 C16.8675619,41.1479611 17.0582728,36.2803992 17.0582728,28.1707527 C17.0582728,20.0810644 16.8675619,15.211285 16.8675619,15.211285 C16.8675619,13.599113 16.3309104,13.2354318 14.5125046,12.8717506 L12,12.3395343 L12,10.3636812 L19.5707774,10.5189109 L33.9849698,10.5189109 C36.8611556,10.5189109 41.710977,10 41.710977,10 C41.710977,10 41.5380067,13.0491561 41.3472958,20.2562523 L39.3714427,20.2562523 L38.6440803,17.7260071 C37.9344585,14.4861402 36.858938,12.8739682 34.8675619,12.8739682 L23.5380067,12.8739682 C22.6199335,12.8761858 22.6199335,13.0491561 22.6199335,13.6035481 Z" id="Path" fill="#FFFFFF"></path>
    </g>
</svg>