<?xml version="1.0" encoding="UTF-8"?>
<svg width="56px" height="56px" viewBox="0 0 56 56" version="1.1" xmlns="http://www.w3.org/2000/svg" xmlns:xlink="http://www.w3.org/1999/xlink">
    <!-- Generator: Sketch 52.4 (67378) - http://www.bohemiancoding.com/sketch -->
    <title>F</title>
    <desc>Created with Sketch.</desc>
    <defs>
        <radialGradient cx="53.3316095%" cy="-72.8597117%" fx="53.3316095%" fy="-72.8597117%" r="178.546237%" gradientTransform="translate(0.533316,-0.728597),scale(0.530887,1.000000),rotate(85.484425),scale(1.000000,1.215549),translate(-0.533316,0.728597)" id="radialGradient-1">
            <stop stop-color="#00050D" offset="0%"></stop>
            <stop stop-color="#051125" offset="0.590877076%"></stop>
            <stop stop-color="#173E7E" offset="59.3045902%"></stop>
            <stop stop-color="#4CA9E3" offset="89.553751%"></stop>
            <stop stop-color="#4CA9E3" offset="100%"></stop>
        </radialGradient>
        <linearGradient x1="52.6080004%" y1="-207.70995%" x2="52.6080004%" y2="2454.81106%" id="linearGradient-2">
            <stop stop-color="#08142E" offset="0%"></stop>
            <stop stop-color="#17326E" offset="80.9%"></stop>
            <stop stop-color="#0D69A9" offset="100%"></stop>
        </linearGradient>
        <linearGradient x1="10.553664%" y1="-661.981632%" x2="10.553664%" y2="7364.57837%" id="linearGradient-3">
            <stop stop-color="#08142E" offset="0%"></stop>
            <stop stop-color="#17326E" offset="80.9%"></stop>
            <stop stop-color="#0D69A9" offset="100%"></stop>
        </linearGradient>
        <linearGradient x1="36.184001%" y1="-826.590749%" x2="36.184001%" y2="6414.16438%" id="linearGradient-4">
            <stop stop-color="#08142E" offset="0%"></stop>
            <stop stop-color="#17326E" offset="80.9%"></stop>
            <stop stop-color="#0D69A9" offset="100%"></stop>
        </linearGradient>
        <linearGradient x1="30.702368%" y1="-571.181373%" x2="30.702368%" y2="4444.01505%" id="linearGradient-5">
            <stop stop-color="#08142E" offset="0%"></stop>
            <stop stop-color="#17326E" offset="80.9%"></stop>
            <stop stop-color="#0D69A9" offset="100%"></stop>
        </linearGradient>
        <linearGradient x1="53.2869318%" y1="-66.4046143%" x2="53.2869318%" y2="1364.60431%" id="linearGradient-6">
            <stop stop-color="#08142E" offset="0%"></stop>
            <stop stop-color="#17326E" offset="80.9%"></stop>
            <stop stop-color="#0D69A9" offset="100%"></stop>
        </linearGradient>
        <linearGradient x1="51.7332215%" y1="-65.9989183%" x2="51.7332215%" y2="1269.32608%" id="linearGradient-7">
            <stop stop-color="#08142E" offset="0%"></stop>
            <stop stop-color="#17326E" offset="80.9%"></stop>
            <stop stop-color="#0D69A9" offset="100%"></stop>
        </linearGradient>
        <linearGradient x1="48.6087167%" y1="-20.1263332%" x2="48.6087167%" y2="1400.79688%" id="linearGradient-8">
            <stop stop-color="#08142E" offset="0%"></stop>
            <stop stop-color="#17326E" offset="80.9%"></stop>
            <stop stop-color="#0D69A9" offset="100%"></stop>
        </linearGradient>
        <linearGradient x1="49.9733526%" y1="-16.7240222%" x2="49.9733526%" y2="1547.2701%" id="linearGradient-9">
            <stop stop-color="#08142E" offset="0%"></stop>
            <stop stop-color="#17326E" offset="80.9%"></stop>
            <stop stop-color="#0D69A9" offset="100%"></stop>
        </linearGradient>
        <linearGradient x1="51.0860452%" y1="-209.079004%" x2="51.0860452%" y2="2212.01388%" id="linearGradient-10">
            <stop stop-color="#08142E" offset="0%"></stop>
            <stop stop-color="#17326E" offset="80.9%"></stop>
            <stop stop-color="#0D69A9" offset="100%"></stop>
        </linearGradient>
        <linearGradient x1="49.7051613%" y1="-29.0356221%" x2="49.7051613%" y2="661.784206%" id="linearGradient-11">
            <stop stop-color="#08142E" offset="0%"></stop>
            <stop stop-color="#17326E" offset="80.9%"></stop>
            <stop stop-color="#0D69A9" offset="100%"></stop>
        </linearGradient>
        <linearGradient x1="52.92015%" y1="-357.520211%" x2="52.92015%" y2="3097.75646%" id="linearGradient-12">
            <stop stop-color="#08142E" offset="0%"></stop>
            <stop stop-color="#17326E" offset="80.9%"></stop>
            <stop stop-color="#0D69A9" offset="100%"></stop>
        </linearGradient>
        <linearGradient x1="49.2580378%" y1="-9.18821858%" x2="49.2580378%" y2="935.03485%" id="linearGradient-13">
            <stop stop-color="#08142E" offset="0%"></stop>
            <stop stop-color="#17326E" offset="80.9%"></stop>
            <stop stop-color="#0D69A9" offset="100%"></stop>
        </linearGradient>
        <linearGradient x1="51.4528417%" y1="-113.854688%" x2="51.4528417%" y2="1521.48409%" id="linearGradient-14">
            <stop stop-color="#08142E" offset="0%"></stop>
            <stop stop-color="#17326E" offset="80.9%"></stop>
            <stop stop-color="#0D69A9" offset="100%"></stop>
        </linearGradient>
        <linearGradient x1="49.7577827%" y1="-313.011437%" x2="49.7577827%" y2="1391.55239%" id="linearGradient-15">
            <stop stop-color="#08142E" offset="0%"></stop>
            <stop stop-color="#17326E" offset="80.9%"></stop>
            <stop stop-color="#0D69A9" offset="100%"></stop>
        </linearGradient>
        <linearGradient x1="50.3549524%" y1="-10.9642021%" x2="50.3549524%" y2="691.969131%" id="linearGradient-16">
            <stop stop-color="#08142E" offset="0%"></stop>
            <stop stop-color="#17326E" offset="80.9%"></stop>
            <stop stop-color="#0D69A9" offset="100%"></stop>
        </linearGradient>
        <linearGradient x1="53.0954019%" y1="-585.897837%" x2="53.0954019%" y2="4105.37207%" id="linearGradient-17">
            <stop stop-color="#08142E" offset="0%"></stop>
            <stop stop-color="#17326E" offset="80.9%"></stop>
            <stop stop-color="#0D69A9" offset="100%"></stop>
        </linearGradient>
        <linearGradient x1="3.973684%" y1="-1891.7493%" x2="3.973684%" y2="5951.3107%" id="linearGradient-18">
            <stop stop-color="#08142E" offset="0%"></stop>
            <stop stop-color="#17326E" offset="80.9%"></stop>
            <stop stop-color="#0D69A9" offset="100%"></stop>
        </linearGradient>
        <linearGradient x1="50.1702122%" y1="-217.408088%" x2="50.1702122%" y2="1096.1247%" id="linearGradient-19">
            <stop stop-color="#08142E" offset="0%"></stop>
            <stop stop-color="#17326E" offset="80.9%"></stop>
            <stop stop-color="#0D69A9" offset="100%"></stop>
        </linearGradient>
        <linearGradient x1="50.8724567%" y1="-858.278501%" x2="50.8724567%" y2="4188.42817%" id="linearGradient-20">
            <stop stop-color="#08142E" offset="0%"></stop>
            <stop stop-color="#17326E" offset="80.9%"></stop>
            <stop stop-color="#0D69A9" offset="100%"></stop>
        </linearGradient>
        <linearGradient x1="48.2427778%" y1="-391.476991%" x2="48.2427778%" y2="2193.4972%" id="linearGradient-21">
            <stop stop-color="#08142E" offset="0%"></stop>
            <stop stop-color="#17326E" offset="80.9%"></stop>
            <stop stop-color="#0D69A9" offset="100%"></stop>
        </linearGradient>
        <linearGradient x1="49.8063663%" y1="-232.73743%" x2="49.8063663%" y2="1370.00657%" id="linearGradient-22">
            <stop stop-color="#08142E" offset="0%"></stop>
            <stop stop-color="#17326E" offset="80.9%"></stop>
            <stop stop-color="#0D69A9" offset="100%"></stop>
        </linearGradient>
        <linearGradient x1="49.9568979%" y1="108.624081%" x2="49.9568979%" y2="-316.947553%" id="linearGradient-23">
            <stop stop-color="#FFFFFF" offset="0%"></stop>
            <stop stop-color="#FFFFFF" offset="55.22%"></stop>
            <stop stop-color="#FAFAFA" offset="69.1%"></stop>
            <stop stop-color="#D3D2D2" offset="80%"></stop>
            <stop stop-color="#BDBCBC" offset="100%"></stop>
        </linearGradient>
        <linearGradient x1="50.451689%" y1="108.380236%" x2="50.451689%" y2="-306.341218%" id="linearGradient-24">
            <stop stop-color="#FFFFFF" offset="0%"></stop>
            <stop stop-color="#FFFFFF" offset="55.22%"></stop>
            <stop stop-color="#EFEEEE" offset="69.1%"></stop>
            <stop stop-color="#E9E9E9" offset="80%"></stop>
            <stop stop-color="#D3D2D2" offset="100%"></stop>
        </linearGradient>
        <linearGradient x1="49.2589244%" y1="108.037856%" x2="49.2589244%" y2="-308.030039%" id="linearGradient-25">
            <stop stop-color="#FFFFFF" offset="0%"></stop>
            <stop stop-color="#FFFFFF" offset="55.22%"></stop>
            <stop stop-color="#EFEEEE" offset="69.1%"></stop>
            <stop stop-color="#E9E9E9" offset="80%"></stop>
            <stop stop-color="#D3D2D2" offset="100%"></stop>
        </linearGradient>
    </defs>
    <g id="F" stroke="none" stroke-width="1" fill="none" fill-rule="evenodd">
        <g>
            <rect id="Rectangle-1" stroke="#E1E1E1" fill="#FFFFFF" x="0.5" y="0.5" width="55" height="55" rx="27.5"></rect>
            <g id="Ford_Motor_Company_Logo" transform="translate(6.000000, 16.350000)">
                <g id="layer1" transform="translate(0.513433, 0.020643)">
                    <g id="g3534" transform="translate(21.131428, 11.927144) scale(1, -1) translate(-21.131428, -11.927144) translate(0.131428, 0.927144)" fill="url(#radialGradient-1)">
                        <g id="g3536">
                            <g id="g3542" transform="translate(0.000000, 0.000000)">
                                <g id="g3544" transform="translate(0.000000, 0.000000)">
                                    <path d="M0.0383988573,10.971958 C0.0383988573,4.93369922 9.24118041,0.0736373018 20.5676808,0.0736373018 L20.5676808,0.0736373018 C31.8941812,0.0736373018 41.0969627,4.93369922 41.0969627,10.971958 L41.0969627,10.971958 C41.0969627,17.0102167 31.8941812,21.8702786 20.5676808,21.8702786 L20.5676808,21.8702786 C9.24118041,21.9439159 0.0383988573,17.0102167 0.0383988573,10.971958" id="path3558"></path>
                                </g>
                            </g>
                        </g>
                    </g>
                    <g id="g3604" transform="translate(24.757958, 13.658870) scale(1, -1) translate(-24.757958, -13.658870) translate(23.757958, 12.158870)" fill="url(#linearGradient-2)">
                        <g id="g3606">
                            <g id="g3612">
                                <g id="g3614">
                                    <path d="M0.305192605,0.331829317 C0.406322073,0.184554713 0.50745154,0.110917412 0.659145742,0.110917412 C0.456886807,0.479103921 0.456886807,1.21899165 0.659145742,1.73445276 C0.608581008,1.88172736 0.704253069,2.1723525 0.704253069,2.31962711 L0.558016274,2.17276186 C0.608581008,2.24639916 0.608581008,2.32003647 0.50745154,2.24639916 C0.0523689361,1.58366345 0.0523689361,0.700015826 0.305192605,0.331829317 Z" id="path3624"></path>
                                </g>
                            </g>
                        </g>
                    </g>
                    <g id="g3626" transform="translate(29.953326, 13.827041) scale(1, -1) translate(-29.953326, -13.827041) translate(28.953326, 12.827041)" fill="url(#linearGradient-3)">
                        <g id="g3628">
                            <g id="g3634">
                                <g id="g3636">
                                    <path d="M0.00964779874,0.515461113 C0.00964779874,0.441823811 0.00964779874,0.220911905 0.0602125326,0.0736373018 L0.0602125326,0.0736373018 C0.0602125326,0.147274604 0.110777266,0.220911905 0.110777266,0.294549207 L0.110777266,0.294549207 L0.110777266,0.368186509 L0.110777266,0.368186509 C0.0602125326,0.368186509 0.00964779874,0.441823811 0.00964779874,0.515461113 L0.00964779874,0.515461113 L0.00964779874,0.515461113 L0.00964779874,0.515461113 L0.00964779874,0.515461113 L0.00964779874,0.515461113 Z" id="path3646"></path>
                                </g>
                            </g>
                        </g>
                    </g>
                    <g id="g3648" transform="translate(30.320079, 11.949751) scale(1, -1) translate(-30.320079, -11.949751) translate(29.320079, 10.949751)" fill="url(#linearGradient-4)">
                        <g id="g3650">
                            <g id="g3656">
                                <g id="g3658">
                                    <path d="M0.126728706,0.762592304 C0.278422907,0.541680399 0.379552375,0.320768494 0.379552375,0.0998565882 L0.379552375,0.0998565882 C0.379552375,0.0262192863 0.430117109,-0.0474180155 0.480681843,0.0998565882 L0.480681843,0.0998565882 L0.531246576,0.17349389 L0.531246576,0.17349389 L0.480681843,0.247131192 L0.480681843,0.247131192 C0.430117109,0.320768494 0.278422907,0.541680399 0.126728706,0.762592304 L0.126728706,0.762592304 Z" id="path3668"></path>
                                </g>
                            </g>
                        </g>
                    </g>
                    <g id="g3670" transform="translate(24.252311, 12.152023) scale(1, -1) translate(-24.252311, -12.152023) translate(23.252311, 11.152023)" fill="url(#linearGradient-5)">
                        <g id="g3672">
                            <g id="g3678">
                                <g id="g3680">
                                    <path d="M0.0159852252,1.24804351 C0.117114693,1.02713161 0.167679427,0.658945097 0.167679427,0.217121286 L0.167679427,0.217121286 C0.167679427,0.0698466821 0.21824416,0.143483984 0.268808894,0.217121286 L0.268808894,0.217121286 C0.268808894,0.290758588 0.319373628,0.290758588 0.319373628,0.364395889 L0.319373628,0.364395889 C0.21824416,0.732582398 0.117114693,1.10076891 0.0159852252,1.24804351 Z" id="path3690"></path>
                                </g>
                            </g>
                        </g>
                    </g>
                    <g id="g3722" transform="translate(28.152948, 14.536160) scale(1, -1) translate(-28.152948, -14.536160) translate(26.652948, 12.036160)" fill="url(#linearGradient-6)">
                        <g id="g3724">
                            <g id="g3730">
                                <g id="g3732">
                                    <path d="M0.0633643529,0.883647622 C0.0633643529,0.662735716 0.113929087,0.294549207 0.265623288,0.220911905 C0.316188022,0.147274604 0.366752756,0.147274604 0.41731749,0.147274604 C0.41731749,0.220911905 0.366752756,0.368186509 0.366752756,0.441823811 C0.366752756,1.17819683 0.518446957,1.91456985 0.922964828,2.65094286 C1.42861217,3.53459049 1.9342595,3.9764143 2.28821264,3.75550239 C2.28821264,3.9764143 2.18708317,4.1236889 2.03538897,4.1973262 C1.98482424,4.2709635 1.88369477,4.2709635 1.83313004,4.2709635 C1.58030637,4.2709635 1.12522376,3.82913969 0.720705893,3.09276668 C0.316188022,2.35639366 0.113929087,1.62002064 0.0633643529,0.883647622 Z" id="path3742"></path>
                                </g>
                            </g>
                        </g>
                    </g>
                    <g id="g3744" transform="translate(18.545648, 14.333888) scale(1, -1) translate(-18.545648, -14.333888) translate(17.045648, 11.833888)" fill="url(#linearGradient-7)">
                        <g id="g3746">
                            <g id="g3752">
                                <g id="g3754">
                                    <path d="M2.04058249,4.37082009 C1.48437042,4.07627089 0.928158347,3.56080977 0.523640476,2.82443675 L0.523640476,2.82443675 C0.068557872,1.94078913 -0.0325715956,0.909866908 0.270816807,0.320768494 L0.270816807,0.320768494 C0.321381541,0.17349389 0.422511009,0.0998565882 0.523640476,0.0262192863 L0.523640476,0.0262192863 C0.371946275,0.762592304 0.473075743,1.71987723 0.827028879,2.38261294 L0.827028879,2.38261294 C1.23154675,3.11898596 1.63606462,3.41353517 2.14171196,3.70808438 L2.14171196,3.70808438 C2.19227669,3.78172168 2.19227669,3.78172168 2.19227669,3.85535898 L2.19227669,3.85535898 C2.19227669,4.00263358 2.09114722,4.37082009 2.09114722,4.44445739 L2.09114722,4.44445739 L2.09114722,4.44445739 C2.14171196,4.44445739 2.14171196,4.37082009 2.04058249,4.37082009" id="path3764"></path>
                                </g>
                            </g>
                        </g>
                    </g>
                    <g id="g3766" transform="translate(23.446285, 16.340735) scale(1, -1) translate(-23.446285, -16.340735) translate(20.446285, 13.840735)" fill="url(#linearGradient-8)">
                        <g id="g3768">
                            <g id="g3774">
                                <g id="g3776">
                                    <path d="M1.29044591,0.700015826 C1.23988118,0.626378524 1.23988118,0.626378524 1.18931644,0.626378524 C0.885928038,0.626378524 0.379404759,0.437876412 0.0254516226,0.437876412 L0.0254516226,0.334324182 C-0.0251131112,0.334324182 0.0254516226,0.36423911 0.0254516226,0.437876412 C0.0760163564,0.290601809 0.178021765,0.184554713 0.228586499,0.110917412 C0.228586499,0.0372801099 0.279151233,0.0372801099 0.279151233,0.0372801099 L1.44214011,0.0372801099 C1.49270484,0.0372801099 1.54326958,0.110917412 1.54326958,0.110917412 C1.99835218,1.14183964 2.50399952,2.32003647 3.00964686,3.42459599 C3.11077633,2.90913488 3.16134106,2.61458567 3.3636,2.39367377 C3.56585893,2.09912456 3.76811787,2.09912456 4.02094153,2.09912456 C4.2737652,2.09912456 4.52658887,2.24639916 4.77941254,2.39367377 C4.88054201,2.46731107 4.98167148,2.54094837 5.08280094,2.61458567 C5.08280094,2.83549758 5.08280094,2.98277218 5.13336568,3.20368409 C5.13336568,3.20368409 5.13336568,3.35095869 5.03223621,3.27732139 C4.88054201,3.13004679 4.72884781,2.98277218 4.52658887,2.83549758 C4.2737652,2.68822297 4.122071,2.61458567 3.86924733,2.61458567 C3.56585893,2.61458567 3.26247053,2.83549758 3.06021159,3.27732139 C2.95908212,3.49823329 2.90851739,3.8664198 2.90851739,4.16096901 C2.85795266,4.16096901 2.85795266,4.16096901 2.80738792,4.16096901 C2.30174059,2.98277218 1.79609325,1.87821265 1.29044591,0.700015826 Z" id="path3786"></path>
                                </g>
                            </g>
                        </g>
                    </g>
                    <g id="g3788" transform="translate(28.863864, 17.245279) scale(1, -1) translate(-28.863864, -17.245279) translate(25.363864, 15.245279)" fill="url(#linearGradient-9)">
                        <g id="g3790">
                            <g id="g3796">
                                <g id="g3798">
                                    <path d="M6.74573348,3.9104072 C6.24008614,3.02675958 5.68387407,2.21674926 5.17822673,1.62765084 L5.17822673,1.62765084 C4.36919099,0.74400322 3.56015525,0.449454012 3.15563738,1.03855243 L3.15563738,1.03855243 C3.00394317,1.25946433 2.90281371,1.55401354 2.90281371,1.84856275 L2.90281371,1.84856275 C2.90281371,1.99583735 2.85224897,1.99583735 2.80168424,1.92220005 L2.80168424,1.92220005 C2.2960369,1.25946433 1.48700116,0.449454012 0.728530153,1.03855243 L0.728530153,1.03855243 C0.324012283,1.33310163 0.121753347,1.84856275 0.0711886135,2.36402386 L0.0711886135,2.36402386 C0.121753347,1.92220005 0.172318081,1.40673894 0.324012283,1.03855243 L0.324012283,1.03855243 C0.42514175,0.817640521 0.627400685,0.523091314 0.728530153,0.449454012 L0.728530153,0.449454012 C1.38587169,-0.0660071003 2.34660164,0.523091314 3.00394317,1.40673894 L3.00394317,1.40673894 L3.00394317,1.40673894 L3.00394317,1.40673894 C3.05450791,1.25946433 3.05450791,1.03855243 3.05450791,1.03855243 L3.05450791,1.03855243 C3.10507264,0.817640521 3.15563738,0.670365918 3.20620211,0.523091314 L3.20620211,0.523091314 C3.61071998,-0.139644402 4.52088519,0.154904805 5.48161513,1.18582703 L5.48161513,1.18582703 C5.98726247,1.77492544 6.39178034,2.36402386 6.84686294,3.17403418 L6.84686294,3.17403418 L6.84686294,3.32130878 L6.84686294,3.32130878 C6.79629821,3.46858339 6.74573348,3.8367699 6.74573348,3.9104072 L6.74573348,3.9104072 C6.74573348,3.9840445 6.74573348,3.9104072 6.74573348,3.9104072 L6.74573348,3.9104072 Z" id="path3808"></path>
                                </g>
                            </g>
                        </g>
                    </g>
                    <g id="g3810" transform="translate(25.263606, 13.124769) scale(1, -1) translate(-25.263606, -13.124769) translate(24.263606, 11.624769)" fill="url(#linearGradient-10)">
                        <g id="g3812">
                            <g id="g3818">
                                <g id="g3820">
                                    <path d="M1.48109502,1.74169401 C1.43053029,1.2998702 1.27883609,0.931683692 0.975447682,0.710771787 L0.975447682,0.710771787 C0.722624013,0.563497183 0.469800344,0.563497183 0.267541409,0.85804639 L0.267541409,0.85804639 C0.216976675,0.931683692 0.166411941,1.00532099 0.115847208,1.1525956 L0.115847208,1.1525956 C0.166411941,0.85804639 0.216976675,0.563497183 0.267541409,0.41622258 L0.267541409,0.41622258 C0.469800344,0.0480360707 0.773188747,-0.099238533 1.12714188,0.195310674 L1.12714188,0.195310674 C1.37996555,0.41622258 1.58222449,0.784409089 1.58222449,1.52078211 L1.58222449,1.52078211 C1.58222449,1.88896862 1.48109502,2.18351782 1.37996555,2.47806703 L1.37996555,2.47806703 C1.48109502,2.25715512 1.48109502,1.96260592 1.48109502,1.74169401" id="path3830"></path>
                                </g>
                            </g>
                        </g>
                    </g>
                    <g id="g3832" transform="translate(31.181185, 13.070261) scale(1, -1) translate(-31.181185, -13.070261) translate(29.181185, 8.570261)" fill="url(#linearGradient-11)">
                        <g id="g3834">
                            <g id="g3840">
                                <g id="g3842">
                                    <path d="M0.0412254828,0.681375771 C-0.009339251,0.460463866 0.172284572,0.461569907 0.222849306,0.314295303 C0.27341404,0.1670207 0.220346307,0.0539089338 0.321475775,0.0539089338 C0.52373471,0.790281952 3.62922634,7.67691944 3.78092054,8.11874325 L3.78092054,8.19238056 C3.78092054,8.19238056 3.67979107,8.92875357 3.67979107,8.92875357 C3.52809687,8.56056706 0.243484418,1.41774879 0.0412254828,0.681375771 Z" id="path3852"></path>
                                </g>
                            </g>
                        </g>
                    </g>
                    <g id="g3854" transform="translate(20.718427, 12.888396) scale(1, -1) translate(-20.718427, -12.888396) translate(20.218427, 11.888396)" fill="url(#linearGradient-12)">
                        <g id="g3856">
                            <g id="g3862">
                                <g id="g3864">
                                    <path d="M0,1.66838961 C0,1.66838961 0.0505647338,1.59475231 0,1.66838961 L0,1.66838961 C0.202258935,1.2265658 0.303388403,0.637467389 0.303388403,0.122006276 L0.303388403,0.122006276 C0.303388403,-0.0252683272 0.353953137,-0.0252683272 0.404517871,0.0483689746 L0.404517871,0.0483689746 C0.455082604,0.122006276 0.455082604,0.195643578 0.505647338,0.195643578 L0.505647338,0.195643578 C0.455082604,0.490192785 0.353953137,0.784741993 0.303388403,1.0792912 L0.303388403,1.0792912 C0.252823669,1.1529285 0.151694201,1.52111501 0,1.66838961 Z" id="path3874"></path>
                                </g>
                            </g>
                        </g>
                    </g>
                    <g id="g3876" transform="translate(18.884165, 15.745279) scale(1, -1) translate(-18.884165, -15.745279) translate(14.884165, 12.245279)" fill="url(#linearGradient-13)">
                        <g id="g3878">
                            <g id="g3884">
                                <g id="g3886">
                                    <path d="M6.92736853,6.11189605 C6.27002699,5.37552303 5.71381492,4.2709635 5.46099125,3.75550239 L5.46099125,3.75550239 C5.30929705,3.46095318 5.15760285,3.01912937 4.70252024,2.35639366 L4.70252024,2.35639366 C4.04517871,1.25183413 3.1350135,0.662735716 2.27541302,1.10455953 L2.27541302,1.10455953 C1.82033042,1.32547143 1.46637728,1.91456985 1.31468308,2.57730556 L1.31468308,2.57730556 C1.26411835,2.72458017 1.21355361,2.72458017 1.21355361,2.65094286 L1.21355361,2.65094286 C1.06185941,2.43003096 0.809035741,1.98820715 0.556212072,1.76729524 L0.556212072,1.76729524 C0.505647338,1.76729524 0.455082604,1.69365794 0.404517871,1.69365794 L0.404517871,1.69365794 C0.353953137,1.69365794 0.151694201,2.06184445 0.151694201,2.20911905 L0.151694201,2.20911905 L0.151694201,2.20911905 L0.151694201,2.20911905 L0.151694201,2.20911905 C0.202258935,1.76729524 0.202258935,1.69365794 0.303388403,1.47274604 L0.303388403,1.47274604 C0.404517871,1.25183413 0.505647338,1.10455953 0.505647338,1.03092223 L0.505647338,1.03092223 C0.556212072,0.957284923 0.606776806,1.03092223 0.65734154,1.03092223 L0.65734154,1.03092223 C0.859600475,1.17819683 1.21355361,1.54638334 1.36524781,1.84093255 L1.36524781,1.84093255 C1.41581255,1.91456985 1.46637728,1.84093255 1.46637728,1.76729524 L1.46637728,1.76729524 C1.51694201,1.47274604 1.61807148,1.25183413 1.71920095,0.957284923 L1.71920095,0.957284923 C1.82033042,0.662735716 2.07315409,0.368186509 2.37654249,0.294549207 L2.37654249,0.294549207 C2.78106036,0.147274604 3.18557823,0.0736373018 3.7417903,0.441823811 L3.7417903,0.441823811 C4.19687291,0.662735716 4.65195551,1.17819683 5.00590865,1.76729524 L5.00590865,1.76729524 C5.46099125,2.43003096 5.61268545,2.87185477 5.76437965,3.16640398 L5.76437965,3.16640398 C6.06776806,3.68186509 6.47228593,4.56551271 7.07906273,5.30188573 L7.07906273,5.30188573 C7.28132167,5.59643494 7.53414534,5.74370954 7.68583954,5.67007224 L7.68583954,5.67007224 C7.78696901,5.96462145 7.73640427,6.18553335 7.63527481,6.25917065 L7.63527481,6.25917065 C7.58471007,6.25917065 7.58471007,6.33280796 7.53414534,6.33280796 L7.53414534,6.33280796 C7.3318864,6.48008256 7.12962747,6.25917065 6.92736853,6.11189605" id="path3896"></path>
                                </g>
                            </g>
                        </g>
                    </g>
                    <g id="g3898" transform="translate(10.322044, 13.563414) scale(1, -1) translate(-10.322044, -13.563414) translate(9.322044, 11.563414)" fill="url(#linearGradient-14)">
                        <g id="g3900">
                            <g id="g3906">
                                <g id="g3908">
                                    <path d="M1.51694201,3.31367858 C1.16298888,3.01912937 0.707906273,2.57730556 0.505647338,1.91456985 L0.505647338,1.91456985 C0.303388403,1.39910873 0.303388403,0.736373018 0.556212072,0.147274604 L0.556212072,0.147274604 C0.556212072,0.0736373018 0.606776806,0.0736373018 0.606776806,-6.94426596e-16 L0.606776806,-6.94426596e-16 C0.505647338,0.515461113 0.606776806,1.03092223 0.758471007,1.47274604 L0.758471007,1.47274604 C0.960729942,2.13548175 1.26411835,2.43003096 1.56750675,2.72458017 L1.56750675,2.72458017 C1.71920095,2.87185477 1.76976568,2.94549207 1.66863622,3.24004128 L1.66863622,3.24004128 C1.66863622,3.31367858 1.61807148,3.46095318 1.61807148,3.60822779 L1.61807148,3.60822779 C1.66863622,3.46095318 1.61807148,3.38731588 1.51694201,3.31367858" id="path3918"></path>
                                </g>
                            </g>
                        </g>
                    </g>
                    <g id="g3920" transform="translate(15.628070, 6.936057) scale(1, -1) translate(-15.628070, -6.936057) translate(12.128070, 4.936057)" fill="url(#linearGradient-15)">
                        <g id="g3922">
                            <g id="g3928">
                                <g id="g3930">
                                    <path d="M1.44576106,3.20454542 C0.383901648,2.61544701 -0.0711809564,1.36361288 0.131077979,0.553602557 L0.131077979,0.553602557 C0.181642713,0.406327954 0.232207446,0.25905335 0.333336914,0.185416048 L0.333336914,0.185416048 C0.28277218,0.921789066 0.636725317,2.1736232 1.69858473,2.68908431 L1.69858473,2.68908431 C3.06383254,3.35182003 4.53020982,2.90999622 5.74376343,2.54180971 L5.74376343,2.54180971 C5.89545763,2.68908431 6.04715184,2.83635891 6.19884604,2.90999622 L6.19884604,2.90999622 C6.24941077,2.98363352 6.19884604,3.05727082 6.1482813,3.05727082 L6.1482813,3.05727082 C5.18755136,3.35182003 4.17625668,3.64636923 3.21552674,3.64636923 L3.21552674,3.64636923 C2.60874994,3.64636923 2.00197313,3.49909463 1.44576106,3.20454542" id="path3940"></path>
                                </g>
                            </g>
                        </g>
                    </g>
                    <g id="g3942" transform="translate(13.949644, 14.340735) scale(1, -1) translate(-13.949644, -14.340735) translate(8.449644, 9.840735)" fill="url(#linearGradient-16)">
                        <g id="g3944">
                            <g id="g3950">
                                <g id="g3952">
                                    <path d="M9.67066378,8.43193252 C9.16501644,8.35829521 8.40654543,8.28465791 7.90089809,8.21102061 L7.90089809,8.21102061 C7.79976863,8.21102061 7.74920389,8.13738331 7.74920389,8.06374601 L7.74920389,8.06374601 C6.94016815,6.07553886 6.08056768,4.01369441 5.11983773,2.54094837 L5.11983773,2.54094837 C4.10854306,0.994565033 3.24894258,0.626378524 2.33877737,0.626378524 L2.33877737,0.626378524 C1.27691796,0.626378524 0.366752756,1.51002615 0.113929087,2.98277218 L0.113929087,2.98277218 C0.215058554,2.17276186 0.619576425,1.14183964 1.0240943,0.700015826 L1.0240943,0.700015826 C1.4791769,0.258192015 1.88369477,0.110917412 2.38934211,0.110917412 L2.38934211,0.110917412 C3.40063678,0.110917412 4.36136673,0.700015826 5.3726614,2.17276186 L5.3726614,2.17276186 C6.33339135,3.5718706 7.14242709,5.56007775 7.95146283,7.54828489 L7.95146283,7.54828489 C8.00202756,7.6219222 8.00202756,7.6219222 8.15372176,7.6955595 L8.15372176,7.6955595 C8.6593691,7.7691968 9.11445171,7.8428341 9.56953431,7.9164714 L9.56953431,7.9164714 L9.87292271,7.9164714 L9.87292271,7.9164714 C10.0246169,7.6955595 10.2268758,7.47464759 10.3280053,7.32737299 L10.3280053,7.32737299 C10.4291348,7.32737299 10.4796995,7.32737299 10.5302643,7.25373569 L10.5302643,7.25373569 C10.580829,7.25373569 10.6313937,7.32737299 10.6819585,7.32737299 L10.6819585,7.32737299 C10.7325232,7.40101029 10.7325232,7.47464759 10.7325232,7.6219222 L10.7325232,7.6219222 C10.7325232,7.7691968 10.6819585,8.13738331 10.6313937,8.21102061 L10.6313937,8.21102061 C10.6313937,8.13738331 10.6313937,8.06374601 10.580829,7.9901087 L10.580829,7.9901087 C10.5302643,7.9164714 10.4796995,7.8428341 10.4291348,7.8428341 L10.4291348,7.8428341 C10.3785701,7.8428341 10.3280053,7.8428341 10.2774406,7.9164714 L10.2774406,7.9164714 C10.1257464,8.06374601 9.92348745,8.21102061 9.82235798,8.43193252 L9.82235798,8.43193252 C9.77179325,8.50556982 9.77179325,8.50556982 9.72122851,8.50556982 L9.72122851,8.50556982 C9.72122851,8.43193252 9.72122851,8.43193252 9.67066378,8.43193252" id="path3962"></path>
                                </g>
                            </g>
                        </g>
                    </g>
                    <g id="g3964" transform="translate(14.278259, 11.213378) scale(1, -1) translate(-14.278259, -11.213378) translate(13.278259, 10.213378)" fill="url(#linearGradient-17)">
                        <g id="g3966">
                            <g id="g3972">
                                <g id="g3974">
                                    <path d="M0.533039931,0.691208814 C0.431910463,0.54393421 0.280216262,0.617571512 0.179086794,0.764846116 L0.179086794,0.764846116 C0.179086794,0.838483418 0.12852206,0.912120719 0.12852206,0.912120719 L0.12852206,0.912120719 C0.12852206,0.691208814 0.179086794,0.249385003 0.229651528,0.175747701 L0.229651528,0.175747701 C0.280216262,0.0284730978 0.482475197,-0.045164204 0.583604665,0.1021104 L0.583604665,0.1021104 C0.886993068,0.470296909 1.19038147,0.617571512 1.49376987,0.691208814 L1.49376987,0.691208814 C1.59489934,0.838483418 1.64546407,1.05939532 1.74659354,1.20666993 L1.74659354,1.20666993 L1.74659354,1.28030723 L1.74659354,1.28030723 C1.74659354,1.28030723 1.74659354,1.28030723 1.69602881,1.28030723 L1.69602881,1.28030723 C1.34207567,1.28030723 0.937557801,1.13303262 0.533039931,0.691208814" id="path3984"></path>
                                </g>
                            </g>
                        </g>
                    </g>
                    <g id="g3986" transform="translate(27.514053, 4.990564) scale(1, -1) translate(-27.514053, -4.990564) translate(26.514053, 3.990564)" fill="url(#linearGradient-18)">
                        <g id="g3988">
                            <g id="g3994">
                                <g id="g3996">
                                    <path d="M0.202258935,0.589098414 L0.202258935,0.589098414 L0.202258935,0.589098414 L0.202258935,0.589098414 Z" id="path4006"></path>
                                </g>
                            </g>
                        </g>
                    </g>
                    <g id="g4008" transform="translate(22.040001, 7.301987) scale(1, -1) translate(-22.040001, -7.301987) translate(16.540001, 4.801987)" fill="url(#linearGradient-19)">
                        <g id="g4010">
                            <g id="g4016" transform="translate(0.000000, 0.000000)">
                                <g id="g4018" transform="translate(-0.000000, 0.000000)">
                                    <path d="M10.2268758,4.31161623 C10.2268758,3.86979242 9.97405218,3.42796861 9.41784011,2.9861448 L9.41784011,2.9861448 C8.76049857,2.47068369 8.10315703,2.32340908 7.39525076,2.32340908 L7.39525076,2.32340908 C5.67604981,2.32340908 4.10854306,3.28069401 2.43990684,3.79615512 L2.43990684,3.79615512 C2.43990684,3.72251782 2.43990684,3.57524321 2.38934211,3.50160591 L2.38934211,3.50160591 C1.4791769,2.54432099 0.670141159,1.51339876 0.113929087,0.114290029 L0.113929087,0.114290029 L0.113929087,0.0406527274 L0.113929087,0.0406527274 L0.518446957,0.0406527274 L0.518446957,0.0406527274 C1.0240943,1.21884956 1.58030637,1.88158527 2.38934211,2.76523289 L2.38934211,2.76523289 C2.43990684,2.8388702 2.49047158,2.9125075 2.49047158,3.1334194 L2.49047158,3.1334194 C4.15910779,2.61795829 5.42322614,1.73431067 7.54694496,1.73431067 L7.54694496,1.73431067 C8.2042865,1.73431067 9.06388697,2.02885988 9.56953431,2.47068369 L9.56953431,2.47068369 C10.1257464,2.9861448 10.2774406,3.28069401 10.2774406,3.72251782 L10.2774406,3.72251782 C10.2774406,3.86979242 10.2774406,4.01706702 10.2268758,4.09070433 L10.2268758,4.09070433 C10.2268758,4.23797893 10.1763111,4.38525353 10.1763111,4.53252814 L10.1763111,4.53252814 C10.2268758,4.38525353 10.2268758,4.31161623 10.2268758,4.31161623" id="path4028"></path>
                                </g>
                            </g>
                        </g>
                    </g>
                    <g id="g4030" transform="translate(19.423696, 8.470158) scale(1, -1) translate(-19.423696, -8.470158) translate(18.423696, 7.470158)" fill="url(#linearGradient-20)">
                        <g id="g4032">
                            <g id="g4038">
                                <g id="g4040">
                                    <path d="M0.21332536,1.08002555 C0.0616311587,0.85911364 0.0110664249,0.490927131 0.0110664249,0.270015226 C0.0110664249,0.196377924 0.0616311587,0.122740622 0.0616311587,0.122740622 C0.112195892,0.122740622 0.112195892,0.122740622 0.162760626,0.196377924 C0.162760626,0.343652527 0.21332536,0.490927131 0.314454828,0.564564433 C0.365019562,0.638201735 0.526091892,0.638201735 0.576656626,0.564564433 L0.576656626,0.61554632 C0.627221359,0.762820924 0.677786093,1.08002555 0.576656626,1.22730015 C0.526091892,1.30093745 0.466149029,1.22730015 0.415584295,1.22730015 C0.365019562,1.22730015 0.314454828,1.22730015 0.263890094,1.15366285 L0.21332536,1.08002555 Z" id="path4050"></path>
                                </g>
                            </g>
                        </g>
                    </g>
                    <g id="g4052" transform="translate(19.701485, 9.240632) scale(1, -1) translate(-19.701485, -9.240632) translate(18.701485, 7.740632)" fill="url(#linearGradient-21)">
                        <g id="g4054">
                            <g id="g4060">
                                <g id="g4062">
                                    <path d="M0.74675331,1.42639527 C0.595059109,0.984571459 0.34223544,0.763659554 0.0894117706,0.61638495 L0.0894117706,0.61638495 C0.0894117706,0.61638495 0.0388470368,0.61638495 0.0388470368,0.542747649 L0.0388470368,0.542747649 C0.0388470368,0.469110347 0.241105972,0.321835743 0.34223544,0.17456114 L0.34223544,0.17456114 L0.392800174,0.17456114 L0.392800174,0.17456114 C0.544494375,0.248198441 0.74675331,0.469110347 0.847882778,0.837296856 L0.847882778,0.837296856 C0.949012245,1.05820876 0.949012245,1.27912067 0.949012245,1.72094448 L0.949012245,1.72094448 C0.949012245,2.01549368 0.898447512,2.31004289 0.847882778,2.4573175 L0.847882778,2.4573175 C0.898447512,2.16276829 0.847882778,1.79458178 0.74675331,1.42639527" id="path4072"></path>
                                </g>
                            </g>
                        </g>
                    </g>
                    <g id="g4074" transform="translate(12.977880, 8.942904) scale(1, -1) translate(-12.977880, -8.942904) translate(10.977880, 6.942904)" fill="url(#linearGradient-22)">
                        <g id="g4076">
                            <g id="g4082">
                                <g id="g4084">
                                    <path d="M3.81447523,3.19594432 C3.35939263,1.64956099 2.49979215,0.397726856 1.43793274,0.397726856 C0.780591203,0.397726856 0.325508599,0.839550667 0.123249663,1.57592369 C0.274943865,1.06046257 0.628897001,0.618638762 0.932285404,0.324089555 C1.18510907,0.103177649 1.43793274,0.0295403474 1.74132115,0.0295403474 C2.85374529,0.103177649 3.66278103,1.42864908 3.96616943,2.53320861 C4.00080056,2.7349415 4.0030357,3.04973933 3.95185712,3.31916792 C3.90067854,3.58859652 3.83197916,3.61221697 3.83197916,3.65862513 C3.83197916,3.54239783 3.81447523,3.19594432 3.81447523,3.19594432 Z" id="path4094"></path>
                                </g>
                            </g>
                        </g>
                    </g>
                    <g id="g4156" transform="translate(20.726039, 11.690771) scale(1, -1) translate(-20.726039, -11.690771) translate(0.726039, 1.190771)" fill="url(#linearGradient-23)">
                        <g id="g4158">
                            <g id="g4164">
                                <g id="g4166">
                                    <path d="M0.303388403,10.235585 C0.303388403,4.71278732 9.10165209,0.294549207 19.9730699,0.294549207 L19.9730699,0.294549207 C30.8444876,0.294549207 39.6427513,4.78642462 39.6427513,10.235585 L39.6427513,10.235585 C39.6427513,15.7583826 30.8444876,20.1766207 19.9730699,20.1766207 L19.9730699,20.1766207 C9.10165209,20.250258 0.303388403,15.7583826 0.303388403,10.235585 M1.01129468,10.235585 C1.01129468,15.2429215 9.50616996,19.3666104 19.9730699,19.3666104 L19.9730699,19.3666104 C30.4399698,19.3666104 38.934845,15.3165588 38.934845,10.235585 L38.934845,10.235585 C38.934845,5.22824843 30.4399698,1.10455953 19.9730699,1.10455953 L19.9730699,1.10455953 C9.50616996,1.17819683 1.01129468,5.22824843 1.01129468,10.235585" id="path4180"></path>
                                </g>
                            </g>
                        </g>
                    </g>
                    <g id="g4182" transform="translate(23.884165, 13.745279) scale(1, -1) translate(-23.884165, -13.745279) translate(14.884165, 8.245279)" fill="url(#linearGradient-24)">
                        <g id="g4184">
                            <g id="g4190">
                                <g id="g4192">
                                    <path d="M16.9391858,10.6774088 C16.8380564,10.6774088 16.8380564,10.6774088 16.7874916,10.5301342 L16.7874916,10.5301342 C16.6863622,10.1619476 15.2199849,6.99554367 14.9165965,6.33280796 L14.9165965,6.33280796 C14.8660317,6.25917065 14.815467,6.25917065 14.815467,6.33280796 L14.815467,6.33280796 C14.7649023,6.70099446 14.5626433,7.14281827 14.2086902,7.36373018 L14.2086902,7.36373018 C13.9558665,7.51100478 13.7030429,7.51100478 13.3996545,7.51100478 L13.3996545,7.51100478 C12.8940071,7.43736748 12.4894893,7.06918097 12.0849714,6.62735716 L12.0849714,6.62735716 C11.5287593,5.96462145 11.023112,5.15461113 10.3657704,4.56551271 L10.3657704,4.56551271 C10.0118173,4.2709635 9.55673469,3.9764143 9.20278155,4.34460081 L9.20278155,4.34460081 C8.89939315,4.71278732 8.94995789,5.59643494 9.40504049,6.25917065 L9.40504049,6.25917065 C9.45560522,6.33280796 9.50616996,6.25917065 9.50616996,6.18553335 L9.50616996,6.18553335 C9.45560522,5.89098414 9.50616996,5.59643494 9.65786416,5.37552303 L9.65786416,5.37552303 C9.86012309,5.15461113 10.1129468,5.08097382 10.3657704,5.22824843 L10.3657704,5.22824843 C10.6691588,5.44916033 10.820853,5.81734684 10.8714178,6.25917065 L10.8714178,6.25917065 C10.9219825,6.92190637 10.5680294,7.51100478 10.1129468,7.58464209 L10.1129468,7.58464209 C9.75899363,7.65827939 9.40504049,7.43736748 9.05108735,6.99554367 L9.05108735,6.99554367 C8.89939315,6.77463177 8.79826368,6.62735716 8.64656948,6.33280796 L8.64656948,6.33280796 C8.59600475,6.25917065 8.54544001,6.25917065 8.54544001,6.33280796 L8.54544001,6.33280796 C8.54544001,7.21645558 8.29261635,7.73191669 7.83753374,7.73191669 L7.83753374,7.73191669 C7.43301587,7.73191669 7.028498,7.43736748 6.7251096,7.06918097 L6.7251096,7.06918097 C6.37115646,6.62735716 6.06776806,6.11189605 5.71381492,5.59643494 L5.71381492,5.59643494 C5.66325019,5.52279764 5.61268545,5.52279764 5.61268545,5.67007224 L5.61268545,5.67007224 C5.61268545,6.25917065 5.51155599,6.77463177 5.30929705,7.21645558 L5.30929705,7.21645558 C5.25873232,7.36373018 5.10703812,7.43736748 5.00590865,7.36373018 L5.00590865,7.36373018 C4.95534391,7.29009288 4.75308498,7.21645558 4.65195551,7.06918097 L4.65195551,7.06918097 C4.60139078,6.99554367 4.55082604,6.84826907 4.60139078,6.70099446 L4.60139078,6.70099446 C4.80364971,5.81734684 4.75308498,4.86006192 4.50026131,4.0500516 L4.50026131,4.0500516 C4.29800237,3.31367858 3.84291977,2.57730556 3.33727243,2.35639366 L3.33727243,2.35639366 C2.9833193,2.20911905 2.67993089,2.28275636 2.42710722,2.72458017 L2.42710722,2.72458017 C2.12371882,3.31367858 2.27541302,4.34460081 2.67993089,5.22824843 L2.67993089,5.22824843 C3.08444876,5.96462145 3.64066083,6.48008256 4.19687291,6.77463177 L4.19687291,6.77463177 C4.24743764,6.84826907 4.29800237,6.84826907 4.24743764,6.92190637 L4.24743764,6.92190637 C4.19687291,7.06918097 4.14630817,7.21645558 4.14630817,7.29009288 L4.14630817,7.29009288 C4.09574344,7.51100478 3.94404924,7.51100478 3.79235504,7.51100478 L3.79235504,7.51100478 C3.38783717,7.43736748 3.03388403,7.21645558 2.67993089,6.92190637 L2.67993089,6.92190637 C1.71920095,6.18553335 1.26411835,4.78642462 1.06185941,3.9764143 L1.06185941,3.9764143 C0.960729942,3.60822779 0.859600475,3.38731588 0.758471007,3.16640398 L0.758471007,3.16640398 C0.606776806,2.87185477 0.404517871,2.65094286 0.101129468,2.20911905 L0.101129468,2.20911905 C0.0505647338,2.13548175 0.0505647338,2.06184445 0.0505647338,1.98820715 L0.0505647338,1.98820715 C0.101129468,1.91456985 0.252823669,1.54638334 0.303388403,1.47274604 L0.303388403,1.47274604 C0.353953137,1.39910873 0.404517871,1.47274604 0.455082604,1.54638334 L0.455082604,1.54638334 C0.707906273,1.76729524 0.960729942,2.13548175 1.11242414,2.43003096 L1.11242414,2.43003096 C1.16298888,2.50366826 1.21355361,2.50366826 1.21355361,2.35639366 L1.21355361,2.35639366 C1.36524781,1.69365794 1.66863622,1.10455953 2.17428355,0.883647622 L2.17428355,0.883647622 C3.03388403,0.441823811 3.94404924,1.10455953 4.60139078,2.13548175 L4.60139078,2.13548175 C5.05647338,2.79821747 5.20816758,3.24004128 5.35986178,3.53459049 L5.35986178,3.53459049 C5.66325019,4.0500516 6.16889753,5.15461113 6.82623906,5.89098414 L6.82623906,5.89098414 C7.07906273,6.18553335 7.3318864,6.33280796 7.4835806,6.25917065 L7.4835806,6.25917065 C7.58471007,6.18553335 7.63527481,5.89098414 7.43301587,5.37552303 L7.43301587,5.37552303 C6.77567433,3.60822779 5.76437965,1.47274604 5.61268545,0.957284923 L5.61268545,0.957284923 C5.56212072,0.883647622 5.61268545,0.81001032 5.66325019,0.81001032 L5.66325019,0.81001032 L6.67454486,0.81001032 L6.67454486,0.81001032 C6.7251096,0.81001032 6.77567433,0.883647622 6.77567433,0.883647622 L6.77567433,0.883647622 C7.28132167,2.06184445 7.78696901,3.16640398 8.29261635,4.34460081 L8.29261635,4.34460081 C8.34318108,4.41823811 8.34318108,4.34460081 8.34318108,4.34460081 L8.34318108,4.34460081 C8.34318108,4.0500516 8.39374581,3.68186509 8.49487528,3.46095318 L8.49487528,3.46095318 C8.69713422,3.01912937 8.94995789,2.79821747 9.30391102,2.79821747 L9.30391102,2.79821747 C9.55673469,2.79821747 9.65786416,2.87185477 9.96125256,3.01912937 L9.96125256,3.01912937 C10.1635115,3.16640398 10.3657704,3.31367858 10.4668999,3.46095318 L10.4668999,3.46095318 C10.5680294,3.53459049 10.5680294,3.38731588 10.5680294,3.38731588 L10.5680294,3.38731588 C10.4668999,2.43003096 10.6185941,1.32547143 11.2253709,0.883647622 L11.2253709,0.883647622 C11.9838419,0.368186509 12.8434424,1.10455953 13.298525,1.76729524 L13.298525,1.76729524 C13.3490897,1.84093255 13.3996545,1.84093255 13.3996545,1.69365794 L13.3996545,1.69365794 C13.3996545,1.39910873 13.5007839,1.10455953 13.6524781,0.883647622 L13.6524781,0.883647622 C14.056996,0.294549207 14.8660317,0.515461113 15.6750675,1.47274604 L15.6750675,1.47274604 C16.1807148,2.06184445 16.7369269,2.87185477 17.2425742,3.75550239 L17.2425742,3.75550239 C17.2425742,3.75550239 17.293139,3.82913969 17.2425742,3.902777 L17.2425742,3.902777 C17.1920095,4.0500516 17.0403153,4.1236889 16.9897506,4.2709635 L16.9897506,4.2709635 C16.9391858,4.34460081 16.8886211,4.2709635 16.8886211,4.2709635 L16.8886211,4.2709635 C16.3829738,3.53459049 15.9278912,2.79821747 15.2705496,2.13548175 L15.2705496,2.13548175 C15.0682907,1.91456985 14.7143375,1.69365794 14.5120786,2.06184445 L14.5120786,2.06184445 C14.4615139,2.20911905 14.4615139,2.35639366 14.5120786,2.57730556 L14.5120786,2.57730556 C14.7143375,3.24004128 17.7482216,10.014673 17.8999158,10.4564969 L17.8999158,10.4564969 C17.9504805,10.5301342 17.8999158,10.6037715 17.849351,10.6037715 L17.849351,10.6037715 C17.6470921,10.6774088 17.2425742,10.6774088 16.9391858,10.6774088 M12.0849714,2.35639366 C11.9332772,2.50366826 11.8827124,2.79821747 11.8827124,3.01912937 L11.8827124,3.01912937 C11.8827124,3.75550239 12.1355361,4.49187541 12.540054,5.22824843 L12.540054,5.22824843 C13.0457013,6.11189605 13.6019134,6.62735716 13.9558665,6.33280796 L13.9558665,6.33280796 C14.3098197,6.03825875 14.2086902,5.44916033 14.056996,4.93369922 L14.056996,4.93369922 L14.056996,4.86006192 L14.056996,4.86006192 C14.056996,4.78642462 14.1075607,4.78642462 14.1581255,4.71278732 L14.1581255,4.71278732 C14.1581255,4.71278732 14.2086902,4.71278732 14.1581255,4.63915001 L14.1581255,4.63915001 C14.0064313,4.1973262 13.9053018,3.9764143 13.7536076,3.68186509 L13.7536076,3.68186509 C13.6019134,3.38731588 13.4502192,3.09276668 13.2479603,2.87185477 L13.2479603,2.87185477 C12.9951366,2.57730556 12.6917482,2.28275636 12.3883598,2.28275636 L12.3883598,2.28275636 C12.2366656,2.28275636 12.1861008,2.28275636 12.0849714,2.35639366" id="path4206"></path>
                                </g>
                            </g>
                        </g>
                    </g>
                    <g id="g4208" transform="translate(17.949644, 10.806634) scale(1, -1) translate(-17.949644, -10.806634) translate(8.449644, 3.306634)" fill="url(#linearGradient-25)">
                        <g id="g4210">
                            <g id="g4216">
                                <g id="g4218">
                                    <path d="M7.0035325,14.0647246 C6.7001441,14.0647246 6.3967557,14.0647246 6.14393203,13.9910873 L6.14393203,13.9910873 C4.27303688,13.7701754 2.5032712,12.2237921 2.5032712,9.86739844 L2.5032712,9.86739844 C2.5032712,8.68920161 3.05948327,7.73191669 3.96964848,7.73191669 L3.96964848,7.73191669 C5.03150789,7.80555399 5.89110836,8.98375082 6.34619097,10.5301342 L6.34619097,10.5301342 C6.49788517,11.1192326 6.19449676,11.3401445 6.04280256,11.0455953 L6.04280256,11.0455953 C5.78997889,10.4564969 5.38546102,9.94103574 4.98094315,9.64648654 L4.98094315,9.64648654 C4.47529581,9.27830003 3.96964848,9.42557463 3.81795427,9.94103574 L3.81795427,9.94103574 C3.61569534,10.7510461 4.07077794,12.0028802 5.13263735,12.5919786 L5.13263735,12.5919786 C6.7001441,13.4019889 8.31821558,12.8865278 9.8351576,12.444704 L9.8351576,12.444704 C9.8351576,12.444704 9.93628707,12.3710667 9.88572233,12.2974294 L9.88572233,12.2974294 C9.58233393,12.0765175 9.32951026,11.9292429 8.92499239,11.3401445 L8.92499239,11.3401445 C8.62160399,10.971958 8.21708612,10.4564969 7.91369771,9.86739844 L7.91369771,9.86739844 C7.61030931,9.35193733 7.40805038,8.83647622 7.10466197,8.3210151 L7.10466197,8.3210151 C7.05409724,8.2473778 7.0035325,8.2473778 7.0035325,8.2473778 L7.0035325,8.2473778 C6.29562623,8.1001032 5.58771996,7.95282859 4.98094315,7.29009288 L4.98094315,7.29009288 C4.82924895,7.14281827 4.77868422,6.92190637 4.87981368,6.77463177 L4.87981368,6.77463177 C4.93037842,6.62735716 5.13263735,6.62735716 5.23376682,6.70099446 L5.23376682,6.70099446 C5.63828469,7.14281827 6.04280256,7.36373018 6.49788517,7.36373018 L6.49788517,7.36373018 L6.5484499,7.36373018 L6.5484499,7.36373018 C6.5484499,7.36373018 6.5484499,7.36373018 6.5484499,7.29009288 L6.5484499,7.29009288 C5.84054363,5.89098414 5.68884943,5.59643494 5.18320209,4.71278732 L5.18320209,4.71278732 C4.93037842,4.2709635 4.67755475,3.902777 4.37416635,3.46095318 L4.37416635,3.46095318 C3.21117747,1.84093255 1.89649439,1.91456985 1.44141179,2.87185477 L1.44141179,2.87185477 C1.18858812,3.46095318 1.18858812,4.1236889 1.39084705,4.63915001 L1.39084705,4.63915001 C1.59310599,5.30188573 2.04818859,5.74370954 2.40214173,6.03825875 L2.40214173,6.03825875 C2.55383593,6.11189605 2.55383593,6.40644526 2.45270646,6.62735716 L2.45270646,6.62735716 C2.35157699,6.77463177 2.14931806,6.77463177 1.99762386,6.77463177 L1.99762386,6.77463177 C1.49197652,6.62735716 0.935764447,6.11189605 0.58181131,5.44916033 L0.58181131,5.44916033 C0.17729344,4.71278732 0.0255992382,3.82913969 0.076163972,2.87185477 L0.076163972,2.87185477 C0.17729344,1.10455953 1.18858812,0.0736373018 2.35157699,0.0736373018 L2.35157699,0.0736373018 C3.2617422,0.0736373018 4.12134268,0.515461113 5.13263735,1.98820715 L5.13263735,1.98820715 C6.0933673,3.38731588 6.95296777,5.52279764 7.76200351,7.51100478 L7.76200351,7.51100478 C7.81256825,7.58464209 7.81256825,7.58464209 7.91369771,7.65827939 L7.91369771,7.65827939 C8.41934505,7.73191669 9.17781606,7.87919129 9.6834634,7.87919129 L9.6834634,7.87919129 C9.78459286,7.87919129 9.8351576,7.87919129 9.8351576,7.80555399 L9.8351576,7.80555399 C9.93628707,7.58464209 10.138546,7.36373018 10.2902402,7.29009288 L10.2902402,7.29009288 C10.3408049,7.21645558 10.3913697,7.21645558 10.4419344,7.21645558 L10.4419344,7.21645558 C10.4924991,7.21645558 10.5936286,7.29009288 10.5936286,7.36373018 L10.5936286,7.36373018 C10.6441933,7.43736748 10.6441933,7.58464209 10.6441933,7.65827939 L10.6441933,7.65827939 C10.5936286,7.73191669 10.2902402,8.0264659 10.2902402,8.1001032 L10.2902402,8.1001032 C10.2902402,8.1737405 10.3408049,8.1737405 10.3408049,8.1737405 L10.3408049,8.1737405 C10.5936286,8.3210151 10.8464523,8.54192701 10.9981465,8.98375082 L10.9981465,8.98375082 C11.1498407,9.42557463 11.2004054,10.014673 10.897017,10.3092223 L10.897017,10.3092223 C10.6441933,10.6037715 10.2902402,10.5301342 9.9868518,10.1619476 L9.9868518,10.1619476 C9.6834634,9.79376114 9.58233393,9.20466273 9.63289866,8.76283891 L9.63289866,8.76283891 C9.63289866,8.68920161 9.63289866,8.61556431 9.58233393,8.61556431 L9.58233393,8.61556431 C9.12725132,8.54192701 8.72273345,8.54192701 8.21708612,8.54192701 L8.21708612,8.54192701 C8.16652138,8.54192701 8.16652138,8.54192701 8.21708612,8.61556431 L8.21708612,8.61556431 C8.77329819,10.014673 9.58233393,10.971958 10.4924991,12.0028802 L10.4924991,12.0028802 C10.5430639,12.0765175 10.5430639,12.2237921 10.5430639,12.2974294 L10.5430639,12.2974294 C12.2117001,11.7819683 13.7792068,10.8246834 15.4984078,10.8246834 L15.4984078,10.8246834 C16.2063141,10.8246834 16.8636556,10.971958 17.5209971,11.4874191 L17.5209971,11.4874191 C18.0772092,11.9292429 18.3300329,12.3710667 18.3300329,12.8128905 L18.3300329,12.8128905 C18.3300329,13.1074397 18.1783387,13.3283516 17.9760797,13.2547143 L17.9760797,13.2547143 C16.2568788,12.6656159 14.5882426,12.6656159 12.8690416,12.9601651 L12.8690416,12.9601651 C10.7958875,13.3283516 8.92499239,14.0647246 7.0035325,14.0647246 L7.0035325,14.0647246 L7.0035325,14.0647246 M9.9868518,9.05738812 C9.9868518,9.35193733 10.0374165,9.64648654 10.2396755,9.94103574 L10.2396755,9.94103574 C10.3408049,10.0883103 10.4924991,10.0883103 10.5430639,10.014673 L10.5430639,10.014673 C10.6441933,9.86739844 10.5936286,9.64648654 10.4924991,9.42557463 L10.4924991,9.42557463 C10.3913697,9.20466273 10.2396755,9.05738812 10.0879813,8.98375082 L10.0879813,8.98375082 L10.0879813,8.98375082 L10.0879813,8.98375082 C9.9868518,8.91011352 9.9868518,8.91011352 9.9868518,9.05738812" id="path4232"></path>
                                </g>
                            </g>
                        </g>
                    </g>
                </g>
            </g>
        </g>
    </g>
</svg>