<?xml version="1.0" encoding="UTF-8"?>
<svg width="56px" height="56px" viewBox="0 0 56 56" version="1.1" xmlns="http://www.w3.org/2000/svg" xmlns:xlink="http://www.w3.org/1999/xlink">
    <!-- Generator: Sketch 52.4 (67378) - http://www.bohemiancoding.com/sketch -->
    <title>FE</title>
    <desc>Created with Sketch.</desc>
    <defs>
        <rect id="path-1" x="0.255919471" y="0" width="33.4769231" height="34"></rect>
    </defs>
    <g id="FE" stroke="none" stroke-width="1" fill="none" fill-rule="evenodd">
        <g>
            <rect id="Rectangle-1" stroke="#E1E1E1" fill="#FFFFFF" x="0.5" y="0.5" width="55" height="55" rx="27.5"></rect>
            <g id="Group-48" transform="translate(11.000000, 11.000000)">
                <mask id="mask-2" fill="white">
                    <use xlink:href="#path-1"></use>
                </mask>
                <use id="Rectangle-1" fill="#22589C" xlink:href="#path-1"></use>
                <path d="M16.5235941,13.9564156 L16.5235941,9.40394439 L21.0332035,9.40394439 L21.0332035,7.68021067 L16.5235941,7.68021067 L16.5235941,5.34495925 L21.6582559,5.34495925 L21.6582559,3.54910278 L14.3789964,3.54910278 L14.3789964,13.9564156 L16.5235941,13.9564156 Z M30.5159197,12.1533468 L25.0577382,12.1533468 L25.0577382,9.35345847 L29.9228231,9.35345847 L29.9228231,7.68021067 L25.0577382,7.68021067 L25.0577382,5.34495925 L30.3321048,5.34495925 L30.3321048,3.54910278 L22.9131405,3.54910278 L22.9131405,13.9564156 L30.5159197,13.9564156 L30.5159197,12.1533468 Z" id="FE" fill="#FFFFFF" mask="url(#mask-2)"></path>
                <path d="M-3.77877103,20.9607697 C-3.77877103,20.9607697 3.77264123,17.5774231 14.4308444,17.9058228 C25.0890475,18.2342224 29.5842398,19.3192902 37.5167218,24.891449 C45.4492037,30.4636078 32.836869,37.2152557 32.836869,37.2152557 C32.836869,37.2152557 27.1826322,28.9601288 16.0228065,26.0328064 C9.65853365,24.5856171 7.96670673,24.1464539 -4.70769231,24.4522858" id="Path-9" fill="#448ECF" mask="url(#mask-2)"></path>
            </g>
        </g>
    </g>
</svg>