<svg width="56" height="56" xmlns="http://www.w3.org/2000/svg"><g fill="none" fill-rule="evenodd"><rect fill="#E21D38" width="56" height="56" rx="28"/><path d="M23.694 7.175c-1.01 0-2.396.252-4.666.757-4.918 1.387-10.97 4.791-11.6 10.466-.127.882-.127 1.891-.253 2.774-1.387.126-2.648.252-3.91.378-.125 1.135-.125 2.144-.251 3.279 1.26-.127 2.522-.127 3.909-.253-.252 5.927 0 11.853.504 17.402.126.882.126 1.639.126 2.143-.126.505-1.009.757-2.27.757l1.64 2.018c4.791.882 10.844 1.513 17.275 1.639v-1.892c-3.783-.252-5.548-.756-5.8-1.513-.253-.63-.253-1.513-.379-2.396-.252-5.8-.378-12.105-.252-18.536 2.144 0 4.287 0 6.431-.126a74.661 74.661 0 0 0 3.152-1.513v-2.144c-3.278 0-6.43.126-9.583.126.126-2.648.252-5.17.378-7.566.126-1.639 1.261-2.774 2.27-2.774 1.766-.126 3.405.63 5.044 1.387.883.379 1.765.883 2.648 1.261.378.126.883.253 1.261-.126.504-.63 1.009-1.26 1.513-1.765.252-.378.126-.63 0-.757-1.135-.882-2.143-1.639-3.278-2.522-.63-.504-1.766-.504-2.774-.504-.379-.126-.757 0-1.135 0m3.656 23.58c13.745 1.135 19.041 4.918 18.789 10.088-.252 2.774-2.9 5.422-6.305 5.674-4.035.252-5.926-1.387-7.061-3.152-1.01-1.64-2.144-3.279-3.279-5.044-.252-.504-.756-.126-1.135.126-.882.757-1.639 1.64-2.396 2.396-.504.504-.378.883-.252 1.26.757 1.766 1.513 3.532 2.27 5.17 1.26.757 6.935 1.766 11.097 1.388 2.9-.252 6.43-1.387 9.457-3.53 2.9-2.27 5.044-5.297 5.422-10.215.126-3.026-.378-6.178-3.026-9.079-2.648-2.9-7.188-5.296-16.393-5.926.504-1.513.883-2.9 1.387-4.288 5.548.253 10.466.63 14.627 1.135.379-1.639.505-3.152.883-4.665L50.3 10.706c-2.143-.253-4.161-.757-6.43-1.01-2.901-.377-5.927-.63-9.206-.756C32.52 14.993 30 22.685 27.35 30.755" fill="#FFF"/></g></svg>