<svg width="56" height="56" xmlns="http://www.w3.org/2000/svg"><g fill="none" fill-rule="evenodd"><rect fill="#75D13A" width="56" height="56" rx="28"/><g fill="#FFF"><path d="M44.246 30.272c-1.458 0-2.64-1.22-2.64-2.723 0-1.506 1.182-2.726 2.64-2.726 1.457 0 2.638 1.22 2.638 2.726 0 1.503-1.18 2.723-2.638 2.723z"/><path d="M38.515 27.549c0 1.503-1.181 2.723-2.64 2.723-1.457 0-2.637-1.22-2.637-2.723 0-1.506 1.18-2.726 2.638-2.726s2.639 1.22 2.639 2.726" opacity=".8"/><path d="M30.147 27.549c0 1.503-1.18 2.723-2.639 2.723-1.457 0-2.639-1.22-2.639-2.723 0-1.506 1.182-2.726 2.64-2.726 1.457 0 2.638 1.22 2.638 2.726" opacity=".6"/><path d="M21.779 27.549c0 1.503-1.182 2.723-2.64 2.723-1.457 0-2.64-1.22-2.64-2.723 0-1.506 1.183-2.726 2.64-2.726 1.458 0 2.64 1.22 2.64 2.726" opacity=".4"/><path d="M13.413 27.549c0 1.503-1.182 2.723-2.64 2.723-1.457 0-2.64-1.22-2.64-2.723 0-1.506 1.183-2.726 2.64-2.726 1.458 0 2.64 1.22 2.64 2.726" opacity=".2"/></g></g></svg>