<?xml version="1.0" encoding="UTF-8"?>
<svg width="56px" height="56px" viewBox="0 0 56 56" version="1.1" xmlns="http://www.w3.org/2000/svg" xmlns:xlink="http://www.w3.org/1999/xlink">
    <!-- Generator: Sketch 52.4 (67378) - http://www.bohemiancoding.com/sketch -->
    <title>FITB</title>
    <desc>Created with Sketch.</desc>
    <defs>
        <polygon id="path-1" points="35.8721091 0.00352562664 0 0.00352562664 0 30.6172468 35.8721091 30.6172468 35.8721091 0.00352562664"></polygon>
        <polygon id="path-3" points="35.8721818 15.3103862 35.8721818 0.00352562664 0 0.00352562664 0 15.3103862 0 30.6172468 35.8721818 30.6172468 35.8721818 15.3103862"></polygon>
        <polygon id="path-5" points="0 30.7993176 35.8721818 30.7993176 35.8721818 0.185559297 0 0.185559297"></polygon>
    </defs>
    <g id="FITB" stroke="none" stroke-width="1" fill="none" fill-rule="evenodd">
        <g>
            <rect id="Rectangle-1" stroke="#E1E1E1" fill="#FFFFFF" x="0.5" y="0.5" width="55" height="55" rx="27.5"></rect>
            <g id="Page-1" transform="translate(10.000000, 13.000000)">
                <g id="Group-3" transform="translate(0.000000, 0.182034)">
                    <mask id="mask-2" fill="white">
                        <use xlink:href="#path-1"></use>
                    </mask>
                    <g id="Clip-2"></g>
                    <path d="M8.34956364,0.00348851478 L27.5226545,0.00348851478 C32.1339273,0.00348851478 35.8721091,3.81858765 35.8721091,8.5249281 L35.8721091,22.0959928 C35.8721091,26.8021477 32.1339273,30.6172468 27.5226545,30.6172468 L8.34956364,30.6172468 C3.73829091,30.6172468 -7.27272727e-05,26.8021477 -7.27272727e-05,22.0959928 L-7.27272727e-05,8.5249281 C-7.27272727e-05,3.81858765 3.73829091,0.00348851478 8.34956364,0.00348851478" id="Fill-1" fill="#658A2D" mask="url(#mask-2)"></path>
                </g>
                <g id="Group-6" transform="translate(0.000000, 0.182034)">
                    <mask id="mask-4" fill="white">
                        <use xlink:href="#path-3"></use>
                    </mask>
                    <g id="Clip-5"></g>
                    <polygon id="Fill-4" fill="#658A2D" mask="url(#mask-4)" points="0 0.00348851478 27.5372727 0.00998309016 35.8721818 13.936765 35.8721818 30.6172468 7.174 30.5285495 0 18.6744649"></polygon>
                </g>
                <path d="M9.24729091,1.61893064 L26.6249273,1.61893064 C30.8043818,1.61893064 34.1925636,5.07682813 34.1925636,9.34227969 L34.1925636,21.6424488 C34.1925636,25.9080859 30.8043818,29.3659834 26.6249273,29.3659834 L9.24729091,29.3659834 C5.06783636,29.3659834 1.67965455,25.9080859 1.67965455,21.6424488 L1.67965455,9.34227969 C1.67965455,5.07682813 5.06783636,1.61893064 9.24729091,1.61893064" id="Fill-7" fill="#FFFFFF"></path>
                <polygon id="Fill-9" fill="#FFFFFF" points="1.67961818 1.61893064 26.6381636 1.62486854 34.1925273 14.2473541 34.1925273 29.3659834 8.1818 29.2854507 1.67961818 18.5415674"></polygon>
                <path d="M9.96547273,2.76566854 L25.9067455,2.76566854 C29.7407455,2.76566854 32.8489273,5.93780471 32.8489273,9.8506936 L32.8489273,21.1341833 C32.8489273,25.0470722 29.7407455,28.2192084 25.9067455,28.2192084 L9.96547273,28.2192084 C6.13147273,28.2192084 3.02329091,25.0470722 3.02329091,21.1341833 L3.02329091,9.8506936 C3.02329091,5.93780471 6.13147273,2.76566854 9.96547273,2.76566854" id="Fill-11" fill="#0F0F89"></path>
                <polygon id="Fill-13" fill="#0F0F89" points="3.02330909 2.76566854 25.9187636 2.77104976 32.8489455 14.350321 32.8489455 28.2192084 8.98803636 28.1455413 3.02330909 18.2895593"></polygon>
                <mask id="mask-6" fill="white">
                    <use xlink:href="#path-5"></use>
                </mask>
                <g id="Clip-16"></g>
                <polygon id="Fill-15" fill="#FFFFFF" mask="url(#mask-6)" points="5.43836364 10.47074 14.4938182 10.47074 14.4938182 5.2394523 5.43836364 5.2394523"></polygon>
                <path d="M6.46358182,11.3424605 L12.9561273,11.3424605 C15.4704909,12.120325 16.8786727,17.4623916 13.1270364,18.8405405 L6.12194545,18.491689 C10.5599455,16.7175566 8.84885455,12.7345263 6.46358182,11.3424605" id="Fill-17" fill="#FFFFFF" mask="url(#mask-6)"></path>
                <path d="M21.3282,11.6912006 C24.2400182,13.957993 24.7852909,16.2249709 21.3282,18.4917633 C23.8240182,20.9708355 24.2914727,23.2775231 21.3282,25.2923259 C32.5042,27.2967374 31.4029273,19.2469896 27.1372909,18.4917633 C30.9125636,17.7814423 30.9256545,14.4853525 28.7967455,12.578174 C27.2407455,11.184067 24.5403818,10.6943761 21.3282,11.6912006" id="Fill-18" fill="#FFFFFF" mask="url(#mask-6)"></path>
                <polygon id="Fill-19" fill="#FFFFFF" mask="url(#mask-6)" points="19.7904909 4.71626786 20.8155818 4.71626786 16.0315818 25.2923816 15.0064909 25.2923816"></polygon>
            </g>
        </g>
    </g>
</svg>