<svg width="56" height="56" xmlns="http://www.w3.org/2000/svg"><g fill="none" fill-rule="evenodd"><rect fill="#EE3E33" width="56" height="56" rx="28"/><g fill="#FFF"><path d="M18.967 25.377v-3.154H9.748v4.229H6.906c-1.04 0-1.906.866-1.906 1.906a1.9 1.9 0 0 0 1.906 1.906h2.842v3.881h4.298v-3.881h2.321a1.9 1.9 0 0 0 1.907-1.906c0-1.04-.867-1.906-1.907-1.906h-2.321v-1.075h4.92zM30.091 34.145l2.219-8.595v8.595h3.846V22.223H31.2c-.762 0-1.42.45-1.732 1.11l-1.421 5.025-1.386-5.025a1.919 1.919 0 0 0-1.733-1.11h-4.956v11.922h3.847V25.55l2.183 8.595h4.09zM42.36 34.18c-2.911 0-5.302-2.668-5.302-5.961 0-3.292 2.391-5.961 5.302-5.961h4.436v3.743l-3.57.035c-1.074 0-1.94.97-1.94 2.183 0 1.179.866 2.15 1.94 2.15h3.57v3.776l-4.436.035z"/></g></g></svg>