<?xml version="1.0" encoding="UTF-8"?>
<svg width="56px" height="56px" viewBox="0 0 56 56" version="1.1" xmlns="http://www.w3.org/2000/svg" xmlns:xlink="http://www.w3.org/1999/xlink">
    <!-- Generator: Sketch 52.4 (67378) - http://www.bohemiancoding.com/sketch -->
    <title>FTV</title>
    <desc>Created with Sketch.</desc>
    <defs>
        <polygon id="path-1" points="33.9908016 0.0532394102 33.9908016 31 0 31 0 0.0357388535 33.9908016 0.0357388535 33.9908016 0.0532394102 0.0460121225 0.0532394102 0.0460121225 30.9999952 33.9908223 30.9999952 33.9908223 0.0532394102"></polygon>
    </defs>
    <g id="FTV" stroke="none" stroke-width="1" fill="none" fill-rule="evenodd">
        <g id="FRT">
            <rect id="Rectangle-1" stroke="#E1E1E1" fill="#FFFFFF" x="0.5" y="0.5" width="55" height="55" rx="27.5"></rect>
            <g id="Page-1" transform="translate(11.000000, 12.000000)">
                <g id="Group-3">
                    <mask id="mask-2" fill="white">
                        <use xlink:href="#path-1"></use>
                    </mask>
                    <g id="Clip-2"></g>
                    <path d="M17.0184172,30.9936749 C11.4539323,30.9936749 5.88951543,30.9918979 0.325030461,30.9999934 C0.0917318637,31.0003225 0.0458761523,30.9557641 0.0460124248,30.7304053 C0.0535074148,20.5945242 0.0535074148,10.4586431 0.0460124248,0.322761996 C0.0458761523,0.0974690021 0.0917318637,0.0531080679 0.325030461,0.0532397028 C11.4539323,0.0604138004 22.5828341,0.0604138004 33.7117359,0.0532397028 C33.9450345,0.0531080679 33.9909583,0.0973373673 33.990822,0.322761996 C33.9833271,10.4586431 33.9833271,20.5945242 33.990822,30.7304053 C33.9909583,30.9556325 33.9451707,31.0003225 33.711804,30.9999934 C28.147319,30.9918979 22.5829022,30.9936749 17.0184172,30.9936749" id="Fill-1" fill="#FEFEFE" mask="url(#mask-2)"></path>
                </g>
                <path d="M13.357109,30.9926155 C9.83595257,30.9926155 6.31479618,30.9884667 2.79370687,30.9999912 C2.49108286,31.0009791 2.42823741,30.9186609 2.42857276,30.6339718 C2.43695663,23.7194449 2.43662127,16.8048521 2.42937761,9.89032521 C2.42910933,9.6257876 2.48477819,9.53787182 2.7737868,9.53846451 C7.68103089,9.54761829 12.588275,9.54742073 17.495452,9.53885964 C17.775406,9.5383328 17.8563606,9.61037765 17.8466353,9.88472757 C17.8253739,10.4876257 17.8235629,11.0924336 17.847239,11.6952 C17.8585069,11.9825891 17.7543457,12.0326386 17.487001,12.0321117 C13.451679,12.0240116 9.41635688,12.0301361 5.38103479,12.0196652 C5.06023457,12.0188091 4.9519821,12.0720854 4.95292109,12.4219046 C4.96667063,17.6571413 4.96586578,22.8925097 4.95426251,28.1278123 C4.95352473,28.4516848 5.04179006,28.5190539 5.3595721,28.5184613 C10.6915763,28.5081221 16.0236476,28.5080562 21.3555848,28.518593 C21.6756473,28.5191857 21.7606932,28.4483921 21.7596871,28.126561 C21.7471449,24.1644239 21.7549922,20.2022209 21.7445962,16.2401496 C21.7437913,15.940775 21.8176364,15.8468664 22.1292479,15.8596422 C22.7430139,15.8847986 23.3589933,15.8803864 23.9731617,15.8608276 C24.2350066,15.8524641 24.2842367,15.941236 24.2839684,16.1790366 C24.2771272,21.0082802 24.276054,25.8374579 24.2857122,30.6667015 C24.2862488,30.9585687 24.1815511,30.9985424 23.9205111,30.9979497 C20.3994217,30.9899814 16.8782654,30.9926155 13.357109,30.9926155" id="Fill-4" fill="#FFD100"></path>
                <path d="M27.9179624,0.0053882076 C29.8382002,0.0053882076 31.7583706,0.00962746133 33.678541,2.29021111e-05 C33.9195984,-0.001169388 34.0006697,0.0434752528 33.9999958,0.302400922 C33.9903589,4.07712517 33.9914372,7.85184942 33.9983785,11.6265074 C33.9987154,11.8551622 33.9403548,11.9244475 33.7013191,11.9230565 C32.0170171,11.9129882 30.3325802,11.9141143 28.6482107,11.9220629 C28.4248097,11.9230565 28.3308667,11.8802003 28.3375384,11.6350522 C28.3547905,10.9953223 28.3530384,10.3546651 28.3382123,9.71480271 C28.3328211,9.4848232 28.3985946,9.41262341 28.6378325,9.41653147 C29.4797477,9.43024281 30.322202,9.41388194 31.1641846,9.42686465 C31.4005246,9.43050776 31.466096,9.36029512 31.4652199,9.12971946 C31.4569308,7.01062251 31.4558526,4.89145931 31.4661634,2.77229612 C31.4673764,2.5179409 31.386979,2.46037978 31.1405303,2.46137336 C28.9958133,2.47031553 26.8509614,2.47111039 24.7062443,2.46064473 C24.4451718,2.45938621 24.3870134,2.54218413 24.3909221,2.78196692 C24.4044003,3.60954873 24.3886982,4.43759421 24.4007612,5.26524226 C24.4041307,5.49535426 24.3345158,5.56914377 24.0970975,5.56391094 C23.434914,5.54927226 22.7720566,5.55298161 22.1096709,5.56251993 C21.9221893,5.5652357 21.8583701,5.51416594 21.8591114,5.32240595 C21.8659179,3.62266392 21.8686809,1.9229219 21.857157,0.223246106 C21.8554723,-0.0355470862 22.0042041,0.00545444594 22.1573837,0.00545444594 C24.0775541,0.0053882076 25.9977246,0.0053882076 27.9179624,0.0053882076" id="Fill-6" fill="#FFD100"></path>
                <path d="M24.2821299,10.7273395 C24.2821299,11.0517914 24.2759965,11.376369 24.2848133,11.7005693 C24.2889661,11.8539592 24.2559989,11.9255285 24.0771707,11.9230129 C23.4074754,11.9137051 22.7375246,11.9165352 22.0677654,11.9215664 C21.9295074,11.9225727 21.8551394,11.9042086 21.8571839,11.7388067 C21.8656174,11.0690863 21.8650424,10.3991771 21.8575034,9.72945663 C21.8557144,9.57336251 21.9137266,9.5378294 22.0608014,9.53921299 C22.7305606,9.54562782 23.4005114,9.5470743 24.0702067,9.5385212 C24.2404736,9.53638292 24.2907551,9.59141207 24.2853244,9.75410969 C24.2744631,10.0781842 24.2821299,10.4028876 24.2821299,10.7273395" id="Fill-8" fill="#00284E"></path>
            </g>
        </g>
    </g>
</svg>