<?xml version="1.0" encoding="UTF-8"?>
<svg width="56px" height="56px" viewBox="0 0 56 56" version="1.1" xmlns="http://www.w3.org/2000/svg" xmlns:xlink="http://www.w3.org/1999/xlink">
    <!-- Generator: Sketch 52.4 (67378) - http://www.bohemiancoding.com/sketch -->
    <title>FSLR</title>
    <desc>Created with Sketch.</desc>
    <defs>
        <polygon id="path-1" points="19.8225058 0.111057692 0.402755769 0.111057692 0.402755769 19.5309288 19.8225058 19.5309288 19.8225058 0.111057692"></polygon>
        <polygon id="path-3" points="41.9236731 3.07882212 41.9236731 6.05769231 0 6.05769231 0 3.07882212 0 0.0999519231 41.9236731 0.0999519231"></polygon>
    </defs>
    <g id="FSLR" stroke="none" stroke-width="1" fill="none" fill-rule="evenodd">
        <g>
            <rect id="Rectangle-1" stroke="#E1E1E1" fill="#FFFFFF" x="0.5" y="0.5" width="55" height="55" rx="27.5"></rect>
            <g id="Page-1" transform="translate(7.000000, 14.000000)">
                <g id="Group-3" transform="translate(2.423077, 0.292990)">
                    <mask id="mask-2" fill="white">
                        <use xlink:href="#path-1"></use>
                    </mask>
                    <g id="Clip-2"></g>
                    <path d="M19.8225058,9.82085192 C19.8225058,15.1839288 15.4738904,19.5309288 10.1124288,19.5309288 C4.75015962,19.5309288 0.402755769,15.1839288 0.402755769,9.82085192 C0.402755769,4.457775 4.75015962,0.110775 10.1124288,0.110775 C15.4738904,0.110775 19.8225058,4.457775 19.8225058,9.82085192" id="Fill-1" fill="#D42E24" mask="url(#mask-2)"></path>
                </g>
                <path d="M0,18.0598385 C0,18.0598385 6.94615385,21.7368577 12.5559808,21.5910692 C16.0545,21.4989923 18.4751538,20.8128577 21.3105577,20.1986077 C24.1451538,19.5843577 28.329,18.6967038 30.9842885,18.7859538 C33.4235192,18.8671269 38.2959231,20.1868962 41.9236731,24.0173769 C41.9236731,24.0173769 37.65825,20.4223385 30.618,20.5168385 C30.618,20.5168385 27.2487115,20.5867038 21.7826538,21.9771462 C15.1607885,23.6611846 11.6101731,23.3175115 11.6101731,23.3175115 C11.6101731,23.3175115 4.63453846,23.3086269 0,18.0598385" id="Fill-4" fill="#D42E24"></path>
                <g id="Group-8" transform="translate(0.000000, 20.889144)">
                    <mask id="mask-4" fill="white">
                        <use xlink:href="#path-3"></use>
                    </mask>
                    <g id="Clip-7"></g>
                    <path d="M0,0.0999519231 C0,0.0999519231 6.94615385,3.777375 12.5559808,3.63118269 C16.0545,3.53991346 18.4751538,2.853375 21.3105577,2.23952885 C24.1451538,1.624875 28.329,0.737625 30.9842885,0.826067308 C33.4235192,0.907240385 38.2959231,2.22781731 41.9236731,6.05789423 C41.9236731,6.05789423 37.65825,2.46245192 30.618,2.55695192 C30.618,2.55695192 27.2487115,2.62722115 21.7826538,4.01725962 C15.1607885,5.70170192 11.6101731,5.357625 11.6101731,5.357625 C11.6101731,5.357625 4.63453846,5.34874038 0,0.0999519231" id="Fill-6" fill="#D42E24" mask="url(#mask-4)"></path>
                </g>
            </g>
        </g>
    </g>
</svg>