<svg width="56" height="56" xmlns="http://www.w3.org/2000/svg"><g fill="none" fill-rule="evenodd"><rect fill="#2F7AC8" width="56" height="56" rx="28"/><path d="M21.25 3.954c4.653-1.3 9.688-1.243 14.29.242.2.063.354.21.511.342-.76-.056-1.457-.4-2.203-.528-1.881-.376-3.83-.562-5.737-.277-1.194.214-2.448.676-3.206 1.674-.57.742-.63 1.905.03 2.61.735.776 2.038.734 2.852.106.96-.706 1.893-1.546 3.092-1.809 2.438-.604 4.995-.118 7.356.584 2.836.773 5.517 2.172 7.693 4.157 3.626 3.203 5.805 7.8 6.632 12.516.72 4.023.504 8.228-.744 12.126a.392.392 0 0 1-.35.318c.724-2.655 1.262-5.472.72-8.213-.284-1.323-.935-2.815-2.328-3.267-1.066-.377-2.363.356-2.45 1.515-.203 1.24.81 2.133 1.442 3.062 1.355 1.946 1.188 4.468.856 6.7-.623 3.021-1.63 6.03-3.461 8.547-2.826 4.055-7.326 6.732-12.082 7.875a26.939 26.939 0 0 1-12.64-.035c-.543-.163-1.16-.235-1.582-.652.787-.001 1.516.34 2.286.462 2.103.383 4.3.62 6.402.093.953-.262 1.917-.715 2.516-1.53.555-.762.543-1.928-.139-2.608-.59-.623-1.573-.751-2.328-.359-.897.486-1.582 1.285-2.497 1.743-1.846.897-3.988.765-5.957.433-3.265-.641-6.492-1.825-9.124-3.908-3.495-2.687-5.917-6.605-7.103-10.824-1.255-4.418-1.263-9.165-.118-13.606.198-.46.122-1.186.646-1.404-.67 2.537-1.2 5.197-.791 7.826.206 1.167.615 2.404 1.581 3.162.67.553 1.718.756 2.459.225.79-.462 1.05-1.558.683-2.369-.386-.913-1.169-1.578-1.617-2.458-.97-1.771-.863-3.886-.606-5.825.542-3.106 1.596-6.175 3.428-8.767 2.72-3.942 7.002-6.64 11.589-7.879zm.63 9.432c-1.516.817-2.558 2.277-3.32 3.783-.811 1.548-1.146 3.277-1.305 5-.748-.1-1.35-.68-1.523-1.408-.348-1.064.02-2.155.21-3.206.085-.305-.147-.553-.27-.804-.637-.039-1.287.274-1.576.858-.866 1.62-.79 3.803.408 5.24.687.87 1.771 1.299 2.849 1.414.364 1.12 1.074 2.213 2.216 2.653 1.398.563 2.932-.027 4.147-.761-.044.45-.068.911-.225 1.341-.426.344-.946.545-1.423.81-2.343 1.236-4.73 2.48-6.7 4.278-1.434 1.346-2.563 3.138-2.78 5.122-.104 1.56.517 3.272 1.884 4.13 1.428.946 3.31.894 4.867.306 1.963-.747 3.426-2.412 4.394-4.23 1.431-2.57 1.676-5.57 1.885-8.448.057-.337-.014-.814.382-.96a69.865 69.865 0 0 0 6.783-4.32c.257.316.51.634.752.96-1.118.667-2.233 1.386-3.077 2.396-3.157 3.453-3.21 9.38.1 12.75 1.692 1.785 4.292 2.548 6.7 2.19 2.212-.314 4.226-1.706 5.342-3.635 1.49-2.456 1.245-5.893-.69-8.036-1.81-2-5.334-1.961-7.104.07-1.392 1.464-1.438 4.055.015 5.49.589.586 1.614.942 2.354.436.477-.344.431-1.078.047-1.476-.497-.6-1.086-1.296-.937-2.135.149-1.09 1.368-1.76 2.395-1.527.88.137 1.582.823 1.909 1.629.77 1.832.333 4.103-1.05 5.529-1.464 1.527-4.012 1.768-5.78.636-1.57-.966-2.464-2.758-2.74-4.536-.289-2.144.122-4.456 1.452-6.204.856-1.106 2.05-2.015 3.425-2.343 1.153.088 2.35.296 3.48-.073.53-.18 1.049-.776.778-1.358-.293-.598-1.012-.777-1.61-.902-.896-.178-1.786.06-2.66.228-.611-.21-.934-.85-1.16-1.416 1.698-1.269 3.376-2.648 4.53-4.453.67-1.084 1.106-2.416.792-3.69-.25-.844-.941-1.561-1.824-1.722-1.472-.37-2.978.372-3.978 1.426-1.607 1.745-2.422 4.162-2.348 6.52-.022.488.167.999.029 1.467-1.205.972-2.552 1.753-3.85 2.592-.745.433-1.456.933-2.248 1.283.014-.751.053-1.513.268-2.237.57-.78 1.287-1.458 1.74-2.324.332-.598.645-1.354.3-2.014-.316-.489-1.017-.441-1.475-.198-.978.49-1.514 1.526-1.909 2.497-.27.621-.3 1.391-.88 1.831-.805.704-1.776 1.411-2.896 1.37-.64.004-1.066-.598-1.201-1.164 1.77-.686 3.247-1.969 4.444-3.417 1.109-1.425 1.99-3.106 2.139-4.93.083-.919-.245-1.96-1.085-2.44-1.049-.572-2.363-.41-3.392.132z" fill="#FFF"/><path d="M22.894 15.071c.41-.311 1.09-.18 1.284.323.15.62-.078 1.247-.342 1.8-.75 1.53-1.868 2.856-3.147 3.97a3.95 3.95 0 0 1-1.076.686c.053-1.36.52-2.67 1.098-3.89.538-1.082 1.16-2.193 2.183-2.889zM36.119 15.603c.364-.42.99-.84 1.544-.554.61.36.291 1.168.051 1.662-.837 1.544-2.079 2.847-3.426 3.959-.02-1.833.636-3.677 1.83-5.067zM18.008 33.375a23.314 23.314 0 0 1 5.204-3.334 21.578 21.578 0 0 1-1.467 6.055c-.672 1.553-1.668 3.152-3.32 3.788-.856.321-1.972.523-2.713-.154-.702-.623-.655-1.678-.45-2.514.426-1.558 1.572-2.787 2.746-3.84z" fill="#FFF"/><path d="M25.963 1.421c5.085-.414 10.286.713 14.753 3.174 7.616 4.105 13.013 12.11 13.78 20.75.577 5.325-.56 10.812-3.15 15.495-2.592 4.717-6.648 8.623-11.475 11.012a26.169 26.169 0 0 1-12.294 2.781c-5.812-.049-11.566-2.128-16.115-5.737-3.915-3.106-6.943-7.315-8.601-12.034C.275 29.606 1.037 21.218 4.98 14.59c2.647-4.595 6.73-8.334 11.504-10.635a26.41 26.41 0 0 1 9.478-2.533zM21.25 3.954c-4.587 1.239-8.869 3.937-11.59 7.88-1.831 2.591-2.885 5.66-3.427 8.766-.257 1.94-.364 4.054.606 5.825.448.88 1.231 1.545 1.617 2.458.367.81.107 1.907-.683 2.37-.741.53-1.789.327-2.459-.226-.966-.758-1.375-1.995-1.581-3.162-.408-2.63.121-5.289.791-7.826-.524.218-.448.944-.646 1.404-1.145 4.44-1.137 9.188.118 13.606 1.186 4.219 3.608 8.137 7.103 10.824 2.632 2.083 5.859 3.267 9.124 3.908 1.97.332 4.111.464 5.957-.433.915-.458 1.6-1.257 2.497-1.743.755-.392 1.738-.264 2.328.36.682.68.694 1.845.139 2.606-.6.816-1.563 1.27-2.516 1.531-2.101.527-4.299.29-6.402-.093-.77-.122-1.499-.463-2.286-.462.422.417 1.04.49 1.582.652a26.939 26.939 0 0 0 12.64.035c4.756-1.143 9.256-3.82 12.082-7.875 1.83-2.518 2.838-5.526 3.461-8.547.332-2.232.5-4.754-.856-6.7-.631-.929-1.645-1.822-1.442-3.062.087-1.16 1.384-1.892 2.45-1.515 1.393.452 2.044 1.944 2.328 3.267.542 2.741.004 5.558-.72 8.213a.392.392 0 0 0 .35-.318c1.248-3.898 1.465-8.103.744-12.126-.827-4.715-3.006-9.313-6.632-12.516-2.176-1.985-4.857-3.384-7.693-4.157-2.361-.702-4.918-1.188-7.356-.584-1.2.263-2.132 1.103-3.092 1.809-.814.628-2.117.67-2.851-.107-.662-.704-.6-1.867-.03-2.609.757-.998 2.01-1.46 3.205-1.674 1.907-.285 3.856-.099 5.737.277.746.129 1.444.472 2.203.528-.157-.132-.311-.28-.51-.342-4.603-1.485-9.638-1.541-14.29-.242z" fill="#327DC0"/><path d="M21.88 13.386c1.029-.541 2.343-.704 3.392-.132.84.48 1.168 1.521 1.085 2.44-.149 1.824-1.03 3.505-2.139 4.93-1.197 1.448-2.674 2.73-4.444 3.417.135.566.562 1.168 1.201 1.164 1.12.041 2.091-.666 2.897-1.37.578-.44.609-1.21.88-1.83.394-.972.93-2.007 1.908-2.498.458-.243 1.159-.29 1.475.198.345.66.032 1.416-.3 2.014-.453.866-1.17 1.544-1.74 2.324-.215.724-.254 1.486-.268 2.237.792-.35 1.503-.85 2.249-1.283 1.297-.839 2.644-1.62 3.849-2.592.138-.468-.051-.98-.029-1.466-.074-2.359.741-4.776 2.348-6.52 1-1.055 2.506-1.798 3.978-1.427.883.16 1.575.878 1.824 1.722.314 1.274-.122 2.606-.792 3.69-1.154 1.805-2.832 3.184-4.53 4.453.226.565.549 1.206 1.16 1.416.874-.167 1.764-.406 2.66-.228.598.125 1.317.304 1.61.902.27.582-.247 1.177-.778 1.358-1.13.369-2.327.16-3.48.073-1.374.328-2.569 1.237-3.425 2.343-1.33 1.748-1.74 4.06-1.451 6.204.275 1.778 1.169 3.57 2.739 4.536 1.768 1.132 4.316.891 5.78-.636 1.383-1.426 1.82-3.697 1.05-5.53-.327-.805-1.029-1.491-1.909-1.628-1.027-.232-2.246.436-2.395 1.527-.15.84.44 1.535.937 2.135.384.398.43 1.132-.047 1.476-.74.506-1.765.15-2.354-.437-1.453-1.434-1.407-4.025-.015-5.49 1.77-2.03 5.294-2.069 7.104-.07 1.935 2.144 2.18 5.58.69 8.037-1.116 1.929-3.13 3.321-5.343 3.636-2.407.357-5.007-.406-6.7-2.191-3.309-3.37-3.256-9.297-.1-12.75.845-1.01 1.96-1.729 3.078-2.395a27.228 27.228 0 0 0-.752-.961A69.865 69.865 0 0 1 26 28.504c-.396.146-.325.623-.382.96-.209 2.878-.454 5.877-1.885 8.449-.968 1.817-2.431 3.482-4.394 4.23-1.556.587-3.44.639-4.867-.307-1.367-.858-1.988-2.57-1.883-4.13.216-1.984 1.345-3.776 2.78-5.122 1.969-1.799 4.356-3.042 6.7-4.277.476-.266.996-.467 1.422-.81.157-.43.18-.892.225-1.342-1.215.734-2.75 1.324-4.147.76-1.142-.439-1.852-1.532-2.216-2.652-1.078-.115-2.162-.545-2.85-1.414-1.197-1.437-1.273-3.62-.407-5.24.29-.584.94-.897 1.575-.858.124.25.356.5.27.804-.189 1.05-.557 2.142-.209 3.206.173.727.775 1.308 1.523 1.408.159-1.723.494-3.452 1.304-5 .763-1.506 1.805-2.966 3.321-3.783zm1.014 1.685c-1.022.696-1.645 1.807-2.183 2.888-.578 1.22-1.045 2.531-1.098 3.891a3.95 3.95 0 0 0 1.076-.686c1.28-1.114 2.398-2.44 3.147-3.97.264-.553.492-1.18.342-1.8-.195-.502-.873-.634-1.284-.323zm13.225.532c-1.195 1.39-1.851 3.234-1.83 5.067 1.346-1.112 2.588-2.415 3.425-3.96.24-.493.559-1.3-.05-1.66-.555-.287-1.181.133-1.545.553zM18.008 33.375c-1.174 1.054-2.32 2.283-2.746 3.84-.205.837-.252 1.892.45 2.515.74.677 1.857.475 2.714.154 1.65-.636 2.647-2.235 3.319-3.788a21.578 21.578 0 0 0 1.467-6.055 23.314 23.314 0 0 0-5.204 3.334z" fill="#327DC0"/></g></svg>