<svg width="56" height="56" xmlns="http://www.w3.org/2000/svg" xmlns:xlink="http://www.w3.org/1999/xlink"><defs><path id="a" d="M25.996 34.585H0V0h25.996v34.585z"/></defs><g fill="none" fill-rule="evenodd"><rect fill="#C6093B" width="56" height="56" rx="28"/><g transform="translate(15 12)"><mask id="b" fill="#fff"><use xlink:href="#a"/></mask><path d="M24.322 4.374c-.035 0-.076.035-.095.07-1.653 3.24-2.12 7.876-3.377 11.43-1.444 4.057-4.007 6.807-7.958 6.542v9.871S2.335 27.495 2.335 19.818V5.436l8.016-.802c.07 0 .094-.022.094-.071 0-.056-.025-.09-.07-.095H1.39v15.35c0 8.634 11.5 13.438 11.5 13.438s11.525-4.88 11.525-13.438V4.468c0-.04-.048-.094-.094-.094zM9.373 21.306c-1.13 4.979-.094 4.865-.094 4.865.205-1.488.492-2.969.873-4.416 2.552-9.702 8.866-18.144 15.232-20.357.041-.027.095-.049.095-.094a.092.092 0 0 0-.095-.094C5.367 3.112 2.836 16.903 9.374 21.306z" stroke="#FFF" stroke-width="1.4" fill="#FFF" mask="url(#b)"/></g></g></svg>