<svg width="56" height="56" xmlns="http://www.w3.org/2000/svg"><g fill="none" fill-rule="evenodd"><rect fill="#1864A6" width="56" height="56" rx="28"/><g fill="#FFF"><path d="M36.624 15.709l-2.213 14.427-2.164-14.427h-4.424v19.683h2.913V20.576l2.371 14.844h2.52l2.457-14.844V35.42H41V15.71zM19.847 15.3c-4.83 0-4.83 4.468-4.83 5.276V30.82c0 2.99 1.077 4.95 3.869 4.97 1.65.003 2.801-1.046 3.045-1.445v1.046l2.856.028V24.74h-4.646v2.37h1.693v3.122c0 1.582-.488 2.659-1.94 2.659-1.453 0-1.915-1.147-1.915-2.66v-9.655c0-.785 0-2.573 1.916-2.573 1.939 0 1.939 1.817 1.939 2.573v1.392h2.953v-1.392c0-1.364 0-5.276-4.94-5.276zM15 41.944h26v-4.26H15z"/></g></g></svg>