<?xml version="1.0" encoding="UTF-8"?>
<svg width="56px" height="56px" viewBox="0 0 56 56" version="1.1" xmlns="http://www.w3.org/2000/svg" xmlns:xlink="http://www.w3.org/1999/xlink">
    <title>GME</title>
    <g id="GME" stroke="none" stroke-width="1" fill="none" fill-rule="evenodd">
        <circle id="Oval" fill="#121212" cx="28" cy="28" r="28"></circle>
        <g id="Group-100-Copy" transform="translate(8.000000, 13.000000)">
            <path d="M18.9567469,10.8723424 L10.7964301,10.8723424 L10.7964301,8.3399392 C10.7964205,6.7435712 10.7188877,5.7443904 10.5638349,5.3424 C10.4087565,4.9404576 10.0404749,4.739472 9.45899008,4.7394464 C8.95501888,4.739472 8.61258048,4.911744 8.43168448,5.2562656 C8.25076288,5.6008352 8.16030848,6.4851648 8.16031808,7.9092576 L8.16031808,21.2948192 C8.16030848,22.5466688 8.25076288,23.3707072 8.43168448,23.766928 C8.61258048,24.1631584 8.97440128,24.3612736 9.51714048,24.3612672 C10.1115469,24.3612736 10.5153613,24.1373152 10.7285901,23.6894048 C10.9417933,23.241504 11.0484013,22.368656 11.0484141,21.0708672 L11.0484141,17.7632352 L9.40084288,17.7632352 L9.40084288,13.5253376 L18.9567469,13.5253376 L18.9567469,28.4958048 L13.8202061,28.4958048 L13.0642605,26.4974432 C12.5085997,27.3588064 11.8075725,28.0048288 10.9611853,28.4355072 C10.1147789,28.8661888 9.11654528,29.0815296 7.96648768,29.0815296 C6.59673408,29.0815296 5.31421504,28.7857952 4.11892576,28.1943264 C2.92362528,27.6028576 2.01584768,26.8707008 1.3955888,25.997856 C0.77532512,25.1250112 0.38766208,24.2090976 0.23259808,23.2501088 C0.07753152,22.2911328 -7.95807864e-15,20.8526624 -7.95807864e-15,18.9346912 L-7.95807864e-15,10.6483904 C-7.95807864e-15,7.9839296 0.16152512,6.0487392 0.48457984,4.8428128 C0.8076304,3.636928 1.73479136,2.5315168 3.26606592,1.5265696 C4.79733056,0.5216736 6.77764288,0.0191872 9.20700928,0.0191872 C11.5975885,0.0191872 13.5811341,0.4556352 15.1576461,1.3284576 C16.7341261,2.201328 17.7614349,3.2378336 18.2395725,4.4379712 C18.7176717,5.6381568 18.9567469,7.380976 18.9567469,9.6664352 L18.9567469,10.8723424 L18.9567469,10.8723424 Z" id="text2396-path" fill="#FFFFFF"></path>
            <path d="M31.7102285,9.366256 L31.7102285,7.2989888 C31.7102189,6.3342848 31.6133005,5.7198464 31.4194829,5.4556736 C31.2256365,5.1915488 30.9025837,5.059472 30.4503213,5.0594464 C29.9592717,5.059472 29.5877613,5.237488 29.3357901,5.5934912 C29.0837997,5.9495456 28.9578093,6.4893312 28.9578157,7.2128512 C28.9578093,8.1431424 29.0999533,8.8437152 29.3842477,9.314576 C29.6556013,9.785472 30.4244685,10.3539712 31.6908429,11.0200704 C35.3219469,12.9380512 37.6091597,14.511472 38.5524909,15.7403328 C39.4957869,16.9692192 39.9674637,18.9503488 39.9674637,21.683728 C39.9674637,23.670608 39.7057709,25.1349216 39.1824461,26.0766752 C38.6590797,27.0184288 37.6479277,27.8080096 36.1489773,28.4454176 C34.6499981,29.0828256 32.9055117,29.4015296 30.9155181,29.4015296 C28.7316749,29.4015296 26.8676589,29.034016 25.3234701,28.2989856 C23.7792749,27.5639584 22.7681197,26.6279456 22.2900045,25.4909472 C21.8118829,24.353952 21.5728237,22.740336 21.5728269,20.6500928 L21.5728269,18.8240096 L29.1516493,18.8240096 L29.1516493,22.2177728 C29.1516397,23.2628992 29.2582477,23.9347584 29.4714701,24.23336 C29.6846765,24.531968 30.0626509,24.6812736 30.6053901,24.6812672 C31.1481037,24.6812736 31.5519213,24.4917728 31.8168365,24.112768 C32.0817261,23.733776 32.2141805,23.1710176 32.2141933,22.4244992 C32.2141805,20.782176 31.9621997,19.7083456 31.4582477,19.2030048 C30.9413517,18.6976832 29.6685261,17.8535488 27.6397613,16.6706048 C25.6109837,15.4761952 24.0126957,14.6090784 23.3536685,14.0692928 C22.6946413,13.5295072 22.1486829,12.783008 21.7157901,11.8297504 C21.2828973,10.876528 21.0664557,9.659136 21.0664557,8.1775776 C21.0664557,6.0414208 21.3733517,4.140304 21.9871533,3.1525824 C22.6009549,2.1649152 23.5927245,1.39256 24.9624717,0.83552 C26.3322125,0.2785344 28.2406317,-5.32907052e-15 30.1789581,-5.32907052e-15 C32.2981741,-5.32907052e-15 34.1040397,0.3043744 35.5965581,0.91304 C37.0890445,1.5217664 38.0775853,2.2883744 38.5621805,3.2128768 C39.0467437,4.1374272 39.2890317,6.0471648 39.2890509,8.263712 L39.2890509,9.366256 L31.7102285,9.366256 Z" id="path2405-path" fill="#FD0000"></path>
        </g>
    </g>
</svg>