<?xml version="1.0" encoding="UTF-8"?>
<svg width="56px" height="56px" viewBox="0 0 56 56" version="1.1" xmlns="http://www.w3.org/2000/svg" xmlns:xlink="http://www.w3.org/1999/xlink">
    <title>GOLD</title>
    <g id="GOLD" stroke="none" stroke-width="1" fill="none" fill-rule="evenodd">
        <circle id="Oval" fill="#005581" cx="28" cy="28" r="28"></circle>
        <g id="Group" transform="translate(13.000000, 11.000000)" fill-rule="nonzero">
            <path d="M1.13451872,-3.90798505e-14 L16.1150723,-3.90798505e-14 C21.9160794,-3.90798505e-14 27.9082871,2.00803024 27.9082871,7.23528559 C27.9082871,10.4863827 25.1990185,12.6537813 21.214828,13.5462388 L21.214828,13.6418597 C26.0596266,14.0562151 29.5338347,16.8929568 29.5338347,20.5902834 C29.5338347,26.869364 22.2347928,28.8136474 14.9675948,28.8136474 L1.13451872,28.8136474 L1.13451872,-3.90798505e-14 Z M7.9873346,11.6975762 L14.2344994,11.6975762 C18.7924286,11.6975762 21.0873153,10.2313949 21.0873153,8.0639964 C21.0873153,5.5778633 18.7924286,4.36666979 13.6289167,4.36666979 L7.9873346,4.36666979 L7.9873346,11.6975762 Z M7.9873346,24.4151043 L14.2982557,24.4151043 C17.8362202,24.4151043 22.7128628,23.9688748 22.7128628,20.175928 C22.7128628,17.1479453 20.0992628,16.0961194 14.5532811,16.0961194 L7.9873346,16.0961194 L7.9873346,24.4151043 Z" id="path62184" fill="#FFFFFF"></path>
            <polygon id="path62170" fill="#A39161" points="30.7490071 32.0862174 26.9560856 32.1180888 -6.28830321e-13 32.0862174 26.2852442 36.0997679"></polygon>
        </g>
    </g>
</svg>