<svg width="56" height="56" xmlns="http://www.w3.org/2000/svg"><g fill="none" fill-rule="evenodd"><rect fill="#002A5F" width="56" height="56" rx="28"/><g fill="#FFF"><path d="M38.808 17.315h-3.722v.36h.985v21.83h-.985v.387h4.2v-.386h-1.42v-8.883h1.224c1.78 0 2.794-.938 2.794-2.198V19.7c0-1.257-.875-2.388-3.076-2.386zm-.941.36h.936c.885 0 1.296.824 1.296 1.448v9.712c0 .7-.411 1.349-1.204 1.344h-1.028V17.675zM19.107 17.605c0 .36-.21.333-.379.215-.604-.425-1.346-.73-2.008-.725-1.08.007-2.627.53-2.631 2.806v16.735c.016 2.907 1.415 3.45 2.794 3.465 1.073.01 1.584-.556 2.019-.746.229-.1.48.132.48.561h.445V29.269h.894v-.358h-3.777v.358h1.096v9.158c0 .743-.505 1.305-1.14 1.306-.612 0-1.082-.582-1.082-1.306V19.236c0-.522.092-1.735.899-1.73 1.553.012 2.377 4.554 2.389 6.903h.445v-7.106h-.443l-.001.302zM28.208 30.608l1.012 8.893h-.995v.386h3.738v-.386h-.985l-2.483-22.19h-1.59l-2.307 20.958c-.136.753-.207 1.216-1.289 1.233v.385h2.803v-.386c-.793 0-1.152-.506-1.074-1.045l.88-7.847h2.29zm-2.244-.398l1.088-9.742 1.11 9.742h-2.198z"/></g></g></svg>