<svg width="56" height="56" xmlns="http://www.w3.org/2000/svg"><g fill="none" fill-rule="evenodd"><rect fill="#678CB4" width="56" height="56" rx="28"/><path d="M34.603 8v6.459h-.793c-.68-3.172-2.153-5.553-4.193-5.666-1.36-.113-2.152.68-2.833 1.814-.679 1.36-1.02 4.192-1.02 7.591 0 3.174.114 5.553.454 7.252.226.794.794 2.04 2.266 2.04.794 0 1.36-.226 1.7-.68.567-.68.68-2.04.68-2.945v-3.06c0-1.134-.34-1.813-.906-2.153-.453-.227-1.134-.227-1.474-.34v-.793h6.346v16.204h-.794c-.339-1.247-.565-2.153-1.132-3.173s-1.587-2.153-3.287-2.153c-1.813-.114-3.173 1.02-3.173 2.719 0 2.267 1.36 2.834 3.853 4.193 2.38 1.36 5.44 2.493 5.44 6.459C35.737 45.62 32.45 48 28.71 48h-6.005v-7.818h.792c1.02 5.891 3.514 6.912 5.213 6.912 2.152 0 3.173-1.36 3.173-3.286-.114-2.494-1.813-3.4-4.193-4.647-3.399-1.925-4.985-2.832-4.985-6.005.113-2.72 2.265-4.42 4.645-5.1-4.985-.565-6.459-5.098-6.345-9.971C21.006 13.213 23.838 8 29.391 8h5.212" fill="#FFFFFE"/></g></svg>