<?xml version="1.0" encoding="UTF-8"?>
<svg width="56px" height="56px" viewBox="0 0 56 56" version="1.1" xmlns="http://www.w3.org/2000/svg" xmlns:xlink="http://www.w3.org/1999/xlink">
    <!-- Generator: Sketch 52.4 (67378) - http://www.bohemiancoding.com/sketch -->
    <title>HAS</title>
    <desc>Created with Sketch.</desc>
    <defs>
        <linearGradient x1="88.628882%" y1="7.02620836%" x2="6.6413659%" y2="97.5544718%" id="linearGradient-1">
            <stop stop-color="#4AAEAF" offset="0%"></stop>
            <stop stop-color="#3B9AB6" offset="24.3874227%"></stop>
            <stop stop-color="#267EC1" offset="100%"></stop>
        </linearGradient>
        <path d="M7.60540138,24.1879642 C8.64740598,23.904415 10.6278603,23.3716627 12.1711117,22.9910146 C12.6411113,26.2515723 13.2366163,30.0306789 13.2536603,30.1089261 C13.2536603,30.1089261 13.6030611,31.8386279 14.0229618,32.1332815 C14.4038681,32.4026274 14.4790164,32.4935285 16.0364711,32.3321275 C17.5954752,32.1691771 18.8347764,31.815128 18.8128258,31.3216284 C18.8128258,31.3216284 18.823672,31.1054802 18.7596281,30.7904255 C18.7596281,30.7904255 17.9934254,26.5679182 17.2757722,21.682763 C18.2173208,21.4508621 19.1105783,21.225159 19.843726,21.0480053 C20.7116758,20.8396044 21.5171312,20.5984068 22.3223283,20.4277092 C22.7078829,23.1304651 23.3423824,27.2902197 23.3423824,27.2902197 C23.5383877,28.5610263 23.8250358,29.6420254 23.8250358,29.6420254 C23.8250358,29.6420254 24.2276344,30.8312277 25.1880346,30.744975 C25.9526878,30.677574 27.4897415,30.4051292 28.0162959,29.9772229 C28.4219934,29.6466738 27.9723949,29.1531742 27.9111916,28.8634272 C27.9111916,28.8634272 26.6656927,25.2565676 25.9511384,19.7116054 C29.4983441,19.0755565 31.7734521,18.8514028 31.7734521,18.8514028 C31.7734521,18.8514028 34.781284,18.4534526 37.2636671,17.7404477 C37.2636671,17.7404477 38.2098641,17.0666956 39.0935667,16.7002508 C39.3647203,16.5873993 39.5307696,16.2083007 38.9275173,16.0404437 C38.9275173,16.0404437 38.2145125,15.9009933 37.1397112,15.9575482 C37.1397112,15.9575482 32.9360555,16.1204986 25.7192375,17.6278544 C25.6063859,16.4167016 25.5234904,15.1365983 25.4857871,13.7983907 C25.36054,9.30963628 25.7130397,7.47018182 25.7130397,7.47018182 C25.7130397,7.47018182 25.8163363,6.84807796 25.4356883,6.63038034 C25.4356883,6.63038034 25.1128864,6.31067732 24.1540355,6.40932559 C22.6123336,6.5691771 21.3634775,7.10657774 20.7336264,7.47328072 C20.7336264,7.47328072 20.4438794,7.63468168 20.5316815,7.76767607 C20.6052803,7.87587927 20.7635824,7.89628035 20.9420273,8.22837897 C20.9420273,8.22837897 21.2224776,8.57158197 21.3337797,10.5316352 C21.3337797,10.5316352 22.0452351,18.3610021 22.0560813,18.4534526 C21.1488788,18.6726997 20.2057807,18.9095072 19.2296277,19.1680069 C18.4507712,19.3764079 17.7065191,19.5737044 16.9906735,19.7632537 C16.6913716,17.5932501 16.4264158,15.3997464 16.2668225,13.4820448 L15.9393722,9.06818045 C15.9393722,9.06818045 16.0083227,7.56883009 14.9836203,7.58303337 C14.0622145,7.59697841 11.165261,8.39752718 9.30230652,9.87828415 C8.72100482,10.3405365 9.40405368,10.453388 9.4980536,10.5081353 C9.4980536,10.5081353 10.0716081,10.6883878 10.2627068,11.5155355 C10.2627068,11.5155355 11.0586072,15.3870926 11.5536562,18.5694031 C11.4880629,18.5867052 4.97469485,20.3288026 1.76268662,22.2044109 L2.19679064,25.1295128 C3.36094349,25.1922655 5.11569473,24.947969 7.60540138,24.1879642 Z M11.6352606,19.3999078 L11.6776122,19.3934518 C11.7135077,19.6488527 11.7481121,19.8965063 11.7778099,20.1315061 C11.8155132,20.4308081 11.8594142,20.7582583 11.9046065,21.1045602 C8.89480137,21.8893563 6.81105041,22.3970591 5.63605142,22.5631084 C5.63605142,22.5631084 4.55014576,22.8076632 4.51399195,22.430114 C4.48119527,22.0931088 5.06869477,21.8439057 5.39924393,21.6574554 C5.39924393,21.6574554 8.09115371,20.2663082 11.6352606,19.3999078 Z" id="path-2"></path>
        <filter x="-3.2%" y="-4.6%" width="111.7%" height="118.4%" filterUnits="objectBoundingBox" id="filter-3">
            <feOffset dx="1.4" dy="1.4" in="SourceAlpha" result="shadowOffsetOuter1"></feOffset>
            <feGaussianBlur stdDeviation="0.5" in="shadowOffsetOuter1" result="shadowBlurOuter1"></feGaussianBlur>
            <feColorMatrix values="0 0 0 0 0   0 0 0 0 0.192156863   0 0 0 0 0.466666667  0 0 0 1 0" type="matrix" in="shadowBlurOuter1"></feColorMatrix>
        </filter>
    </defs>
    <g id="HAS" stroke="none" stroke-width="1" fill="none" fill-rule="evenodd">
        <g>
            <rect id="Rectangle-1" stroke="#E1E1E1" fill="#FFFFFF" x="0.5" y="0.5" width="55" height="55" rx="27.5"></rect>
            <g id="Group-2" transform="translate(9.000000, 8.000000)">
                <path d="M34.4920237,1.66485846 C34.4920237,1.66485846 24.0506033,3.94499782 17.5949009,4.81175148 C11.1391985,5.67850515 1.51895822,6.05912952 1.51895822,6.05912952 C1.51895822,6.05912952 3.2749826,14.0650895 3.61500551,23.2864154 C3.95502841,32.5077413 3.03480669,37.680893 3.03480669,37.680893 C3.03480669,37.680893 13.2988011,35.4164833 20.2710325,34.3716886 C27.243264,33.326894 37.9469931,33.5740666 37.9469931,33.5740666 C37.9469931,33.5740666 35.2744404,24.6701824 34.6379272,18.3798325 C34.0014141,12.0894825 34.4920237,1.66485846 34.4920237,1.66485846 Z" id="Fill-2" fill="url(#linearGradient-1)" transform="translate(19.732976, 19.672876) rotate(-5.000000) translate(-19.732976, -19.672876) "></path>
                <g id="Fill-11">
                    <use fill="black" fill-opacity="1" filter="url(#filter-3)" xlink:href="#path-2"></use>
                    <use fill="#FFFFFF" fill-rule="evenodd" xlink:href="#path-2"></use>
                </g>
                <g id="Group-15" transform="translate(1.689715, 11.871836)"></g>
            </g>
        </g>
    </g>
</svg>