<svg width="56" height="56" xmlns="http://www.w3.org/2000/svg" xmlns:xlink="http://www.w3.org/1999/xlink"><defs><rect id="a" width="56" height="56" rx="28"/></defs><g fill="none" fill-rule="evenodd"><mask id="b" fill="#fff"><use xlink:href="#a"/></mask><use fill="#EE6510" xlink:href="#a"/><g fill="#FFF" mask="url(#b)"><path d="M13.896 52.494h-1.717l.014-.026c.355-.672.252-.747-.299-1.29l-7.808-7.69c-.553-.544-.626-.647-1.31-.296l-.02.01V41.51l3.587-3.533c.06-.057.58-.513 1.01-.088.209.206.211.47.077.718-.358.677-.253.749.3 1.293l7.807 7.69c.551.544.625.647 1.31.295.253-.132.521-.132.73.074.43.426-.03.938-.089.996l-3.592 3.54zm.057-10.36l-1.31 1.29-.862-.852 1.307-1.289-3.384-3.332c-.549-.542-.624-.645-1.31-.295-.25.133-.521.131-.728-.074-.431-.426.03-.936.09-.996l4.207-4.145c.06-.058.578-.512 1.01-.088.21.207.211.47.077.719-.358.674-.253.747.298 1.29l7.808 7.692c.55.544.625.647 1.31.293.253-.13.52-.13.73.076.43.426-.03.938-.088.997l-4.209 4.144c-.06.058-.58.512-1.012.088-.207-.206-.208-.47-.076-.72.359-.673.254-.747-.297-1.29l-3.561-3.509zM44.904 9.797c.46-.776.162-1.627-.271-2.317-.176-.321-.327-.646-.015-.953.46-.452.925.148 1.044.265l3.217 3.17c.12.117.73.573.27 1.027-.314.309-.64.159-.97-.016-.7-.425-1.563-.718-2.351-.267l-.924-.91zm8.322 1.461v2.493l-2.155 2.121-.862-.85c1.056-1.334 1.156-3.049.366-4.618-.12-.323-.27-.646-.002-.908.477-.47.878.015.938.075l1.715 1.687zm-11.15-8.48h2.334l1.857 1.83c.075.072.344.368-.103.805-.254.25-.477.176-.774.03-1.593-.81-3.082-.78-4.6.303l-.864-.85 2.15-2.118zM35.333 9.42l3.923-3.865L50.403 16.53 46.478 20.4c-.06.058-.581.512-1.012.087-.209-.206-.209-.471-.075-.719.356-.674.253-.748-.299-1.291l-7.81-7.692c-.55-.541-.624-.645-1.31-.292-.252.131-.52.131-.728-.075-.432-.424.03-.939.089-.997zM31.072 50.682l-1.84 1.812h-.98c.026-.057.058-.116.088-.179.11-.205-.133-.413-.258-.536l-4.39-4.325c-.127-.123-.335-.363-.544-.255-.226.107-.41.24-.621.034-.217-.215-.033-.447.134-.61l2.145-2.113 6.266 6.172zM43.529 26.066l1.205-1.187.487.477c-.127.736.31 1.395.678 1.907.159.206.334.462.1.692a.36.36 0 0 1-.52.033l-1.95-1.922zm7.17-3.218a.349.349 0 0 1-.034.511c-.234.23-.494.059-.703-.1-.52-.361-1.19-.79-1.935-.666l-.486-.478 1.206-1.19 1.952 1.923zm-5.589 1.66l2.053-2.023 5.328 5.249c.309.305.353.363.735.166v.959l-2.008 1.977c-.033.033-.327.29-.57.05-.116-.115-.117-.264-.041-.404.201-.38.142-.42-.167-.726l-5.33-5.249zM28.49 36.857c.445-.937.057-1.438-.317-1.804l-7.716-7.604c-.373-.366-.88-.747-1.83-.308l-.866-.85c3.434-2.827 7.455-1.768 10.42 1.152 2.964 2.921 4.04 6.88 1.171 10.265l-.862-.85zM17.956 27.8c-.446.938-.058 1.436.315 1.803l7.718 7.603c.372.367.88.749 1.83.31l.864.852c-3.435 2.825-7.453 1.766-10.42-1.154-2.963-2.922-4.04-6.882-1.171-10.265l.864.851zM44.919 21.025c-.21-.204-.477-.206-.73-.073-.686.35-.759.249-1.31-.295l-7.81-7.69c-.552-.544-.656-.617-.297-1.292.13-.248.13-.513-.077-.719-.431-.425-.952.03-1.01.088l-3.926 3.866 3.206 5.853-.03.028-6.163-2.937-3.775 3.718c-.178.175-.626.615-.165 1.07.357.353.79-.013.982-.175.269-.233.508-.116.864-.027.312.073.61.22.909.369l12.327 6.022.431-.423-6.03-10.98 6.92 6.817c.551.544.655.618.298 1.29-.135.251-.133.514.078.72.43.424.95-.028 1.01-.088l4.21-4.145c.06-.06.518-.572.088-.997M33.272 28.767l-2.563-2.523-3.29-1.602-.03.03 5.02 4.946c1.625 2.068.094 2.434.735 3.065.461.454 1.04-.176 1.203-.338l1.696-1.668c.162-.161.8-.73.338-1.185-.64-.632-1.009.877-3.11-.725M25.182 44.138c1.407-1.42 3.585-1.618 5.848.413 2.06 1.847 1.81 4.39.419 5.76l-.486-.48c.445-.57-.008-1.065-.328-1.377l-3.567-3.517c-.32-.313-.822-.758-1.399-.321l-.487-.478zM33.692 41.267c.26-.437.093-.914-.15-1.303-.102-.182-.186-.364-.009-.538.26-.255.52.084.588.15l1.81 1.783c.065.065.41.321.149.577-.175.174-.36.091-.545-.009-.393-.238-.878-.403-1.322-.147l-.52-.513zm2.982 2.938c.595-.75.654-1.716.21-2.6-.066-.182-.152-.362-.001-.511.269-.265.495.007.528.041l1.676 1.651-1.926 1.898-.487-.48zm-5.78-5.694l1.868-1.84 1.7 1.674c.043.042.194.206-.057.455-.143.14-.268.1-.436.016-.898-.454-1.734-.437-2.59.172l-.485-.477zm-2.588 2.55l2.211-2.178 6.266 6.172-2.21 2.178c-.034.032-.328.289-.57.05-.117-.116-.118-.265-.043-.405.202-.379.143-.42-.166-.726l-4.39-4.324c-.31-.304-.352-.362-.737-.166-.143.077-.293.076-.411-.04-.243-.238.017-.529.05-.561zM34.504 36.805c-.31-.305-.352-.363-.738-.166-.142.076-.292.074-.41-.042-.242-.239.018-.528.05-.56l2.212-2.178 5.33 5.25c.308.303.35.362.735.163.143-.074.294-.074.411.04.245.24-.016.53-.05.562l-2.37 2.336a.344.344 0 0 1-.504-.014c-.117-.117-.138-.246-.063-.386.202-.38.096-.375-.213-.681l-4.39-4.324zm1.491-3.318c.796-.785 1.349-1.165 1.97-1.329.989-.248 1.784.058 2.489.75.702.692 1.012 1.477.761 2.451-.168.611-.553 1.157-1.35 1.94l-.485-.478c.402-.58.085-.942-.326-1.347l-1.265-1.246c-.377-.37-.796-.635-1.308-.263l-.486-.478z"/><path d="M47.227 34.057c.251-.528.034-.807-.176-1.015l-4.339-4.274c-.21-.207-.494-.42-1.03-.174l-.485-.478c1.935-1.593 4.197-.998 5.863.644 1.667 1.642 2.272 3.869.654 5.776l-.487-.479zm-5.922-5.09c-.252.528-.034.807.175 1.014l4.34 4.274c.21.206.494.42 1.03.173l.486.478c-1.935 1.594-4.197 1-5.863-.643-1.669-1.642-2.271-3.87-.655-5.776l.487.48zM7.316 23.069l1.134-1.117.456.45c-.118.69.292 1.31.638 1.792.15.194.315.434.095.651a.339.339 0 0 1-.488.03L7.316 23.07zm6.74-3.025a.328.328 0 0 1-.031.48c-.221.218-.465.054-.662-.092-.488-.342-1.118-.745-1.819-.629l-.456-.45 1.134-1.116 1.834 1.807zm-5.251 1.559l1.928-1.9 5.008 4.933c.292.287.331.341.693.155.134-.07.276-.07.386.039.228.224-.016.496-.047.527l-2.228 2.195c-.032.03-.307.272-.536.046-.11-.108-.11-.247-.04-.38.19-.357.135-.395-.157-.682l-5.007-4.933zM19 17.717l-.692.683-.457-.45.693-.683-1.787-1.76c-.292-.288-.33-.342-.693-.156-.134.07-.275.07-.386-.039-.228-.225.016-.496.047-.527l2.229-2.195c.031-.03.307-.271.535-.046.11.108.11.248.04.38-.19.356-.134.395.157.682l4.126 4.064c.291.288.33.341.693.156.133-.07.275-.07.385.038.229.225-.016.497-.047.527l-2.228 2.196c-.031.031-.307.271-.536.046-.11-.108-.11-.247-.039-.38.189-.357.134-.395-.157-.682L19 17.717zm.835 2.886c.292.287.331.34.694.155.133-.07.275-.07.386.038.227.225-.017.497-.048.528l-2.228 2.195c-.032.03-.307.271-.536.046-.11-.108-.11-.248-.039-.38.19-.357.134-.395-.157-.683l-4.126-4.064c-.292-.287-.331-.341-.693-.155-.134.07-.276.07-.386-.039-.228-.225.016-.496.047-.527l2.229-2.195c.031-.03.307-.272.535-.047.11.11.11.249.039.38-.189.357-.134.396.158.683l4.125 4.065zM23.759 12.053c.244-.411.086-.861-.142-1.226-.094-.17-.173-.34-.008-.504.245-.24.489.078.552.14l1.7 1.675c.063.062.386.303.142.543-.165.163-.339.086-.512-.008-.37-.224-.827-.38-1.244-.139l-.488-.481zm2.803 2.761c.558-.705.614-1.613.197-2.443-.064-.171-.142-.342 0-.481.251-.248.464.008.496.039l1.574 1.55-1.81 1.785-.457-.45zm-5.433-5.352l1.756-1.729 1.598 1.574c.04.04.18.194-.055.427-.134.132-.252.093-.41.015-.842-.426-1.63-.41-2.432.163l-.457-.45zm-2.433 2.397l2.078-2.047 5.89 5.801-2.078 2.048c-.032.03-.307.271-.536.046-.11-.108-.11-.248-.04-.38.19-.357.135-.395-.157-.682l-4.126-4.065c-.291-.287-.33-.341-.693-.155-.134.07-.275.07-.385-.039-.229-.225.015-.496.047-.527z"/></g></g></svg>