<?xml version="1.0" encoding="UTF-8"?>
<svg width="56px" height="56px" viewBox="0 0 56 56" version="1.1" xmlns="http://www.w3.org/2000/svg" xmlns:xlink="http://www.w3.org/1999/xlink">
    <!-- Generator: Sketch 52.4 (67378) - http://www.bohemiancoding.com/sketch -->
    <title>HEIO</title>
    <desc>Created with Sketch.</desc>
    <g id="HEIO" stroke="none" stroke-width="1" fill="none" fill-rule="evenodd">
        <rect id="Rectangle-1" stroke="#E1E1E1" fill="#FFFFFF" x="0.5" y="0.5" width="55" height="55" rx="27.5"></rect>
        <g id="Group-11" transform="translate(8.000000, 8.000000)" fill="#EF3824" fill-rule="nonzero">
            <path d="M8.48712251,37.8918203 C8.05173017,38.2006015 7.4838271,37.7988351 7.65059229,37.310224 C7.88766928,36.6145891 12.2415927,23.5615667 12.2415927,23.5615667 L0.229090864,15.064821 C-0.204498615,14.7560399 0.0199583088,14.1104065 0.546395432,14.1130381 C1.30089521,14.1174242 15.3966097,14.1130381 15.3966097,14.1130381 C15.3966097,14.1130381 19.7550404,1.06966512 19.983103,0.37052138 C20.1435582,-0.118966961 20.8529863,-0.128616372 21.0143429,0.372275819 C21.2442084,1.07141956 25.6035405,14.1130381 25.6035405,14.1130381 C25.6035405,14.1130381 39.6983536,14.1174242 40.4519519,14.1130381 C40.9801919,14.1104065 41.2055503,14.7560399 40.7692565,15.064821 L33.6028607,20.1325166 L25.1257808,20.1325166 L22.5062152,12.2910538 L19.8884525,20.1325166 L11.4077668,20.1325166 L18.2694781,24.9809074 L15.6481097,32.8250019 C15.6481097,32.8250019 8.92251486,37.5839164 8.48712251,37.8918203 Z" id="Shape"></path>
        </g>
    </g>
</svg>