<svg width="56" height="56" xmlns="http://www.w3.org/2000/svg"><g fill="none" fill-rule="evenodd"><rect fill="#4B65B1" width="56" height="56" rx="28"/><path d="M43.11 36.063H49v-1.168h-5.89v1.167zm-3.89-1.168l.41 1.164.07.002.418-1.166h-.898zm-8.887 1.167h5.826v-1.167h-5.826v1.167zm-14-1.167v1.166h8.885c1.576 0 2.766-1.166 2.766-1.166h-11.65zm-9.269 1.167h8.175v-1.167H7.064v1.167zm36.046-2.27H49v-1.169h-5.89v1.17zm-4.699-1.169l.427 1.17h1.659l.4-1.17H38.41zm-8.078 1.17h5.826v-1.17h-5.826v1.17zm-14-1.17v1.17H28.92c.265-.268.416-1.17.416-1.17H16.334zm-9.269 1.17h8.175v-1.17H7.064v1.17zM43.11 31.52h3.54v-1.167h-3.54v1.167zm-5.504-1.167l.415 1.167h3.26l.418-1.167h-4.093zm-4.988 1.167h3.54v-1.167h-3.54v1.167zm-6.951-1.167v1.167h3.765c0-.55-.224-1.167-.224-1.167h-3.541zm-6.984 1.167h3.54v-1.167h-3.54v1.167zm-9.334 0h3.54v-1.167H9.35v1.167zm33.761-2.27h3.54v-1.167h-3.54v1.167zm-6.308-1.167l.428 1.167h4.863l.407-1.167h-5.698zm-4.184 1.167h3.54v-1.167h-3.54v1.167zm-13.935-1.167v1.167h10.04c-.24-.566-.997-1.167-.997-1.167h-9.043zM9.349 29.25h3.54v-1.167H9.35v1.167zm23.27-3.438v1.168h3.54v-.65l.225.65h6.485l.241-.65v.65h3.54v-1.168h-6.646l-.352.99-.355-.99h-6.679zm-13.936 0v1.168h9.043s.756-.6.998-1.168H18.683zM9.349 26.98h3.54v-1.168H9.35v1.168zm31.413-3.44l-.42 1.17h6.309v-1.17h-5.889zm-8.144 0v1.17h6.277l-.418-1.17h-5.859zm-6.951 0v1.17h3.54s.225-.618.225-1.17h-3.765zm-6.984 1.17h3.54v-1.17h-3.54v1.17zm-9.334 0h3.54v-1.17H9.35v1.17zm32.185-3.438l-.388 1.166h7.79v-1.166h-7.402zm-11.265 0v1.166h7.82l-.386-1.166h-7.434zm-13.935 0v1.166h13.001s-.151-.899-.416-1.166H16.334zM7 22.438h8.175V21.27H7v1.168zM42.37 19l-.418 1.167h6.984V19H42.37zM30.27 19v1.167h7.048L36.9 19h-6.63zm-13.935 0v1.167h11.65S26.794 19 25.217 19h-8.883zM7 20.167h8.175V19H7v1.167z" fill="#FFF"/></g></svg>