<?xml version="1.0" encoding="UTF-8"?>
<svg width="56px" height="56px" viewBox="0 0 56 56" version="1.1" xmlns="http://www.w3.org/2000/svg" xmlns:xlink="http://www.w3.org/1999/xlink">
    <!-- Generator: Sketch 52.4 (67378) - http://www.bohemiancoding.com/sketch -->
    <title>IDXX</title>
    <desc>Created with Sketch.</desc>
    <g id="IDXX" stroke="none" stroke-width="1" fill="none" fill-rule="evenodd">
        <g>
            <rect id="Rectangle-1" stroke="#E1E1E1" fill="#FFFFFF" x="0.5" y="0.5" width="55" height="55" rx="27.5"></rect>
            <g id="Group-50" transform="translate(11.000000, 13.000000)">
                <path d="M16.7535395,30.5276775 C11.6630279,30.527414 6.57172558,30.4936775 1.48174109,30.5548248 C0.404547287,30.5677395 0.182097674,30.2245767 0.197384496,29.225662 C0.252996899,25.5399566 0.244826357,21.8529333 0.202128682,18.1669643 C0.192113178,17.2985147 0.350252713,16.9268868 1.33177209,16.9582512 C3.6993845,17.0331039 6.07121395,17.015445 8.44014419,16.9724837 C9.30595814,16.9566698 9.59377209,17.2510729 9.52656279,18.107662 C9.45434574,19.0235535 9.50864031,19.9494605 9.50864031,20.8708868 C9.50864031,23.1715535 9.50890388,23.1718171 11.7449969,23.1718171 C18.5030899,23.1718171 25.2617101,23.2052899 32.0195395,23.139662 C33.2127023,23.1280651 33.5223922,23.4593674 33.4409504,24.5998171 C33.3384233,26.0407318 33.3328884,27.5008868 33.4433225,28.9407473 C33.5379426,30.1766078 33.2069039,30.5824992 31.893555,30.5611504 C26.8481132,30.4789178 21.8002992,30.5276775 16.7535395,30.5276775" id="Fill-12" fill="#3E5A5B"></path>
                <path d="M34.0001318,0.309505426 C33.996969,0.394110078 33.9922248,0.478451163 33.9853721,0.562528682 C33.3670465,0.441551938 33.5101628,0.899629457 33.5085814,1.2138 C33.5012016,2.70584651 33.4318837,4.20290078 33.5336202,5.68783101 C33.610845,6.8137845 33.3354186,7.16959845 32.125124,7.15826512 C25.061031,7.09184651 17.9958837,7.15114884 10.9315271,7.09843566 C9.80583721,7.09000155 9.34248837,7.30586202 9.48560465,8.52248217 C9.60789922,9.56119535 9.45845736,10.6289008 9.52487597,11.6776295 C9.57732558,12.5054899 9.37490698,12.8431178 8.46296899,12.8204512 C6.00732558,12.7593039 3.54851938,12.7724822 1.09208527,12.8114899 C0.394689922,12.8222961 0.199387597,12.6080171 0.205186047,11.9222186 C0.235232558,8.32428062 0.236286822,4.7258155 0.204658915,1.12787752 C0.198596899,0.434962791 0.404705426,0.244668217 1.0934031,0.24704031 C12.0624884,0.283148837 23.0313101,0.293427907 34.0001318,0.309505426" id="Fill-16" fill="#3E5A5B"></path>
                <path d="M22.7952341,12.3937643 C25.8238698,12.3937643 28.8535597,12.432245 31.8811411,12.3710977 C32.8244434,12.3518574 33.0898543,12.6473147 33.0300248,13.5524 C32.9543814,14.6888961 32.9815287,15.8348806 33.0200093,16.9745395 C33.0421488,17.6215938 32.8958698,17.9157333 32.1597302,17.9128341 C25.9704124,17.8880589 19.7810946,17.8896403 13.5923039,17.9133612 C12.8859473,17.9162605 12.6811566,17.6782605 12.706986,16.9987876 C12.7531101,15.7713612 12.7660248,14.5389271 12.7040868,13.3128186 C12.6640248,12.5115783 13.0061333,12.3737333 13.7090636,12.3808496 C16.7374357,12.4108961 19.7663349,12.3937643 22.7952341,12.3937643" id="Fill-18" fill="#C50101"></path>
            </g>
        </g>
    </g>
</svg>