<svg width="56" height="56" xmlns="http://www.w3.org/2000/svg"><g fill="none" fill-rule="evenodd"><rect fill="#127BCA" width="56" height="56" rx="28"/><g fill="#FFF"><path d="M48.55 22.092c-1.96-9.55-20.498-10.153-32.451-2.878v.803c11.939-6.14 28.87-6.102 30.413 2.696.516 2.913-1.12 5.945-4.048 7.686v2.285c3.522-1.293 7.138-5.471 6.087-10.592M26.827 38.81c-8.25.761-16.843-.436-18.044-6.883-.593-3.176.856-6.546 2.777-8.639V22.17c-3.46 3.035-5.335 6.872-4.255 11.406 1.381 5.815 8.758 9.108 20.018 8.014 4.456-.432 10.285-1.867 14.339-4.093v-3.162c-3.682 2.193-9.764 4.008-14.835 4.476"/><path d="M40.994 20.705h-2.16v9.627c0 1.13.546 2.112 2.16 2.267V20.705M15.246 24.22h-2.163v6.29c0 1.132.546 2.114 2.163 2.27v-8.56M13.083 23.046h2.16v-2.048h-2.16zM28.198 32.68c-1.749 0-2.49-1.218-2.49-2.418V21.91h2.142v2.31h1.613v1.732H27.85v4.179c0 .49.235.76.743.76h.87v1.789h-1.265M33.884 25.85c-.732 0-1.298.377-1.532.887-.143.308-.193.542-.21.92h3.303c-.042-.921-.46-1.808-1.56-1.808m-1.743 3.27c0 1.096.686 1.903 1.9 1.903.952 0 1.42-.265 1.97-.807l1.32 1.266c-.843.835-1.736 1.344-3.305 1.344-2.054 0-4.02-1.121-4.02-4.383 0-2.79 1.715-4.365 3.97-4.365 2.289 0 3.604 1.847 3.604 4.267v.775h-5.44M21.071 25.952c.627 0 .89.311.89.813v5.925h2.144v-5.935c0-1.205-.644-2.532-2.524-2.532l-4.429-.003v8.47h2.143v-6.738h1.776"/></g></g></svg>