<?xml version="1.0" encoding="UTF-8"?>
<svg width="56px" height="56px" viewBox="0 0 56 56" version="1.1" xmlns="http://www.w3.org/2000/svg" xmlns:xlink="http://www.w3.org/1999/xlink">
    <title>JKS</title>
    <g id="JKS" stroke="none" stroke-width="1" fill="none" fill-rule="evenodd">
        <g id="1">
            <circle id="Oval" fill="#2EAB47" cx="28" cy="28" r="28"></circle>
            <path d="M43.7259738,9 C43.7259738,9 40.67031,24.5440006 39.6490712,29.6663002 C38.4509056,35.6651052 36.8024285,41.2296751 31.1011488,44.5989754 C27.948969,46.5208254 22.4808685,47.5501286 17.8490857,46.6977522 C15.3160913,46.2554819 12.9921763,45.2342372 11.5366732,43.4490737 C13.0806397,44.5266058 14.9944486,45.1457855 16.9967209,45.1457855 C17.3104859,45.1457855 17.5759928,45.1457855 17.8490857,45.0973524 C24.3651926,44.6896344 26.3914207,39.1359748 27.5754161,33.7031892 L27.6930611,33.1513244 L27.6930611,33.1513244 L27.8057517,32.6015239 L27.8057517,32.6015239 L27.8605056,32.3277824 C28.2626586,30.3298967 28.7798436,27.7321244 29.3217677,24.9982342 L29.463641,24.2822627 C29.6533954,23.3243301 29.8451929,22.3548085 30.0352338,21.3932138 L30.1773759,20.6738091 C31.3817743,14.5766858 32.4761829,9 32.4761829,9 L32.4761829,9 Z M18.8783772,30.1888003 C22.5291266,30.1888003 24.9978158,33.1640767 24.3625832,36.8228613 C23.7192395,40.4816517 20.2454169,43.448887 16.5785621,43.448887 C12.9117656,43.448887 10.4591819,40.4816517 11.1024673,36.8228613 C11.7216528,33.1640767 15.2196335,30.1888003 18.8783772,30.1888003 Z" id="Combined-Shape" fill="#FFFFFF"></path>
        </g>
    </g>
</svg>