<svg width="56" height="56" xmlns="http://www.w3.org/2000/svg"><g fill="none" fill-rule="evenodd"><rect fill="#D93F2A" width="56" height="56" rx="28"/><g fill="#FFF"><path d="M45.63 24.161c-.73.366-.996.722-1.726 1.27-.73.547-1.471 1.18-2.02 1.73.175 2.333.483 7.468-.611 10.39-.575 2.15-1.244 3.995-2.557 5.394-.668.71-.947.825-.983.848-2.735 1.265-4.485-1.855-3.936-4.773.684-3.423 3.182-7.798 3.285-8.188 0 0-1.155-.976-1.94-2.07-.356-.498-.39-.44-.98-.44-.981-.082-2.066.166-2.636.29-.57.123-1.075.203-1.075.303 0 0-.063 1.348-.452 2.2-.139.447-.99.833-.99.104 0-.731-.138-1.92-.138-2.062 0 .142-4.727.922-6.551-1.087-1.277-1.276-.569-3.62 3.083-3.103 1.645.183 3.289 1.443 3.289 1.623 0-.181-.01-.797-.537-1.623-.184-.366-.472-.912-.834-1.278l1.983-.918c.695.844.761 1.284.946 2.196.18 1.095.2 1.638.2 2.73.914-.182 1.328-.242 2.071-.36.461 0 .73-.086 1.642-.086-2.417-4.833-1.642-8.43 0-11.59 1.999-3.472 5.053-5.359 7.246-5.359.31 0 .709.323.476.844-.563 1.608-.437 2.132-.614 3.478-.177 1.347-.186 2.491-.186 4.196.186 3.099.635 6.498.635 6.68a56.954 56.954 0 0 1 3.019-2.729c2.528-1.381 2.367.364 2.023.645M25.97 26.44c-1.125-.305-2.102.529-.641 1.258 1.47.643 3.247.372 3.247.372s-.962-1.08-2.606-1.63zm12.377-4.355c0-2.158.12-3.988.79-6.425.537-1.809 1.226-3.134 1.473-4.123-2.006 1.095-3.173 1.381-4.814 5.578-.547 1.823-.728 8.759 2.372 12.225.185-.366.368-.547.548-.728.185-.366.238-.304.422-.67-.366-2.006-.79-3.667-.79-5.857zm-.887 19.741c.91-.546 1.783-1.759 2.147-3.587.912-5.108.024-7.795-.159-7.976-.111 0-1.48 1.64-2.554 4.207-1.075 2.567-1.336 3.57-1.194 5.989.184 1.46 1.029 1.733 1.76 1.367z"/><path d="M25.184 25.356c-.729.365-1.773.976-3.22 1.114-1.446.138-2.555.811-3.104 1.36.17 2.578.34 7.315-.66 9.983-.745 2.082-1.242 3.722-2.556 5.12-.667.71-.946.837-.983.86-2.734 1.265-4.485-1.855-3.935-4.773.683-3.423 3.182-7.798 3.284-8.188 0 0-1.154-.976-1.939-2.07-.356-.498-.456-.671-.98-1.51-2.416-4.834-1.641-8.432 0-11.592 2-3.471 5.054-5.358 7.246-5.358.476 0 .756.529.523 1.05-.562 1.607-.483 1.926-.66 3.272-.178 1.347-.117 2.532-.117 4.237.117 3.95.706 7.264.706 7.447 1.464-.87 1.895-.952 3.092-1.236 3.026-.523 4.68.085 4.337.366m-10.942-3.353c0-2.158.12-3.988.79-6.425.536-1.809 1.183-2.982 1.43-3.97-2.006 1.094-3.165 1.607-4.805 5.804-.547 1.823-.694 8.38 2.405 11.846.186-.366.368-.547.548-.728.186-.366.238-.304.422-.67-.365-2.006-.79-3.667-.79-5.857zm-.888 19.741c.91-.546 1.783-1.759 2.148-3.587.912-5.108.023-7.795-.16-7.976-.11 0-1.479 1.64-2.554 4.207-1.074 2.567-1.336 3.57-1.194 5.989.184 1.46 1.03 1.733 1.76 1.367z"/></g></g></svg>