<?xml version="1.0" encoding="UTF-8"?>
<svg width="56px" height="56px" viewBox="0 0 56 56" version="1.1" xmlns="http://www.w3.org/2000/svg" xmlns:xlink="http://www.w3.org/1999/xlink">
    <!-- Generator: Sketch 62 (91390) - https://sketch.com -->
    <title>JPMorgan Chase &amp; Co</title>
    <desc>Created with Sketch.</desc>
    <g id="JPMorgan-Chase-&amp;-Co" stroke="none" stroke-width="1" fill="none" fill-rule="evenodd">
        <g id="Group">
            <rect id="Rectangle-1" fill="#311C10" x="0" y="0" width="56" height="56" rx="28"></rect>
            <path d="M11.3028541,21.5138616 L13.2189135,21.5138616 L13.2189135,31.4986537 C13.2189135,34.4992355 12.3866715,35.3441623 10.5312153,35.3441623 C9.36424441,35.3441623 9.17186312,34.4576588 9.17186312,33.9989036 C9.17186312,32.9073344 9.11125954,32.2392856 8.11693788,32.2392856 C7.116979,32.2392856 7,33.2491105 7,33.557766 C7,34.9326217 7.61167332,35.9847279 10.3437674,35.9847279 C13.6001525,35.9847279 15.3407436,34.8854071 15.3407436,31.234394 L15.3407436,21.5110429 L17.3195209,21.5138616 L17.3195209,21.0001408 L11.3028541,21.0001408 L11.3028541,21.5138616 Z M19.1510176,21.5137212 L20.881743,21.5137212 L20.881743,32.9036703 C20.881743,33.799335 20.826777,34.0318832 20.7267106,34.2912105 C20.6195973,34.5808391 20.3778876,34.8091595 20.0199036,34.9578495 C19.7535298,35.0698959 19.349741,35.1290901 18.8113557,35.1438884 L18.8113557,35.6146232 L25.1535906,35.6146232 L25.1535906,35.1488214 C24.6159099,35.1354324 24.205779,35.074124 23.9372909,34.9782858 C23.5588707,34.8288909 23.3136376,34.6090268 23.1938402,34.3109419 C23.0888408,34.0544334 23.0345793,33.8289321 23.0345793,33.3786332 L23.0345793,29.4781589 L24.6039303,29.4718165 C29.1618831,29.4718165 30.4430152,27.6734405 30.4430152,25.2189958 C30.4430152,22.7384772 29.6565774,21 25.0415443,21 L19.1510176,21.0014094 L19.1510176,21.5137212 Z M24.1247392,21.5644587 C27.6397467,21.5644587 28.407157,23.0104886 28.407157,25.3535919 C28.407157,27.7114939 27.0252546,28.9144047 24.23749,28.9144047 L23.0345793,28.9144047 L23.0345793,21.5792575 L24.1247392,21.5644587 Z M40.4971786,32.1678299 L40.3964052,32.2333665 L40.2907029,32.1678299 C40.2907029,32.1678299 35.5875817,21.16969 35.5326173,21.034389 L31.3826807,21.034389 L31.3826807,21.5051238 L33.1838755,21.5051238 L33.1838755,32.8161476 L33.1451182,33.8464081 C33.1162249,34.1184195 33.0316618,34.3608342 32.8984741,34.5539197 C32.758241,34.764623 32.5299206,34.9238835 32.2332441,35.0288829 C32.0373411,35.0930098 31.7455967,35.1359959 31.3826807,35.1444525 L31.3826807,35.6151873 L35.5016108,35.6151873 L35.5016108,35.1507946 C35.1513777,35.1359959 34.999164,35.1014661 34.7940992,35.0331107 C34.4917852,34.9337492 34.2648758,34.7836495 34.1147754,34.5687184 C33.9808822,34.3685856 33.8942058,34.1296946 33.8639048,33.8464081 L33.8180989,32.8161476 L33.8180989,23.046287 L34.0598078,23.046287 C34.0598078,23.046287 39.3858773,35.4784769 39.4415473,35.6151873 L39.8862076,35.6151873 L44.9268758,23.1844068 L45.0537205,23.1844068 L45.0537205,33.2579898 C45.0537205,33.6892618 45.0100311,34.0218768 44.9268758,34.2797943 C44.8275133,34.5814028 44.6125844,34.8090188 44.3011086,34.9626418 C44.0699694,35.0655269 43.717623,35.1261305 43.2532313,35.1444525 L43.2532313,35.6151873 L49,35.6151873 L49,35.1444525 C48.5412458,35.1219023 48.1860807,35.0598891 47.9450741,34.9520712 C47.6110514,34.789287 47.3947115,34.5539197 47.2995755,34.253016 C47.2164234,33.9901658 47.1762551,33.6688255 47.1762551,33.2579898 L47.1762551,21.5142846 L48.704029,21.4994862 L48.704029,21.034389 L44.9635198,21.034389 C44.9106687,21.16969 40.4971786,32.1678299 40.4971786,32.1678299 Z" id="path33" fill="#FFFFFF" fill-rule="nonzero"></path>
        </g>
    </g>
</svg>