<svg width="56" height="56" xmlns="http://www.w3.org/2000/svg"><g fill="none" fill-rule="evenodd"><rect fill="#E32726" width="56" height="56" rx="28"/><path d="M38.57 35.82l3.338-12.876c2.225-7.79 3.497-8.107 4.292-8.902h-5.246c-1.907 0-3.339 2.702-3.656 4.452L35.072 26.6h-4.768s2.861-10.333 3.179-11.445c.158-.477.158-1.113-.795-1.113-.16 0-10.173-.318-13.353.795-1.431.477-3.496 1.749-4.133 3.657-.477 1.112-1.113 3.178.318 6.993.16.477.477.795.636.955.476.317 4.61-.318 4.45-.318.32 0 .478-.16.16-.795-.318-.795-1.272-2.226-1.43-3.657-.637-5.563 3.337-6.358 3.973-6.517a7.743 7.743 0 0 1 2.702 0c.319 0 1.113.159 1.272.477.319.635-.159 1.749-.477 3.02-.317.954-3.02 10.81-3.815 13.512-.476 2.067-2.543 6.517-4.61 7.153-.477.16-1.112.16-1.749 0-.635-.158-1.271-.477-1.748-.795-1.272-1.272-2.067-3.815-2.225-5.722-.16-2.384.318-4.133-.16-4.133-.828 0-3.599 1.095-4.722 1.901l-.006.004c-.455.325-.485.388-.485.388a.337.337 0 0 0-.053.067c-.294.5-.274 2.277-.138 3.363.477 2.384 1.749 5.087 3.656 6.358 5.088 3.497 13.99-2.86 14.943-3.498 1.43-1.27 2.384-3.02 2.702-4.291.477-1.59 1.271-4.292 1.271-4.292h4.77s-1.909 7.153-2.385 8.902c-.476 1.43-.796 3.815.476 3.655 4.77 0 6.677-1.747 6.837-1.907.159-.158.159-.477 0-.636-.318-.159-1.43-1.271-.796-2.86" fill="#FFF"/></g></svg>