<svg width="56" height="56" xmlns="http://www.w3.org/2000/svg"><g fill="none" fill-rule="evenodd"><rect fill="#F40000" width="56" height="56" rx="28"/><g fill="#FFF"><path d="M22.2 33.344c-1.86-1.198-4.385-1.409-8.457-.279-4.341 1.02-5.788 1.674-7.69.362-.73-.645-.991-1.684-.796-3.18.454-2.437 1.68-4.784 3.856-7.386 1.215-1.354 2.342-2.516 3.83-2.983 1.14-.292 1.034.604.896.732-.146 0-.39.023-.58.147-.153.119-.574.503-.597 1.02-.033.79.786.626 1.14.192.38-.49.943-1.427.5-2.301-.185-.311-.506-.526-.904-.6-1.362-.077-2.631.573-3.803 1.29-2.561 1.78-4.61 4.245-5.77 6.944-.668 1.629-1.272 3.961-.366 5.86.7 1.317 2.156 2.016 3.892 1.87 1.218-.128 2.69-.521 3.68-.76.99-.237 6.06-1.98 7.726 1.053 0 0 .554-1.075 1.938-1.098 1.138-.105 2.78.33 3.975 1.208-.398-.6-1.527-1.482-2.47-2.09z"/><path d="M14.26 23.167c-.948-.622-2.854.567-4.38 2.607-1.396 1.83-1.998 3.957-1.343 4.94.976 1.157 2.787-.526 3.558-1.427l.099-.105c.524-.563.928-1.24 1.32-1.89l.377-.621c.223-.041.49-.105.793-.192-.004.013-1.156 1.948-1.038 2.908.036.293.008 1.364 1.053 1.688 1.393.234 2.505-.846 3.486-1.806 0 0 .168-.16.262-.252l-.055.224c-.408 1.418.142 1.716.486 1.825 1.039.302 2.28-1.207 2.284-1.207-.032.475-.126.869.375 1.184.473.17.952-.088 1.316-.33 1.31-.925 2.367-2.37 3.22-3.62h-.544c-.006 0-1.343 1.936-2.21 2.357-.002 0-.16.08-.25.017-.113-.096-.069-.296 0-.438l3.35-5.812H24.84s-.172.28-.186.298c-.011-.01-.036-.057-.054-.08-.979-1.354-3.195.728-4.864 3.143-.642.929-1.46 1.974-2.308 2.73 0 0-1.257 1.15-1.794.323-.196-.347-.136-.856-.025-1.19.625-1.779 1.702-3.394 2.928-4.368.346-.27.722-.348.909-.233.177.105.206.366.094.544a.88.88 0 0 0-.7.27c-.367.384-.494.755-.378 1.102.566.805 1.694-.787 1.64-1.756-.02-.348-.205-.677-.482-.837-.413-.247-1.042-.183-1.45.013-.545.206-1.408.924-1.911 1.482-.635.7-1.722 1.478-2.063 1.39.112-.297 1.03-2.177.064-2.88zm7.616 2.781c.308-.425 1.202-1.564 1.42-1.756.733-.645 1.027-.362 1.052-.16a144.632 144.632 0 0 1-2.252 3.892l-.237.362c-.336.512-.674.95-1.225 1.257-.078.023-.208.032-.294-.032a.312.312 0 0 1-.133-.302c.033-.393.434-1.596 1.67-3.26zm-8.594.736s-.014.042-.02.055c-.002 0-.69 1.12-.69 1.12-.414.554-.931 1.25-1.578 1.584-.192.064-.457.105-.593-.064-.286-.343-.138-.82-.018-1.203l.042-.138c.344-.933.89-1.756 1.42-2.52a.07.07 0 0 1 .027-.009c.002.005.004.005.005.014.333.64.958.937 1.425 1.075.003 0 .006.004.006.013a.225.225 0 0 1-.026.074zm.651-1.321l-.306.704c-.044.037-.113.018-.192 0l-.136-.023c-.427-.133-.75-.416-.849-.755-.137-.658.426-1.175.674-1.363.238-.164.607-.251.822-.082.133.156.183.357.183.576 0 .298-.092.632-.196.943zM33.904 27.485a.93.93 0 0 0-.899-.517c-1.251.115-2.475 1.144-3.118 2.62-.337.76-.521 1.387-.642 2.384.389-.448 1.183-1.184 2.083-1.587 0 0 .123-.956.748-1.807.237-.352.71-.92 1.241-.768.465.155.301 1.44-.316 2.684-.456.915-1.155 1.83-1.862 2.461-.625.531-1.55 1.171-2.36.678-.509-.302-.769-.934-.714-1.748.244-2.31 1.295-4.277 2.8-6.518 1.551-2.08 3.262-4.217 5.566-5.356.47-.238.905-.293 1.28-.146 0 0-2.162 1.189-3.193 3.389-.262.558-.627 1.313-.26 1.98.192.348.533.376.808.357 1.263-.293 2.08-1.473 2.747-2.552.387-.819.73-1.633.73-2.539 0-.11-.005-.256-.015-.366.604-.32 1.842.247 1.842.247.968.32 3.027 1.899 3.722 2.2.34-.393.896-.987 1.21-1.285l-.454-.279c-.727-.443-1.495-.864-2.252-1.28-1.717-.938-3.115-.609-3.826-.353-.28.101-.536.188-.536.188-.528-.576-1.394-.522-2.032-.366-2.294.659-4.425 2.264-6.709 5.05-1.679 2.182-2.72 4.066-3.276 5.928-.428 1.253-.558 3.096.487 4.19.888.928 2.065.727 2.897.393 1.802-.887 3.42-2.8 4.228-5 .194-.654.41-1.578.075-2.282zm4.143-6.893c-.238 2.735-2.364 4.34-2.89 4.469-.32.064-.863-.078-.378-1.226.716-1.546 1.936-2.859 3.247-3.531a.7.7 0 0 1 .021.288zM50.66 20.94c-1.144.65-2.33 1.07-3.765.923-.398.449-.785.91-1.142 1.386 2.015.513 4.15-.626 5.341-1.71A8.408 8.408 0 0 0 53 19.069s-.944 1.08-2.34 1.87zM29.046 23.217h-1.5l-.847 1.375h1.5z"/><path d="M46.89 33.472c-.162.11-.389.025-.304-.226.211-.64 1.05-1.946 1.05-1.946l2.337-4.145h-1.6c-.077.125-.24.412-.24.412-.073-.124-.295-.398-.386-.457-.391-.247-.965-.13-1.36.094-1.722 1.006-2.978 2.994-3.968 4.545 0 0-1.043 1.724-1.622 1.852-.451.037-.405-.572-.385-.714.174-1.024.58-1.999.989-2.881a22.139 22.139 0 0 0 2.642-2.16c1.871-1.788 3.449-3.814 3.68-4.267 0 0-.25.05-.545.06-1.44 2.007-4.385 4.926-5.278 5.36.395-.951 2.951-5.493 5.127-7.666l.342-.33c.53-.516 1.078-1.047 1.505-1.134.045-.004.103 0 .153.106.02.402-.13.7-.302 1.038l-.241.494s.341-.064.565-.138c.26-.489.548-1.038.442-1.692a.486.486 0 0 0-.387-.407c-.649-.123-1.356.357-1.925.746l-.023.013c-2.925 2.292-5.395 5.594-7.554 10.105-.157.118-.762.26-.864.192.213-.44.481-1.03.616-1.67.023-.183.045-.37.045-.553 0-.394-.095-.764-.448-1.02-.413-.206-.924-.11-1.269.045-1.543.64-2.697 2.223-3.53 3.527-.447.828-.894 1.715-1.017 2.73-.087.796.09 1.308.542 1.565.466.237 1.051-.01 1.281-.128 1.564-.824 2.657-2.475 3.518-3.984.034-.005.505-.019.86-.11.005 0 .007 0 .015.005-.02.068-.204.617-.204.617-.546 1.6-.799 2.69-.283 3.334.737.91 1.957-.032 2.949-1.276-.213 1.491.56 1.725 1.149 1.61.676-.183 1.43-.905 1.78-1.276-.112.435-.081 1.212.534 1.29.422.078.738-.151 1.103-.348 1.31-.714 2.88-3.092 3.287-3.78h-.534c-.58.876-1.316 2.023-2.243 2.568zm-11.764-.16a.72.72 0 0 1-.114-.404c-.016-.897.95-2.503 1.63-3.378h.002c.285.625.932 1.027 1.322 1.196-.485 1.08-2.147 3.391-2.84 2.586zm3.113-3.069c-.046.032-.861-.242-1.018-.997-.134-.65.313-1.157.746-1.413a.749.749 0 0 1 .671-.124c.19.128.242.357.242.604 0 .151-.02.306-.037.448l-.004.032a6.09 6.09 0 0 1-.6 1.45zm6.538 2.781l-.155.137c-.22.197-.446.407-.72.302-.075-.027-.128-.128-.14-.206-.013-.562.24-1.084.486-1.591l.063-.133c.707-1.18 1.528-2.57 2.735-3.536.203-.146.424-.27.657-.173.053.05.115.137.115.224 0 .027-.024.1-.038.123-.337.545-.658 1.116-.97 1.665-.61 1.084-1.243 2.205-2.034 3.188z"/></g></g></svg>