<svg width="56" height="56" xmlns="http://www.w3.org/2000/svg" xmlns:xlink="http://www.w3.org/1999/xlink"><defs><rect id="a" width="56" height="56" rx="28"/></defs><g fill="none" fill-rule="evenodd"><mask id="b" fill="#fff"><use xlink:href="#a"/></mask><use fill="#FFF" xlink:href="#a"/><g mask="url(#b)"><path d="M4.537 12.705c1.613-2.425 3.53-4.577 5.8-6.411 1.066-.861 2.228-1.58 3.39-2.304 1.2-.747 2.46-1.355 3.757-1.893a26.974 26.974 0 0 1 7.383-1.89c1.972-.219 3.948-.263 5.91-.061 4 .411 7.753 1.633 11.24 3.65 3.645 2.11 6.679 4.882 9.033 8.366.957 1.416 1.825 2.9 2.478 4.487 1.046 2.542 1.843 5.152 2.196 7.895.186 1.445.318 2.886.26 4.338a28.286 28.286 0 0 1-1.734 8.748c-.984 2.664-2.318 5.133-4.053 7.382-3.005 3.895-6.774 6.806-11.314 8.728a27.637 27.637 0 0 1-6.366 1.858c-3.13.507-6.27.49-9.39-.06-4.712-.835-8.972-2.7-12.678-5.757a28.59 28.59 0 0 1-7.358-9.182C1.806 38.076.869 35.431.405 32.631c-.355-2.144-.489-4.302-.328-6.47.172-2.325.6-4.603 1.326-6.825.52-1.592 1.189-3.119 1.931-4.617.355-.699.751-1.373 1.203-2.014" fill="#0C0F3C"/><path d="M4.537 12.705L3.334 14.72c-.043-.224.123-.37.22-.53.309-.506.523-1.077.983-1.484" fill="#CFCC9B"/><path d="M28.874 54.017c-14.472.452-26.361-10.54-26.799-25.262C1.628 13.718 13.272 2.693 26.678 2.034c15.038-.74 27.215 11.023 27.35 25.803.063 14.075-11.067 25.74-25.154 26.18z" fill="#FFCE00"/><path d="M18.955 29.82c-2.172-1.406-4.34-2.82-6.626-4.038-2.414-1.288-4.867-2.496-7.454-3.41-.058-.02-.118-.035-.174-.06-.155-.07-.443.001-.344-.337.13-.448.2-.502.568-.386 1.01.318 2.024.63 3.03.964.253.084.378.04.486-.203.134-.303.313-.586.464-.882.09-.176.209-.216.392-.145.331.128.668.245 1.003.366.576.102 1.086.382 1.616.605 1.951.821 3.85 1.756 5.765 2.654 1.28.6 2.56 1.208 3.885 1.706.173.065.336.147.278.362-.053.198-.235.192-.399.169-.566-.08-1.085-.316-1.612-.515-1.472-.556-2.91-1.195-4.341-1.845-.18-.082-.36-.16-.457.094-.09.234.093.281.255.36 1.241.599 2.526 1.096 3.81 1.594 1.272.494 2.582.855 3.953.995.889.09 1.776.075 2.658.034.516-.023 1.04-.196 1.518-.429.967-.469 1.87-1.03 2.65-1.783.903-.87 1.536-1.914 2.042-3.041.132-.294.283-.476.632-.518.769-.095 1.536-.193 2.307-.27.526-.052 1.054-.079 1.578-.144.98-.121 1.969-.108 2.953-.133a49.842 49.842 0 0 1 5.027.12c1.263.095 2.521.233 3.78.361 1.308.134 2.615.29 3.913.507.507.085.534.171.21.573-.233.289-.515.53-.77.797-.152.158-.35.186-.55.152-1.168-.198-2.35-.295-3.529-.387-.945-.073-1.892-.16-2.841-.178a74.386 74.386 0 0 0-3.63.005c-.75.022-1.503.03-2.25.132-.058.008-.117.011-.182.053.16.064.31.043.454.032 1.836-.148 3.677-.09 5.513-.048 1.464.033 2.928.177 4.388.32.541.053 1.08.112 1.616.195.177.027.394.025.462.241.059.187-.13.271-.218.397-.206.294-.49.52-.694.813-.111.15-.25.199-.383.327a.413.413 0 0 1-.336.122c-3.457-.297-6.92-.264-10.388-.229-.54.006-1.072.122-1.614.1.125.08.258.052.386.052 1.296.003 2.592-.008 3.888.004 2.195.02 4.387.121 6.575.3.234.02.465.06.695.11.215.046.263.171.13.346-.355.472-.722.936-1.115 1.378a.461.461 0 0 1-.39.167c-1.094-.038-2.192-.034-3.284-.11-1.604-.11-3.206-.043-4.809-.054-1.034-.007-2.063.148-3.098.158-.07.001-.15.008-.22.104.241.063.475.056.698.026.652-.088 1.306-.041 1.96-.056.517-.013 1.041-.067 1.548-.046 1.44.06 2.884-.024 4.322.11.221.02.445.026.666.006.6-.053 1.17.153 1.759.186.25.014.253.17.13.329-.28.359-.542.733-.853 1.067-.156.166-.351.158-.55.14a56.884 56.884 0 0 0-5.02-.248 23.787 23.787 0 0 0-4.77.468c-1.498.3-2.978.652-4.408 1.19a8.725 8.725 0 0 0-1.37.641c-.212.126-.262.228-.088.456.525.687 1.2 1.205 1.896 1.687.93.643 1.88 1.26 2.887 1.78.875.454 1.773.856 2.721 1.141.705.213 1.395.478 2.115.64.792.178 1.593.293 2.4.392.862.107 1.723.012 2.582.08.198.165.047.307-.065.391-.454.342-.806.793-1.252 1.144a.717.717 0 0 1-.625.142 71.29 71.29 0 0 1-3.453-.775 64.384 64.384 0 0 1-3.848-1.143c-1.088-.354-2.134-.82-3.2-1.233a56.094 56.094 0 0 1-3.178-1.372 38.413 38.413 0 0 1-2.016-.99c-1.56-.83-3.092-1.714-4.642-2.564-.125-.069-.28-.111-.337-.268-1.061-.647-2.138-1.27-3.18-1.946z" fill="#0A0E3A"/><path d="M50.064 25.612c.187-.366.529-.601.777-.917.164-.209.177-.298-.115-.344a38.85 38.85 0 0 0-2.313-.27 66.32 66.32 0 0 0-8.723-.275c-.382.014-.763.046-1.145.06-.085.003-.226.058-.24-.087-.014-.144.093-.216.235-.226.21-.014.418-.032.628-.043 1.96-.107 3.923-.183 5.882-.07 2.005.116 4.013.217 5.996.568.218.038.379-.002.525-.172.258-.298.526-.588.799-.872.18-.187.121-.264-.108-.294-1.111-.145-2.22-.307-3.334-.435-2.205-.253-4.41-.513-6.63-.567a59.933 59.933 0 0 0-6.03.15 90 90 0 0 0-3.752.39c-.226.027-.345.106-.439.312-.572 1.265-1.257 2.46-2.309 3.397-1.681 1.497-3.6 2.28-5.914 2.105-1.948-.148-3.775-.664-5.57-1.38a67.807 67.807 0 0 1-3.126-1.329c-.187-.085-.366-.16-.236-.435.117-.248.251-.275.496-.168 1.671.73 3.324 1.506 5.05 2.104.326.113.66.202.989.309.154.05.273.016.338-.13.085-.192-.096-.198-.194-.237-2.318-.917-4.547-2.031-6.802-3.087a74.177 74.177 0 0 0-4.17-1.818c-.113-.045-.22-.107-.33-.162.162-.215.46-.086.519-.029.388.384.93.423 1.381.654.815.417 1.703.696 2.513 1.122.955.502 1.944.93 2.917 1.39 1.16.549 2.314 1.121 3.525 1.567.238.088.53.12.703.358.204.28.143.456-.2.503-.31.042-.613-.032-.9-.138-.793-.293-1.59-.575-2.367-.904-.966-.409-1.914-.86-2.87-1.293-.13-.059-.283-.18-.378.02-.083.178.079.21.207.27 1.272.593 2.577 1.106 3.88 1.626 1.104.44 2.25.766 3.429.915 1.256.16 2.528.228 3.776-.068.462-.11.901-.326 1.324-.56.872-.482 1.67-1.063 2.354-1.788.762-.81 1.32-1.752 1.75-2.774.104-.248.23-.444.567-.495.8-.122 1.608-.174 2.408-.283 1.071-.145 2.149-.191 3.224-.268.81-.059 1.628-.016 2.442-.017.765 0 1.532-.035 2.295.01 1.125.065 2.25.134 3.371.27 1.034.126 2.077.177 3.107.321 1.018.143 2.048.207 3.054.43.36.08.426.222.192.499-.354.418-.683.868-1.181 1.14-.042.023-.106.048-.115.083-.156.637-.73.966-1.08 1.458-.07.006-.114-.013-.082-.096" fill="#F1CB00"/><path d="M50.064 25.612l.083.096c-.22.28-.22.28-1.311.59.108.116.331.066.35.277.015.186-.096.287-.2.41-.358.433-.707.873-1.06 1.31-.36.191-.738.11-1.113.075l-.146-.001c-.412-.034-.823.022-1.237.012-1.909-.044-3.818-.119-5.728-.092-.614.009-1.221.128-1.659.088 1.312-.116 2.804-.1 4.294-.076 1.23.02 2.461.06 3.692.105.126.005.245.024.345.108.212.073.432.07.654.077.299.008.413.232.234.468-.281.37-.547.76-.88 1.078-.313.301-.749.13-1.133.135-.12.002-.24-.037-.36-.058-.266-.1-.551.024-.817-.07l-.368-.003c-.416-.103-.846.025-1.262-.071l-.664-.003a8.681 8.681 0 0 0-1.778 0 28.383 28.383 0 0 0-4.082.47c-1.196.222-2.363.538-3.525.878a9.273 9.273 0 0 0-2.123.914c-.19.112-.194.183-.058.36.555.724 1.282 1.24 2.024 1.746.947.646 1.9 1.287 2.933 1.79.811.394 1.625.789 2.502 1.034.714.2 1.417.443 2.135.63.758.197 1.534.3 2.315.386.85.095 1.698.043 2.546.068.025.069.218-.002.133.159-.197-.007-.394-.024-.59-.02-4.053.065-7.722-1.143-11.102-3.316-1.09-.7-2.166-1.413-3.019-2.413-.235-.276-.218-.384.1-.557 1.27-.687 2.63-1.119 4.022-1.459 1.425-.348 2.862-.638 4.329-.762 2.036-.172 4.068-.082 6.1.054.442.03.885.066 1.327.104.171.015.308-.02.418-.17.241-.327.491-.648.749-.963.15-.183.139-.248-.115-.283-1.041-.143-2.09-.15-3.137-.186a97.298 97.298 0 0 0-7.663.06c-.109.006-.309.108-.319-.103-.01-.195.162-.241.341-.252 2.49-.151 4.982-.216 7.475-.138 1.269.04 2.538.1 3.807.157.175.008.309-.023.42-.167.333-.428.67-.852 1.012-1.273.131-.162.186-.264-.1-.294a53.666 53.666 0 0 0-2.839-.228c-2.898-.142-5.797-.18-8.698-.122-.095.002-.254.058-.248-.118.006-.163.135-.206.291-.209.988-.016 1.975-.047 2.962-.058 1.95-.023 3.9-.028 5.85.08.935.051 1.874.093 2.8.226.515.074.812-.13 1.09-.48" fill="#EEC700"/><path d="M44.8 38.502l-.133-.16c.34.002.378.223.192.399-.506.48-.965 1.016-1.542 1.415-.363.25-.743-.003-1.1-.066-.903-.16-1.802-.35-2.69-.58-.873-.226-1.73-.518-2.595-.777-.702-.21-1.435-.35-2.102-.64-.762-.333-1.54-.624-2.306-.944-.968-.404-1.942-.794-2.891-1.24-.903-.425-1.812-.835-2.696-1.306-1.15-.612-2.265-1.286-3.423-1.884-.465-.24-.896-.546-1.384-.748-.145-.06-.108-.14.006-.206.98.54 1.97 1.067 2.94 1.626 2.18 1.258 4.45 2.329 6.771 3.298 2.55 1.064 5.15 1.98 7.836 2.64 1.063.26 2.139.473 3.209.708.135.03.277.059.388-.044.496-.46.987-.925 1.477-1.39.025-.023.03-.067.043-.101" fill="#F1C900"/></g></g></svg>