<svg width="56" height="56" xmlns="http://www.w3.org/2000/svg" xmlns:xlink="http://www.w3.org/1999/xlink"><defs><rect id="a" width="56" height="56" rx="28"/></defs><g fill="none" fill-rule="evenodd"><mask id="b" fill="#fff"><use xlink:href="#a"/></mask><use fill="#FFF" xlink:href="#a"/><g mask="url(#b)"><path d="M-7-4h66c-.001 21.996.001 43.958-.006 65.954-76.925.1 11.802 0-65.124.034-.29-.034-.58-.267-.87-.567V-4z" fill="#EF1815"/><path d="M57 32.36c-1.545 1.506-3.08 3.023-4.56 4.598-1.732 1.845-3.387 3.758-4.818 5.866-.856 1.259-1.622 2.57-2.15 4.016-.05.135-.093.19-.258.143a56.434 56.434 0 0 0-2.07-.547c-.174-.042-.196-.095-.133-.26.427-1.12.99-2.163 1.615-3.174a34.032 34.032 0 0 1 3.975-5.23c.062-.067.144-.122.176-.236a4.92 4.92 0 0 1-1.68.267c-1.065-.023-1.985-.607-1.883-2.028.002-.025-.002-.051-.005-.109l-.742.436c-1.22.707-2.484 1.297-3.87 1.557-1.07.2-2.139.265-3.173-.186-.62-.27-1.124-.686-1.464-1.292-.077-.136-.136-.158-.279-.086-1.584.798-3.234 1.39-4.99 1.62-1.209.159-2.405.168-3.54-.389-.622-.305-1.133-.742-1.476-1.363-.09-.164-.164-.148-.299-.07-1.312.75-2.672 1.38-4.146 1.713-.853.192-1.715.3-2.583.093-1.07-.254-1.645-.929-1.759-2.085-.273.17-.53.336-.792.493-1.248.751-2.554 1.35-3.992 1.584-2.119.346-4.09-.095-5.903-1.258-.328-.21-.555-.216-.895-.036-1.954 1.032-4.041 1.48-6.23 1.393-.947-.037-1.856-.267-2.678-.78-.744-.463-1.24-1.11-1.363-2.023-.004-.024-.023-.046-.035-.069v-.746c.127-1.312.975-2.019 2.032-2.526.7-.337 1.449-.483 2.224-.535 2.296-.155 4.337.596 6.25 1.82.3.191.31.197.58-.036 1.477-1.28 2.717-2.79 3.917-4.337.011-.015.017-.03.014-.07-.355-.006-.712-.003-1.07-.003-1.717.003-3.376-.302-4.945-1.037-1.154-.541-2.116-1.327-2.772-2.467-.326-.565-.497-1.187-.561-1.84-.155-1.569.35-2.936 1.217-4.185.9-1.296 2.091-2.252 3.415-3.04a14.737 14.737 0 0 1 5.486-1.941c.374-.054.428-.03.596.333.221.48.448.96.65 1.45.109.264.074.324-.204.366-1.693.255-3.312.75-4.82 1.592-1.25.697-2.36 1.566-3.134 2.824-.43.698-.642 1.458-.532 2.284.099.738.49 1.318 1.032 1.791.896.782 1.965 1.154 3.1 1.361 1.384.253 2.772.242 4.162.044a.576.576 0 0 0 .42-.267c.627-.903 1.262-1.799 1.904-2.69 1.205-1.676 2.445-3.326 3.782-4.893 1.367-1.602 2.81-3.126 4.494-4.381.99-.737 2.04-1.355 3.237-1.675.276-.073.56-.055.836-.114h.878c.214.06.434.102.64.182.776.301 1.251 1.018 1.272 1.892.027 1.142-.32 2.182-.816 3.18-.856 1.72-2.056 3.161-3.413 4.476-2.304 2.234-4.879 4.035-7.842 5.212a18.2 18.2 0 0 1-3.136.95.557.557 0 0 0-.366.254c-1.263 1.8-2.584 3.55-4.12 5.115-.429.438-.87.862-1.338 1.253-.131.11-.146.158.02.247 1.127.604 2.307.968 3.593.85 1.057-.098 2.016-.498 2.926-1.04 1.52-.903 2.802-2.112 4.047-3.368.252-.254.503-.511.745-.776.098-.108.165-.14.293-.032.487.409.982.81 1.483 1.2.133.105.128.165.024.286-.45.526-.883 1.067-1.263 1.65-.264.404-.53.81-.616 1.304-.077.445.123.728.559.779.613.072 1.197-.086 1.769-.287 1.203-.42 2.31-1.046 3.393-1.721.08-.05.121-.106.128-.208.096-1.518.608-2.906 1.289-4.23 1.59-3.092 3.74-5.69 6.533-7.698.892-.642 1.852-1.158 2.931-1.389.563-.12 1.129-.154 1.684.036.788.27 1.172 1.009 1.032 1.934-.124.82-.447 1.56-.84 2.272-1.035 1.875-2.396 3.485-3.87 4.998a39.27 39.27 0 0 1-6.05 5.053c-.212.144-.204.249-.068.43.418.562 1.012.735 1.65.806 1.286.144 2.489-.225 3.68-.648.764-.27 1.499-.616 2.22-.993.109-.057.175-.12.19-.252.21-1.81.855-3.462 1.753-5.015 1.205-2.084 2.774-3.814 4.768-5.115.851-.555 1.767-.949 2.78-1.06.469-.05.93-.024 1.363.189.582.287.847.79.857 1.434.013.771-.227 1.482-.547 2.167-.635 1.36-1.545 2.514-2.553 3.591-1.683 1.798-3.604 3.293-5.627 4.654-.264.177-.266.18-.068.432.38.48.894.635 1.468.638.793.004 1.521-.266 2.23-.594 1.935-.894 3.617-2.178 5.184-3.634.427-.398.421-.404.884-.033.415.332.825.67 1.246.994.128.1.133.162.03.289-.408.504-.799 1.023-1.121 1.592-.14.246-.263.498-.313.782-.06.344.078.524.43.523.445-.002.867-.122 1.276-.295 1.183-.5 2.2-1.272 3.19-2.087a31.31 31.31 0 0 0 2.534-2.35c.144-.148.225-.132.372-.015.435.345.845.724 1.313 1.023v.533zm-41.37-7.275a14.086 14.086 0 0 0 2.15-.916c2.259-1.177 4.22-2.761 5.934-4.672.907-1.011 1.73-2.09 2.319-3.34.15-.32.264-.655.31-1.01.045-.359-.151-.566-.497-.524-.206.025-.401.092-.592.177-.524.235-.992.564-1.44.923-1.53 1.224-2.87 2.65-4.154 4.136-1.42 1.644-2.734 3.376-4.03 5.226zm12.016 6.854c.08-.06.13-.093.178-.13a46.325 46.325 0 0 0 4.823-4.416c1.006-1.061 1.972-2.158 2.777-3.393.265-.405.508-.825.637-1.3.096-.353-.052-.493-.394-.386-.283.087-.534.242-.778.408-.982.668-1.846 1.482-2.672 2.34-1.503 1.562-2.85 3.25-3.874 5.193a8.769 8.769 0 0 0-.697 1.684zm10.259.557c.108-.077.158-.11.206-.146a30.222 30.222 0 0 0 3.344-2.926c.946-.961 1.843-1.966 2.551-3.133.202-.332.38-.678.478-1.057.092-.357-.045-.491-.387-.395-.483.137-.885.43-1.267.747a17.465 17.465 0 0 0-4.123 5 8.834 8.834 0 0 0-.802 1.91zM3.68 34.635C2.273 33.722.82 33.167-.815 33.278c-.57.039-1.128.176-1.555.615-.406.417-.357.984.104 1.333.225.17.482.276.753.33 1.821.367 3.504-.103 5.194-.921z" fill="#FFF"/></g></g></svg>