<svg width="56" height="56" xmlns="http://www.w3.org/2000/svg" xmlns:xlink="http://www.w3.org/1999/xlink"><defs><rect id="a" width="56" height="56" rx="28"/></defs><g fill="none" fill-rule="evenodd"><use fill="#FFF" xlink:href="#a"/><rect stroke="#005DAA" stroke-width="2" x="1" y="1" width="54" height="54" rx="27"/><path d="M33.686 25.964l5.427.086-6.375 3.353.948-3.439zm-4.485-.806l5-4.723-1.072 4.723H29.2zm4.705 0L36.156 17l-7.736 8.158H-7.867s-.137-.002-.133.078c0 .056.055.077.133.077l35.61.558-4.461 4.706s-.083.076-.032.12c.037.03.083.01.129-.039l5.054-4.777 4.517.072-.856 3.79-19.131 10.145s-.11.048-.069.112c.032.042 19.012-9.441 19.012-9.441l-1.623 7.181s-.037.118.036.133c.06.012.087-.027.111-.088l2.07-7.514L43 25.158h-9.094z" stroke="#005DAA" stroke-width=".8" fill="#005DAA" stroke-linejoin="round"/></g></svg>