<?xml version="1.0" encoding="UTF-8"?>
<svg width="56px" height="56px" viewBox="0 0 56 56" version="1.1" xmlns="http://www.w3.org/2000/svg" xmlns:xlink="http://www.w3.org/1999/xlink">
    <!-- Generator: Sketch 52.4 (67378) - http://www.bohemiancoding.com/sketch -->
    <title>LUV</title>
    <desc>Created with Sketch.</desc>
    <defs>
        <rect id="path-1" x="0" y="0" width="34" height="34"></rect>
        <linearGradient x1="0.309312208%" y1="49.5477635%" x2="470.523297%" y2="49.5477635%" id="linearGradient-3">
            <stop stop-color="#3656CC" offset="0%"></stop>
            <stop stop-color="#304CB2" offset="35%"></stop>
            <stop stop-color="#283B80" offset="72%"></stop>
        </linearGradient>
        <linearGradient x1="9.0791185%" y1="5.22669687%" x2="391.341285%" y2="350.287616%" id="linearGradient-4">
            <stop stop-color="#E61C23" offset="30%"></stop>
            <stop stop-color="#C3161C" offset="80%"></stop>
        </linearGradient>
        <linearGradient x1="14.1017056%" y1="-9.14128%" x2="463.362956%" y2="410.736923%" id="linearGradient-5">
            <stop stop-color="#FDBC11" offset="0%"></stop>
            <stop stop-color="#FCB415" offset="25%"></stop>
            <stop stop-color="#F89E1C" offset="80%"></stop>
        </linearGradient>
    </defs>
    <g id="LUV" stroke="none" stroke-width="1" fill="none" fill-rule="evenodd">
        <path d="M55.5,28 C55.5,12.8122734 43.1878926,0.5 28.0001255,0.5 C12.8123091,0.5 0.5,12.8123227 0.5,28 C0.5,43.1880029 12.8121352,55.5 28.0001255,55.5 C43.187816,55.5 55.5,43.187802 55.5,28 Z" id="Fill-1" stroke="#E1E1E1" fill="#FFFFFF"></path>
        <g id="Group" transform="translate(11.000000, 11.000000)">
            <mask id="mask-2" fill="white">
                <use xlink:href="#path-1"></use>
            </mask>
            <use id="Rectangle-1" fill="#F7F9FA" xlink:href="#path-1"></use>
            <g id="g10" mask="url(#mask-2)">
                <g transform="translate(-6.906250, -11.156250)">
                    <path d="M39.9978532,0.0366275977 C35.3985594,0.0366275977 31.4891597,1.64638043 28.4996187,3.25613326 C25.5100778,1.64638043 21.8306427,0.0366275977 17.0013842,0.0366275977 C7.57283194,0.0366275977 1.59375,6.01570954 1.59375,16.5940853 C1.59375,29.2421432 13.7818786,41.6602365 28.4996187,51.7786828 C43.2173589,41.8902012 55.4054875,29.4721079 55.4054875,16.5940853 C55.4054875,6.01570954 49.1964408,0.0366275977 39.9978532,0.0366275977 L39.9978532,0.0366275977 Z" id="path12" fill="#E0E0E0"></path>
                    <path d="M0.216339111,48.6519165 C0.216339111,58.8224513 13.7376329,43.969165 22.8184676,50.3257493 C25.542718,48.5095824 33.5794684,50.580182 36.1221021,48.4007817 C23.9537837,38.2302469 7.01781528,24.7177955 3.02224802,21.448695 C3.02224802,22.1751618 2.84063132,23.0832453 2.84063132,24.1729454 L0.216339111,48.6519165 Z" id="path21" fill="url(#linearGradient-3)"></path>
                    <path d="M18.5548675,12.240644 C16.9203173,11.3325605 13.8328335,9.87962695 10.3821163,9.87962695 C7.11301584,9.87962695 6.33214874,10.9693271 4.33436511,12.9671107 C3.06304826,14.2384276 2.15496479,15.8729778 1.7917314,17.8707615 C6.33214874,21.139862 26.3012006,37.4765799 38.8327525,47.4654981 C43.0099364,43.4699308 46.4606536,38.9295135 48.0952038,34.2074795 C39.1959858,26.9428117 24.3666017,15.6913611 18.5548675,12.240644 Z" id="path28" fill="url(#linearGradient-4)"></path>
                    <path d="M35.268419,7.0838979 C31.8177018,7.0838979 18.4684514,7.25057711 16.4706678,8.34027728 C19.921385,10.3380609 36.5805361,22.3445158 44.3900539,28.15625 C44.5716706,27.4297832 44.3900539,25.5986788 44.3900539,24.872212 C44.5716706,21.2398782 45.0757204,11.2461444 43.0779368,9.24836074 C41.0801532,7.25057711 38.5375195,7.0838979 35.268419,7.0838979 Z" id="path37" fill="url(#linearGradient-5)"></path>
                </g>
            </g>
        </g>
    </g>
</svg>