<?xml version="1.0" encoding="UTF-8"?>
<svg width="56px" height="56px" viewBox="0 0 56 56" version="1.1" xmlns="http://www.w3.org/2000/svg" xmlns:xlink="http://www.w3.org/1999/xlink">
    <!-- Generator: Sketch 53.2 (72643) - https://sketchapp.com -->
    <title>LYFT</title>
    <desc>Created with Sketch.</desc>
    <g id="LYFT" stroke="none" stroke-width="1" fill="none" fill-rule="evenodd">
        <rect id="Rectangle-1" fill="#EA0B8C" x="0" y="0" width="56" height="56" rx="28"></rect>
        <g id="Lyft_logo" transform="translate(8.000000, 14.000000)" fill="#FFFFFF" fill-rule="nonzero">
            <path d="M0.149949749,0.671959799 L6.1921608,0.671959799 L6.1921608,16.8878392 C6.1921608,19.4540704 7.36603015,20.9827136 8.29427136,21.6379899 C7.31155779,22.5115578 4.30854271,23.2759799 2.06994975,21.4194975 C0.750150754,20.3252261 0.149949749,18.5258291 0.149949749,16.8331658 L0.149949749,0.671959799 Z M37.9113568,14.1421106 L37.9113568,12.4379899 L39.7541709,12.4379899 L39.7541709,6.45949749 L37.7304523,6.45949749 C36.9535678,2.87015075 33.7579899,0.180502513 29.9362814,0.180502513 C25.5336683,0.180502513 21.9648241,3.74954774 21.9648241,8.1519598 L21.9648241,22.1135678 C23.2190955,22.2898492 24.7133668,22.0916583 25.9847236,21.0373869 C27.3043216,19.9429146 27.9045226,18.1437186 27.9045226,16.4510553 L27.9045226,15.9366834 L30.9222111,15.9366834 L30.9222111,9.95819095 L27.9045226,9.95819095 L27.9045226,8.1519598 L27.9117588,8.1519598 C27.9117588,7.03396985 28.8180905,6.12763819 29.9362814,6.12763819 C31.0542714,6.12763819 31.9642211,7.03396985 31.9642211,8.1519598 L31.9642211,14.1421106 C31.9642211,18.5445226 35.5368844,22.1135678 39.9392965,22.1135678 L39.9392965,16.1664322 C38.8213065,16.1664322 37.9113568,15.2601005 37.9113568,14.1421106 Z M15.0273367,6.45949749 L15.0273367,15.2335678 C15.0273367,15.7316583 14.6140704,16.1354774 14.1041206,16.1354774 C13.5941709,16.1354774 13.1809045,15.7316583 13.1809045,15.2335678 L13.1809045,6.45949749 L7.20221106,6.45949749 L7.20221106,16.7786935 C7.20221106,18.6349749 7.83175879,20.9827136 10.6966834,21.7471357 C13.5646231,22.5123618 15.2283417,20.9282412 15.2283417,20.9282412 C15.0767839,21.9718593 14.0938693,22.7362814 12.5105528,22.9001005 C11.3125628,23.0239196 9.78050251,22.6271357 9.01628141,22.2994975 L9.01628141,27.7666332 C10.9636181,28.3409045 13.0233166,28.5264322 15.038995,28.1352764 C18.6970854,27.4255276 21.0058291,24.3680402 21.0058291,20.3003015 L21.0058291,6.45949749 L15.0273367,6.45949749 Z" id="logo_standard"></path>
        </g>
    </g>
</svg>