<?xml version="1.0" encoding="UTF-8"?>
<svg width="56px" height="56px" viewBox="0 0 56 56" version="1.1" xmlns="http://www.w3.org/2000/svg" xmlns:xlink="http://www.w3.org/1999/xlink">
    <!-- Generator: Sketch 52.4 (67378) - http://www.bohemiancoding.com/sketch -->
    <title>MA</title>
    <desc>Created with Sketch.</desc>
    <defs>
        <polygon id="path-1" points="4.4295302e-05 27.3154362 21.981145 27.3154362 21.981145 0.122284564 4.4295302e-05 0.122284564 4.4295302e-05 27.3154362"></polygon>
        <polygon id="path-3" points="0.0188993289 27.3154362 22 27.3154362 22 13.7188604 22 0.122284564 0.0188993289 0.122284564 0.0188993289 27.3154362"></polygon>
    </defs>
    <g id="MA" stroke="none" stroke-width="1" fill="none" fill-rule="evenodd">
        <rect id="Rectangle-1" stroke="#E1E1E1" fill="#FFFFFF" x="0.5" y="0.5" width="55" height="55" rx="27.5"></rect>
        <g id="Page-1" transform="translate(6.000000, 14.000000)">
            <polygon id="Fill-1" fill="#FF5F00" points="16.0514362 24.4325503 27.9484161 24.4325503 27.9484161 3.05578523 16.0514362 3.05578523"></polygon>
            <g id="Group-8" transform="translate(0.000000, 0.025396)">
                <g id="Group-4">
                    <mask id="mask-2" fill="white">
                        <use xlink:href="#path-1"></use>
                    </mask>
                    <g id="Clip-3"></g>
                    <path d="M16.8068631,13.7188752 C16.8068631,9.37557315 18.8463664,5.52321074 21.981145,3.03041879 C19.6771987,1.21755973 16.7690644,0.122284564 13.5966349,0.122284564 C6.0807557,0.122284564 4.4295302e-05,6.20299597 4.4295302e-05,13.7188752 C4.4295302e-05,21.2347544 6.0807557,27.3154658 13.5966349,27.3154658 C16.7690644,27.3154658 19.6771987,26.2201906 21.981145,24.4073315 C18.8463664,21.9523383 16.8068631,18.0621772 16.8068631,13.7188752" id="Fill-2" fill="#EB001B" mask="url(#mask-2)"></path>
                </g>
                <g id="Group-7" transform="translate(22.000000, 0.000000)">
                    <mask id="mask-4" fill="white">
                        <use xlink:href="#path-3"></use>
                    </mask>
                    <g id="Clip-6"></g>
                    <path d="M22,13.7188752 C22,21.2347544 15.9192886,27.3154658 8.4034094,27.3154658 C5.23083221,27.3154658 2.32269799,26.2201906 0.0188993289,24.4073315 C3.19147651,21.9145396 5.19318121,18.0621772 5.19318121,13.7188752 C5.19318121,9.37557315 3.15367785,5.52321074 0.0188993289,3.03041879 C2.32269799,1.21755973 5.23083221,0.122284564 8.4034094,0.122284564 C15.9192886,0.122284564 22,6.24079463 22,13.7188752" id="Fill-5" fill="#F79E1B" mask="url(#mask-4)"></path>
                </g>
            </g>
        </g>
    </g>
</svg>