<svg width="56" height="56" xmlns="http://www.w3.org/2000/svg" xmlns:xlink="http://www.w3.org/1999/xlink"><defs><path id="a" d="M41.779 40.067H0V0h41.779v40.067z"/></defs><g fill="none" fill-rule="evenodd"><rect fill="#0068A6" width="56" height="56" rx="28"/><g transform="translate(8 8)"><mask id="b" fill="#fff"><use xlink:href="#a"/></mask><path d="M41.779 18.6c0 .873-.21 1.367-.21 1.665 0 .294.112.578.112 1.042 0 .856-.523 1.636-1.454 1.636-.493 0-.916-.294-1.637-.294-.077 0-.189.009-.329.024a17.95 17.95 0 0 1-5.449 10.079c.186.157.383.244.588.279.85.143 1.086.199 1.322.204.159.003.316-.017.652-.049.475-.047 1.289-.21 1.637.773.326.917-.55 1.4-.896 1.565-.384.18-1.073.514-1.897.807-.824.293-1.3.263-1.58.362-.279.1-.633.356-1.073.511-.806.289-1.507.074-1.82-.804-.188-.531-.1-.652-.217-1.216-2.642 1.527-5.71 2.423-8.981 2.402l-.172-.001c.243.448.632.641.973.816.398.205 1.055.687 1.35.788.296.106.936.22 1.038.264.242.107.162.465-.075.478-.561.035-1.954.136-2.268.136-.803 0-1.172-.204-1.76-.204-.34 0-.45.101-.874.101-.552 0-.626-.35-.626-.552 0-.426.327-.91.282-1.737l-.012-.216c-7.737-.92-13.968-6.756-15.479-14.297C1.182 22.985 0 22.052 0 19.926c0-1.28.587-3.082 2.826-3.32A17.836 17.836 0 0 1 5.53 9.74c-1.544-1.588-.871-3.273.11-4.275.662-.676 1.538-1.2 2.44-1.2.904 0 1.665.524 1.96.721l.04.018a17.889 17.889 0 0 1 7.655-3.143C17.86.715 18.578 0 20.019 0c1.972 0 2.333 1.21 2.36 1.456.009.082.036.182.068.284C30.964 2.635 37.71 9.48 38.45 18.04c.12-.176.227-.35.323-.497.34-.509.325-.565.424-.973.098-.41.282-1.342 1.254-1.342.973 0 1.2.96 1.213 1.383.016.423.114 1.114.114 1.99zm-19.54 4.052l-.19-.382c-.272-.546-.463-.947-1.184-1.696-.04-.04-.131-.23-.104-1.092.015-.48.044-.95.07-1.367.03-.498.057-.928.057-1.286 0-.858-.055-1.134-.107-1.402-.055-.265-.11-.54-.11-1.516 0-.978-.058-1.428-.094-1.726a2.309 2.309 0 0 1-.029-.297c0-.398.041-.681.083-.98.042-.307.088-.622.088-1.06 0-1.201-.281-1.441-1.09-1.996l-.02-.014s-.304-.055-.393.073a.282.282 0 0 0 .074.392l.02.014c.695.476.844.578.844 1.53 0 .398-.04.683-.081.98-.044.307-.089.622-.089 1.06 0 .119.015.23.033.37.035.284.09.713.09 1.654 0 1.03.061 1.334.118 1.626.052.251.1.49.1 1.291 0 .341-.027.762-.058 1.25-.027.422-.055.898-.07 1.387-.028.868.043 1.275.262 1.5.442.458.663.764.837 1.07-.199-.104-.342-.025-.395.014-.247.187-.148.531.074 1.286.106.368.296 1.023.275 1.264-.2-.003-.528-.087-.702-.241-.169-.154-.463-.752-.682-1.387-.146-.429-.082-1.079-.082-1.085a.28.28 0 0 0-.25-.31.281.281 0 0 0-.31.251c-.003.032-.08.78.108 1.327.07.21.451 1.273.84 1.623.353.316.936.412 1.218.38a.445.445 0 0 0 .323-.199c.207-.312.057-.88-.198-1.78l-.118-.417.449.263a.282.282 0 0 0 .392-.372zM17.86 2.957a16.752 16.752 0 0 0-6.715 2.649c.768.564.713.992.713 1.151.565.674.565 1.22.565 1.22s0 .635-.345.917l.169.303c3.473.44 3.368.862 4.988 2.047a12.527 12.527 0 0 1-.178-2.12c0-1.95 1.458-3.08 1.458-4.26 0-.896-.421-1.355-.655-1.907zM6.452 6.227c-.867.935-.978 2.079 0 2.86 1.007.806 1.612.384 2.297 1.239 1.408 1.76-.31 2.807 3.485 5.192l1.594 1c.968.608 1.372.579 1.762.861.787.571.792.94 1.79 1.695v.015c.043-1.006.457-1.212.737-1.916l-.081-.044a6.751 6.751 0 0 1-1.35-1.122 9.963 9.963 0 0 0-.333-.332c-.07-.067-.349-.235-.55-.357-.378-.227-.767-.462-.993-.69-.132-.13-.273-.29-.44-.475-.469-.534-1.258-1.423-1.768-1.423-.415 0-.634.118-.65.128a.55.55 0 1 1-.52-.97c.067-.036.473-.259 1.17-.259 1.005 0 1.924 1.037 2.594 1.794.152.172.284.322.391.428.131.131.508.36.783.525.36.217.592.358.74.498.135.128.253.25.364.364.254.262.48.494.883.78a8.36 8.36 0 0 0 .018-.574c0-.613-.412-1.446-.777-2.665-.597-.261-1.222-.641-1.676-1.088-1.354-1.33-2.351-1.035-3.931-1.372-.779-.167-.687-.554-1.091-1.054-.092.108-.907.391-.907.391a.366.366 0 0 1-.482-.2.37.37 0 0 1 .203-.483c.167-.068 1.243-.511 1.506-.794.305-.327-.17-.68-.392-.91-.307-.32-.005-.441-.148-.574-.21-.196-.497-.025-.955-.45-.953-.885-2.058-1.327-3.273-.017zM6.4 10.422a16.8 16.8 0 0 0-2.41 5.951c.233-.082.27-.138.544-.138.488 0 .744.226.912.394.838.175 1.46.277 1.615 1.41l.314.081c1.868-1.245 2.602-1.804 4.062-1.804-3.513-2.582-2.666-4.168-3.484-5.192-.325-.408-.995-.438-1.553-.702zm-5.232 9.505c0 1.357.647 2.073 1.788 2.073 1.49 0 1.25-.687 2.613-.687 1.443 0 1.727 1.533 4.372 1.533 3.04 0 5.08-1.138 6.04-1.138.432 0 1.258.26 2.495.267-.234-.392-.74-.561-.975-1.515-1.882-1.105-1.746-1.589-2.706-2.282-.39-.283-.756-.323-1.764-.863l-1.466.114c-2.48.19-3.068 1.89-4.227 1.89-.398 0-.081-.112-.777-.112-.376 0-.822-.047-.822-.371 0-.164.165-.33.165-.716 0-.447-.588-.382-.908-.4-.442-.025-.303-.32-.498-.32-.288 0-.38.32-1.008.32-1.298 0-2.322.42-2.322 2.207zm16.445 12.358c0-1.863 1.014-2.395 1.014-5.229 0-.395-.216-.813-.216-2.301 0-.55.05-1.15.101-1.614-1.257 0-2.095-.266-2.532-.266-.96 0-3 1.138-6.039 1.138-2.515 0-3.531-1.533-4.372-1.533-.564 0-.997.33-1.548.537 1.423 6.945 7.114 12.336 14.213 13.31-.236-1.351-.621-3.226-.621-4.042zm2.935 4.198c3.163.04 6.123-.869 8.655-2.384-.537-1.479-2.023-2.63-2.606-4.21-1.148-3.103-.131-3.517-1.242-3.987-1.092-.462-1.818-.815-2.668-1.454-.405 1.471-1.112 3.14-1.112 3.898 0 .36-1.03 1.938-1.03 3.878 0 1.205-.372 2.46-.414 4.256l.417.003zm12.754-2.38c-1.204-.209-1.654-1.024-2.011-1.701-.36-.676-.847-2.52-1.262-3.838-.414-1.316-.414-1.675-.414-2.487 0-1.933-1.287-2.677-1.503-2.906-2.183-2.304-.934-1.886-5.255-4.381l-.002.078c-.018.677.113 2.765.113 3.968 0 .146-.012.301-.033.466.857.643 1.884 1.179 2.965 1.661 1.695.752.71 1.799 1.713 4.514.585 1.586 2.072 2.745 2.614 4.233.653 1.786.226 2.508.728 2.508.405 0 .644-.33 1.276-.52.95-.286.322.278 3.611-1.228.207-.095.207-.25-.092-.219-1.3.133-1.066.092-2.448-.149zM32.2 31.812a16.829 16.829 0 0 0 4.906-8.96c-1.38.238-3.27.598-4.043.598-1.768 0-2.826-.946-4.022-.946.565.537 1.638 1.75 1.638 3.316 0 .813 0 1.17.414 2.488.356 1.138.771 2.671 1.107 3.504zm5.066-12.929c.047 0 .092.022.137.016-.345-8.295-6.68-15.042-14.791-16.03.112.282.306.56.323.744.023.231-.206.127-.305.254-.056.072-.006.26-.018.35-.035.235-.118.394-.137.495-.038.201.063.544-.447.544-.534 0-1.412-.496-1.58-.627-.145-.112-.3-.13-.406.009-.097.127-.016.278.122.385.205.16.735.423 1.053.545-.111 1.14-.224.688-.224 1.047 0 .822 1.148 1.082 1.824 3.374.151.512.162 1.092.252 1.83.093.739.267 1.637.267 2.657 0 .678-.016 1.217-.042 1.672 2.512.183 2.967.332 5.523 1.29.225.084.582-.02 1.042.168.46.189.433.267 1.44.549 2.087.585.777.063 3.378.444 1.738.252 1.856.284 2.59.284zM23.18 17.76c1.534.63 3.07 1.804 4.876 3.517 2.163 0 3.698 1.086 4.874 1.086 1.172 0 4.511-.813 5.686-.813.63 0 1.442.27 1.712.27.272 0 .181-.632.181-1.264s.27-1.354.27-1.985c0-.633-.18-1.805-.18-1.986 0-.18-.179-.09-.27.18-.09.27-.903 3.159-2.888 3.159-1.985 0-3.339-.27-3.882-.36-.54-.091-1.642.134-2.797-.362-.632-.27-.813-.451-1.174-.54-.36-.091-.723 0-1.083-.181-.361-.181-3.159-1.264-5.326-1.264v.543z" fill="#FFF" mask="url(#b)"/></g></g></svg>