<?xml version="1.0" encoding="UTF-8"?>
<svg width="56px" height="56px" viewBox="0 0 56 56" version="1.1" xmlns="http://www.w3.org/2000/svg" xmlns:xlink="http://www.w3.org/1999/xlink">
    <!-- Generator: Sketch 54.1 (76490) - https://sketchapp.com -->
    <title>MercadoLibre Inc</title>
    <desc>Created with Sketch.</desc>
    <g id="MercadoLibre-Inc" stroke="none" stroke-width="1" fill="none" fill-rule="evenodd">
        <rect id="Rectangle-1" fill="#2E2F7C" x="0" y="0" width="56" height="56" rx="28"></rect>
        <g id="mercado-libre" transform="translate(0.500000, 10.000000)">
            <path d="M54.3117419,17.9778065 C54.3117419,8.30606452 42.2627097,0.388387097 27.3883871,0.388387097 C12.5122581,0.388387097 0.46683871,8.30606452 0.46683871,17.9778065 C0.46683871,18.2036129 0.46683871,18.9406452 0.46683871,18.9966452 C0.46683871,29.2898065 10.9858065,37.6049032 27.3883871,37.6049032 C43.8469677,37.6049032 54.3117419,29.2898065 54.3117419,18.9966452 C54.3117419,18.6552258 54.3117419,18.4854194 54.3117419,17.9778065" id="Fill-14" fill="#2E2F7C"></path>
            <path d="M53.3507097,17.9778065 C53.3507097,27.084129 41.7550968,34.4941935 27.5021935,34.4941935 C13.2492903,34.4941935 1.65367742,27.084129 1.65367742,17.9778065 C1.65367742,8.87148387 13.2492903,1.46322581 27.5021935,1.46322581 C41.7550968,1.46322581 53.3507097,8.87148387 53.3507097,17.9778065" id="Fill-15" fill="#F9E53C"></path>
            <path d="M18.9052903,12.7734194 C18.9052903,12.7734194 18.6216774,13.0588387 18.7914839,13.2828387 C19.1870968,13.7922581 20.4317419,14.075871 21.7323871,13.7922581 C22.4676129,13.6224516 23.4864516,12.8312258 24.3914839,12.0941935 C25.4085161,11.3047742 26.4273548,10.4557419 27.4461935,10.1739355 C28.5192258,9.83251613 29.1984516,10.0023226 29.651871,10.116129 C30.1612903,10.2859355 30.7267097,10.6255484 31.6877419,11.3047742 C33.44,12.6036129 40.5682581,18.8250323 41.8110968,19.9016774 C42.772129,19.4500645 47.1852903,17.584 53.1790968,16.2237419 C52.6714839,13.0588387 50.7476129,10.116129 47.8067097,7.74064516 C43.7349677,9.43870968 38.7021935,10.3437419 33.7814194,7.96645161 C33.7814194,7.96645161 31.1205161,6.7236129 28.4632258,6.7796129 C24.5612903,6.89341935 22.9210323,8.53367742 21.1109677,10.3437419 L18.9052903,12.7734194" id="Fill-16" fill="#FFFFFE"></path>
            <path d="M41.5292903,20.5809032 C41.4732903,20.5230968 33.1581935,13.2828387 31.292129,11.8701935 C30.2154839,11.0771613 29.5940645,10.8513548 28.9726452,10.7375484 C28.6330323,10.6815484 28.1814194,10.7375484 27.8418065,10.8513548 C26.9927742,11.0771613 25.804129,11.8701935 24.7870968,12.6614194 C23.7122581,13.5104516 22.7512258,14.3016774 21.8461935,14.4714839 C20.6575484,14.7532903 19.2430968,14.4154839 18.6216774,13.963871 C18.339871,13.7922581 18.1682581,13.5664516 18.0562581,13.3406452 C17.8286452,12.7734194 18.2820645,12.3218065 18.339871,12.264 L20.6015484,9.77651613 C20.8833548,9.49290323 21.1109677,9.26709677 21.3927742,8.98529032 C20.6575484,9.09729032 19.9783226,9.26709677 19.3009032,9.43870968 C18.4536774,9.66451613 17.6606452,9.89032258 16.8676129,9.89032258 C16.5298065,9.89032258 14.7197419,9.60851613 14.380129,9.49290323 C12.2882581,8.92929032 10.4781935,8.36206452 7.76309677,7.11741935 C4.53858065,9.55070968 2.33290323,12.5494194 1.70967742,15.884129 C2.16129032,15.9997419 2.95432258,16.2237419 3.23793548,16.2815484 C10.5901935,17.9218065 12.8536774,19.619871 13.3052903,19.9576774 C13.7587097,19.4500645 14.380129,19.1646452 15.1153548,19.1646452 C15.9065806,19.1646452 16.6436129,19.5620645 17.0952258,20.1834839 C17.4908387,19.843871 18.1122581,19.5620645 18.8474839,19.5620645 C19.1870968,19.5620645 19.5267097,19.619871 19.9223226,19.731871 C20.7713548,20.0136774 21.1687742,20.5809032 21.3927742,21.0885161 C21.6763871,20.9765161 22.016,20.8627097 22.4116129,20.8627097 C22.8072258,20.8627097 23.2028387,20.9765161 23.6562581,21.1445161 C25.0129032,21.7117419 25.2387097,23.0701935 25.1267097,24.0854194 C25.2387097,24.0854194 25.2965161,24.0854194 25.4085161,24.0854194 C27.0487742,24.0854194 28.3494194,25.387871 28.3494194,27.028129 C28.3494194,27.5357419 28.2356129,27.9891613 28.0116129,28.3847742 C28.4650323,28.6123871 29.5380645,29.176 30.5569032,29.064 C31.348129,28.952 31.6317419,28.7243871 31.7437419,28.5545806 C31.8015484,28.4425806 31.9135484,28.3287742 31.8015484,28.2131613 L29.707871,25.8954839 C29.707871,25.8954839 29.3682581,25.555871 29.4820645,25.443871 C29.5940645,25.331871 29.8216774,25.5016774 29.9914839,25.6136774 C31.0645161,26.5187097 32.3091613,27.8193548 32.3091613,27.8193548 C32.3091613,27.8193548 32.4229677,27.9891613 32.8745806,28.1029677 C33.272,28.1589677 34.0072258,28.1029677 34.5148387,27.7055484 C34.6286452,27.5917419 34.7984516,27.4797419 34.8544516,27.3677419 C35.363871,26.6885161 34.7984516,26.0092903 34.7984516,26.0092903 L32.3669677,23.2941935 C32.3669677,23.2941935 32.0255484,22.9545806 32.1411613,22.8425806 C32.2531613,22.7287742 32.4789677,22.8985806 32.6487742,23.0105806 C33.4418065,23.6338065 34.5148387,24.7646452 35.5336774,25.7834839 C35.7612903,25.9514839 36.6645161,26.5187097 37.8531613,25.7256774 C38.5883871,25.2180645 38.7581935,24.6508387 38.7021935,24.2010323 C38.6425806,23.6338065 38.1909677,23.1821935 38.1909677,23.1821935 L34.9104516,19.843871 C34.9104516,19.843871 34.5708387,19.5620645 34.6846452,19.3922581 C34.7966452,19.2784516 35.0224516,19.4500645 35.1922581,19.5620645 C36.2689032,20.4652903 39.096,23.0683871 39.096,23.0683871 C39.1538065,23.0683871 40.1148387,23.8036129 41.3594839,23.0105806 C41.8110968,22.7287742 42.0947097,22.3313548 42.0947097,21.8237419 C42.1507097,21.0885161 41.5292903,20.5809032 41.5292903,20.5809032" id="Fill-17" fill="#FFFFFE"></path>
            <path d="M25.5223226,24.8242581 C25.0129032,24.8242581 24.4474839,25.1042581 24.3914839,25.1042581 C24.3336774,25.1042581 24.3914839,24.8784516 24.4474839,24.7646452 C24.5034839,24.6544516 25.1827097,22.6167742 23.5424516,21.8815484 C22.2978065,21.3143226 21.5065806,21.9375484 21.2789677,22.2193548 C21.2247742,22.2753548 21.1687742,22.2753548 21.1687742,22.2193548 C21.1687742,21.8815484 20.9971613,20.8627097 19.8663226,20.5230968 C18.2820645,20.0136774 17.3210323,21.1445161 17.0374194,21.5419355 C16.9236129,20.6350968 16.1901935,19.9576774 15.2273548,19.9576774 C14.2085161,19.9576774 13.4172903,20.7489032 13.4172903,21.7677419 C13.4172903,22.7847742 14.2103226,23.5778065 15.2273548,23.5778065 C15.7385806,23.5778065 16.1323871,23.408 16.472,23.0683871 C16.472,23.0683871 16.472,23.0683871 16.472,23.1243871 C16.416,23.5778065 16.2461935,25.2180645 17.9424516,25.8394839 C18.6216774,26.1230968 19.1870968,25.8954839 19.6965161,25.555871 C19.8663226,25.443871 19.8663226,25.5016774 19.8663226,25.6136774 C19.8085161,26.0092903 19.8663226,26.9125161 21.1687742,27.4237419 C22.1298065,27.8193548 22.6934194,27.4237419 23.0348387,27.084129 C23.2028387,26.9125161 23.2588387,26.972129 23.2588387,27.1979355 C23.3166452,28.3847742 24.3336774,29.3458065 25.5223226,29.3458065 C26.7669677,29.3458065 27.784,28.3287742 27.784,27.084129 C27.784,25.8394839 26.7669677,24.8242581 25.5223226,24.8242581" id="Fill-18" fill="#FFFFFE"></path>
            <path d="M41.8670968,19.731871 C39.3218065,17.5243871 33.44,12.3796129 31.8015484,11.1909677 C30.8947097,10.5135484 30.2732903,10.116129 29.707871,10.0023226 C29.4820645,9.94632258 29.1424516,9.83251613 28.6890323,9.83251613 C28.2934194,9.83251613 27.8418065,9.89032258 27.3883871,10.0583226 C26.3713548,10.3979355 25.3525161,11.1909677 24.3336774,11.9821935 L24.2776774,12.04 C23.3726452,12.7734194 22.4116129,13.5104516 21.6763871,13.6784516 C21.3367742,13.7362581 21.0531613,13.7922581 20.7153548,13.7922581 C19.9223226,13.7922581 19.1870968,13.5664516 18.9052903,13.2268387 C18.8474839,13.1690323 18.9052903,13.0588387 19.0172903,12.9432258 L21.2789677,10.5135484 C23.0348387,8.75948387 24.6732903,7.11741935 28.5192258,7.00541935 C28.5770323,7.00541935 28.6330323,7.00541935 28.6890323,7.00541935 C31.0645161,7.00541935 33.4418065,8.08025806 33.7236129,8.19225806 C35.9870968,9.26709677 38.2469677,9.83251613 40.5682581,9.83251613 C42.9997419,9.83251613 45.4872258,9.21109677 48.0903226,8.02425806 C47.8067097,7.79664516 47.4670968,7.51303226 47.1852903,7.28722581 C44.8658065,8.30606452 42.716129,8.75948387 40.5682581,8.75948387 C38.4167742,8.75948387 36.2689032,8.25006452 34.1770323,7.23122581 C34.0632258,7.17522581 31.4619355,5.93058065 28.6890323,5.93058065 C28.6330323,5.93058065 28.5192258,5.93058065 28.4650323,5.93058065 C25.2387097,5.9883871 23.4286452,7.11741935 22.2418065,8.13625806 C21.0531613,8.13625806 20.036129,8.47406452 19.1310968,8.70167742 C18.339871,8.92929032 17.6046452,9.09729032 16.9236129,9.09729032 C16.6436129,9.09729032 16.1323871,9.09729032 16.0781935,9.09729032 C15.2851613,9.09729032 11.3254194,8.13625806 8.21470968,6.89341935 C7.87509677,7.11741935 7.59329032,7.34503226 7.25187097,7.57083871 C10.5341935,8.92929032 14.548129,9.94632258 15.7945806,10.0583226 C16.1323871,10.0583226 16.5298065,10.116129 16.9236129,10.116129 C17.7744516,10.116129 18.5656774,9.89032258 19.4147097,9.66451613 C19.9223226,9.54890323 20.4317419,9.37909677 20.9411613,9.26709677 C20.7713548,9.43870968 20.6575484,9.54890323 20.4877419,9.72051613 L18.2260645,12.2098065 C18.0562581,12.3796129 17.6606452,12.8872258 17.8882581,13.4526452 C17.9984516,13.6784516 18.2260645,13.9042581 18.5096774,14.1336774 C19.0732903,14.4714839 20.036129,14.7532903 20.9411613,14.7532903 C21.2789677,14.7532903 21.6185806,14.6972903 21.9021935,14.6412903 C22.8632258,14.4154839 23.8820645,13.6224516 24.8990968,12.7734194 C25.7499355,12.0941935 26.9367742,11.2487742 27.8418065,10.9651613 C28.1236129,10.9073548 28.4054194,10.8513548 28.6890323,10.8513548 C28.7468387,10.8513548 28.8588387,10.8513548 28.9166452,10.8513548 C29.5380645,10.9073548 30.1034839,11.1331613 31.1783226,11.9261935 C33.0443871,13.3406452 41.3594839,20.5809032 41.4172903,20.6350968 C41.4172903,20.6350968 41.9249032,21.0885161 41.9249032,21.8815484 C41.9249032,22.2753548 41.6412903,22.6727742 41.2456774,22.9545806 C40.9060645,23.1821935 40.5104516,23.2941935 40.1708387,23.2941935 C39.6072258,23.2941935 39.2116129,23.0105806 39.2116129,23.0105806 C39.2116129,23.0105806 36.3249032,20.4092903 35.307871,19.5042581 C35.1380645,19.3344516 34.9682581,19.2224516 34.7984516,19.2224516 C34.6846452,19.2224516 34.6286452,19.2784516 34.5708387,19.3344516 C34.4028387,19.5620645 34.5708387,19.843871 34.7984516,20.0136774 L38.1349677,23.352 C38.1349677,23.352 38.5305806,23.7476129 38.5883871,24.2552258 C38.5883871,24.8242581 38.3607742,25.2740645 37.7971613,25.6136774 C37.4015484,25.8954839 37.0023226,26.0092903 36.6085161,26.0092903 C36.0990968,26.0092903 35.7612903,25.7834839 35.6456774,25.7256774 L35.1380645,25.2740645 C34.2890323,24.4250323 33.3821935,23.5218065 32.7047742,23.0105806 C32.5367742,22.8985806 32.3669677,22.7287742 32.1971613,22.7287742 C32.1411613,22.7287742 32.0255484,22.7287742 31.9713548,22.8425806 C31.9135484,22.8985806 31.8557419,23.0683871 32.0255484,23.352 C32.0833548,23.464 32.1971613,23.5218065 32.1971613,23.5218065 L34.6286452,26.2332903 C34.6286452,26.2332903 35.1380645,26.8565161 34.6846452,27.3677419 L34.5708387,27.4797419 C34.5148387,27.5357419 34.4028387,27.6495484 34.3450323,27.7055484 C33.9512258,28.0451613 33.3821935,28.1029677 33.1581935,28.1029677 C33.0443871,28.1029677 32.9305806,28.1029677 32.8185806,28.1029677 C32.5927742,28.0451613 32.4229677,27.9891613 32.3091613,27.8753548 C32.1971613,27.7055484 30.9507097,26.5187097 29.9336774,25.6696774 C29.8216774,25.555871 29.651871,25.443871 29.4820645,25.443871 C29.4242581,25.443871 29.3122581,25.5016774 29.2562581,25.555871 C29.0864516,25.7834839 29.3682581,26.1230968 29.4820645,26.2332903 L31.572129,28.4967742 C31.572129,28.4967742 31.572129,28.5545806 31.5179355,28.6665806 C31.4619355,28.7821935 31.1783226,29.008 30.4430968,29.12 C30.3310968,29.12 30.2732903,29.12 30.1612903,29.12 C29.3682581,29.12 28.5770323,28.7243871 28.1236129,28.4967742 C28.2934194,28.1029677 28.4072258,27.6495484 28.4072258,27.1979355 C28.4072258,25.5016774 27.0487742,24.1414194 25.3525161,24.1414194 C25.2965161,24.1414194 25.2965161,24.1414194 25.2387097,24.1414194 C25.2965161,23.352 25.1827097,21.8815484 23.6562581,21.2583226 C23.2028387,21.0885161 22.8072258,20.9765161 22.3538065,20.9765161 C22.016,20.9765161 21.7323871,21.0307097 21.3927742,21.1445161 C21.0531613,20.5212903 20.5437419,20.0696774 19.8663226,19.843871 C19.4689032,19.731871 19.1310968,19.6740645 18.7336774,19.6740645 C18.1122581,19.6740645 17.5486452,19.843871 17.0374194,20.2394839 C16.5298065,19.619871 15.7945806,19.2784516 15.0015484,19.2784516 C14.3223226,19.2784516 13.6430968,19.5620645 13.1914839,20.0136774 C12.5700645,19.5042581 10.0265806,17.9218065 3.18012903,16.3375484 C2.84051613,16.2815484 2.10529032,16.0557419 1.65367742,15.884129 C1.59767742,16.2237419 1.53987097,16.6193548 1.48387097,17.0167742 C1.48387097,17.0167742 2.72851613,17.2985806 3.01032258,17.3563871 C9.96696774,18.8828387 12.2882581,20.5212903 12.6820645,20.8049032 C12.5700645,21.1445161 12.5122581,21.484129 12.5122581,21.8237419 C12.5122581,23.2941935 13.7009032,24.4250323 15.1153548,24.4250323 C15.2851613,24.4250323 15.4531613,24.4250323 15.6247742,24.3690323 C15.8505806,25.443871 16.5298065,26.2332903 17.6046452,26.6325161 C17.9424516,26.7445161 18.2260645,26.8023226 18.5096774,26.8023226 C18.6776774,26.8023226 18.9052903,26.8023226 19.1310968,26.7445161 C19.3009032,27.2539355 19.7525161,27.8753548 20.7713548,28.2709677 C21.1109677,28.4425806 21.4487742,28.4967742 21.7883871,28.4967742 C22.072,28.4967742 22.3538065,28.4425806 22.5814194,28.3287742 C23.0348387,29.4596129 24.163871,30.2526452 25.4085161,30.2526452 C26.2575484,30.2526452 27.0487742,29.9130323 27.6141935,29.2898065 C28.1236129,29.5716129 29.1424516,30.0810323 30.2172903,30.0810323 C30.3870968,30.0810323 30.4990968,30.0810323 30.6129032,30.0810323 C31.6877419,29.9690323 32.1411613,29.5156129 32.3669677,29.2338065 C32.4229677,29.176 32.4229677,29.12 32.4789677,29.064 C32.7047742,29.12 32.9883871,29.176 33.328,29.176 C33.8934194,29.176 34.4588387,29.008 35.0224516,28.5545806 C35.5914839,28.1589677 35.9870968,27.5917419 35.9870968,27.084129 C36.1550968,27.1419355 36.3809032,27.1419355 36.5507097,27.1419355 C37.116129,27.1419355 37.7393548,26.972129 38.3047742,26.5747097 C39.3796129,25.8954839 39.5494194,24.9344516 39.5494194,24.3690323 C39.7192258,24.4250323 39.9450323,24.4250323 40.1148387,24.4250323 C40.6802581,24.4250323 41.2456774,24.2552258 41.7550968,23.9174194 C42.4325161,23.464 42.8317419,22.8425806 42.8859355,22.1055484 C42.9419355,21.5979355 42.772129,21.0885161 42.5463226,20.6350968 C44.3563871,19.843871 48.4299355,18.3734194 53.2929032,17.2425806 C53.2929032,16.8469677 53.2369032,16.5073548 53.1230968,16.1117419 C47.2972903,17.3563871 42.9419355,19.2224516 41.8670968,19.731871 Z M25.5223226,29.176 C24.3914839,29.176 23.4864516,28.2709677 23.4286452,27.1419355 C23.4286452,27.028129 23.4286452,26.8023226 23.2028387,26.8023226 C23.0890323,26.8023226 23.0348387,26.8565161 22.9210323,26.9125161 C22.6934194,27.1419355 22.3538065,27.3677419 21.9021935,27.3677419 C21.6763871,27.3677419 21.4487742,27.3099355 21.2247742,27.1979355 C20.036129,26.6885161 19.9783226,25.8954839 20.036129,25.555871 C20.036129,25.443871 20.036129,25.387871 19.9783226,25.331871 L19.9223226,25.2740645 L19.8663226,25.2740645 C19.8085161,25.2740645 19.7525161,25.2740645 19.6387097,25.387871 C19.3009032,25.6136774 18.9612903,25.7256774 18.6216774,25.7256774 C18.4536774,25.7256774 18.2260645,25.6696774 18.0562581,25.6136774 C16.472,24.9922581 16.5858065,23.5218065 16.6996129,23.0701935 C16.6996129,22.9545806 16.6996129,22.8985806 16.6436129,22.8425806 L16.5298065,22.7287742 L16.416,22.8425806 C16.0781935,23.1243871 15.6807742,23.2941935 15.2851613,23.2941935 C14.380129,23.2941935 13.6430968,22.5607742 13.6430968,21.6539355 C13.6430968,20.7489032 14.380129,20.0136774 15.2851613,20.0136774 C16.0781935,20.0136774 16.8116129,20.6350968 16.9236129,21.428129 L16.9832258,21.8815484 L17.2072258,21.4859355 C17.2072258,21.428129 17.8882581,20.4092903 19.1310968,20.4652903 C19.3587097,20.4652903 19.5845161,20.5230968 19.8663226,20.5809032 C20.8273548,20.8627097 20.9971613,21.7677419 20.9971613,22.1055484 C20.9971613,22.3313548 21.1687742,22.3313548 21.1687742,22.3313548 C21.2247742,22.3313548 21.3367742,22.2753548 21.3367742,22.2193548 C21.5083871,22.0495484 21.9021935,21.7117419 22.5236129,21.7117419 C22.8072258,21.7117419 23.0890323,21.7677419 23.4286452,21.9375484 C24.9569032,22.6167742 24.2776774,24.5388387 24.2776774,24.5948387 C24.163871,24.9344516 24.107871,25.0464516 24.2776774,25.1620645 L24.3914839,25.1620645 C24.4474839,25.1620645 24.5612903,25.1620645 24.6732903,25.1042581 C24.8990968,25.0464516 25.1827097,24.9344516 25.4663226,24.9344516 C26.5971613,24.9344516 27.5581935,25.8954839 27.5581935,27.028129 C27.6141935,28.2709677 26.6549677,29.176 25.5223226,29.176 L25.5223226,29.176 Z" id="Fill-19" fill="#35336C"></path>
        </g>
    </g>
</svg>