<svg width="56" height="56" xmlns="http://www.w3.org/2000/svg" xmlns:xlink="http://www.w3.org/1999/xlink"><defs><rect id="a" width="56" height="56" rx="28"/><radialGradient cx="-652.996%" cy="-1147.865%" fx="-652.996%" fy="-1147.865%" r="100%" id="c"><stop stop-color="#B2B4B6" offset="0%"/><stop stop-color="#29292A" offset="100%"/></radialGradient><radialGradient cx="-140.598%" cy="-796.519%" fx="-140.598%" fy="-796.519%" r="21.547%" gradientTransform="matrix(.55556 0 0 1 -.625 0)" id="d"><stop stop-color="#B2B4B6" offset="0%"/><stop stop-color="#29292A" offset="100%"/></radialGradient></defs><g fill="none" fill-rule="evenodd"><mask id="b" fill="#fff"><use xlink:href="#a"/></mask><use fill="#FFF" xlink:href="#a"/><g mask="url(#b)" fill-rule="nonzero"><path d="M12.154 23.077c0 6.146.925 11.901 4.107 16.615v-4.059c0-5.098 4.112-8.763 8.354-10.99-4.242 1.311-8.883.396-12.461-1.566z" fill="#C5B278"/><path d="M15.77 16.939c-1.539 1.308-3.066 2.62-5 2.014 1.2.95 2.855 1.269 4.654 1.108 1.653 1.113 3.607-1.903 5.71-1.903 3.009-.473 6.914-.952 9.02 1.903l-1.055-2.218c-2.856-.158-5.258-1.272-7.663-2.698-.557-.261-1.08-.376-1.576-.376-1.536 0-2.816 1.085-4.09 2.17m1.008 1.538l-1.326 1.268h-1.356c-.3-.792 2.081-2.379 2.682-1.268" fill="#BAA566"/><path d="M8 8.3c1.331.386 2.673.74 4.064.93 2.74-1.422 3.476-3.998 2.357-7.42C12.867-.93 10.491-2.492 8-3.23V8.3z" fill="#B09B58"/><path d="M22.895 33.8c-5.082 9.927 2.055 23.63-5.203 32.2h11.37c.506-.457.996-.956 1.455-1.52 8.426-10.451-8.008-16.614-7.728-26.665.423-4.02 2.696-7.044 5.617-10.317l-.277-.267c-2.624 2.353-3.688 4.023-5.234 6.57" fill="#CEBB83"/><path d="M44.005-6C54.791 2.302 61.753 15.326 61.78 30.005 61.75 44.677 54.79 57.701 44 66h36V-6H44.005z" fill="#A8914B"/><path d="M8 66h6.268l1.538-1.254C24.349 53.568 14.156 45.732 8 36.923V66z" fill="#D3BF8A"/><path d="M8-6v1.208c1.717.27 3.374.765 4.835 1.46 3.382 2.1 6.092 5.597 5.822 9.794l7.715-.698c1.001-2.617 1.422-6.652.505-8.706C26.285-4.267 25.75-5.222 25.06-6H8z" fill="#AF9856"/><path d="M20.77 34.615c.068.047.13.092.204.133a.434.434 0 0 1-.205-.133" fill="url(#c)" transform="matrix(1 0 0 -1 8 64.615)"/><path d="M20.77 6.923c1.56-2.01 1.613-4.658 1.825-6.923 2.96 2.14 6.732 3.398 10.636 2.393-2.68 1.894-4.439 3.393-7.64 4.53H20.77z" fill="url(#d)" transform="matrix(1 0 0 -1 8 .923)"/><path d="M35.688 32.323c-2.288.67-4.442-.802-6.727-1.202 0-.313-.078-.628.073-.813-3.26 2.047-2.374 5.963-3.034 9.113.807 3.486 4.576 4.825 7.13 6.834 3.765.67 7.26-1.072 10.629-2.274.533.537 1.343 1.072.941 1.873-2.556 3.617-6.459 5.226-10.9 4.822 2.663 5.065.858 10.89-1.98 15.324h2.672c7.968-3.657 15.572-9.142 16.122-19.745.81-6.698.268-13.662-4.57-18.354-.317-.037-.655-.018-.995 0-.824.046-1.663.091-2.235-.67-2.15 2.011-4.978 2.816-7.126 5.092m1.344 0c1.392-1.496 5.359-4.44 6.7-3.326.338.28.51 1.25.426 2.145l-.67 1.608-.757-2.06c-1.883.398-3.653 1.085-4.592 2.963-.136.537.102 1.64-.437 2.044-1.21-.267-.536-2.303-.67-3.374m6.456 7.507c1.478 5.223-4.708 4.282-7.4 5.757-1.076-.804-.537-2.14-.674-3.211l.674-.67c.67 2 1.917 1.247 3.283.49.823-.456 1.692-.91 2.505-.76.938-.404.536-1.879 1.612-1.606" fill="#C1AB6F"/><path d="M36.915.945c-3.497.202-6.845 2.829-8.146 4.958 2.4 1.368 5.07 3.424 7.34 5.611-.134.822.399 1.917-.669 2.332-1.202-.958-2.264-3.426-3.738-2.605 1.205 2.605 4.406 2.878 6.94 3.564.934.958.668 2.599 2.671 1.914.934.273 1.33 1.37 1.6 2.329-1.067 2.01-3.38 1.826-5.514 1.643-1.067-.09-2.092-.182-2.89 0 1.999.822 4.271 1.095 6.14 2.327 1.867 1.231 2.397-1.644 3.2-2.6 3.199.82 1.467 4.244 2.802 6.16 6.807 7.26 5.472 19.995 2.004 28.345 9.34-8.76 8.595-28.282 6.408-36.148C52.921 11.097 46.399.923 37.583.923c-.221 0-.442.008-.668.022" fill="#AD9654"/><path d="M44-6A45.066 45.066 0 0 1 57.225 9.954c7.138 3.27 14.716 7.593 22.775 13.123V-6H44z" fill="#AE9754"/><path d="M28.77-6c1.562 2.01 1.613 4.66 1.825 6.923 2.958-2.138 6.727-3.396 10.636-2.391C38.549-3.363 36.793-4.865 33.593-6H28.77zM8-6v1.179c1.722.264 3.379.74 4.836 1.424 2.251 1.364 4.2 3.333 5.174 5.705a56.645 56.645 0 0 1 9.216-.213c.273-1.922.216-3.883-.35-5.113C26.287-4.31 25.75-5.24 25.059-6H8zM8 3.692a50.35 50.35 0 0 1 6.923-1.606 9.09 9.09 0 0 0-.237-.724C13.066-1.136 10.593-2.558 8-3.23v6.923z" fill="#A38B41"/><path d="M38.107.946c-1.858.104-3.673.886-5.184 1.921 5.648.829 11.64 2.448 18 4.98C47.744 3.873 43.601.922 38.803.922c-.232 0-.46.009-.696.023" fill="#A38B44"/><path d="M56.798 50.676A45.633 45.633 0 0 1 44 66h36V16.154c-5.358 12.79-12.636 26.282-23.202 34.522" fill="#C1AB71"/><path d="M8 66h6.272l1.538-1.272c2.456-3.264 3.358-6.245 3.26-9.05-3.51-1.214-7.194-2.836-11.07-4.909V66z" fill="#AC9552"/><path d="M20.77 34.615c.068.047.13.092.204.133a.434.434 0 0 1-.205-.133" fill="url(#c)" transform="matrix(1 0 0 -1 8 64.615)"/><path d="M39.846 15.506c.316.462.764.712 1.82.36.204.058.382.163.542.288-.235-.305-.526-.543-.908-.65-.714.237-1.146.193-1.454.002" fill="#D1BC8D"/><path d="M48.154 5.077c3.223 3.56 5.55 8.383 6.645 12.481 2.02 7.525 2.741 25.851-5.307 34.829-.142.39-.286.777-.435 1.151 8.86-8.633 8.153-27.874 6.078-35.627C54 13.675 51.551 8.667 48.154 5.077z" fill="#AC9A60"/><path d="M32.923 12.174c1.62 1.706 4.524 2.016 6.923 2.595a2.408 2.408 0 0 0-.299-.343c-.963-.236-2.003-.427-3.022-.676a1.54 1.54 0 0 1-.154.07c-.065-.048-.127-.1-.195-.153-1.218-.324-2.37-.756-3.253-1.493z" fill="#CDBD8F"/><path d="M25.12-6c.527.712.967 1.568 1.444 2.684.874 2.062.473 6.092-.48 8.714l-7.002.667c0 .134 0 .263-.005.397l7.344-.698c.953-2.617 1.354-6.652.48-8.706-.563-1.325-1.071-2.28-1.73-3.058h-.05z" fill="#B7A869"/><path d="M45.95 27.23c4.589 4.766 5.103 11.669 4.306 18.321-.558 10.793-8.277 16.374-16.366 20.093h-2.131c-.074.12-.144.24-.22.356h2.71c8.087-3.722 15.803-9.303 16.36-20.093.823-6.815.273-13.902-4.637-18.676h-.022z" fill="#B0A178"/><path d="M79.646-6v71.646H44.451c-.151.119-.294.238-.451.354h36V-6h-.354z" fill="#9B883C"/><path d="M14.097.974c1.118 3.014.379 5.286-2.358 6.544-1.28-.153-2.514-.433-3.739-.742v.248c1.331.341 2.673.654 4.064.822C14.804 6.591 15.54 4.32 14.42 1.3a9.567 9.567 0 0 0-1.465-1.762c.414.434.798.905 1.14 1.436" fill="#A29352"/><path d="M20.342 17.876c-1.943 0-3.756 2.641-5.3 1.898h-1.08c-.008-.019-.008-.044-.008-.06-1.017-.01-1.956-.196-2.765-.59a3.025 3.025 0 0 1-.42-.102c1.153.902 2.742 1.204 4.468 1.052 1.586 1.056 3.462-1.806 5.48-1.806 2.624-.408 5.953-.811 8.052 1.147-1.257-1.465-3.08-1.877-4.943-1.877-1.189 0-2.4.17-3.484.338" fill="#C1B576"/><path d="M41.8 22.514c-1.718-.91-3.763-1.206-5.661-1.726-.155.012-.306.03-.447.056 2.11.698 4.508.93 6.48 1.977 1.971 1.046 2.53-1.397 3.378-2.21.526.11.913.277 1.22.476-.33-.343-.818-.62-1.588-.78-.848.815-1.41 3.258-3.381 2.207" fill="#AB9C6B"/><path d="M30.154.434l.05.49c3.068-1.933 6.98-3.069 11.027-2.162l-.53-.328a13.024 13.024 0 0 0-2.71-.28c-2.868 0-5.568.918-7.837 2.28" fill="#C5AE7C"/><path d="M13.565 18.923h.443c.293-.617 1.479-1.335 2.22-1.16l.073-.064c-.15-.263-.41-.371-.71-.371-.93 0-2.256 1.02-2.026 1.595" fill="#D0C395"/></g></g></svg>