<svg width="56" height="56" xmlns="http://www.w3.org/2000/svg"><g fill="none" fill-rule="evenodd"><rect fill="#EE1B2D" width="56" height="56" rx="28"/><path d="M39.136 17.486l-3.016 12.27-3.025-12.27H24.36v4.53c-1.061-3.964-4.956-4.958-8.436-5.015-4.242-.055-8.944 1.783-9.107 7.393h5.869c0-1.693 1.55-2.663 3.015-2.638 1.798-.015 2.625.752 2.666 1.947-.062 1.037-.673 1.758-2.651 1.758H13.74v4.072h1.791c1.018 0 2.435.554 2.49 2.003.068 1.728-1.133 2.487-2.611 2.502-2.64-.098-3.32-2.126-3.32-3.87H6c.026 1.175-.013 8.83 9.533 8.774 4.574.042 7.902-1.88 8.84-4.531v4.062h5.875V25.236l3.249 13.237h5.249l3.26-13.222v13.234H48V17.486h-8.864zm-14.758 12.24c-.748-1.547-1.801-2.224-2.394-2.438 1.244-.553 1.895-1.303 2.394-2.799v5.238z" fill="#FFF"/></g></svg>