<svg width="56" height="56" xmlns="http://www.w3.org/2000/svg"><g fill="none" fill-rule="evenodd"><circle fill="#FFF" cx="28" cy="28" r="28"/><path d="M11.199 5.599v5.6h-5.6a28.164 28.164 0 0 1 5.6-5.6z" fill="#004F7F"/><path d="M5.599 11.199h5.6v11.198H.56A27.87 27.87 0 0 1 5.599 11.2z" fill="#0084C3"/><path d="M.56 22.397H11.2v11.2H.559A28.129 28.129 0 0 1 0 28c0-1.919.193-3.792.56-5.603z" fill="#76CCCD"/><path d="M.56 33.596h10.639v11.199H5.594A27.87 27.87 0 0 1 .56 33.596z" fill="#75C043"/><path d="M5.594 44.795H11.2V50.4a28.164 28.164 0 0 1-5.605-5.606z" fill="#00AA4F"/><path d="M11.199 50.401v-5.606h11.198v10.644A27.87 27.87 0 0 1 11.2 50.401z" fill="#75C043"/><path d="M22.397 55.44V44.794h11.2V55.44a28.086 28.086 0 0 1-4.994.553h-1.206a28.086 28.086 0 0 1-5-.555z" fill="#C4D92D"/><path d="M33.596 55.44V44.796h11.199v5.61a27.87 27.87 0 0 1-11.199 5.036z" fill="#D7A96F"/><path d="M44.795 50.406v-5.611h5.61a28.164 28.164 0 0 1-5.61 5.61z" fill="#EEE1C5"/><path fill="#C4D92D" d="M11.199 44.795h11.198V33.596H11.2z"/><path fill="#EEE1C5" d="M22.397 44.795h11.2V33.596h-11.2z"/><path fill="#E2C197" d="M33.596 44.795h11.199V33.596H33.596z"/><path d="M55.44 33.596H44.796v11.199h5.61a27.87 27.87 0 0 0 5.036-11.199z" fill="#D7A96F"/><path fill="#00B3C2" d="M11.199 33.596h11.198V22.397H11.2z"/><path fill="#E2C197" d="M22.397 33.596h11.2V22.397h-11.2z"/><path fill="#DF9D88" d="M33.596 33.596h11.199V22.397H33.596z"/><path d="M55.44 22.397H44.794v11.2H55.44c.328-1.619.517-3.288.553-4.994v-1.206a28.086 28.086 0 0 0-.555-5z" fill="#ED1C24"/><path fill="#68C3EE" d="M11.199 22.397h11.198V11.2H11.2z"/><path fill="#F58020" d="M22.397 22.397h11.2V11.2h-11.2z"/><path fill="#ED1C24" d="M33.596 22.397h11.199V11.2H33.596z"/><path d="M50.401 11.199h-5.606v11.198h10.644A27.87 27.87 0 0 0 50.401 11.2z" fill="#C3262D"/><path d="M11.199 5.599v5.6h11.198V.56A27.87 27.87 0 0 0 11.2 5.599z" fill="#0084C3"/><path d="M22.397.56V11.2h11.2V.559A28.129 28.129 0 0 0 28 0c-1.919 0-3.792.193-5.603.56z" fill="#FAA61A"/><path d="M33.596.56v10.639h11.199V5.594A27.87 27.87 0 0 0 33.596.56z" fill="#C3262D"/><path d="M44.795 5.594V11.2H50.4a28.164 28.164 0 0 0-5.606-5.605z" fill="#8E181B"/></g></svg>