<?xml version="1.0" encoding="UTF-8" standalone="no"?>
<svg width="56px" height="56px" viewBox="0 0 56 56" version="1.1" xmlns="http://www.w3.org/2000/svg" xmlns:xlink="http://www.w3.org/1999/xlink">
    <!-- Generator: Sketch 50.2 (55047) - http://www.bohemiancoding.com/sketch -->
    <title>MRCG</title>
    <desc>Created with Sketch.</desc>
    <defs>
        <circle id="path-1" cx="28" cy="28" r="28"></circle>
    </defs>
    <g id="MRCG" stroke="none" stroke-width="1" fill="none" fill-rule="evenodd">
        <g id="Group">
            <mask id="mask-2" fill="white">
                <use xlink:href="#path-1"></use>
            </mask>
            <use id="Oval-9" fill="#581C96" xlink:href="#path-1"></use>
            <path d="M48.125,21.4178706 C48.125,19.7597268 46.8384312,18.375 45.25058,18.375 L42.2621644,18.375 C42.1400204,18.375 42.0178764,18.4367392 41.8957347,18.5072993 L35.8456147,24.663598 C33.8343372,26.7803737 31.0250575,27.900507 27.9715016,27.900507 C24.7876555,27.900507 21.9213792,26.6480795 19.8449567,24.3989995 C19.8449567,24.3989995 15.4478306,19.8920261 15.3826902,19.8302869 C14.5276891,18.9659337 13.3714085,18.375 12.0278414,18.375 L8.42057014,18.375 C8.11928826,18.375 7.875,18.6395985 7.875,18.9659337 L7.875,36.1735815 C7.875,37.8934619 9.15342581,39.2164495 10.6842785,39.2164495 L11.7835575,39.2164495 L12.5734113,39.2164495 C12.8828411,39.2164495 13.1271247,38.951851 13.1271247,38.6166974 L13.1271247,32.5309587 C13.1271247,30.8816309 14.3485484,29.5586483 15.7491176,29.5586483 C18.5013889,29.5586483 20.3905271,32.0723243 22.1656626,33.7922047 C24.2990841,35.8384228 25.9520757,37.8229017 27.9715016,37.8229017 C30.0479194,37.8229017 31.6927719,35.8384228 33.8343372,33.7922047 C35.601329,32.0723243 37.4986062,29.5586483 40.1857395,29.5586483 C41.6514466,29.5586483 42.8728751,30.8816309 42.8728751,32.4692196 L42.8728751,36.1735815 C42.8728751,37.8934619 44.1512956,39.2164495 45.6821501,39.2164495 L46.9035715,39.2164495 C47.2699989,39.2164495 47.5712859,39.2164495 47.5712859,39.2164495 C47.880712,39.2164495 48.125,38.951851 48.125,38.6166974 L48.125,21.4178706 Z" id="path4274" fill="#84DAD4" fill-rule="nonzero" mask="url(#mask-2)"></path>
        </g>
    </g>
</svg>