<svg width="56" height="56" xmlns="http://www.w3.org/2000/svg"><g fill="none" fill-rule="evenodd"><rect fill="#0077C8" width="56" height="56" rx="28"/><path d="M35.56 30.58a47.869 47.869 0 0 0 4.422-4.002v8.848h-4.424l.001-4.846zm4.422-4.002a48.066 48.066 0 0 1-4.423 4.002 58.206 58.206 0 0 1-3.04 2.273c-1.247.87-3.072 2.131-4.302 2.877-.066.04-.129.076-.192.115-.28.172-.544.312-.76.405-.357.153-.395-.091-.197-.245.202-.158.46-.335.749-.524.071-.046.145-.09.219-.137 1.093-.656 2.773-1.838 3.862-2.645 8.154-6.05 12.864-14.227 10.564-16.722-1.509-1.638-5.37-1.217-10.318 1.13-.31.152-.585.258-.827.345-.235.086-.421-.075-.102-.297a6.04 6.04 0 0 1 .75-.43c6.602-3.49 11.696-4.44 13.335-2.092 1.57 2.248-.447 6.92-5.318 11.945z" fill="#FFF"/><path d="M18.267 41.737h4.424v-4.584a66.948 66.948 0 0 0 3.637-2.319c.27-.186.51-.371.684-.53.286-.261.079-.396-.142-.28-.228.12-.497.282-.788.467-6.833 4.37-11.446 5.705-13.15 3.392-1.48-2.008.946-5.89 5.335-10.274v10.176c1.246-.423 2.717-1.098 4.423-2.046V26.3l.972 2.07c1.067 2.287 3.002 3.654 5.463 3.654 2.46 0 4.395-1.367 5.462-3.654l.973-2.07-.001 2.408c1.583-1.535 2.934-3.067 3.96-4.55.127-.183.115-.338.046-.507a4.23 4.23 0 0 0-3.82-2.404 4.26 4.26 0 0 0-3.813 2.367l-1.85 3.927a1.04 1.04 0 0 1-.957.595c-.412 0-.766-.213-.957-.595l-1.851-3.927a4.271 4.271 0 0 0-1.573-1.728c1.353-1.075 2.67-2.034 3.965-2.82.295-.18.536-.358.74-.514.2-.153.162-.397-.195-.247-.216.09-.497.229-.778.4-1.324.802-2.677 1.623-3.971 2.507-.157.106-.312.214-.467.321a4.233 4.233 0 0 0-5.77 3.952v.584c-6.25 5.572-9.53 11.09-7.816 13.546 1.259 1.801 4.243 1.385 7.815-.167v2.29" fill="#FFF"/></g></svg>