<svg width="56" height="56" xmlns="http://www.w3.org/2000/svg" xmlns:xlink="http://www.w3.org/1999/xlink"><defs><rect id="a" width="56" height="56" rx="28"/></defs><g fill="none" fill-rule="evenodd"><mask id="b" fill="#fff"><use xlink:href="#a"/></mask><use fill="#FFF" xlink:href="#a"/><g mask="url(#b)" fill="#0397D6"><path d="M28.86 56.72c15.938 0 28.86-12.922 28.86-28.86 0-2.03-1.432-5.45-2.54-4.332-9.398 9.49-33.664 19.136-33.232 19.136 3.485 0-6.348-2.863-9.526-6.32-3.603-3.921-11.032.436-10.73 1.275 4 11.136 14.654 19.1 27.168 19.1z"/><path d="M35.053 2.198s.89 2.442 1 5.77l-14.76 17.197L41.708 9.743l1 4.77S27.175 32.155 23.404 37.148c0 0 19.8-16.387 30.864-23.004C49.387 5.124 39.847-1 28.871-1 12.927-1 0 11.927 0 27.872c0 .44.047.87.068 1.308C6.48 23.623 23.758 8.96 35.053 2.198M57.738 28.565a28.88 28.88 0 0 0-1.216-8.266c-6.664 3.54-22.495 12.307-33.858 21.467a365.182 365.182 0 0 1 28.534 5.096 28.728 28.728 0 0 0 6.54-18.297"/><path d="M35.608 18.65s-16.312 12.649-18.53 14.758l-2.222-4.107s11.21-13.98 14.87-17.641c0 0-19.957 14.207-29.12 22.79a28.85 28.85 0 0 0 1.564 5.084c4.918.389 9.892.897 14.925 1.509.353-.425 16.535-19.868 18.513-22.393"/></g></g></svg>