<svg width="56" height="56" xmlns="http://www.w3.org/2000/svg"><defs><linearGradient x1="50%" y1="0%" x2="50%" y2="100%" id="a"><stop stop-color="#474B53" offset="0%"/><stop stop-color="#222224" offset="100%"/></linearGradient></defs><g fill="none" fill-rule="evenodd"><rect fill="url(#a)" width="56" height="56" rx="28"/><path d="M12.412 35.25c-1.192-.047-2.167-.373-2.93-.98a5.851 5.851 0 0 1-.608-.608 3.803 3.803 0 0 1-.66-1.187c-.43-1.292-.209-2.988.636-4.85.723-1.592 1.839-3.173 3.785-5.361.287-.322 1.14-1.264 1.146-1.264.002 0-.044.08-.103.179-.506.848-.939 1.846-1.175 2.71-.379 1.388-.333 2.578.134 3.501a3.42 3.42 0 0 0 1.496 1.491c1.087.533 2.68.577 4.624.13.134-.032 6.768-1.793 14.742-3.914C41.473 22.975 48 21.24 48 21.242c.002.002-18.527 7.93-28.145 12.044-1.523.651-1.93.816-2.647 1.067-1.83.643-3.47.95-4.796.897z" fill="#FFF"/></g></svg>