<svg width="56" height="56" xmlns="http://www.w3.org/2000/svg"><g fill="none" fill-rule="evenodd"><rect fill="#77B900" width="56" height="56" rx="28"/><path d="M20.924 22.898v-2.391c.233-.017.467-.03.706-.037 6.539-.205 10.829 5.62 10.829 5.62s-4.634 6.435-9.602 6.435a6.018 6.018 0 0 1-1.933-.31v-7.25c2.546.308 3.058 1.433 4.589 3.984l3.403-2.87s-2.484-3.259-6.673-3.259c-.455 0-.89.032-1.319.078zm0-7.898v3.57c.235-.017.47-.033.706-.04 9.093-.307 15.018 7.457 15.018 7.457s-6.805 8.275-13.894 8.275c-.65 0-1.258-.06-1.83-.162v2.208c.489.062.996.099 1.524.099 6.597 0 11.368-3.37 15.988-7.357.766.613 3.902 2.105 4.546 2.759-4.392 3.677-14.63 6.642-20.433 6.642-.56 0-1.096-.034-1.625-.085v3.102H46V15H20.924zm0 17.216V34.1c-6.101-1.088-7.795-7.43-7.795-7.43s2.93-3.246 7.795-3.772v2.068l-.009-.001c-2.554-.307-4.549 2.079-4.549 2.079s1.118 4.016 4.558 5.172zm-10.837-5.821s3.616-5.336 10.837-5.889v-1.935C12.926 19.213 6 25.987 6 25.987s3.923 11.34 14.924 12.379v-2.058c-8.073-1.016-10.837-9.913-10.837-9.913z" fill="#F7F9FA"/></g></svg>