<svg width="56" height="56" xmlns="http://www.w3.org/2000/svg"><g fill="none" fill-rule="evenodd"><rect fill="#000" width="56" height="56" rx="28"/><path d="M27.924 39.87c.28-.018.56-.047.84-.052.67-.013 1.325-.126 1.979-.269a12.86 12.86 0 0 0 3.259-1.192c.566-.298 1.11-.648 1.632-1.02.5-.355.982-.745 1.432-1.163.397-.37.755-.784 1.101-1.203.323-.39.623-.802.901-1.224.203-.307.36-.645.527-.973.148-.29.306-.577.417-.881.191-.53.371-1.065.516-1.609.115-.43.176-.874.248-1.314.034-.206.039-.417.053-.625.019-.27.05-.542.045-.812-.004-.313-.034-.626-.063-.939-.033-.361-.043-.73-.124-1.081a32.228 32.228 0 0 0-.53-1.988c-.298-1.002-.796-1.912-1.369-2.78-.266-.404-.602-.762-.878-1.16-.417-.6-.959-1.077-1.497-1.55-.611-.539-1.276-1.017-2.012-1.38-.56-.276-1.12-.557-1.7-.788-.48-.19-.984-.333-1.487-.456-.463-.113-.938-.179-1.41-.25-.226-.033-.458-.031-.687-.042-.37-.017-.74-.048-1.109-.04-.47.009-.941.036-1.409.083-.447.045-.896.102-1.335.196-.469.1-.931.238-1.389.384-.376.12-.747.258-1.108.418-.359.16-.702.354-1.05.537-.295.155-.605.289-.874.479-.443.313-.861.66-1.285 1-.153.123-.295.262-.438.397-.276.261-.572.505-.818.792-.35.41-.674.842-.987 1.28-.386.544-.74 1.112-.998 1.727a30.352 30.352 0 0 0-.726 1.91c-.115.336-.161.695-.243 1.042-.153.65-.197 1.313-.223 1.975-.017.448.005.899.039 1.346.025.332.074.667.155.99.176.698.358 1.396.578 2.081.22.687.556 1.326.923 1.946.192.324.395.645.626.942.295.38.615.742.939 1.1.283.312.567.626.883.903.325.284.683.532 1.037.781.39.276.772.572 1.194.79.607.317 1.241.585 1.874.848.69.288 1.414.464 2.15.606a14.22 14.22 0 0 0 2.401.238zM29.528 12c.02.013.038.035.058.037.497.053.998.083 1.49.162a17.59 17.59 0 0 1 1.751.361c.738.199 1.472.419 2.188.683.568.21 1.11.492 1.656.756.332.16.657.336.976.522.238.139.463.3.69.458.247.173.492.35.73.535.24.187.476.378.699.584.367.338.747.668 1.074 1.042.51.585 1.015 1.18 1.462 1.813.57.808 1.056 1.673 1.44 2.586.228.547.398 1.118.581 1.683.138.427.273.857.374 1.294.082.355.125.72.16 1.082.06.637.132 1.276.142 1.914.009.544-.046 1.09-.102 1.633a22.8 22.8 0 0 1-.235 1.684 8.536 8.536 0 0 1-.288 1.089c-.147.458-.298.918-.486 1.361-.245.576-.5 1.15-.802 1.697-.28.504-.618.977-.951 1.448a8.81 8.81 0 0 1-.701.86c-.372.405-.751.805-1.15 1.185-.31.296-.64.577-.987.83-.6.436-1.219.846-1.832 1.261-.082.056-.186.078-.274.123-.273.14-.54.291-.816.426-.26.127-.524.245-.79.358-.358.152-.713.315-1.082.436-.547.181-1.101.341-1.658.489-.437.115-.88.207-1.323.293-.247.049-.5.065-.751.095-.376.046-.752.098-1.13.133-.216.021-.436.014-.655.022-.287.011-.574.03-.861.037-.266.006-.533.003-.799-.003-.23-.006-.46-.015-.688-.036a40.283 40.283 0 0 1-1.132-.121c-.25-.03-.5-.064-.748-.11a16.641 16.641 0 0 1-.995-.204c-.63-.156-1.262-.31-1.883-.495-.37-.11-.724-.278-1.084-.422-.25-.1-.501-.195-.746-.306-.263-.12-.52-.252-.777-.384-.49-.251-.989-.49-1.436-.815-.427-.31-.833-.654-1.273-.945-.482-.32-.862-.748-1.282-1.133a11.63 11.63 0 0 1-1.194-1.31 13.167 13.167 0 0 1-1.516-2.328 14.802 14.802 0 0 1-1.199-3.28c-.09-.384-.145-.776-.222-1.164-.123-.62-.152-1.247-.151-1.875.001-.557.039-1.115.032-1.672-.008-.66.168-1.294.243-1.942.032-.27.13-.535.21-.799.167-.55.322-1.107.524-1.646.151-.403.367-.783.557-1.172.111-.23.216-.463.344-.683.213-.369.426-.74.67-1.088.26-.373.552-.723.834-1.08.192-.246.38-.496.587-.728.15-.168.33-.309.492-.465.108-.104.206-.22.317-.321.248-.224.492-.453.754-.659.446-.348.898-.69 1.36-1.016.246-.173.523-.3.78-.46.706-.438 1.479-.737 2.234-1.07.331-.147.684-.249 1.033-.347.597-.169 1.195-.338 1.8-.472.52-.115 1.052-.188 1.58-.264.376-.054.755-.082 1.132-.123.015-.001.027-.022.04-.034h3.005z" fill="#FFF"/></g></svg>