<?xml version="1.0" encoding="UTF-8"?>
<svg width="56px" height="56px" viewBox="0 0 56 56" version="1.1" xmlns="http://www.w3.org/2000/svg" xmlns:xlink="http://www.w3.org/1999/xlink">
    <title>PENN</title>
    <defs>
        <circle id="path-1" cx="28" cy="28" r="28"></circle>
    </defs>
    <g id="PENN" stroke="none" stroke-width="1" fill="none" fill-rule="evenodd">
        <g id="Group">
            <mask id="mask-2" fill="white">
                <use xlink:href="#path-1"></use>
            </mask>
            <use id="Oval" fill="#FFFFFF" xlink:href="#path-1"></use>
            <g id="Ресурс-1" mask="url(#mask-2)">
                <rect id="Rectangle" fill="#FFFFFF" x="0" y="0" width="56.3736264" height="56.4"></rect>
                <polygon id="Path" fill="#373995" fill-rule="nonzero" points="13.9994505 42.684 13.9994505 28.278 0.0125274725 28.278 0.0125274725 56.622 28.1805495 56.622 28.1805495 42.684"></polygon>
                <path d="M13.8867033,42.486 C17.2879121,45.924 0,28.278 0,28.278 L0,56.622 L28.1868132,56.622 C28.1868132,56.622 10.4854945,39.048 13.8867033,42.486 Z" id="Path" fill="#F6C900" fill-rule="nonzero"></path>
                <polygon id="Path" fill="#CD1719" fill-rule="nonzero" points="42.418022 42.684 28.1805495 42.684 28.1805495 56.622 56.4049451 56.622 56.4049451 28.278 42.418022 28.278"></polygon>
                <polygon id="Path" fill="#373995" fill-rule="nonzero" points="28.1805495 0.012 28.1805495 13.95 42.418022 13.95 42.418022 28.278 56.4049451 28.278 56.4049451 0.012"></polygon>
                <rect id="Rectangle" fill="#000000" fill-rule="nonzero" x="13.9994505" y="28.278" width="14.1810989" height="14.406"></rect>
                <rect id="Rectangle" fill="#000000" fill-rule="nonzero" x="28.1805495" y="13.95" width="14.2437363" height="14.334"></rect>
                <path d="M28.1868132,8.142 L25.5435165,2.946 L27.0342857,0 L23.7207692,0 L25.2115385,2.928 L22.5494505,8.166 L19.8998901,2.946 L21.4031868,0 L18.0896703,0 L19.5804396,2.928 L16.9120879,8.166 L14.2813187,2.946 L15.7720879,0 L12.4585714,0 L13.9493407,2.928 L11.2747253,8.166 L8.62516484,2.946 L10.140989,0 L6.82747253,0 L8.31824176,2.928 L5.66868132,8.148 L3.01912088,2.946 L4.50989011,0 L1.20263736,0 L2.68714286,2.946 L0.0375824176,8.166 L0.0375824176,8.118 L0.0375824176,8.802 L0.0375824176,8.76 L2.68714286,13.974 L0.0375824176,19.2 L0.0375824176,19.152 L0.0375824176,19.836 L0.0375824176,19.794 L2.68714286,25.008 L1.02098901,28.284 L4.68527473,28.284 L3.01912088,25.002 L5.66868132,19.8 L8.31824176,25.014 L6.65208791,28.296 L10.3163736,28.296 L8.65021978,25.014 L11.2747253,19.8 L13.9242857,25.014 L12.2581319,28.296 L13.9743956,28.296 L13.9743956,13.95 L14.2687912,13.95 L16.9120879,8.76 L19.5491209,13.95 L19.9061538,13.95 L22.5494505,8.76 L25.1864835,13.95 L25.5435165,13.95 L28.1868132,8.778 L28.1868132,8.142 Z M5.66868132,19.2 L3.01912088,13.98 L5.66868132,8.76 L8.31824176,13.974 L5.66868132,19.2 Z M11.306044,19.2 L8.65648352,13.98 L11.2747253,8.76 L13.9242857,13.974 L11.306044,19.2 Z" id="Shape" fill="#F6C900" fill-rule="nonzero"></path>
                <polygon id="Path" fill="#3FA535" points="28.1805495 8.142 28.1805495 0.018 27.0342857 0.018 25.5435165 2.946"></polygon>
                <polygon id="Path" fill="#3FA535" points="22.561978 8.166 25.2115385 2.946 23.7207692 0.018 21.4031868 0.018 19.9124176 2.946"></polygon>
                <polygon id="Path" fill="#3FA535" points="3.01912088 13.974 5.66868132 19.194 8.31824176 13.974 5.66868132 8.76"></polygon>
                <polygon id="Path" fill="#3FA535" points="5.66868132 19.788 3.01912088 25.002 4.68527473 28.284 6.65208791 28.284 8.31824176 25.002"></polygon>
                <polygon id="Path" fill="#3FA535" points="19.9249451 13.95 25.199011 13.95 22.561978 8.76"></polygon>
                <polygon id="Path" fill="#3FA535" points="11.2997802 19.788 8.65021978 25.002 10.3163736 28.284 12.2831868 28.284 13.9493407 25.002"></polygon>
                <polygon id="Path" fill="#3FA535" points="14.2938462 13.95 19.5679121 13.95 16.9308791 8.76"></polygon>
                <polygon id="Path" fill="#3FA535" points="8.65021978 13.974 11.2997802 19.194 13.9493407 13.974 11.2997802 8.76"></polygon>
                <polygon id="Path" fill="#3FA535" points="16.9308791 8.166 19.5804396 2.946 18.0896703 0.018 15.7720879 0.018 14.2813187 2.946"></polygon>
                <polygon id="Path" fill="#3FA535" points="28.1805495 8.778 25.556044 13.95 28.1805495 13.95"></polygon>
                <polygon id="Path" fill="#3FA535" points="5.66868132 8.166 8.31824176 2.946 6.82747253 0.018 4.50989011 0.018 3.01912088 2.946"></polygon>
                <polygon id="Path" fill="#3FA535" points="11.2997802 8.166 13.9493407 2.946 12.4585714 0.018 10.140989 0.018 8.65021978 2.946"></polygon>
                <polygon id="Path" fill="#3FA535" points="2.68714286 13.974 0.0375824176 8.76 0.0187912088 8.802 0.0187912088 19.146 0.0375824176 19.194"></polygon>
                <polygon id="Path" fill="#3FA535" points="2.68714286 2.946 1.20263736 0.018 0.0187912088 0.018 0.0187912088 8.118 0.0375824176 8.166"></polygon>
                <polygon id="Path" fill="#3FA535" points="0.0375824176 19.788 0.0187912088 19.83 0.0187912088 28.284 1.02098901 28.284 2.68714286 25.002"></polygon>
                <rect id="Rectangle" fill="#F6C900" fill-rule="nonzero" x="32.940989" y="42.684" width="4.74164835" height="13.932"></rect>
                <rect id="Rectangle" fill="#F6C900" fill-rule="nonzero" x="42.4242857" y="28.278" width="4.74164835" height="28.332"></rect>
                <rect id="Rectangle" fill="#F6C900" fill-rule="nonzero" x="51.9075824" y="28.29" width="4.48483516" height="28.326"></rect>
                <rect id="Rectangle" fill="#F6C900" fill-rule="nonzero" x="42.4430769" y="0" width="13.9618681" height="13.956"></rect>
                <polygon id="Path" fill="#CD1719" fill-rule="nonzero" points="21.1526374 41.148 26.1886813 35.76 21.1526374 30.372 16.1165934 35.76"></polygon>
                <path d="M23.8021978,18.726 C23.0004396,18.126 21.4407692,16.326 21.183956,15.426 C20.9271429,16.302 19.3674725,18.108 18.5657143,18.726 C16.9434066,19.98 16.0602198,21.69 16.9621978,22.77 C17.7530686,23.8387151 19.274427,24.1354268 20.4385714,23.448 C20.4385714,25.758 18.8663736,26.55 18.8663736,26.55 L23.5015385,26.55 C23.5015385,26.55 21.9230769,25.758 21.9230769,23.448 C23.080722,24.1454567 24.6048308,23.861872 25.4057143,22.8 C26.3076923,21.69 25.4245055,19.98 23.8021978,18.726 Z" id="Path" fill="#1D1D1B" fill-rule="nonzero"></path>
                <path d="M40.589011,17.448 C38.5094505,14.94 35.8473626,16.848 35.4527473,17.196 C35.0518681,16.86 32.3897802,14.94 30.3164835,17.448 C29.4145055,18.534 29.9845055,20.136 31.3186813,21.522 L35.4464835,26.4 L35.4464835,26.4 L35.4464835,26.4 L39.3237363,21.78 C40.8458242,20.334 41.5410989,18.6 40.589011,17.448 Z" id="Path" fill="#CD1719" fill-rule="nonzero"></path>
                <path d="M37.713956,33.774 C37.3603464,33.7717989 37.0102555,33.8413227 36.6867033,33.978 C37.5872439,33.3407211 37.959104,32.2217674 37.6088843,31.2030916 C37.2586646,30.1844157 36.2654606,29.4960811 35.1458242,29.4960811 C34.0261878,29.4960811 33.0329838,30.1844157 32.6827641,31.2030916 C32.3325444,32.2217674 32.7044045,33.3407211 33.6049451,33.978 C33.2790065,33.8418687 32.9269983,33.7723878 32.5714286,33.774 C31.390936,33.7758244 30.360705,34.5411539 30.0650638,35.6359076 C29.7694226,36.7306613 30.2829897,37.8785288 31.3144791,38.4284605 C32.3459686,38.9783922 33.6350375,38.7915881 34.4505495,37.974 L34.4505495,38.262 C34.560184,39.3912872 34.0048672,40.4852232 33.0098901,41.1 L37.2692308,41.1 C36.2742536,40.4852232 35.7189368,39.3912872 35.8285714,38.262 L35.8285714,37.998 C36.6444172,38.8066225 37.9264231,38.9876214 38.9511285,38.4388556 C39.9758339,37.8900897 40.4862966,36.7491608 40.1944527,35.6599168 C39.9026088,34.5706729 38.8816375,33.806239 37.7076923,33.798 L37.713956,33.774 Z" id="Path" fill="#1D1D1B" fill-rule="nonzero"></path>
            </g>
        </g>
    </g>
</svg>