<?xml version="1.0" encoding="UTF-8"?>
<svg width="56px" height="56px" viewBox="0 0 56 56" version="1.1" xmlns="http://www.w3.org/2000/svg" xmlns:xlink="http://www.w3.org/1999/xlink">
    <!-- Generator: Sketch 52.4 (67378) - http://www.bohemiancoding.com/sketch -->
    <title>PFE</title>
    <desc>Created with Sketch.</desc>
    <defs>
        <radialGradient cx="2.15742712%" cy="31.1259443%" fx="2.15742712%" fy="31.1259443%" r="168.313416%" gradientTransform="translate(0.021574,0.311259),scale(0.581312,1.000000),rotate(0.000000),scale(1.000000,0.902699),translate(-0.021574,-0.311259)" id="radialGradient-1">
            <stop stop-color="#00B9F2" offset="0%"></stop>
            <stop stop-color="#00B9F2" offset="25.275%"></stop>
            <stop stop-color="#00A5E8" offset="52.747%"></stop>
            <stop stop-color="#006CB7" offset="100%"></stop>
        </radialGradient>
    </defs>
    <g id="PFE" stroke="none" stroke-width="1" fill="none" fill-rule="evenodd">
        <rect id="Rectangle-1" stroke="#E1E1E1" fill="#FFFFFF" x="0.5" y="0.5" width="55" height="55" rx="27.5"></rect>
        <g id="Page-1" transform="translate(4.000000, 14.000000)" fill="url(#radialGradient-1)">
            <path d="M29.7216275,0.299999714 C26.9633419,0.300299723 24.0445513,0.593408819 21.0834594,1.211428 L21.0834594,1.211428 C8.94958284,3.74200653 0.00270519731,10.8681277 5.11351994e-06,17.6429379 L5.11351994e-06,17.6429379 C-0.0005949051,18.160454 0.0516067148,18.67587 0.15811002,19.1864858 L0.15811002,19.1864858 C1.03623727,23.3965165 5.43287371,26.3846092 11.5401632,27.5993469 L11.5401632,27.5993469 C12.8314033,22.6191923 15.8002954,11.2209386 15.8002954,11.2209386 L15.8002954,11.2209386 C16.3826135,8.96666866 16.7075236,8.09634165 17.2841415,7.11471119 L17.2841415,7.11471119 C18.0344648,5.84687185 19.2375021,4.79833931 20.9241544,4.64593458 L20.9241544,4.64593458 C21.8409829,4.56343202 23.2063253,4.67833558 23.970149,5.21505224 L23.970149,5.21505224 C24.6910713,5.72086794 24.7828742,6.25068438 24.7591735,6.73369937 L24.7591735,6.73369937 C24.7096719,7.7303303 24.099753,8.39725099 23.1256228,8.39725099 L23.1256228,8.39725099 C22.1262917,8.39725099 21.8148821,7.66432825 21.8100819,7.18071324 L21.8100819,7.18071324 C21.8043818,6.52249281 22.1943939,6.42138968 22.1898937,5.93387455 L22.1898937,5.93387455 C22.1871936,5.68456681 21.9603866,5.29515473 21.3360672,5.39265775 L21.3360672,5.39265775 C20.5650433,5.51386151 19.9230234,6.1255805 19.5057104,7.19181358 L19.5057104,7.19181358 C19.4073074,7.43962127 19.2873036,7.77143157 19.136999,8.33814916 L19.136999,8.33814916 L18.3704752,11.3181416 L23.4262321,11.3181416 C22.7656116,13.7128159 21.6459768,17.9657479 21.3327671,19.1309841 L21.3327671,19.1309841 L18.7790879,19.1309841 L20.5314423,12.5994814 L18.0281646,12.5994814 L14.0293405,27.9845588 C15.2788793,28.1258632 16.5830197,28.2005655 17.9285615,28.2029656 L17.9285615,28.2029656 L18.0716659,28.2029656 C20.7597493,28.1972654 23.6113378,27.9062564 26.5247282,27.2978375 L26.5247282,27.2978375 C38.6868057,24.7606588 47.9909944,17.5679356 47.9999947,10.7730247 L47.9999947,10.7730247 C48.0005947,10.2708091 47.9504931,9.77069361 47.8466899,9.27507823 L47.8466899,9.27507823 C46.6847539,3.7057054 39.1293194,0.299999714 29.7255276,0.299999714 L29.7255276,0.299999714 L29.7216275,0.299999714 Z M7.27013072,7.41922064 L10.2570234,7.41922064 C14.8393656,7.41922064 15.1621756,9.7574932 14.7733636,11.4225449 L14.7733636,11.4225449 C14.2939487,13.4833088 13.0591104,14.9527544 7.79874713,14.9614547 L7.79874713,14.9614547 C7.28003103,16.8785142 6.83151711,18.5363656 6.67041211,19.1309841 L6.67041211,19.1309841 L4.10053236,19.1309841 C4.57184699,17.3927301 7.27013072,7.41922064 7.27013072,7.41922064 L7.27013072,7.41922064 Z M35.5874095,11.1318359 C36.9404515,11.1318359 38.1089877,11.7603554 38.1089877,12.8307886 L38.1089877,12.8307886 C38.1089877,13.940823 37.2251603,15.0826585 35.8889188,15.5158719 L35.8889188,15.5158719 C35.057593,15.7942805 34.216967,15.9586856 32.8066232,15.9586856 L32.8066232,15.9586856 C32.7727221,16.2553949 32.7862226,16.3699984 32.7862226,16.5305034 L32.7862226,16.5305034 C32.7862226,17.2850268 33.4276425,17.9285468 34.3201702,17.9285468 L34.3201702,17.9285468 C35.5181073,17.9285468 36.6476424,16.8302127 36.7799465,16.6967085 L36.7799465,16.6967085 L37.2251603,17.8868455 C36.8672492,18.258257 36.4682368,18.580767 36.0143227,18.8162743 L36.0143227,18.8162743 C35.2991005,19.1885859 34.4791751,19.3889921 33.5824473,19.3889921 L33.5824473,19.3889921 C31.6383869,19.3889921 30.3219461,18.1733544 30.3219461,16.3705984 L30.3219461,16.3705984 L30.3216461,16.3705984 C30.3216461,13.5427107 32.8669251,11.1318359 35.5874095,11.1318359 L35.5874095,11.1318359 Z M44.5690882,11.1831374 C45.9881322,11.1831374 46.2008388,12.0270636 46.2008388,12.6816839 L46.2008388,12.6816839 C46.2008388,13.4497078 45.658422,13.9768241 45.0374027,13.9768241 L45.0374027,13.9768241 C44.5660881,13.9768241 44.3584817,13.7875183 44.2750791,13.7044157 L44.2750791,13.7044157 C44.0584724,13.487809 44.0221712,13.2661021 43.9978705,13.0818964 L43.9978705,13.0818964 C43.9666695,12.8649896 43.8958673,12.6549831 43.6477596,12.6144819 L43.6477596,12.6144819 C43.2880485,12.5577801 42.9940393,12.7020846 42.6892299,12.973293 L42.6892299,12.973293 C42.2764171,13.3399044 41.9251062,13.9195224 41.6682982,14.4772397 L41.6682982,14.4772397 C41.4912927,14.8615516 41.3601886,15.2260629 41.2863863,15.485571 L41.2863863,15.485571 L40.2942555,19.1309841 L37.7219757,19.1309841 L39.8310412,11.3181416 L42.3253186,11.3181416 L41.8780047,12.8841902 C42.4642229,12.1740682 43.5610569,11.1831374 44.5690882,11.1831374 L44.5690882,11.1831374 Z M24.5875681,11.3181416 L30.9807665,11.3181416 C30.2445437,13.747917 26.7824362,15.7210783 25.8266066,17.5595353 L25.8266066,17.5595353 L29.8554316,17.5595353 L29.4333185,19.1309841 L22.8907155,19.1309841 C22.8907155,16.6622075 27.0218437,13.810919 27.8075681,12.5994814 L27.8075681,12.5994814 L24.2413574,12.5994814 L24.5875681,11.3181416 Z M9.52350065,8.5844568 C9.15538923,9.94529903 8.63517308,11.8689587 8.13505756,13.715516 L8.13505756,13.715516 C10.1739208,13.7104159 11.4543606,13.3573049 12.0828801,11.3400423 L12.0828801,11.3400423 C12.596196,9.68849106 12.3951898,8.5844568 9.97201457,8.5844568 L9.97201457,8.5844568 L9.52350065,8.5844568 Z M34.3096698,12.8010877 C33.67065,13.2913029 33.1801348,14.0623268 32.9884288,14.9248536 L32.9884288,14.9248536 C34.1512649,14.8840523 34.8079853,14.7103469 35.411304,14.2369322 L35.411304,14.2369322 C35.9537208,13.811819 36.1976284,13.3324041 36.1976284,12.9288916 L36.1976284,12.9288916 C36.1976284,12.7071847 36.0611242,12.359774 35.4368048,12.359774 L35.4368048,12.359774 C35.152396,12.359774 34.6894816,12.5085786 34.3096698,12.8010877 L34.3096698,12.8010877 Z" id="Fill-1"></path>
        </g>
    </g>
</svg>