<svg width="56" height="56" xmlns="http://www.w3.org/2000/svg" xmlns:xlink="http://www.w3.org/1999/xlink"><defs><radialGradient cx="27.187%" cy="33.117%" fx="27.187%" fy="33.117%" r="119.512%" gradientTransform="matrix(-.31992 -.94744 1.43703 -.48523 -.117 .75)" id="b"><stop stop-color="#00B2F0" offset="0%"/><stop stop-color="#00B2F0" stop-opacity=".981" offset="19.3%"/><stop stop-color="#00B2F0" stop-opacity="0" offset="100%"/></radialGradient><path d="M28.008 56C12.565 56 0 43.426 0 27.975 0 12.55 12.565 0 28.008 0 43.44 0 56 12.55 56 27.975 56 43.425 43.44 56 28.008 56" id="a"/><path d="M20.722 7.711C23.048 1.973 18.678.403 15.843.403h-9.39c.78.542.65 1.26.504 1.686l-5.478 17.51C1.263 20.303.433 21.014 0 21.142h7.608c-.43-.084-1.021-.681-.798-1.486l1.986-6.335s9.15 1.236 11.926-5.61zm-7.404-5.694c.998 0 3.76.133 1.971 5.348-1.856 5.471-5.993 4.35-5.993 4.35l3.044-9.698h.978z" id="d"/><filter x="-9.4%" y="-4.8%" width="118.7%" height="119.3%" filterUnits="objectBoundingBox" id="c"><feOffset dy="1" in="SourceAlpha" result="shadowOffsetOuter1"/><feGaussianBlur stdDeviation=".5" in="shadowOffsetOuter1" result="shadowBlurOuter1"/><feColorMatrix values="0 0 0 0 0 0 0 0 0 0 0 0 0 0 0 0 0 0 0.3 0" in="shadowBlurOuter1"/></filter><path d="M26.788 21.142h5.135c-1.639-.538-4.064-2.087-5.035-3.184.79-.842 1.746-1.915 1.925-4.094h-2.658s.528.28.528.909a3.35 3.35 0 0 1-.685 1.938c-.772-1.153-1.615-2.469-1.91-4.403 1.041-.517 2.516-1.076 3.667-2.086 1.114-.978 1.363-1.874 1.378-2.477v-.078c0-.624-.23-1.194-.695-1.646-.76-.763-1.979-1.063-3.25-.842-1.036.2-1.895.74-2.316 1.14-1.574 1.445-1.77 3.85-1.77 4.93 0 .24.02.459.024.573a4.47 4.47 0 0 0-.252.1c-1.112.408-4.126 1.214-5.206 3.692-.136.305-.333.996-.333 1.793 0 .67.135 1.428.572 2.131.773 1.184 2.05 1.92 4.117 1.889 2.241-.028 4.457-1.565 4.838-1.844.396.369 1.415 1.308 1.926 1.559m0-13.844c-.253 1.675-2.405 3.36-2.934 3.576-.097-.937-.063-2.422.716-3.625.538-.8 1.219-1.147 1.77-.953.448.154.502.557.448 1.002m-2.997 11.151c-.3.185-1.488.79-2.6.89-1.043.092-2.757-.301-2.757-2.365 0-1.784 1.935-3.056 2.96-3.517.463 1.712 1.388 3.66 2.397 4.992" id="f"/><filter x="-12.1%" y="-6.1%" width="124.1%" height="124.5%" filterUnits="objectBoundingBox" id="e"><feOffset dy="1" in="SourceAlpha" result="shadowOffsetOuter1"/><feGaussianBlur stdDeviation=".5" in="shadowOffsetOuter1" result="shadowBlurOuter1"/><feColorMatrix values="0 0 0 0 0 0 0 0 0 0 0 0 0 0 0 0 0 0 0.3 0" in="shadowBlurOuter1"/></filter><path d="M42.35 2.033c3.05-.727 5.561 1.66 5.796 1.808L49 1.089c-1.197-.363-9.922-3.323-16.092 3.723-3.79 4.336-4.741 13.206.084 15.582 5.153 2.551 10.85-.387 11.25-.587l2.367-7.477c.25-.92.817-1.51 1.836-1.881h-8.169c1.186.503 1.107 1.397 1.002 1.763l-2.345 7.494c-.316.053-6.889 1.693-3.21-9.809.781-2.459 3.016-6.982 6.627-7.864" id="h"/><filter x="-10.4%" y="-4.7%" width="120.7%" height="118.8%" filterUnits="objectBoundingBox" id="g"><feOffset dy="1" in="SourceAlpha" result="shadowOffsetOuter1"/><feGaussianBlur stdDeviation=".5" in="shadowOffsetOuter1" result="shadowBlurOuter1"/><feColorMatrix values="0 0 0 0 0 0 0 0 0 0 0 0 0 0 0 0 0 0 0.3 0" in="shadowBlurOuter1"/></filter></defs><g fill="none" fill-rule="evenodd"><rect fill="#FFF" width="56" height="56" rx="28"/><use fill="#004080" xlink:href="#a"/><use fill="url(#b)" xlink:href="#a"/><g><g transform="translate(3.5 17.5)"><use fill="#000" filter="url(#c)" xlink:href="#d"/><use fill="#FFF" xlink:href="#d"/></g><g transform="translate(3.5 17.5)"><use fill="#000" filter="url(#e)" xlink:href="#f"/><use fill="#FFF" xlink:href="#f"/></g><g transform="translate(3.5 17.5)"><use fill="#000" filter="url(#g)" xlink:href="#h"/><use fill="#FFF" xlink:href="#h"/></g></g></g></svg>