<?xml version="1.0" encoding="UTF-8"?>
<svg width="56px" height="56px" viewBox="0 0 56 56" version="1.1" xmlns="http://www.w3.org/2000/svg" xmlns:xlink="http://www.w3.org/1999/xlink">
    <!-- Generator: Sketch 54.1 (76490) - https://sketchapp.com -->
    <title>Pinterest Inc</title>
    <desc>Created with Sketch.</desc>
    <g id="Pinterest-Inc" stroke="none" stroke-width="1" fill="none" fill-rule="evenodd">
        <rect id="Rectangle-1" fill="#CB2027" x="0" y="0" width="56" height="56" rx="28"></rect>
        <g id="pinterest-2-1" transform="translate(12.000000, 9.000000)" fill="#FFFFFF" fill-rule="nonzero">
            <path d="M14.5059889,-0.866231606 C7.88467575,-0.124207311 1.28670451,5.25351613 1.01438258,12.9354203 C0.8432088,17.6257949 2.16980561,21.1445522 6.61643364,22.1326162 C8.546029,18.715399 5.99398352,17.9616585 5.59717157,15.489546 C3.96713033,5.35896169 17.2369888,-1.54967504 24.1811979,5.52298811 C28.9857347,10.4203485 25.8229101,25.487347 18.0734061,23.9212852 C10.6506885,22.4255205 21.7069587,10.4320646 15.7820116,8.07711385 C10.9658038,6.16347224 8.40597773,13.931295 10.6895916,17.7898213 C9.35132384,24.4250807 6.46860174,30.6776117 7.63569571,39 C11.4209705,36.2427939 12.6969932,30.9627053 13.7434875,25.4561039 C15.6458507,26.6160051 16.6612224,27.8227709 19.0887779,28.0102296 C28.0403886,28.7053893 33.0394411,19.0395465 31.8178828,10.1235387 C30.7324854,2.21902731 22.8740526,-1.80352545 14.5059889,-0.866231606 Z" id="Path"></path>
        </g>
    </g>
</svg>