<svg width="56" height="56" xmlns="http://www.w3.org/2000/svg"><g fill="none" fill-rule="evenodd"><rect fill="#FEF300" width="56" height="56" rx="28"/><g fill="#F01516"><path d="M12.266 26.046H41.733a.497.497 0 0 0 .467-.433.487.487 0 0 0-.38-.535 1.187 1.187 0 0 0-.24-.016l-14.714-.003H12.266v.987zM8 32.32V24h38.522c.029.006.058.015.088.018.907.095 1.551.977 1.354 1.855a1.563 1.563 0 0 1-1.552 1.227H12.26v5.229c-.039.002-.065.004-.092.004h-4.07c-.032 0-.065-.008-.098-.013z"/><path d="M20.428 29.975c.482 0 .954.006 1.425-.003.19-.004.32-.116.386-.284.113-.288-.109-.583-.445-.587-.435-.005-.87-.002-1.305-.002-.019 0-.038.002-.061.004v.872zm-.008 1.013v1.337H18v-4.157h.109c1.605 0 3.21.001 4.815-.001.437-.001.843.085 1.194.347.817.605.702 1.84-.213 2.299-.012.005-.023.012-.045.025l.805 1.487c-.046.003-.078.006-.11.006-.837 0-1.674 0-2.512.002-.074 0-.11-.022-.143-.084-.212-.396-.43-.79-.642-1.186-.03-.055-.061-.078-.128-.077-.232.005-.464.002-.71.002zM32.167 29.779v1.009h-3.18v.613h3.176v.932h-5.83v-4.166h5.832v1h-3.178v.612zM38.833 28.167h2.482v3.239h2.518v.927h-5zM33 28.167h2.481v3.235H38v.931h-5zM13.833 32.331v-4.164h2.498v.1c0 1.319 0 2.637.002 3.956 0 .087-.025.11-.12.11-.756-.003-1.512-.002-2.269-.002h-.11zM45.5 32.333H48v-4.166h-2.5z"/></g></g></svg>