<?xml version="1.0" encoding="UTF-8"?>
<svg width="56px" height="56px" viewBox="0 0 56 56" version="1.1" xmlns="http://www.w3.org/2000/svg" xmlns:xlink="http://www.w3.org/1999/xlink">
    <!-- Generator: Sketch 52.4 (67378) - http://www.bohemiancoding.com/sketch -->
    <title>PM</title>
    <desc>Created with Sketch.</desc>
    <g id="PM" stroke="none" stroke-width="1" fill="none" fill-rule="evenodd">
        <rect id="Rectangle-1" stroke="#E1E1E1" fill="#FFFFFF" x="0.5" y="0.5" width="55" height="55" rx="27.5"></rect>
        <g id="Page-1" transform="translate(7.000000, 13.000000)">
            <path d="M26.975929,19.5160938 L26.4974849,20.2990528 L26.3869744,20.4398971 L26.47906,20.7009895 L26.6077619,21.021771 L26.7919719,21.3628944 L27.086206,21.7243808 L27.4177763,22.0457139 L27.5283062,22.1059545 L27.6388361,22.2462686 L27.6569886,22.3466838 L27.6569886,22.3868584 L27.6388361,22.4872737 L27.5467311,22.5673259 L27.3998573,22.6479296 L27.160392,22.6677411 L26.9761819,22.6479296 L26.7367167,22.5876677 L26.4793324,22.5475143 L26.1845924,22.4872525 L25.8898524,22.4872525 L25.57696,22.5475143 L25.3193227,22.6479296 L25.09801,22.7684321 L24.9693276,22.8889135 L24.895375,22.9893287 L24.8219478,23.089744 L24.8219478,23.2102465 L26.7553945,23.330749 L28.3019767,23.5315795 L28.5046117,23.2902987 L28.5967167,22.9893287 L28.6519719,22.6878072 L28.6519719,22.3670469 L28.5967167,22.0457139 L28.6519719,21.8448834 L28.6519719,21.7444681 L28.7625018,21.4434981 L28.8730317,21.20279 L29.0390698,20.9615092 L29.5359194,20.6401761 L30.3280342,20.399468 L30.7148598,20.3796565 L30.9538386,20.4398971 L31.5064493,20.4398971 L31.7825114,20.3796565 L31.9116997,20.3394819 L31.9856522,20.2190006 L32.0409075,20.098498 L32.0040577,19.9378421 L31.9488024,19.8775802 L31.8748694,19.7969765 L31.6722345,19.6165091 L31.5248742,19.3757797 L31.433275,19.0742582 L31.4145972,18.7933755 L31.4145972,18.4726152 L31.5251271,18.5328559 L31.7464204,18.5328559 L31.8751223,18.6533584 L31.9858857,18.8940665 L32.1514374,19.1551589 L32.3353945,19.3559894 L32.5748598,19.5160938 L32.814325,19.6569382 L33.219342,19.7774407 L33.4954041,19.9183063 L33.7348694,20.1188611 L34.0296094,20.3397576 L34.2135665,20.5004348 L34.4530317,20.60085 L34.6919912,20.6407276 L35.0606642,20.6407276 L35.2446213,20.6610907 L35.465934,20.7012653 L35.6498912,20.7615059 L35.7790794,20.9221618 L35.9077813,21.1227166 L35.9264397,21.2033203 L35.9817144,21.4440496 L36.0185447,21.7249323 L35.9627836,21.9656616 L35.4843395,22.2465444 L35.079342,22.5480658 L34.8032799,22.788774 L34.692497,22.9692414 L34.6372418,23.2105223 L34.6372418,23.5318553 L34.692497,23.6119075 L34.8403826,23.73241 L34.987237,23.7926507 L35.1164447,23.73241 L35.2451271,23.6319948 L35.3190602,23.5321098 L35.2822299,23.6922355 L35.3190602,23.8528914 L35.4111652,23.9937569 L35.5580391,24.1142383 L35.7240771,24.1340498 L35.8527596,24.1142383 L35.9632895,24.0944479 L36.1293276,23.7128742 L36.2209267,23.8531671 L36.3869842,23.9940115 L36.5343445,24.0944479 L36.7183016,24.0944479 L36.9025117,24.013823 L37.0680439,23.9134078 L37.1601489,23.7329403 L37.2335761,23.6124378 L37.2704259,23.3114678 L37.3256811,22.990156 L37.2704259,22.6490114 L37.2335761,22.3474899 L37.2335761,22.0666072 L37.1783209,21.7656372 L37.0677909,21.5249291 L36.9943637,21.1433554 L36.9756859,20.6211918 L36.9204307,20.4407244 L36.8651755,20.2998588 L36.7177958,20.199995 L36.6996238,20.1796532 L36.5154137,20.079238 L36.1290941,19.778268 L35.7422491,19.4173118 L35.4111847,19.0153963 L35.1535474,18.5738365 L35.4846119,18.774667 L35.8714568,18.9353229 L36.2577765,18.9955848 L36.6817047,19.0153963 L37.0680439,18.9754975 L37.4548888,18.8750822 L37.804884,18.6742517 L38.0438435,18.473697 L38.2833282,18.2324374 L38.7988556,17.3490632 L39.1488508,16.9881283 L39.314383,16.6667952 L39.4435907,16.3256507 L39.498846,15.9845273 L39.498846,15.6029536 L39.4435907,15.2816205 L39.4435907,15.2406399 L38.7438338,15.4411947 L38.6151514,14.9795476 L38.5783016,14.5781623 L38.5783016,14.1965886 L38.6151514,13.8150149 L38.4120301,13.8551895 L38.209901,13.9355174 L38.0438435,14.1159849 L37.933333,14.2565747 L37.8964832,14.1963129 L37.7491229,13.8950671 L37.638593,13.5938426 L37.5833378,13.2727853 L37.6201681,12.931365 L37.3807029,13.0719548 L37.1967458,13.2725095 L37.067538,13.6942578 L36.7914953,13.3126629 L36.5338581,12.9916268 L36.3496481,12.6502065 L36.2204403,12.2686328 L36.1470131,11.8873349 L36.1470131,11.4859496 L36.1651851,11.1043759 L36.2020154,10.9638073 L36.2941399,10.64275 L36.4233282,10.4020207 L36.6072853,10.1409495 L36.8280922,9.98056935 L37.0862158,9.83997951 L37.362278,9.77973885 L37.6570179,9.77973885 L37.9330801,9.81989222 L38.2096481,9.94039476 L38.4304355,10.121138 L38.6146455,10.3420558 L38.4304355,10.4022964 L38.2830753,10.522799 L38.1538675,10.7032664 L38.0804403,10.9040969 L38.04361,11.1448262 L38.0804403,11.365744 L38.135715,11.5662776 L38.2462255,11.8675233 L38.4304355,12.2086679 L38.6880727,12.5902416 L38.9641349,12.9115746 L39.1667698,13.1121294 L39.1667698,13.4331655 L39.2225309,13.7344112 L39.3141301,14.0356569 L39.4614903,14.2967281 L39.60887,14.4172306 L39.8296575,14.5575447 L40.0691422,14.65796 L40.3086075,14.6777503 L40.5846696,14.6378727 L40.8241349,14.5374574 L41.0267698,14.3768015 L41.082025,14.3165396 L40.9528368,14.3165396 L40.7688796,14.256299 L40.6396719,14.1357964 L40.5475669,13.9954824 L40.4923117,13.7946519 L40.4923117,13.6139087 L40.5662447,13.4331655 L40.7317769,13.0719548 L40.8423068,12.6705695 L40.9162399,12.2689086 L40.9162399,11.847436 L40.8423068,11.3858101 L41.1552188,11.3657228 L41.3578342,11.3054822 L41.5238918,11.2452415 L41.6344022,11.1649135 L41.1741495,10.7233537 L40.9164928,10.522799 L41.1554717,10.4022964 L41.3396817,10.2416405 L41.505214,10.0410858 L41.6157439,9.7800146 L41.6344217,9.59927139 L41.579147,9.65951206 L41.2657487,9.71975272 L40.9896865,9.71975272 L40.6949466,9.67959935 L40.4559872,9.55909681 L40.2717771,9.3984409 L40.0323119,9.29802565 L39.793333,9.29802565 L39.5356958,9.35826631 L39.3330608,9.41852819 L39.1488702,9.59927139 L39.0935955,9.67959935 L38.8909606,9.49885614 L38.70677,9.29802565 L38.4307079,9.05729632 L38.1912232,8.89691615 L37.841228,8.83665428 L37.4549083,8.79650091 L37.0680633,8.85674157 L36.6998962,8.97724411 L36.3869842,9.15798731 L35.963056,9.49940764 L35.6688414,9.98112084 L35.5027838,10.3021569 L35.3922734,10.8039574 L35.3188267,11.3057579 L35.2819964,11.7874711 L35.3188267,12.2892716 L35.4475286,12.8111382 L35.5948888,13.2727853 L35.8162016,13.7344112 L36.0738388,14.1357964 L36.3867313,14.5170944 L36.7367265,14.8384274 L36.8654284,14.9190311 L36.6627935,14.9792718 L36.423834,15.1195859 L36.257796,15.2604303 L36.147266,15.481348 L36.055161,15.7418677 L36.055161,15.9831485 L36.1290941,16.2238567 L36.2206932,16.4246872 L36.2946263,16.5650012 L36.349901,16.4043453 L36.5154332,16.183979 L36.6996432,16.0233231 L36.9204307,15.9625097 L37.1599154,15.9226321 L37.3807029,15.9625097 L37.5833378,16.083288 L37.7675478,16.2236021 L37.9330801,16.4244326 L38.0251851,16.6651407 L38.0433571,16.9262119 L38.0251851,17.1471297 L37.9330801,17.4076706 L37.7675478,17.6285671 L37.5280631,17.8293976 L37.252001,17.9702632 L36.9204307,18.070127 L36.6257102,18.1303676 L36.3127983,18.070127 L36.0185642,18.0098651 L35.7419962,17.8293976 L35.8159487,17.6285671 L35.8341206,17.387859 L35.8159487,17.1471297 L35.7238437,16.9462992 L35.5946359,16.7253814 L35.4106788,16.4846733 L35.2446407,16.2838428 L35.0606836,16.083288 L34.9314759,15.9226321 L34.8398767,15.761955 L34.7841156,15.5410584 L34.7475188,15.279966 L34.7288604,15.0590695 L34.7106884,14.6175096 L34.6920106,14.256299 L34.6004114,13.9151544 L34.4530317,13.5137692 L34.2504163,13.1124051 L34.0662062,12.7913478 L33.900674,12.4901021 L33.8272273,12.1888563 L33.7714663,11.847436 L33.7901441,11.5464872 L33.8822491,11.2653076 L34.0296094,11.3858101 L34.2135859,11.4862254 L34.4162014,11.5866406 L34.4530512,11.5866406 L34.4348792,11.3657228 L34.4348792,11.1046517 L34.5083064,10.823769 L34.6369888,10.5626978 L34.6922635,10.3420558 L34.6922635,10.121138 L34.6188169,9.88042985 L34.6006644,9.80008068 L34.7293468,9.90049593 L34.9135568,9.92058322 L35.0977669,9.90049593 L35.2632991,9.7800146 L35.3185543,9.71975272 L35.281724,9.69966543 L35.1711941,9.49911068 L35.0977669,9.2983014 L35.0977669,9.07765936 L35.1530221,8.87682886 L35.392001,8.93706953 L35.6496382,8.89689494 L35.8338483,8.87682886 L35.8338483,8.85674157 L35.7417432,8.65618682 L35.6496382,8.43526903 L35.6496382,8.21437246 L35.7417432,7.93346854 L35.9259338,7.97364313 L36.1098909,7.93346854 L36.294101,7.8330745 L36.4233087,7.67239738 L36.5149079,7.47184263 L36.5149079,7.43168926 L35.9072755,7.0503701 L36.1467407,7.01021672 L36.3309508,6.84981535 L36.5149079,6.68943519 L36.6622681,6.48888044 L36.7362012,6.1675474 L36.386206,6.20772199 L36.1285688,6.20772199 L35.8520202,6.1675474 L35.5943635,6.00689149 L35.3735761,5.84651133 L35.2080439,5.58544017 L35.097514,5.18405492 L34.9314759,4.84263459 L34.7288409,4.48142393 L34.4898815,4.22035277 L34.1764637,3.9592604 L34.1398669,3.91910703 L33.8633183,2.81509079 L33.6793612,2.31301455 L33.3106882,2.57408571 L33.0346261,2.75485013 L32.7030558,2.99555825 L31.1935568,3.03573283 L30.9359196,3.11606079 L30.4938194,3.41730653 L29.1127499,3.61813703 L28.9835617,3.63820311 L28.8730317,3.71855228 L28.8364349,3.83903361 L28.8364349,3.95953615 L28.8730317,4.10012598 L28.9835617,4.16036664 L29.020392,4.16036664 L29.112497,4.2406946 L29.1677522,4.32104377 L29.1677522,4.4415251 L29.112497,4.54194035 L28.9833087,4.68225443 L28.928034,4.84291034 L28.928034,5.04346509 L28.9833087,5.204121 L29.112497,5.36452238 L29.1677522,5.38460967 L30.1435713,5.40467575 L30.2909315,5.54526558 L30.3830365,5.84623558 L30.0519721,5.88638895 L29.3522347,6.12711828 L29.2230269,6.18735894 L29.1495997,6.28751966 L29.1314278,6.40800098 L29.1680246,6.50841623 L29.4074899,6.62891877 L29.7204018,6.92988877 L29.8677621,6.92988877 L30.1438242,6.74914556 L30.4385447,6.68888369 L30.7701345,6.68888369 L31.0090939,6.60855573 L31.2485591,6.46798711 L31.469366,6.26743236 L31.5985738,6.12684253 L31.764106,6.06660187 L31.9114663,6.06660187 L32.0588265,6.12684253 L32.1693564,6.26743236 L32.2246117,6.3879349 L32.2607027,6.68862915 L32.2425307,6.98985368 L32.1685976,7.25067031 L32.0030654,7.51174147 L31.8557052,7.73265926 L31.5980679,7.87322788 L31.2299008,8.05399229 L30.6222489,8.2347355 L29.9775332,8.39511566 L29.3146261,8.47544362 L28.6517384,8.49553091 L28.3941012,8.49553091 L28.1180391,8.57585887 L27.9154041,8.69636141 L27.7127692,8.87710461 L27.5467311,9.09774665 L27.4551319,9.3789051 L27.4182822,9.61961322 L27.4364541,9.98112084 L26.5898623,9.90079289 L26.3322056,9.8807056 L26.8290746,10.6435772 L27.2530029,11.4867769 L27.4003631,11.7676808 L27.6577669,11.948424 L27.9893372,12.0287519 L28.3022296,12.0488392 L28.6338194,11.9885774 L28.928034,11.8881621 L29.1675188,11.7676596 L29.1309219,12.0284762 L29.1122441,12.249394 L29.1309219,12.4702906 L29.1675188,12.7110199 L29.222774,12.9118504 L29.0388169,13.1124051 L28.7622489,13.2928726 L28.4680148,13.3932878 L28.1732943,13.4736158 L27.8417045,13.4334412 L27.7864493,13.4937031 L27.7130221,13.5137692 L27.657261,13.5941183 L27.6206642,13.6141844 L27.5653895,13.6945336 L27.4914564,13.7949276 L27.3998573,13.8953429 L27.3077522,13.9957581 L27.2156667,14.05602 L27.1235617,14.1162606 L26.9943539,14.1965886 L26.8474995,14.3170911 L26.6814614,14.4777683 L26.5159098,14.6384242 L26.4606545,14.7382879 L26.4053993,15.0595998 L26.4606545,15.3611213 L26.4975043,15.460985 L26.5527596,15.481348 L26.8288022,15.481348 L26.8288022,15.5614003 L26.8474801,15.6618155 L26.865652,15.7418677 L26.8843299,15.8026811 L26.9390792,15.8827333 L26.975929,15.9627855 L27.0311842,16.0235989 L27.0864589,16.0838395 L27.178564,16.1036511 L27.252497,16.0838395 L27.3998573,15.9834243 L27.4914564,15.9231836 L27.6569886,15.7625065 L27.6204112,15.883009 L27.6204112,16.0841153 L27.6385637,16.1641675 L27.6567357,16.2043421 L27.7125163,16.2645827 L27.7859435,16.364998 L27.9333037,16.4252599 L28.0620056,16.4252599 L28.2093658,16.364998 L28.3201487,16.2645827 L28.3935759,16.1039268 L28.4117478,15.9234594 L28.4675089,15.4414704 L28.5041058,15.3011563 L28.651466,15.180378 L28.8169983,15.0805143 L28.9825305,15.0601725 L29.3141202,15.0601725 L29.6270127,14.9800991 L29.9217527,14.879705 L30.0691129,14.7792898 L30.3267501,15.0403609 L30.5662349,15.1806538 L30.842297,15.3014321 L31.1370175,15.3814843 L31.6154617,15.4818995 L32.1309891,15.6824543 L32.2417719,15.8431314 L32.2783493,16.0241504 L32.2783493,16.4255356 L31.8920296,16.3050331 L31.5233566,16.28467 L31.1922922,16.3050331 L30.9896573,16.3652737 L30.0691129,16.1042026 L29.8296476,16.084391 L29.5901824,16.1042026 L29.3880533,16.2046178 L29.0193803,16.5655527 L28.9825305,16.6057273 L28.9272753,16.8266239 L28.9272753,17.0877163 L28.9825305,17.3482359 L29.0193803,17.5691537 L29.0380581,17.8104133 L29.074655,18.1311949 L29.16676,18.4525279 L29.3327981,18.693236 L29.7925644,19.1554134 L29.9767744,19.275916 L30.1423066,19.3565197 L30.1975619,19.4563834 L30.1793899,19.597249 L30.1425596,19.6773012 L30.0138577,19.7579049 L29.9033278,19.7579049 L29.5346742,19.7777165 L29.1483351,19.7174758 L28.7614901,19.6170606 L28.3564926,19.597249 L28.0064974,19.6574897 L27.6201583,19.7579049 L27.3993514,19.8181668 L27.2151414,19.9788227 L27.1598861,19.6773012 L27.1598861,19.0750855 L26.975929,19.5160938 M14.2153173,14.2367844 L14.0681905,14.4777683 L13.8105533,14.859342 L13.5160663,15.1801235 L13.1847489,15.4610062 L12.8165817,15.702287 L12.6876464,15.8026811 L12.1905244,16.1036511 L11.6565721,16.3245689 L11.1410447,16.5251236 L10.5886675,16.6255389 L10.4228824,16.7463172 L10.2939276,16.88661 L10.2018225,17.0874405 L10.2018225,17.2879953 L10.2570972,17.4288608 L10.4044575,17.5089131 L10.5699897,17.5089131 L10.7173694,17.4687385 L10.8647296,17.4288608 L10.9568347,17.3886863 L11.1407918,17.2483934 L11.3250018,17.1479781 L11.5276368,17.0877163 L11.7668491,17.0071126 L12.0244863,16.987301 L12.1350163,17.0071126 L12.3744815,17.0877163 L12.5955414,17.18758 L12.7794985,17.3284456 L12.9634361,17.5493634 L13.0555412,17.77026 L13.0923909,18.0313523 L13.1660711,18.1312161 L13.184496,18.3320466 L13.184496,18.5328559 L13.1476462,18.6929815 L13.0371357,18.8740004 L12.8713311,18.994503 L11.5271114,19.9381178 L11.3981761,19.9983585 L11.3429209,20.0784319 L11.324496,20.1788472 L11.3429209,20.2993285 L11.3981761,20.3799534 L11.4718562,20.4401941 L13.0923909,21.0220468 L13.3318562,21.0220468 L13.478983,21.1026505 L13.6260903,21.223153 L13.7366202,21.3838089 L14.1047874,21.3436556 L14.4176799,21.0223225 L14.67557,20.6407488 L14.877952,20.2393636 L15.0621621,19.8181668 L15.1542671,19.5166453 L15.6329642,20.3199673 L15.7434746,20.4404698 L15.6329642,20.6410246 L15.4490071,20.9623364 L15.2463721,21.303481 L15.0255652,21.5645522 L14.7860999,21.8454349 L14.5097849,22.0867157 L14.5097849,22.2468201 L14.49136,22.3675984 L14.4545296,22.4476506 L14.49136,22.4878252 L14.5097849,22.5480658 L14.583465,22.5480658 L14.7860999,22.5678774 L14.9700571,22.5678774 L15.3013744,22.5480658 L15.5590311,22.4878252 L16.0008784,22.4072215 L16.3506206,22.4674621 L16.4979809,22.4878252 L16.663766,22.5480658 L16.774296,22.6484811 L17.0319332,22.8289485 L17.3264202,23.0900409 L17.5656326,23.3709236 L16.1111359,23.3907352 L14.0856037,23.5915657 L13.8829688,23.4105255 L13.6990311,23.230058 L13.6069261,23.0295033 L13.5700763,22.8286728 L13.422716,22.7480691 L13.4042912,22.6878284 L13.2753363,22.0457139 L13.0913792,22.1059757 L12.9071692,22.1662164 L12.741384,22.1464049 L12.5574269,22.0861642 L12.3732169,21.9653859 L12.2261096,21.8448834 L12.0418995,21.6443286 L11.8211121,21.4434981 L11.4529449,21.3230168 L10.9558229,21.1221863 L10.4218706,20.9615092 L10.2010832,20.9012685 L10.0168732,20.7609544 L9.90634324,20.7007138 L9.83266312,20.5196948 L9.81423822,20.3392273 L9.83266312,20.1785502 L9.94319303,19.9980828 L10.5876558,19.395867 L10.6245056,19.3158148 L10.6060807,19.2153996 L10.5876558,19.195588 L10.4955508,19.1752462 L10.4036987,19.195588 L10.2194886,19.2153996 L9.90659617,19.2954518 L9.53842902,19.2954518 L9.18843383,19.2555742 L8.82026667,19.1551589 L8.65448153,19.4962823 L8.48869638,19.7573746 L8.32291123,19.8976675 L8.08342651,19.9980828 L7.89946939,20.0382573 L7.66000412,20.0382573 L7.5678991,20.2388121 L7.42079178,20.4396426 L7.27341207,20.5400578 L7.08920203,20.6399216 L6.84998969,20.6399216 L6.61052441,20.7205253 L6.22393236,20.7403368 L5.892615,20.7205253 L5.68998006,20.7007138 L5.5794696,20.7007138 L5.43234282,20.7609544 L5.37708759,20.8410278 L5.30340747,20.9615092 L5.30340747,21.7648312 L5.37708759,22.0253508 L5.48761751,22.2462686 L5.61655287,22.4470991 L5.78233801,22.5475143 L5.96654805,22.5475143 L6.09524994,22.6479296 L6.22418529,22.7684321 L6.33471521,22.908725 L6.55577504,23.6314433 L6.55577504,23.8523611 L6.33471521,24.013017 L5.10102546,24.013017 L4.99049554,23.8523611 L4.99049554,23.6116317 L5.06417567,23.0900197 L4.7697081,23.0696779 L4.56707316,22.9090008 L4.45654324,22.708446 L4.30943592,22.5477901 L4.23575579,22.3469596 L4.198906,22.1062515 L4.198906,21.8853337 L4.27258613,21.6644159 L4.36469115,21.3835332 L4.40154094,21.1428039 L4.40154094,20.8619212 L4.36469115,20.6206615 L4.34626626,20.5202463 L4.27258613,20.3799322 L4.25416123,20.2390878 L4.29101103,20.0784107 L4.36469115,19.978547 L4.47522107,19.8781317 L4.62258132,19.797528 L4.80653843,19.7174758 L5.34049073,19.5969733 L5.579956,19.5163696 L5.76393257,19.4561289 L5.96654805,19.3562651 L6.15050517,19.2756614 L6.31629031,19.1551589 L6.44524513,18.9746914 L6.55577504,18.7936725 L6.62945517,18.5931177 L6.6662855,18.3722 L6.64788006,18.211544 L6.35339303,18.2717847 L6.04022818,18.2915963 L5.70891082,18.2717847 L5.37759345,18.211544 L5.10127839,18.1309191 L4.84338822,18.0310554 L4.65943111,17.8703995 L4.47522107,17.669569 L4.34626626,17.4687385 L4.19915893,17.2280304 L4.16230914,16.8868858 L4.16230914,16.3652737 L4.19915893,16.0241504 L4.30968885,15.7427162 L4.45679617,15.4417462 L4.64100621,15.1204131 L4.84338822,14.8598935 L5.43259575,14.1368994 L5.61655287,13.9363447 L5.76367964,13.7355354 L5.80050998,13.5148934 L5.80050998,13.2738883 L5.72682985,13.0934208 L5.59812797,12.9930056 L5.48736458,12.972091 L5.30315454,12.972091 L5.15577483,12.9921783 L5.1005196,13.0323529 L5.1189445,12.9319377 L5.19262462,12.7511945 L5.30315454,12.5506397 L5.4320899,12.4100499 L5.59787504,12.2895686 L5.80025705,12.2694813 L6.00289199,12.2496697 L6.18710203,12.2898443 L6.35288718,12.3902596 L6.51867232,12.5509155 L6.6657991,12.2898443 L6.81315935,12.0692023 L6.84998969,11.7880438 L6.90526437,11.4870738 L6.84998969,11.2254512 L6.81315935,10.9445472 L6.70262944,10.7035634 L6.55552211,10.442768 L6.35288718,10.2419375 L6.15025224,10.1214349 L5.892615,10.0009324 L5.76367964,9.94069172 L5.57972253,9.90051714 L5.39551249,9.90051714 L5.21155538,9.92060443 L5.02759826,10.0210197 L4.89864345,10.141501 L4.7697081,10.3021781 L4.71443341,10.5027329 L4.67760308,10.7236295 L4.67760308,10.9643588 L4.7512832,11.2254299 L4.84338822,11.3861071 L5.00917337,11.5665745 L5.0644286,11.6268152 L4.99074847,11.6469025 L4.80653843,11.6870771 L4.73285831,12.0482877 L4.62232839,12.3896868 L4.47496814,12.7107441 L4.27258613,13.0117141 L4.05179868,13.2925968 L3.81231395,13.5938426 L3.64678174,13.8549137 L3.53625182,14.1963341 L3.40731646,14.5377332 L3.29678655,14.758651 L3.1310014,14.9193069 L2.94679136,15.0191706 L2.78125914,15.0593452 L2.5970491,15.0593452 L2.41309199,14.979293 L2.57887713,14.9190311 L2.68940705,14.7583752 L2.76308718,14.5779078 L2.81836186,14.3770773 L2.78151207,14.1963341 L2.72625684,14.0356569 L2.65255726,13.8950883 L2.63415182,13.8549137 L2.41334492,13.6945336 L2.26598467,13.4133751 L2.17387964,13.1726458 L2.10019952,12.8917631 L2.08076291,12.5905173 L2.0991878,12.2892716 L2.17286793,12.0485635 L1.91523069,11.9883016 L1.65734052,11.9280609 L1.43653362,11.7676596 L1.60206584,11.7475935 L1.74944554,11.6873316 L1.89655287,11.5668291 L1.98865789,11.3863616 L2.15444303,11.165465 L2.32022818,10.9646345 L2.55969345,10.8243205 L2.78075328,10.7239052 L2.57811835,10.7640798 L2.3573309,10.8042332 L2.11786563,10.7439925 L1.91523069,10.6435772 L1.69417086,10.543162 L1.52863864,10.3825061 L1.69417086,10.2221047 L1.98865789,10.0212742 L2.28339785,9.90079289 L2.59629031,9.80037764 L2.92762713,9.76020306 L3.2405196,9.78029035 L3.5720899,9.82044372 L3.88500182,9.84053101 L4.17946939,9.82044372 L4.45553153,9.78029035 L4.63974157,9.61961322 L4.91605663,9.49913189 L5.19211877,9.39871665 L5.48660579,9.35854206 L5.79949826,9.35854206 L6.09398529,9.39871665 L6.37030036,9.51921919 L6.64636249,9.69996239 L6.90425266,9.90079289 L7.10663467,10.1214137 L7.29084471,10.4025934 L7.40135517,10.7035422 L7.49346019,11.0245995 L7.51188508,11.3660198 L7.51188508,11.7475935 L7.47505475,12.1088041 L7.40135517,12.4702906 L7.23582295,12.8114351 L7.03320747,13.1126809 L6.83082546,13.3935636 L7.03320747,13.3935636 L7.21739805,13.4136509 L7.32792797,13.5140661 L7.45688278,13.654359 L7.5489878,13.8150361 L7.5674127,13.9957793 L7.5674127,14.1963341 L7.49371312,14.3366269 L7.27292567,14.5779078 L7.07029073,14.7380122 L6.90475851,14.9388427 L6.7942286,15.1597605 L6.72054847,15.3806783 L6.70212358,15.5011596 L6.64686835,15.4610062 L6.51816646,15.2406399 L6.407656,14.9795688 L6.35238132,14.7184764 L6.33395642,14.4175064 L6.35238132,14.1363479 L5.67106877,15.059621 L5.06343634,16.0838395 L4.98973676,16.264307 L4.93448153,16.4852248 L4.93448153,16.7061426 L4.98973676,16.9270604 L5.10026667,17.1276151 L5.22896856,17.288271 L5.33947902,17.3886863 L5.59738864,17.5091888 L5.89185621,17.5694295 L6.18634324,17.6096041 L6.44398048,17.5694295 L6.70161772,17.4690142 L6.70161772,17.2885468 L6.72004262,16.8871615 L6.83057253,16.2247051 L6.94110245,15.9237351 L7.08820977,15.6024021 L7.27241981,15.3413309 L7.47505475,15.1204131 L7.73269199,14.9198584 L9.48216207,13.7955003 L9.46373718,13.3941151 L9.48216207,13.0125414 L9.59269199,12.6914841 L9.72162734,12.3905141 L9.85058215,12.1495302 L9.92426228,11.9489755 L9.94268718,11.6879043 L9.94268718,11.4270877 L9.90583738,11.2262572 L9.85058215,11.1057759 L9.75873006,10.8446835 L9.66662504,10.5638008 L9.66662504,10.3030054 L9.72188027,10.0218469 L9.35373257,9.90134439 L9.11424785,9.76075455 L8.91188529,9.52004643 L8.96714052,9.80120489 L8.93029073,10.041913 L8.8934604,10.2424678 L8.80135538,10.5035601 L8.65397567,10.6441287 L8.56187065,10.443574 L8.48819052,10.2427435 L8.3410832,10.1021749 L8.15712609,9.94149776 L8.08344596,9.90134439 L8.02817128,9.88125709 L7.88106395,9.72087693 L7.77053404,9.56019981 L7.67842902,9.35964506 L7.66000412,9.11866119 L7.66000412,8.89801915 L7.66000412,8.97834711 L7.54949366,9.11893694 L7.40211395,9.25950556 L7.2731786,9.31976744 L7.08896856,9.46006031 L6.94186123,9.25950556 L6.75790412,8.99871015 L6.61052441,8.73763899 L6.51841939,8.45675628 L6.44473927,8.135699 L6.44473927,7.83445325 L6.48158906,7.53320751 L6.55526918,7.21215022 L6.70237651,6.93126752 L6.55526918,7.05177006 L6.35263425,7.13209801 L6.1868491,7.19235989 L6.00263906,7.13209801 L6.07631918,6.89138989 L6.14999931,6.61050719 L6.14999931,6.32960327 L6.07631918,6.30953719 L5.89236207,6.20912195 L5.81868195,6.18903465 L5.76342672,6.1087067 L5.61629994,5.94802957 L5.5794696,5.84761432 L5.56104471,5.6069062 L5.67157462,5.66714687 L5.78208508,5.68723416 L6.15025224,5.68723416 L6.27920705,5.66714687 L6.40814241,5.6069062 L6.51867232,5.56673162 L6.62920224,5.48640366 L6.72105433,5.38598842 L6.88683948,5.18543367 L7.21815684,4.78404842 L7.51264387,4.36232135 L7.586324,4.32214677 L7.67842902,4.22173152 L7.80738383,4.14140356 L7.89948885,4.04098831 L8.02817128,4.00081373 L8.15712609,3.92048577 L8.30423341,3.90039848 L8.41476333,3.84015782 L8.41476333,3.69956798 L8.43318822,3.63932732 L8.48844345,3.61924003 L8.52529324,3.59915274 L8.56212358,3.57906544 L8.61739826,3.57906544 L8.93054366,3.59915274 L9.22503069,3.69956798 L9.53817609,3.83988207 L9.6671309,3.65913886 L10.4037181,3.65913886 L10.9192455,3.79970748 L10.9192455,4.20109273 L11.1768828,4.42201052 L11.3979426,4.48225118 L11.6742577,4.64265256 L11.91347,4.84348305 L12.1342575,5.08446692 L12.2816372,5.34526233 L12.7971646,5.94747807 L13.0919045,6.18848315 L13.2390119,6.28862265 L13.3495418,6.36895061 L13.4416468,6.52960652 L13.4416468,6.83057652 L13.404797,7.03140701 L13.2758617,7.19206293 L12.7050596,7.01131972 L12.6129545,7.03140701 L12.5576993,7.09166889 L12.5208495,7.19206293 L12.5208495,7.2523248 L12.5761047,7.33265276 L12.7787397,7.53320751 L12.7050596,7.734038 L12.5579522,7.81436596 L12.3921476,7.77421259 L12.2079571,7.734038 L12.0608303,7.63362276 L11.9503004,7.47296684 L11.8397899,7.33237701 L11.6742577,7.19178718 L11.4900476,7.03113127 L11.3429209,6.93071602 L11.1402859,6.83030077 L10.9194985,6.81048923 L10.7168635,6.81048923 L10.5329064,6.85066381 L10.7355414,7.19206293 L10.9563288,7.47296684 L11.2326439,7.734038 L11.5271309,7.93459275 L11.9137229,8.13542325 L12.0610832,8.17557662 L12.4845056,8.33625374 L12.8529257,8.49690966 L13.2210928,8.77779236 L13.5155799,9.05867506 L13.8284723,9.37973235 L14.0679376,9.72115268 L14.2887445,10.2028659 L14.5463817,10.6243172 L14.8411217,11.0257024 L14.9700571,11.2064457 L14.6569117,12.0496665 L14.5832315,12.2100466 L14.8411217,12.2100466 L14.9700765,12.2702873 L15.080587,12.3506153 L15.2092888,12.4108771 L15.3013939,12.4912051 L15.3934989,12.6117076 L15.4487541,12.7520005 L15.5040288,12.8925903 L15.5224342,13.1333197 L15.5224342,13.334129 L15.4856039,13.5346837 L15.4303292,13.7352384 L15.3566491,13.9360689 L15.2645441,14.1165364 L15.2463721,14.3776288 L15.2279667,14.6585115 L15.2279667,14.9393942 L15.2463721,15.2409157 L15.2645441,15.3407794 L15.3013939,15.380954 L15.3013939,15.5817845 L15.2645441,15.8026811 L15.2277137,15.9831485 L15.1724391,16.183979 L15.1540336,16.2238779 L15.080334,16.3647434 L15.0250788,16.4249841 L14.9329738,16.4852248 L14.8408688,16.5652982 L14.7303388,16.6054516 L14.6014035,16.6054516 L14.4171935,16.7463172 L14.2332363,16.9267846 L14.1963865,16.9465961 L13.9937516,17.0068368 L13.7542863,17.0874405 L13.2755893,17.0874405 L13.0548018,17.0472871 L13.0363769,16.9870253 L12.9995271,16.88661 L12.9995271,16.7861948 L13.0363769,16.686331 L13.2758422,15.782615 L13.2758422,15.7628035 L13.3495418,15.7424404 L13.4232219,15.7424404 L13.4600522,15.7025416 L13.6256039,15.7628035 L13.8834941,15.7628035 L14.0124294,15.7424404 L14.1782146,15.6821998 L14.2700667,15.582336 L14.3621717,15.3815055 L14.4174464,15.1407762 L14.4542767,14.9198584 L14.4911265,14.6587872 L14.4911265,14.0568472 L14.4174464,13.8359294 L14.2153173,14.2367632 M26.4604016,15.3611425 L26.4972514,15.4610062 L26.5525066,15.4813693 L26.8285688,15.4813693 L26.8285688,15.5614215 L26.8472271,15.6618367 L26.8653991,15.7418889 L26.8840769,15.8027023 L26.9388263,15.8827545 L26.9756761,15.9628067 L27.0309313,16.0235989 L27.086206,16.0838607 L27.178311,16.1036723 L27.2522441,16.0838607 L27.3996043,15.9834455 L27.4912035,15.9231836 L27.6567357,15.7625277 L27.6201583,15.8830302 L27.6201583,16.0841365 L27.6383303,16.1641887 L27.6564828,16.2043633 L27.7122633,16.264604 L27.7856905,16.3650192 L27.9330508,16.4252599 L27.6564828,17.7501939 L27.3622681,18.6533584 L27.1596332,19.0745552 L26.9754232,19.516115 L26.496979,20.299074 L26.3864491,20.4399183 L25.9443489,21.021771 L25.3185445,21.6446256 L24.6188071,22.1863037 L23.9006447,22.608052 L23.0903773,22.9689869 L22.3172127,23.2102677 L21.4700955,23.2903199 L20.6414227,23.2903199 L19.8129834,23.2102677 L19.0211409,22.9689869 L18.2477039,22.6482053 L17.4927112,22.1860279 L16.8113987,21.6443498 L16.1855943,21.0214953 L15.6332171,20.3191401 L15.15452,19.5158393 L14.7495225,18.6528069 L14.4550355,17.7496424 L14.2339757,16.9265089 L14.4179328,16.7460414 L14.6021428,16.605197 L14.7310976,16.605197 L14.8416276,16.5650224 L14.9337131,16.4849702 L15.0258181,16.4247084 L15.0810928,16.3644677 L15.1547729,16.2236021 L15.1731978,16.1837245 L15.2284531,15.982894 L15.2653029,15.8024265 L15.3021332,15.5815088 L15.3021332,15.3806783 L15.2653029,15.3405037 L15.2471309,15.2406399 L15.228706,14.9391396 L15.228706,14.6582357 L15.2471309,14.377353 L15.2653029,14.1162819 L15.3574079,13.9358144 L15.431088,13.7349839 L15.4863432,13.5344292 L15.523193,13.3338744 L15.523193,13.1330439 L15.5047681,12.8923146 L15.4495129,12.751746 L15.3942382,12.6114319 L15.3021332,12.4909293 L15.2100282,12.4106014 L15.0813458,12.3503607 L14.9708158,12.2700328 L14.8418805,12.2097709 L14.5839709,12.2097709 L14.6576704,12.0493907 L14.9708158,11.2061911 L15.4495129,10.3830576 L16.0018901,9.62018593 L16.5910976,8.97781682 L17.2539853,8.39568837 L18.1376993,7.8537133 L18.7637566,7.5527433 L19.5740045,7.25149755 L20.3471886,7.13099501 L21.1942863,7.09084164 L22.0227257,7.19125689 L22.832993,7.3519128 L23.6432604,7.67297009 L24.2140625,8.03418075 L25.0795851,8.57643158 L25.7424727,9.17835036 L26.3319527,9.88098135 L26.8288022,10.643853 L27.2527305,11.4870738 L27.5656424,12.3905141 L27.7130027,12.8521612 L27.8417045,13.3137871 L27.8417045,13.4342897 L27.7864299,13.4945303 L27.7130027,13.5146176 L27.6572416,13.5949456 L27.6206447,13.6150329 L27.5653895,13.6953608 L27.4914564,13.7957761 L27.3998573,13.8961913 L27.3077522,13.9966066 L27.2156472,14.0568472 L27.1235422,14.1171091 L26.9943345,14.1974371 L26.8474801,14.3179396 L26.681442,14.4785955 L26.5159098,14.6392514 L26.4606351,14.7391152 L26.4053799,15.0604482 L26.4603822,15.3611425 M20.6048259,5.58433717 L21.1940529,5.54416258 L21.6724776,5.58433717 L22.0593225,2.67341917 L22.4456617,2.45250139 L22.8695899,2.25167089 L23.3111842,2.11110227 L23.7351125,1.99059973 L23.9559194,1.97051244 L24.1401294,1.97051244 L24.3240865,1.99059973 L24.4896188,2.0307531 L24.6188071,2.11110227 L24.7843393,2.25167089 L24.8948692,2.39226072 L24.9869742,2.55264088 L25.005652,2.69323072 L25.0609073,2.91387276 L25.0790792,3.09461596 L25.0790792,3.23518458 L25.0609073,3.47591391 L25.005652,3.71689778 L24.9503773,3.93781557 L24.8025112,4.19861098 L24.6556568,4.43961606 L24.4161916,4.82118976 L24.1401294,5.16231313 L23.9006447,5.48337042 L23.5690744,5.78461616 L23.348287,6.0052582 L23.9006447,6.2060887 L24.3240865,6.46715986 L24.3980196,6.52742174 L24.4896188,6.5876624 L24.5817238,6.60774969 L24.8211891,6.60774969 L24.9132941,6.5876624 L24.9685493,6.56785086 L25.0419765,6.50733445 L25.0972512,6.42700649 L25.1711842,6.36674461 L25.1893562,6.32659124 L25.2446114,6.22617599 L25.2632893,6.16591412 L25.2814612,6.06549887 L25.2814612,5.94501754 L25.2632893,5.86466837 L25.2632893,5.80442771 L25.2446114,5.78434042 L25.2446114,5.74418704 L25.1893562,5.64377179 L25.1525064,5.60359721 L25.1343345,5.56342263 L25.1525064,5.60359721 L25.1893562,5.64377179 L25.2632893,5.70401246 L25.3548884,5.78434042 L25.4288215,5.80442771 L25.4656713,5.84460229 L25.5209265,5.84460229 L25.5577763,5.86466837 L25.7967357,5.86466837 L25.8520104,5.84460229 L25.9811987,5.80442771 L26.0364734,5.74418704 L26.1285589,5.64377179 L26.2020056,5.56369838 L26.2201581,5.50318196 L26.2388359,5.4429413 L26.2756857,5.40276671 L26.2756857,5.36261334 L26.2938577,5.30235147 L26.3120102,5.26217688 L26.3120102,5.16176163 L26.2938577,5.08143368 L26.2756857,4.98074268 L26.2756857,4.94058931 L26.2199052,4.84017406 L26.2017527,4.77991218 L26.128306,4.73975881 L26.0914757,4.67949693 L26.0727978,4.65943085 L26.1096476,4.65943085 L26.2017527,4.73975881 L26.238583,4.7598461 L26.330688,4.77991218 L26.4593899,4.82008677 L26.5146451,4.82008677 L26.5514949,4.77991218 L26.6067501,4.77991218 L26.6988552,4.7598461 L26.7722824,4.73975881 L26.8830652,4.65943085 L26.937834,4.63934356 L26.9746644,4.5590156 L27.0299391,4.51884102 L27.0667694,4.43851306 L27.0849414,4.39833848 L27.1401966,4.29792323 L27.1588744,4.23768257 L27.1588744,3.93836707 L27.1401966,3.83795182 L27.1220441,3.73753657 L27.0667694,3.63712132 L26.9928363,3.59694674 L26.9012372,3.49653149 L26.8273041,3.43629083 L26.7538769,3.37602895 L26.6799439,3.33587558 L26.569414,3.33587558 L26.6062637,3.33587558 L26.6796909,3.29570099 L26.753624,3.29570099 L26.7904738,3.2756137 L26.863901,3.23546033 L26.956006,3.17519845 L26.9925834,3.13504508 L27.0665165,3.07480442 L27.1217912,2.99445525 L27.1586215,2.97438917 L27.1767935,2.89404 L27.2136432,2.85388663 L27.2318152,2.77355867 L27.2504736,2.7132968 L27.2504736,2.39251526 L27.2318152,2.35236189 L27.2136432,2.27203393 L27.1767935,2.19170597 L27.1586215,2.15153139 L27.1399631,2.09129072 L27.0846884,2.03102885 L26.9925834,1.95070089 L26.9009842,1.87037294 L26.845729,1.83019835 L26.753624,1.76995769 L26.6430941,1.7498704 L26.569161,1.73005885 L26.4775619,1.7498704 L26.3302016,1.76995769 L26.1828219,1.83019835 L26.1088888,1.87037294 L26.1457386,1.79004498 L26.2378437,1.66954244 L26.2930989,1.62936786 L26.3112709,1.5490399 L26.3299487,1.46871194 L26.3665261,1.38838399 L26.3852039,1.3482094 L26.4033759,1.20764078 L26.4033759,1.06705095 L26.3852039,0.946548409 L26.3665261,0.82606708 L26.3299487,0.725651832 L26.274674,0.625512333 L26.2378437,0.565250457 L26.2009939,0.525097084 L26.1457386,0.444747917 L26.1088888,0.404594544 L26.0720391,0.344332668 L25.9986119,0.304179296 L25.9251847,0.284092004 L25.8512516,0.24391742 L25.8330796,0.24391742 L25.7409746,0.203764047 L25.6675474,0.183676755 L25.6122727,0.143502171 L25.4280627,0.143502171 L25.3359771,0.183676755 L25.2807024,0.203764047 L25.1885974,0.24391742 L25.1517671,0.24391742 L25.0783204,0.284092004 L25.0048932,0.324266588 L24.9680629,0.384507252 L24.9127882,0.424681836 L24.8759579,0.444747917 L24.8206832,0.525097084 L24.7838529,0.565250457 L24.7656809,0.625512333 L24.7104062,0.705840289 L24.7104062,0.766080954 L24.6735759,0.84640891 L24.6554039,0.906670786 L24.6554039,0.766080954 L24.6185541,0.725927581 L24.6185541,0.605425041 L24.6003822,0.545163165 L24.5817238,0.484922501 L24.5264491,0.424681836 L24.5082771,0.384507252 L24.4896188,0.324266588 L24.4343441,0.284092004 L24.3977667,0.24391742 L24.3238336,0.203764047 L24.3056617,0.143247633 L24.2317286,0.143247633 L24.1951317,0.123436091 L24.1398765,0.103348799 L23.9003918,0.103348799 L23.8264587,0.123436091 L23.7712035,0.143247633 L23.7159288,0.143247633 L23.6606736,0.203764047 L23.6240962,0.24391742 L23.5501437,0.284092004 L23.5319912,0.324266588 L23.4951414,0.404594544 L23.4582916,0.424681836 L23.4401391,0.505009793 L23.4032893,0.545163165 L23.3851173,0.605425041 L23.3851173,0.94684537 L23.3851173,0.906670786 L23.3111842,0.766102165 L23.3111842,0.725927581 L23.255929,0.625788082 L23.2006543,0.565547418 L23.1453991,0.545460126 L23.0901244,0.525372834 L22.9980194,0.445044878 L22.6480242,0.445044878 L22.574597,0.505285542 L22.500664,0.545460126 L22.4272368,0.60570079 L22.3538096,0.706116039 L22.298029,0.826618579 L22.298029,0.866771952 L22.2614516,0.947121119 L22.2427738,1.02744908 L22.2427738,1.04753637 L21.8377763,0.706391788 L21.8196043,0.104176048 L21.7643296,0.0439353832 L21.6909024,0.00376079923 L20.60432,0.00376079923 L20.5306399,0.0439353832 L20.4938096,0.104176048 L20.4569598,0.706391788 L20.0519428,1.04753637 L20.0519428,1.00736178 L20.0335374,0.927033828 L19.9966876,0.866771952 L19.9966876,0.806531287 L19.9782627,0.746290623 L19.9414324,0.706116039 L19.8861577,0.625788082 L19.8124776,0.565547418 L19.7572223,0.545460126 L19.7019476,0.505285542 L19.6098426,0.48519825 L19.5737711,0.445320627 L19.4263914,0.445320627 L19.389561,0.485474 L19.2790311,0.505561292 L19.2237564,0.545735876 L19.1869261,0.565823167 L19.0948211,0.626063832 L19.0395658,0.706391788 L19.002716,0.806807037 L18.9474414,0.927309577 L18.9474414,0.566098917 L18.910611,0.485749749 L18.8921861,0.425509085 L18.800334,0.305006544 L18.7450788,0.24476588 L18.7266539,0.24476588 L18.6532267,0.204591296 L18.6163769,0.144074882 L18.5426968,0.144074882 L18.4505918,0.103900298 L18.1742767,0.103900298 L18.0821717,0.144074882 L17.9900667,0.184249466 L17.9900667,0.204315546 L17.8979617,0.24449013 L17.8611313,0.324818087 L17.7690263,0.425233335 L17.7321765,0.545735876 L17.6953267,0.626063832 L17.6953267,0.867047701 L17.6769213,0.766632453 L17.6216466,0.72647908 L17.5663914,0.566077706 L17.4376895,0.445596377 L17.3455845,0.345456878 L17.3087541,0.285195002 L17.2166491,0.245041629 L17.142969,0.204867045 L17.0692694,0.184779754 L17.0140142,0.144626381 L16.5903388,0.144626381 L16.5535085,0.184779754 L16.4614035,0.204867045 L16.3692985,0.245041629 L16.2771935,0.325369586 L16.2035133,0.405697542 L16.1671694,0.445320627 L16.0750644,0.545735876 L16.0198091,0.60597654 L15.9829594,0.706391788 L15.9645345,0.766653664 L15.9277041,0.867068913 L15.9092792,0.947396869 L15.8908543,1.02772483 L15.8908543,1.20846803 L15.9092792,1.26870869 L15.9277041,1.36912394 L15.9645345,1.44947311 L15.9829594,1.52980107 L16.0198091,1.63021632 L16.1119142,1.73063156 L16.1671694,1.79087223 L16.1855943,1.85111289 L16.0750644,1.79087223 L15.9092792,1.73063156 L15.7803244,1.73063156 L15.6329642,1.75044311 L15.5040094,1.83077106 L15.3566491,1.89101173 L15.2645441,2.03160156 L15.172692,2.15208289 L15.1358617,2.29267272 L15.080587,2.47314018 L15.080587,2.65388338 L15.1358617,2.77438592 L15.2095418,2.93504183 L15.3016468,3.07563167 L15.4121767,3.17577117 L15.5226872,3.27618641 L15.7066443,3.29627371 L15.8355991,3.33642708 L15.5961144,3.33642708 L15.5224342,3.37660166 L15.4856039,3.39668895 L15.4303292,3.43684233 L15.3934989,3.47701691 L15.3382242,3.51719149 L15.3013939,3.57743216 L15.2645441,3.61758553 L15.2463721,3.65776011 L15.2095418,3.71800078 L15.172692,3.73808807 L15.1542671,3.81841603 L15.1358422,3.83822757 L15.1358422,4.23988856 L15.1542671,4.25970011 L15.1542671,4.31994077 L15.172692,4.36011535 L15.2095418,4.44044331 L15.2463721,4.48061789 L15.2645441,4.54085856 L15.3013939,4.5606701 L15.3382242,4.64099806 L15.3934989,4.66108535 L15.4303292,4.68117264 L15.4856039,4.74141331 L15.5224342,4.74141331 L15.5961144,4.78158789 L15.6329642,4.78158789 L15.7066443,4.82174126 L15.8908543,4.82174126 L15.9645345,4.78158789 L16.0013842,4.78158789 L16.0198091,4.7615006 L16.1119142,4.74141331 L16.1855943,4.66108535 L16.1671694,4.68117264 L16.1119142,4.74141331 L16.0934893,4.78158789 L16.0750644,4.82174126 L16.0198091,4.84182855 L16.0013842,4.92215651 L15.9829594,4.9422438 L15.9645539,4.98241839 L15.9645539,5.44432005 L15.9829594,5.48447342 L16.0013842,5.54473529 L16.0198091,5.60497596 L16.0750644,5.66523783 L16.1119142,5.70539121 L16.1671694,5.74556579 L16.1855943,5.78574037 L16.2408495,5.78574037 L16.2776993,5.80580645 L16.2961242,5.84598104 L16.3698043,5.84598104 L16.4066541,5.86606833 L16.4434845,5.86606833 L16.4987591,5.88615562 L16.5908642,5.88615562 L16.6645443,5.86606833 L16.7566493,5.86606833 L16.7750742,5.84598104 L16.8303294,5.80580645 L16.9408594,5.74556579 L16.9776897,5.68530391 L17.0329644,5.64515054 L17.0697947,5.60497596 L17.0145395,5.66523783 L16.9592842,5.74556579 L16.9408594,5.80580645 L16.9224345,5.84598104 L16.9224345,6.12713949 L16.9408594,6.18738016 L16.9592842,6.22755474 L16.9592842,6.2877954 L17.0145395,6.36814457 L17.0697947,6.42838524 L17.1434943,6.48890165 L17.1987495,6.52907623 L17.2171744,6.52907623 L17.2540047,6.5893169 L17.3092794,6.5893169 L17.3277043,6.60940419 L17.6224248,6.60940419 L17.6776995,6.5893169 L17.696105,6.5893169 L17.7329547,6.56952657 L17.8066349,6.50898894 L17.8987399,6.42866099 L18.064525,6.30815845 L18.4882198,6.1076037 L18.9116422,5.98712237 L18.7274322,5.78656762 L18.4329451,5.48532188 L18.1382052,5.16426459 L17.8805679,4.82312001 L17.6229307,4.44154631 L17.4389736,4.14030056 L17.3468686,3.93976703 L17.3100382,3.71884924 L17.2179332,3.47784416 L17.2179332,2.89599146 L17.2547635,2.71524825 L17.3100382,2.55459234 L17.4018903,2.39419097 L17.5124008,2.25362235 L17.6782054,2.11303251 L17.8071407,2.05279185 L17.9913508,1.99252997 L18.1384581,1.97246389 L18.3226681,1.97246389 L18.543475,1.99252997 L19.0037472,2.11303251 L19.4271696,2.25362235 L19.8140146,2.45445284 L20.2366782,2.67371613 L20.6048453,5.58435838" id="Stroke-1" stroke="#0074B6" stroke-width="0.5" stroke-linejoin="round"></path>
            <polygon id="Stroke-3" stroke="#0074B6" stroke-width="0.5" stroke-linejoin="round" points="24.8217008 23.2102507 26.7551279 23.3307533 28.3017296 23.5315838 29.8851616 23.8121907 31.2109564 24.1335026 31.3401641 23.9527594 31.5238489 23.8325538 31.7451616 23.7921034 32.0951568 23.6916882 32.8496631 23.611636 34.6909853 23.611636 34.8388514 23.7321385 34.9857252 23.7921034 35.1149135 23.7321385 35.2433625 23.6314475 35.3172955 23.5315838 35.2804457 23.6916882 35.3172955 23.8523441 35.4096535 23.9932097 35.5565079 24.1134153 35.7225459 24.1335026 35.8512478 24.1134153 35.9615248 24.0936249 36.1275629 23.7120512 36.219415 23.8523441 36.3854531 23.9932097 36.5328133 24.0936249 36.7165175 24.0936249 36.9009805 24.013 37.0665127 23.9125848 37.1586177 23.7321173 37.2320644 23.6116148 41.9978832 23.6116148 40.3773485 25.7995599 41.9239501 27.7269643 31.9106938 27.7269643 31.5796294 28.7709944 29.0382974 28.248852 26.570665 27.8273795 24.0482637 27.5663083 21.5440344 27.4460815 19.0213803 27.4460815 16.4987455 27.626549 13.9942633 27.9280705 11.490034 28.3492673 10.7168499 28.5302862 10.2381723 27.4460815 0.0033697908 27.4460815 1.71600954 25.599281 0.114152636 23.611636 4.99024845 23.611636 4.99024845 23.8523441 5.10077837 24.013 6.33421519 24.013 6.55525556 23.8523441 6.55525556 23.611636 9.22527 23.611636 9.66713674 23.6314263 9.98028213 23.6916882 10.1276424 23.6916882 10.3484493 23.7921034 10.5326593 23.8325326 10.6800196 23.912606 10.8089744 24.0130212 10.9745066 24.1335026 12.061089 23.9329478 14.0866213 23.5918244 16.1119005 23.3907182 17.6219054 23.3709067 18.2295572 23.290303 21.4701014 23.290303 22.3174715 23.2102507 23.1458913 23.1700762 23.5509083 23.1898877"></polygon>
            <path d="M11.1034497,12.0485571 L11.1955548,12.2089373 L11.3245096,12.3897017 L11.4534449,12.5503576 L11.5823997,12.6708601 L11.72976,12.7913415 L11.9137171,12.8716906 L12.0610774,12.9319313 L12.2450345,12.992172 L12.5763713,13.0323466 L12.8526669,13.1126745 L13.1840037,13.2130898 L13.3679608,13.2331771 L13.5705763,13.2733516 L13.7545334,13.313505 L13.9203186,13.393833 L14.1042757,13.5143355 L14.3069106,13.6950787 L14.4174405,13.8356685 L11.1034497,12.0485571 Z M22.2435267,1.04753 L22.0408918,2.67368856 L22.2435267,1.04753 Z M20.2366723,2.67368856 L20.0524623,1.20818592 L20.0524623,1.04753 L20.2366723,2.67368856 Z M17.8979753,6.42755162 L17.9900803,6.30704908 L17.9900803,6.22672113 L18.0453355,6.18654654 L18.0453355,6.12630588 L18.0637604,6.02589063 L18.0637604,5.94556267 L18.0453355,5.84514743 L18.0453355,5.80497284 L17.9900803,5.74473218 L17.9900803,5.66440422 L17.9532305,5.64431693 L17.8979753,5.54417743 L17.8611255,5.54417743 L17.8058703,5.48391556 L17.7321901,5.44376218 L17.6955933,5.44376218 L17.6771684,5.4035876 L17.6219131,5.38350031 L17.5666385,5.36343423 L17.4377031,5.36343423 L17.3455981,5.38350031 L17.3087483,5.4035876 L17.2534931,5.44376218 L17.2166433,5.44376218 L17.1245382,5.54417743 L17.069283,5.56426472 L17.1245382,5.48391556 L17.1429631,5.44376218 L17.161388,5.38350031 L17.161388,5.04237694 L17.1429631,4.98213627 L17.1245382,4.94196169 L17.1245382,4.9218744 L17.069283,4.84154644 L17.069283,4.82145915 L17.0324332,4.78130578 L16.977178,4.74113119 L16.9587531,4.68086932 L16.9219228,4.66080324 L16.8666481,4.64071595 L16.8300707,4.64071595 L16.774796,4.58045407 L16.7563711,4.56038799 L16.7195408,4.56038799 L16.6642661,4.54057645 L16.4432257,4.54057645 L16.4063759,4.56038799 L16.3695456,4.56038799 L16.3511207,4.58045407 L16.295846,4.62062865 L16.2405908,4.64071595 L16.203741,4.66080324 L16.2590156,4.64071595 L16.295846,4.56038799 L16.3511207,4.54057645 L16.3695456,4.48033578 L16.4063759,4.4401612 L16.4063759,4.39998661 L16.4432257,4.31965866 L16.4432257,4.25941799 L16.480056,4.23960645 L16.480056,3.91827341 L16.4432257,3.83794546 L16.4432257,3.81813391 L16.4063759,3.73780596 L16.4063759,3.71771867 L16.3695456,3.657478 L16.3511207,3.61730342 L16.295846,3.57715005 L16.2590156,3.51688817 L16.203741,3.4767348 L16.1669106,3.43656021 L16.1116359,3.43656021 L16.0748056,3.39640684 L16.0195309,3.37631955 L15.9827006,3.33614496 L15.7987435,3.33614496 L15.8905956,3.33614496 L15.9642757,3.29599159 L16.0195309,3.29599159 L16.093211,3.2759043 L16.1484857,3.23572972 L16.1853355,3.19557634 L16.2587627,3.13531447 L16.2955931,3.11522718 L16.3692732,3.03489922 L16.406123,2.99474585 L16.4429728,2.91439668 L16.4798031,2.85415602 L16.498228,2.77382806 L16.5350778,2.71358739 L16.5350778,2.65332552 L16.5535027,2.55291027 L16.5535027,2.47285806 L16.5350778,2.3124779 L16.498228,2.25221602 L16.4798031,2.17188807 L16.406123,2.07174857 L16.3692926,1.99142061 L16.2955931,1.95124603 L16.2403378,1.89100536 L16.2955931,1.93115874 L16.3508677,1.97133332 L16.406123,2.03157398 L16.5535027,2.07174857 L16.6271828,2.09183586 L16.8298177,2.09183586 L16.9769251,2.07174857 L17.0690301,2.07174857 L17.2532401,1.99142061 L17.3085148,1.97133332 L17.3453451,1.93115874 L17.4374502,1.87091807 L17.5295552,1.75041553 L17.6216602,1.6299342 L17.6216602,1.5292432 L17.6953403,1.34875454 L17.7137652,1.20818592 L17.7137652,1.04753 L17.6953403,0.947093545 L17.6953403,0.866765588 L17.7137652,0.947093545 L17.7690205,1.10749492 L17.8242951,1.20791017 L17.8795504,1.26815083 L17.8979753,1.30832542 L17.9164002,1.32841271 L17.9900803,1.36856608 L17.9900803,1.38865337 L18.0821853,1.42882796 L18.1742903,1.44889404 L18.2663954,1.46898133 L18.4506054,1.46898133 L18.5795408,1.42882796 L18.6532209,1.38865337 L18.745073,1.30832542 L18.7634979,1.26815083 L18.837178,1.20791017 L18.8556029,1.1476695 L18.8924527,1.12758221 L18.9108581,1.06732034 L18.9108581,1.04725425 L18.9477079,1.00707967 L18.9477079,0.926751715 L18.9477079,1.30832542 L19.0029631,1.38865337 L19.021388,1.44889404 L19.03956,1.5292432 L19.1132401,1.58948387 L19.1869203,1.64972453 L19.22377,1.66981183 L19.2790253,1.68989912 L19.3343,1.7300737 L19.426405,1.74986403 L19.6471924,1.74986403 L19.7024671,1.68962337 L19.8129776,1.64944878 L19.8498274,1.6293827 L19.8866772,1.56912083 L19.9419324,1.52896746 L19.9787822,1.46870558 L20.0340374,1.36829033 L20.0524623,1.247809 L20.0524623,1.04725425 L17.8979753,6.42755162 Z M24.3243336,6.467705 L24.2322286,6.36728975 L24.2140567,6.32713638 L24.1958847,6.22672113 L24.1590544,6.20663384 L24.1408824,6.16645925 L24.1408824,5.84514743 L24.1590544,5.78488555 L24.1958847,5.74473218 L24.2324815,5.64431693 L24.2511594,5.60414235 L24.3064146,5.56398897 L24.3798418,5.50345135 L24.4166916,5.48338527 L24.4901188,5.44321068 L24.5269686,5.4030361 L24.5822238,5.38294881 L24.6743288,5.36288273 L24.7664338,5.36288273 L24.8217085,5.38294881 L24.9137941,5.4030361 L24.9690688,5.44321068 L25.0611738,5.50345135 L25.134601,5.56398897 L25.0611738,5.48363981 L25.0058991,5.38322456 L25.0058991,4.98213627 L25.0611738,4.9218744 L25.0977512,4.84154644 L25.134601,4.76121849 L25.1898562,4.68089053 L25.2451309,4.66080324 L25.2638087,4.64071595 L25.3554079,4.58047528 L25.4661713,4.5403007 L25.613551,4.5202134 L25.7422334,4.5202134 L25.8343385,4.5403007 L25.9264435,4.56011224 L26.0732979,4.66052749 L25.9446154,4.51993766 L25.9264435,4.47978428 L25.8525104,4.39943511 L25.8343385,4.31910716 L25.8156606,4.2387792 L25.8156606,3.93753346 L25.8343385,3.83711821 L25.8525104,3.75679025 L25.8893602,3.71663688 L25.9261905,3.63628771 L25.9814652,3.59613434 L25.9996177,3.53587246 L26.0917228,3.4756318 L26.1469974,3.39530384 L26.2761857,3.33504197 L26.5151646,3.33504197 L26.3864627,3.29488859 L26.2391025,3.2748013 L26.1098947,3.17438605 L25.9993648,3.07424656 L25.9259376,2.93365672 L25.8520046,2.77300081 L25.8151548,2.65249827 L25.8151548,2.47285806 L25.8338326,2.29239061 L25.8891073,2.15180078 L25.9811928,2.03131945 L26.1098947,1.87064232 L25.9811928,1.97105757 L25.8151548,2.05138553 L25.6496226,2.09156011 L25.4656654,2.09156011 L25.3183052,2.07147282 L25.1522671,2.03131945 L25.0058991,1.9309042 L24.8951357,1.83048895 L24.7846058,1.67008758 L24.7111786,1.52951895 L24.6559039,1.3490515 L24.6190736,1.148221 L24.6190736,1.00763117 L24.6559039,0.927303214 L24.6006487,1.04780575 L24.5637989,1.148221 L24.5085437,1.20846167 L24.4716939,1.26870233 L24.3795889,1.3490515 L24.2509064,1.42937946 L24.1403765,1.44946675 L24.1035267,1.46953283 L23.9193167,1.46953283 L23.7537845,1.42937946 L23.6803573,1.38920487 L23.6616795,1.36911758 L23.5882523,1.30887692 L23.5514025,1.26870233 L23.4779753,1.20846167 L23.4411255,1.12813371 L23.4042951,1.04780575 L23.4042951,1.02771846 L23.3861232,0.947390506 L23.3861232,1.26870233 L23.3674454,1.32896421 L23.3121901,1.44944554 L23.2387629,1.5297947 L23.1466579,1.63020995 L23.0732307,1.65027603 L23.017956,1.67036332 L22.9811062,1.69045062 L22.7232161,1.69045062 L22.631111,1.67036332 L22.5390255,1.63020995 L22.4469205,1.549882 L22.3553213,1.44946675 L22.3184715,1.3490515 L22.2632163,1.24863625 L22.2445385,1.12813371 L22.2445385,1.06787183 L24.3243336,6.467705 Z M21.5071924,2.19169961 C21.5071924,2.4126174 21.3229824,2.6134479 21.1021949,2.6134479 C20.881388,2.6134479 20.697178,2.4126174 20.697178,2.19169961 C20.697178,1.95099149 20.881388,1.75016099 21.1021949,1.75016099 C21.3227489,1.75016099 21.5071924,1.95099149 21.5071924,2.19169961 Z" id="Stroke-5" stroke="#0074B6" stroke-width="0.5" stroke-linejoin="round"></path>
            <path d="M26.4051405,15.0596146 L26.4603958,15.3809476 L26.4967397,15.4607241 L26.4598899,15.7622456 L26.3677849,16.5047542 L26.2022527,17.2877132 L25.9814652,18.0104314 L25.6498755,18.6728878 L25.2817083,19.2951909 L24.8582859,19.8775739 L24.3793359,20.3793744 L23.8269782,20.8005711 L23.2561761,21.1620575 L22.6303717,21.4429403 L22.0227393,21.6437707 L21.3780041,21.7238442 L20.71535,21.7238442 L20.0892926,21.6437707 L19.4632353,21.4429403 L18.8924527,21.1620575 L18.2848203,20.8005711 L17.7324431,20.3793744 L17.253746,19.8775739 L16.8303236,19.2951909 L16.4621564,18.6728878 L16.1676694,18.0104314 L15.9100322,17.2877132 L15.744247,16.5248415 L15.652142,15.7625213 L15.6337171,14.9795624 L15.7073972,14.2367568 L15.8363521,13.4738852 L16.0758173,12.7110135 L16.3703044,12.0485571 L16.6831968,11.3861007 L17.1250441,10.8039723 L17.5855692,10.2419311 L18.1010966,9.80037128 L18.6534738,9.41879757 L19.2792782,9.11755183 L19.8685052,8.89690979 L20.5129874,8.77640725 L21.176128,8.77640725 L21.8203573,8.83666913 L22.4461617,8.97723775 L23.0537941,9.19815554 L23.6432546,9.51921282 L24.1956318,9.94068536 L24.6925008,10.402587 L25.134601,10.9646282 L25.5395985,11.5869312 L25.8525104,12.2691992 L26.1290784,12.9720847 L26.3316939,13.694803 L26.4603958,14.4573989 L26.4603958,14.7382816 L26.4051405,15.0596146 Z M19.9661571,18.6731615 L20.2790691,18.3320381 L20.6290642,17.9306529 L20.9053793,17.5089046 L21.1445917,17.087432 L21.383804,16.6054431 L21.568267,16.1036426 L21.7156272,15.6018633 L21.7709019,15.5014481 L21.8443291,15.7022786 L22.0098613,16.2841313 L22.1940714,16.8866227 L22.3232791,17.4684754 L22.3785343,18.1111203 L22.4519615,18.692973 L22.4701335,18.2717762 L22.5622385,17.5490792 L22.7095988,16.8263609 L22.8940617,16.1639045 L23.0966967,15.4813608 L23.2251456,16.0032486 L23.3914366,16.5652897 L23.5751408,17.0472787 L23.833031,17.5490792 L24.0906682,18.0107051 L24.4035607,18.4522437 L24.7354034,18.8742677 L24.7535559,18.8940793 L24.6430454,18.5529347 L24.4224914,17.7501854 L24.2380285,16.9468634 L24.0906682,16.1639045 L24.017241,15.3407709 L23.943308,14.5176586 L23.925136,13.6948008 L23.925136,12.8716885 L23.9619663,12.048555 L24.035413,11.2254427 L23.6856513,11.8279342 L23.3914366,12.4499402 L23.1148686,13.0926063 L22.8940617,13.7550627 L22.6545965,14.4376064 L22.6545965,14.5176586 L22.5253887,13.9157186 L22.3414511,13.3333144 L22.1390691,12.8114479 L21.8811789,12.269197 L21.5864389,11.7673965 L21.3288017,11.3459452 L21.4027347,11.7673965 L21.4390592,12.4097869 L21.4761619,13.072519 L21.4209067,13.7148881 L21.383804,14.3773445 L21.291699,15.0194591 L21.1445917,15.662104 L20.9603816,16.2841313 L20.7579996,16.8866227 L20.5185343,17.4684754 L20.2608971,18.0709669 L19.9661571,18.6330081 L19.9661571,18.6731615 Z M19.0453599,15.180115 L19.0453793,15.180115 L19.0085295,15.5820518 L19.2664197,15.5416014 L19.5427347,15.4411862 L19.7819665,15.2805303 L20.0030069,15.1198531 L20.186964,14.9192984 L20.4264293,14.6180739 L20.5553841,14.3171039 L20.6656611,13.9960466 L20.7393412,13.6543717 L20.7764245,13.3132271 L20.8130214,12.9921699 L20.7579996,12.6507707 L20.6843195,12.2892843 L20.5922145,11.968227 L20.4632791,11.6870686 L20.2790691,11.3660113 L20.2608971,11.345924 L20.1132839,11.2053554 L19.9661571,11.1049401 L19.7819471,11.0048006 L19.5977371,10.9646261 L19.2111645,10.9646261 L19.0637847,11.044954 L18.9716797,11.1450935 L18.8429973,11.3057706 L18.6587873,11.4865138 L18.4745772,11.6870686 L18.2535174,11.727222 L18.3087921,14.7787298 L18.3087921,15.3809455 L18.2906201,15.882746 L18.2535174,16.4046126 L18.124835,16.8866015 L18.014305,17.4082136 L17.830095,17.870391 L17.627713,18.3523799 L17.3698228,18.793664 L17.3698228,18.8338174 L17.7011402,18.5328474 L17.9774553,18.2115356 L18.1982622,17.870391 L18.4561523,17.4684542 L18.6403624,17.087432 L18.7877226,16.6860468 L18.8795747,16.2643197 L18.9716797,15.8425714 L19.0085295,15.5820518 L19.0453793,15.180115 L19.1190594,14.4777598 L19.1743147,13.3935551 L19.2111645,12.269197 L19.2111645,11.4865138 L19.2295699,11.426252 L19.2479948,11.3057706 L19.3398469,11.2455088 L19.4322048,11.2254427 L19.505885,11.2254427 L19.5977371,11.2455088 L19.6714172,11.345924 L19.7266919,11.4463393 L19.8740521,11.727222 L19.9661571,11.9883143 L20.0214318,12.269197 L20.0951119,12.6909241 L20.0951119,13.2931398 L20.0582622,13.6543717 L20.0030069,14.0359454 L19.9661571,14.3773445 L19.8187969,14.7184891 L19.708267,14.9795603 L19.5240569,15.1198744 L19.3585247,15.180115 L19.211145,15.2406314 L19.0453599,15.180115 Z" id="Combined-Shape" fill="#0074B6"></path>
            <path d="M33.1996544,24.6961079 L31.2109525,24.1335153" id="Stroke-7" stroke="#0074B6" stroke-width="0.5" stroke-linejoin="round"></path>
            <polyline id="Stroke-9" stroke="#0074B6" stroke-width="0.5" stroke-linejoin="round" points="31.0695336 4.84182219 30.9411876 4.98213627 30.8932654 5.14279219 30.8609671 5.34334693 30.9090926 5.50400285 30.9734859 5.66467997 31.0055809 5.70483334"></polyline>
            <path d="M31.9107016,27.7269727 L32.9236039,24.5348963" id="Stroke-11" stroke="#0074B6" stroke-width="0.5" stroke-linejoin="round"></path>
            <path d="M30.9530585,12.3495292 L30.548061,12.3897038 L30.143044,12.4700318 L29.7380465,12.6106004 L29.3885572,12.8513297 L29.2224997,12.9115704 M26.8285474,15.481365 L26.8653972,15.2406357 L27.1414593,14.8791493 M27.6569867,15.7625235 L27.7569867,15.260723 M32.4262135,13.4738873 L31.6712208,14.1966056 L31.5977936,14.3171081 L31.4135836,14.4175234 L31.2296264,14.457401 L31.0269915,14.457401 L30.8609534,14.4175234 L30.714099,14.3171081 M31.0269915,14.0359497 L30.9530585,14.1162776 L30.714099,14.3171081 L30.235149,14.6180781 L30.0696168,14.778734 M27.2153923,19.978267 L27.0861846,20.0987695 L27.0309294,20.2390836 L27.0309294,20.4399141 L27.0496072,20.60057 L27.1412064,20.7009853 L27.2519697,20.7207968 L27.3624997,20.7207968 L27.8409438,20.5199663 L27.3624997,20.7207968 L27.3072444,20.8412781 L27.2703946,21.0217668 L27.3072444,21.2027858 L27.3993495,21.3232883 L27.5280319,21.383529 L27.6567338,21.4437696 L27.8780271,21.4239581 L28.006729,21.3433544 L28.190939,21.0220425 L28.006729,21.3433544 L27.9701321,21.5441849 L27.9701321,21.6446001 L28.006729,21.7246523 L28.098834,21.8655179 L28.2648721,21.9653817 L28.375402,21.9857447 L28.5040844,21.9653817 L28.5780174,21.8853294 L28.6514641,21.7849142 M33.2183089,16.6255346 L33.1077984,16.4249799 L32.9785907,16.2241494 L32.7943806,16.0838353 L32.5183185,15.8830048 L32.131493,15.6821743 M32.2788532,16.4249799 L32.2606813,16.6255346 L32.2425287,16.8263651 L32.1685762,16.987021 L32.0764712,17.2277504 L31.9848721,17.5688737 L31.8741087,17.8703952 L31.8559367,18.2717805 L31.8741087,18.6533542 M30.2901708,17.9708105 L30.5667388,18.2115398 L30.8609534,18.3320211 L31.1925432,18.4525237 L31.4133306,18.4728867" id="Stroke-13" stroke="#0074B6" stroke-width="0.5" stroke-linejoin="round"></path>
            <path d="M36.3115239,23.2102444 L36.200994,23.2902966 L36.1457387,23.3709003 L36.1457387,23.4107991 L36.0723115,23.5315774 L36.0723115,23.6314412 L36.1275668,23.7120449 M35.8699295,23.0094139 L35.7407218,23.0297769 L35.5565118,23.0900176 L35.4460013,23.2105201 L35.3725546,23.371176 L35.3172994,23.5318532" id="Stroke-15" stroke="#0074B6" stroke-width="0.5" stroke-linejoin="round"></path>
            <path d="M4.80603841,11.6870665 L4.64050619,11.6268258 L4.49314594,11.5464766 L4.36419113,11.3860965 L4.27208611,11.2254406 L4.290511,11.4262711 L4.27208611,11.6870665 L4.19840598,11.887897 L4.08787607,12.1486924 L3.95894071,12.2691949 L3.7749836,12.4097847 L3.609179,12.5503534 L3.48024364,12.7107547 L3.40656351,12.9313756 L3.2960336,11.486236 L3.13024845,11.6867907 L2.92761351,11.8471709 L2.66997628,11.9676734 L2.41233904,12.0279353 L2.17287377,12.0480014 M13.1842489,10.9445579 L12.5950413,10.3021675 L12.4660865,10.1415116 L12.3739815,10.0009218 L12.2268742,9.82017858 L12.0979194,9.69967604 M12.4660865,10.1415116 L12.2450462,10.2419269 L12.0058144,10.3021675 L11.7110938,10.3021675 L11.4534566,10.2218396 L11.1771415,10.1214243 L10.9563346,9.94068112 L10.7721246,9.75993791 L10.6065924,9.4991425 L10.6065924,9.90050653 L10.6250173,10.3018918 L10.4960625,10.1813892 L10.2936805,10.0812497 L10.0723872,10.0812497 L9.75947523,10.0210091 M10.4958095,4.94195745 L10.4405543,4.98213203 L10.4958095,5.06245999 L11.2323968,5.40360457 L11.2692466,5.34334269 L11.3245018,5.20304982 L11.3245018,5.08254728 L11.287652,5.0423727 L11.2692466,4.98213203 L11.103442,4.94195745 L10.9563346,4.92187016 L10.6802725,4.92187016 L10.4958095,4.94195745 M9.53843485,3.83796243 L9.85134678,4.23960221 M8.41500264,3.83796243 L8.43342753,3.95844376 L8.45185243,4.09903359 L8.48870222,4.19917309 L8.54395745,4.29958833 L8.61763757,4.40000358 L8.6913177,4.48033154 L8.74659238,4.5405722 L8.83869741,4.62092137 L8.93080243,4.66107474 L9.05973778,4.68116204 L9.11501247,4.7414027 L9.37290264,4.7414027 M14.5837238,12.2089542 L14.3811083,12.108539 L14.0129411,11.887897 L13.6997763,11.5866512 L13.442139,11.3057685 L13.1845018,10.9445366 L13.2213516,10.6432909 L13.1660769,10.3423421 L13.0923968,10.0812497 L12.963442,9.82017858 L12.7795043,9.5791735 L12.4113372,9.25813742 L12.04317,8.97725472 L11.6381531,8.77669997 L11.2331556,8.57614522 L10.7360336,8.45564268 L10.3310361,8.39540202 L9.85233904,8.37531472 L9.50234385,8.33514014 L9.1157518,8.23472489 L8.87653946,8.13430964 L8.56339406,7.97365373 L8.34258715,7.7329244 L8.13995222,7.47185324 L7.9559951,7.19097054 L7.80863485,6.84957142 L7.73495473,6.52851413 L7.69810494,6.18736955 L7.69810494,5.80579585 L7.77180452,5.48473856 L7.90073987,5.14361519 L8.0478472,4.84236945 M30.7693621,3.89792734 L30.8059589,3.95818922 L30.8246173,4.09875784 L30.8612141,4.19889734 L30.9533192,4.29931259 L31.0085744,4.31939988 L31.4135913,4.31939988 L31.5978014,4.23907192 L31.7633336,4.15874396 L31.5978014,4.03824142 L31.4685936,3.95791347 L31.2846365,3.89765159 L31.1004265,3.83741093 L30.9530662,3.83741093 L30.7693621,3.89792734 L30.585152,3.95818922 L30.7693621,3.89792734 M29.3882926,10.9445579 L29.1669993,11.7676702 M28.6698968,9.90050653 L28.8541068,9.61934808 L29.0383169,9.41879333 L29.2591043,9.25813742 L29.516761,9.17780946 L29.7928037,9.1175688 L30.0509468,9.1175688 L30.3270089,9.15772217 L30.9528133,9.21798405 L31.6157204,9.25813742 L32.2786081,9.19789675 L32.9783455,9.1175688 L33.4757204,8.97697897 L33.7699351,8.77642422 L34.0280782,8.53544035 L34.2307131,8.21438306 L34.4146702,7.77282323 L34.5438779,7.35137191 L34.6173051,6.92962362 L34.6173051,6.46799772 L34.5991332,6.02643789 L34.4517535,5.58489927 M33.8812432,11.2655939 L33.733883,11.1451126 L33.5496729,10.9445579 L33.4022932,10.803968 L33.3101882,10.7035528 L33.3654629,10.3824955 L33.3101882,10.7035528 L33.3101882,10.8240553 L33.2736108,11.104938 L33.1630809,11.3057685 L33.0157206,11.5464978 L32.8496631,11.6870665 L32.7391526,11.887897 L32.665706,12.108539 L32.6470476,12.3492471 L32.665706,12.489837 L32.4080687,12.4496624 L32.1686035,12.3492471 L31.9846464,12.188867 L31.8925413,12.0482983 L31.8004363,11.8276563 L31.7635865,11.5665639 L31.7635865,11.3057685 L31.8556915,11.0246101 L32.0764985,10.4424816 L31.8556915,11.0246101 L31.5241213,11.2653394 L30.8983169,11.3657546 L30.0698775,11.5866512 L30.0517056,11.4262711 L30.0517056,11.1651999 L30.1069803,10.9442821 L30.2356627,10.7233643 L30.3648704,10.5426211 L30.5488275,10.4020313 L30.2727654,10.5024465 L29.9961974,10.6430364 L29.77541,10.8036923 L29.3890708,10.9442821 L28.6340587,11.0446973 L28.5788035,10.9041075 L28.5048704,10.703277 L28.5417008,10.4424816 L28.5785505,10.2215638 L28.6701497,9.90050653 L28.1180254,10.2014765 L27.62067,10.5428969 L27.5653953,10.5027223 L27.528565,10.3021675 L27.4914623,10.1814104 L27.436207,9.9808557 M40.8412815,11.3860965 L40.638666,11.3860965 L40.3075821,11.3459219 L40.0128616,11.3057685 L39.7362936,11.1651787 L39.4602315,10.9643482 L39.6257832,11.2455066 L39.7178687,11.5464766 L39.7547185,11.8276563 L39.7547185,12.0884517 L39.7178687,12.3896975 L39.6257832,12.610594 L39.6257832,12.8714107 L39.6444415,13.1123945 L39.6444415,13.3129493 L39.165511,13.1123945 M37.1957204,14.8791429 L36.8641501,14.9798374 M37.0665321,13.6947987 L37.0112574,13.9960445 L37.0112574,14.2568611 L37.0665321,14.5380195 L37.1586372,14.7787277 L37.1954675,14.8791429 M37.9320547,14.2568611 L37.9320547,14.4777577 L38.0059878,14.718487 L38.0425652,14.8791429 M35.1517633,18.5727441 L35.7407179,17.8302355 M34.6543884,17.3083477 L34.63573,17.5688886 L34.6909853,17.8497713 L34.7467464,18.130654 L34.9122786,18.3521233 L35.0778303,18.5325907 L35.1517633,18.5724683" id="Stroke-17" stroke="#0074B6" stroke-width="0.5" stroke-linejoin="round"></path>
            <polyline id="Stroke-19" stroke="#0074B6" stroke-width="0.5" stroke-linejoin="round" points="10.9560837 24.1538656 10.0539642 24.3747834 8.74659433 24.8361335"></polyline>
            <path d="M14.1047854,21.3430871 L14.2703177,21.3832617 L14.3992725,21.5241061 L14.4913775,21.7246608 L14.5097829,22.0861472 M10.2013342,17.0874448 L10.0171241,17.3281529 L9.77765887,17.5086203 L9.39106682,17.7697127 L9.18843188,17.9501802 L9.02264674,18.171098 L8.96739151,18.2915793 L8.96739151,18.5328601 L8.91211682,18.8338301 L8.8200118,19.1551419" id="Stroke-21" stroke="#0074B6" stroke-width="0.5" stroke-linejoin="round"></path>
            <polyline id="Stroke-23" stroke="#0074B6" stroke-width="0.5" stroke-linejoin="round" points="14.4547845 22.4473727 14.3074243 22.7308948 13.570837 22.7838037"></polyline>
            <path d="M12.3187204,6.18683078 L12.1345104,6.08641553 L11.9874031,6.02617487 L11.8216179,6.00608757 L11.6744912,6.00608757 L11.4902811,5.98600028 L11.3431738,5.88586078 L11.1773886,5.78544553 M10.5326535,6.84928718 L10.311866,6.66854398 L10.2013361,6.58821602 L10.035551,6.48807652 L9.90659617,6.38766128 L9.75948885,6.20691807 L9.64895893,6.02617487 L9.5937037,5.84543166 L9.63053404,5.60470233 M3.29602776,11.4865032 L3.40655768,11.3660219 L3.44340747,11.1654672 L3.4802378,10.9646367 L3.40655768,10.8042353 L3.40655768,10.7439946 M8.97554136,9.51922131 L8.87554136,9.09747302 M7.66000412,8.89691827 L7.66000412,8.47516999 L7.76000412,8.05371866 M9.48317379,13.7952267 L9.53842902,14.1966119 L9.64895893,14.4777704 M7.14447672,19.8976696 L6.99711646,20.0985001 L6.66577964,20.1989154 L6.33446228,20.1989154 M7.0339468,19.5966996 L7.10762692,19.7771671 L7.14447672,19.8976696 L7.27343153,19.9980849 L7.40236688,20.0781371 L7.54974659,20.0781371 L7.66025705,20.0382595" id="Stroke-25" stroke="#0074B6" stroke-width="0.5" stroke-linejoin="round"></path>
            <path d="M9.00422962,24.6754713 L10.2194945,27.4460752" id="Stroke-27" stroke="#0074B6" stroke-width="0.5" stroke-linejoin="round"></path>
            <path d="M8.5623804,3.57687642 L8.39659525,2.61345002 L7.08920592,2.61345002 L6.9971009,2.65360339 L6.94184567,2.65360339 L6.88684337,2.67369068 L6.84999358,2.71386526 L6.83156868,2.75401864 L6.81316324,2.81428051 L6.81316324,2.87452118 L6.83156868,2.91469576 L6.84999358,2.97493643 L6.88684337,2.99502372 L7.73368814,3.93863858 L8.02817517,3.79806996 L8.24896262,3.65748012 L8.52527768,3.59723946 L8.5623804,3.57687642 M18.2848105,6.94942032 L18.6348057,6.82893899 L18.984548,6.68862491 L19.3161377,6.58820966 L19.66588,6.5078817 L20.0340471,6.42755375 L20.4024672,6.38737916 L20.7522095,6.36729187 L21.5624574,6.36729187 L21.9487965,6.38737916 L22.2987917,6.42755375 L22.6487869,6.5078817 L23.0174599,6.58820966 L23.3669492,6.68862491 L23.7169444,6.82893899 L24.0303622,6.94942032 M17.897985,6.42755375 L18.0637701,6.30705121 L18.4874455,6.10649646 L18.9108678,5.98599392 L19.37114,5.80552646 L19.8129873,5.68502392 L20.2548346,5.64487055 L20.6048298,5.58460867 L21.1940568,5.5444553 L21.6724814,5.58460867 L22.1145817,5.66493663 L22.5930258,5.78543917 L23.016954,5.88585442 L23.3480379,6.00635696 L23.9003957,6.20718746 L24.3238375,6.46825862 L24.2317325,6.52849928 L24.1582858,6.60884845 L24.1030306,6.72932978 L24.0477754,6.80967895 L24.0296034,6.94997182 L24.0296034,7.03029977 L24.0477754,7.15080231 L24.1398804,7.53210027 L24.1951356,7.83334601 L24.2133076,8.03390076 L23.6425055,7.6726901 L22.8322381,7.35163281 L22.0219708,7.1909769 L21.1935509,7.09056165 L20.3464337,7.13071502 L19.5732691,7.25121756 L18.7630017,7.55246331 L18.1369444,7.8534333 L18.1737942,7.53237602 L18.2658798,7.15107806 L18.2843047,7.03059674 L18.2843047,6.95024757 L18.2658798,6.8099547 L18.2290494,6.72962674 L18.1737747,6.6091242 L18.0816697,6.52879624 L17.9895842,6.46853437 L17.897985,6.42755375 M14.4179561,13.8353949 L14.4916363,14.0563127 L14.4916363,14.6582315 L14.4547865,14.9193026 L14.4179367,15.1402204 L14.3626814,15.3809498 L14.2705764,15.5817803 L14.1787243,15.681644 L14.1602994,15.160032 L14.1787243,14.6582315 L14.2155741,14.2367589 L14.4179561,13.8353949 M9.05950236,2.49294748 L9.90660006,1.93090632 L9.94344985,1.87066565 L10.0539603,1.83049107 L10.1276599,1.7903377 L10.1644902,1.7903377 L10.2381704,1.83049107 L10.3118505,1.85057836 L10.3855501,1.87066565 L10.4223804,1.89075295 L10.4408053,1.9710809 L10.5329103,2.03132157 L10.5697601,2.07149615 L10.5697601,2.15182411 L10.5881655,2.19197748 L10.5881655,2.3526546 L10.1279128,3.43658355 L9.26237077,3.47673692 L9.05950236,2.49294748 M10.4037026,3.65720437 L9.66713479,3.65720437 L9.53817998,3.83794758 L9.22503458,3.69765471 L8.93054755,3.59723946 L8.6173827,3.57715217 L8.56212747,3.57715217 L8.52527768,3.59723946 L8.48844734,3.61732675 L8.43317266,3.63739283 L8.41476722,3.69765471 L8.41476722,3.83822333 L8.3042373,3.8984852 L8.15711052,3.9185725 L8.02817517,3.99890045 L7.89947328,4.03905382 L7.80736826,4.13946907 L7.67843291,4.21979703 L7.58632789,4.32021228 L7.51264776,4.36038686 L6.55525362,3.23630455 L6.51842328,3.17604267 L6.48157349,3.09571472 L6.44474316,2.99529947 L6.44474316,2.69405372 L6.48157349,2.59363847 L6.53684818,2.5534851 L6.57367851,2.47313593 L6.64735864,2.41289527 L6.72103877,2.39280798 L6.84999358,2.3526546 L7.12630864,2.31248002 L8.30474316,2.3526546 L8.24946847,1.95126936 L8.26789337,1.93118207 L8.74659044,1.83076682 L8.80184567,1.85085411 L8.96763082,2.15209986 L9.18843772,1.97133544 L9.46475278,1.79059224 L9.72239002,1.58976174 L10.0168771,1.42938158 L10.1639844,1.3892282 L10.3481944,1.3892282 L10.4402994,1.44946887 L10.5324045,1.46955616 L10.6245095,1.52979682 L10.7166145,1.5900587 L10.7902946,1.67038666 L10.8639747,1.77080191 L10.9008245,1.85112986 L10.9192494,1.95154511 L10.9560798,2.05196036 L10.9560798,2.21261627 L10.9192494,2.31303152 L10.4037026,3.65720437" id="Stroke-29" stroke="#0074B6" stroke-width="0.5" stroke-linejoin="round"></path>
            <path d="M30.6588399,26.2639455 C30.6588399,26.3428947 30.6830627,26.4482734 30.7312554,26.5008143 C30.7794675,26.5533552 30.8279131,26.5797635 30.9003286,26.6061718 C31.0694018,26.6325802 31.1418173,26.553631 31.1660401,26.4218651 C31.1660401,26.3428947 31.1418173,26.2639455 31.0694018,26.2111288 C31.0212092,26.1847205 30.9727441,26.1321584 30.8521359,26.1057501 C30.8521359,26.0793418 30.8279131,26.0793418 30.8039433,26.0532092 C30.6590928,26.0006683 30.5624546,25.9478517 30.5142619,25.8688813 C30.4418269,25.7635237 30.4176041,25.6320124 30.4418269,25.4477057 C30.4418269,25.2633777 30.5142619,25.1054581 30.635123,25.0790498 C30.7560035,25.0001006 30.8766117,25.0001006 31.0456849,25.0001006 L31.0456849,25.0265089 C31.3353663,25.0529172 31.4804696,25.1844285 31.5286623,25.474114 L31.5286623,25.6320124 L31.2147581,25.5794715 C31.2147581,25.5530632 31.2147581,25.5530632 31.1905353,25.5269306 C31.1905353,25.3951436 31.1181004,25.3426027 30.9972393,25.3161944 C30.9490466,25.3161944 30.9005815,25.3161944 30.8523889,25.3426027 C30.8041962,25.369011 30.7799734,25.4215519 30.7799734,25.5005223 C30.7557506,25.5794715 30.8281661,25.658442 30.9490272,25.7112586 C30.9490272,25.7376669 30.9972198,25.7376669 31.0214621,25.7637995 C31.1905159,25.8163404 31.3111435,25.8955653 31.3838119,25.9481274 C31.4804696,26.0798933 31.5286623,26.2114046 31.5046924,26.3957113 C31.5046924,26.6064476 31.4322769,26.7643672 31.2874265,26.8697247 C31.1907882,26.9486952 31.0701606,26.9486952 30.9010874,26.9222868 L30.8768646,26.9222868 C30.5871832,26.8958785 30.41811,26.7379589 30.3456945,26.5010901 C30.3214717,26.3957113 30.3214717,26.3167621 30.3214717,26.185272 L30.6830822,26.2375372 L30.6588399,26.2639455 Z M29.7653006,24.9736923 L29.6204502,26.7904998 L29.2823232,26.7379589 L29.4271736,24.9211514 L29.7653006,24.9736923 Z M27.9058064,25.1318876 L27.8576138,25.6059011 L28.1472951,25.6323094 C28.2921456,25.6587177 28.364561,25.5797473 28.364561,25.4215731 C28.3887838,25.2636535 28.3163684,25.1847043 28.171265,25.158296 L27.9058064,25.1318876 Z M27.5921357,24.762956 L28.2923985,24.8419052 C28.4372295,24.8683135 28.5338872,24.9208756 28.6063027,24.9998248 C28.702941,25.078774 28.7271638,25.2105611 28.7271638,25.394889 C28.702941,25.6056253 28.6305255,25.7371154 28.5098979,25.8160858 C28.4856751,25.8160858 28.4856751,25.8160858 28.4617052,25.8424942 C28.5341401,25.8689025 28.5825857,25.9478517 28.6065556,26.0268009 C28.6307784,26.0793418 28.6307784,26.1847205 28.6307784,26.3164864 L28.6307784,26.5533552 C28.6307784,26.6058961 28.6307784,26.6323256 28.6550012,26.6851423 L28.6550012,26.7115506 L28.3168742,26.6851423 C28.292632,26.6061718 28.2686621,26.474406 28.292632,26.290078 C28.292632,26.1847205 28.2684092,26.1057501 28.2444393,26.0532092 C28.2204694,26.0006683 28.147801,25.97426 28.0753661,25.97426 L27.8581002,25.9478517 L27.8099075,26.6323256 L27.4712746,26.5797847 L27.5921357,24.762956 Z M25.9973608,25.5266549 L26.2875481,25.5530632 C26.4084092,25.5530632 26.4808441,25.474114 26.5043081,25.3161944 C26.5043081,25.158296 26.432379,25.0793255 26.2875481,25.0793255 L26.0220895,25.0793255 L25.9973608,25.5266549 Z M25.6110217,26.5272226 L25.6839431,24.6842825 L26.4084092,24.7368234 C26.5532596,24.7632317 26.6498979,24.8157726 26.7223328,24.894743 C26.8189711,25.0001006 26.8431939,25.1054793 26.8431939,25.2897861 C26.8431939,25.5005223 26.7707784,25.6320336 26.6498979,25.7109828 C26.6256751,25.7109828 26.6256751,25.7109828 26.6017052,25.7373912 C26.6741401,25.7637995 26.7225857,25.8163404 26.7465556,25.9217191 C26.7707784,25.97426 26.7707784,26.0796175 26.7707784,26.1849963 L26.7707784,26.4482734 C26.7707784,26.4746817 26.7950012,26.5272226 26.7950012,26.5800393 L26.819224,26.5800393 L26.819224,26.6064476 L26.481097,26.5800393 C26.4328849,26.5274984 26.4328849,26.3957325 26.4328849,26.1849963 C26.4328849,26.0796175 26.4086621,26.0006683 26.3841864,25.9481274 C26.3604694,25.9217191 26.2880539,25.8955865 26.215619,25.8691782 L25.9978667,25.8691782 L25.9741303,26.553631 L25.6110217,26.5272226 Z M24.2587278,26.1585879 C24.3553661,26.1585879 24.4283069,26.1321796 24.4764995,26.0796175 C24.5554717,25.9660087 24.5977887,25.8271158 24.5968548,25.6845745 L24.5968548,25.5527875 C24.6215834,25.394889 24.5968548,25.2369694 24.5491679,25.1315907 C24.4999636,25.0198061 24.3966713,24.9483021 24.2829506,24.9472839 C24.1862928,24.9472839 24.0896546,25.0262331 24.0172391,25.1315907 C23.9690269,25.2105611 23.9448041,25.3423269 23.9448041,25.5266549 C23.9448041,25.7373912 23.9690269,25.8953108 24.0419677,26.0268009 C24.0896546,26.1060258 24.1625759,26.1585879 24.2587278,26.1585879 Z M24.2350108,26.5272226 C24.0172391,26.5272226 23.8481659,26.4218651 23.7273048,26.2375372 C23.6064242,26.0532092 23.5582315,25.8163404 23.5824544,25.5266549 C23.5824544,25.2108368 23.6553757,25.0001006 23.7757504,24.8421809 C23.8966115,24.6578742 24.0654318,24.5789038 24.2829506,24.6053333 L24.3071734,24.6053333 C24.5244393,24.6053333 24.6935125,24.7106909 24.8148795,24.8950188 C24.93576,25.0529172 24.9834468,25.2900618 24.9834468,25.5794927 C24.959224,25.8953108 24.9110313,26.1060471 24.7901508,26.2903538 C24.6453198,26.4482734 24.4767525,26.5272226 24.2589807,26.5272226 L24.2350108,26.5272226 Z M22.0128945,26.4482734 L21.6747675,25.158296 L21.6747675,26.4482734 L21.3366211,26.4482734 L21.3366211,24.6053121 L21.7953757,24.6053121 L22.1335221,25.8163404 L22.4474263,24.6053121 L22.9061809,24.6053121 L22.9061809,26.4482734 L22.5680539,26.4482734 L22.5680539,25.158296 L22.2541303,26.4482734 L22.0128945,26.4482734 Z M19.0425951,25.0265089 L19.0425951,25.5005223 L19.2840838,25.474114 C19.3564993,25.474114 19.4049449,25.4477057 19.4531571,25.4215731 C19.5013497,25.3690322 19.5013497,25.3162156 19.5013497,25.2108368 C19.5013497,25.1318876 19.4771269,25.079071 19.4289343,25.0529172 C19.4047115,25.0265089 19.3564993,25.0003763 19.2840838,25.0003763 L19.0425951,25.0265089 Z M19.3807221,24.6314659 L19.4049449,24.6578742 C19.6946458,24.6578742 19.8636995,24.8421809 19.8636995,25.1844285 C19.8636995,25.6056041 19.7188686,25.8163404 19.3807221,25.8427487 L19.0668179,25.8427487 L19.0668179,26.5010901 L18.7286715,26.5010901 L18.6804788,24.6842825 L19.3807221,24.6314659 Z M17.931537,24.7104151 L18.0039525,26.5272226 L17.6658255,26.553631 L17.5933905,24.7368234 L17.931537,24.7104151 Z M17.0622205,26.2111288 L17.0622205,26.5533552 L16.0962656,26.6323256 L16.0238307,24.7893643 L16.3619772,24.762956 L16.4101698,26.2372614 L17.0622205,26.2111288 Z M15.250919,24.8157726 L15.3715466,26.6326014 L15.0334002,26.6590097 L14.9125391,24.8421809 L15.250919,24.8157726 Z M13.4638403,25.97426 L13.512033,26.7904998 L13.173906,26.8169081 L13.0530449,25.0001006 L13.3911719,24.9475597 L13.4393646,25.6320124 L13.922342,25.5794715 L13.8741493,24.8949976 L14.2122958,24.8685893 L14.3331569,26.685418 L13.9950299,26.7118263 L13.9468177,25.9219949 L13.4638403,25.97426 Z M11.6525389,25.474114 L11.7007315,25.97426 L11.9179974,25.9217191 C11.9664625,25.9217191 12.038878,25.8953108 12.0628479,25.8691782 C12.1110405,25.8166161 12.1110405,25.7373912 12.1110405,25.658442 C12.1110405,25.5530632 12.0870707,25.5005223 12.0386251,25.474114 C11.9901795,25.4477057 11.9662096,25.4215731 11.8937746,25.4477057 L11.6525389,25.474114 Z M11.9664625,25.0790498 L11.9904324,25.0790498 C12.2803667,25.0790498 12.4494399,25.2369694 12.4736627,25.6056041 C12.4976326,26.0268009 12.3288123,26.2375372 11.9904324,26.290078 L11.7247209,26.3164864 L11.7489437,26.9484194 L11.4107972,27.0009603 L11.2899362,25.157999 L11.9664625,25.0790498 Z" id="Fill-35" fill="#0074B6"></path>
        </g>
    </g>
</svg>