<svg width="56" height="56" xmlns="http://www.w3.org/2000/svg"><g fill="none" fill-rule="evenodd"><rect fill="#EDF800" width="56" height="56" rx="28"/><g fill="#3025D1"><path d="M17.733 23.955h.002c0 .69.003 1.382-.002 2.073-.001.14.028.21.186.207 1.292-.028 2.584-.038 3.874-.08.552-.019 1.085-.153 1.566-.456a2.027 2.027 0 0 0 .01-3.465 2.994 2.994 0 0 0-1.542-.462c-1.298-.04-2.596-.053-3.895-.082-.161-.004-.203.056-.202.212.007.684.003 1.368.003 2.053zM14 26.959v-7.69c0-.268 0-.269.258-.268 2.158.003 4.316-.013 6.474.02 1.137.018 2.281.058 3.408.2 1.84.23 3.894 1.711 4.021 4.296.055 1.111-.093 2.166-.744 3.098-.842 1.203-2.027 1.86-3.433 2.1-1.659.284-3.34.21-5.015.213-.335 0-.67.011-1.005-.005-.194-.01-.231.067-.23.245.005 1.817.005 3.635.005 5.452 0 .356.03.322-.308.322-1.06 0-2.118-.007-3.177 0-.195.001-.25-.058-.25-.253.007-2.577.005-5.153.005-7.73H14zM35.575 34.94v-.311l-.008-12.622c0-.313 0-.313-.308-.313l-5.025-.008c-.286 0-.286 0-.286-.29 0-.719.004-1.437-.005-2.155-.002-.185.054-.242.244-.241 3.453.01 6.906.014 10.36.022 1.393.003 2.786.012 4.18.018.27.002.271.001.271.268L45 21.462c0 .262-.001.263-.275.262l-5.045-.008c-.29 0-.29 0-.29.289l.006 12.642c0 .296 0 .296-.303.296l-3.274-.003h-.244"/></g></g></svg>