<?xml version="1.0" encoding="UTF-8"?>
<svg width="56px" height="56px" viewBox="0 0 56 56" version="1.1" xmlns="http://www.w3.org/2000/svg" xmlns:xlink="http://www.w3.org/1999/xlink">
    <!-- Generator: Sketch 52.4 (67378) - http://www.bohemiancoding.com/sketch -->
    <title>PYPL</title>
    <desc>Created with Sketch.</desc>
    <g id="PYPL" stroke="none" stroke-width="1" fill="none" fill-rule="evenodd">
        <rect id="Rectangle-1" stroke="#E1E1E1" fill="#FFFFFF" x="0.5" y="0.5" width="55" height="55" rx="27.5"></rect>
        <g id="Page-1" transform="translate(15.000000, 11.000000)">
            <path d="M25.2437419,2.63806452 C23.6237419,0.791612903 20.6953548,0 16.9492258,0 L6.07664516,0 C5.31019355,0 4.65890323,0.557419355 4.53890323,1.31322581 L0.0118064516,30.0251613 C-0.0781935484,30.5912903 0.360193548,31.1041935 0.934064516,31.1041935 L7.64632258,31.1041935 L9.33212903,20.4116129 L9.27987097,20.7464516 C9.39987097,19.9906452 10.0463226,19.4332258 10.8118065,19.4332258 L14.0014839,19.4332258 C20.2676129,19.4332258 25.1740645,16.8880645 26.6072903,9.52548387 C26.649871,9.30774194 26.6866452,9.09580645 26.7185806,8.88870968 C26.5376129,8.79290323 26.5376129,8.79290323 26.7185806,8.88870968 C27.1453548,6.16741935 26.7156774,4.31516129 25.2437419,2.63806452" id="Fill-1" fill="#003087"></path>
            <path d="M25.2437419,2.63806452 C23.6237419,0.791612903 20.6953548,0 16.9492258,0 L6.07664516,0 C5.31019355,0 4.65890323,0.557419355 4.53890323,1.31322581 L0.0118064516,30.0251613 C-0.0781935484,30.5912903 0.360193548,31.1041935 0.934064516,31.1041935 L7.64632258,31.1041935 L9.33212903,20.4116129 L9.27987097,20.7464516 C9.39987097,19.9906452 10.0463226,19.4332258 10.8118065,19.4332258 L14.0014839,19.4332258 C20.2676129,19.4332258 25.1740645,16.8880645 26.6072903,9.52548387 C26.649871,9.30774194 26.6866452,9.09580645 26.7185806,8.88870968 C26.5376129,8.79290323 26.5376129,8.79290323 26.7185806,8.88870968 C27.1453548,6.16741935 26.7156774,4.31516129 25.2437419,2.63806452" id="Fill-3" fill="#003087"></path>
            <path d="M11.1439355,8.92480645 C11.2155484,8.46996774 11.5078065,8.0973871 11.9007097,7.90867742 C12.0797419,7.82351613 12.2790968,7.77609677 12.488129,7.77609677 L21.012,7.77609677 C22.0213548,7.77609677 22.9629677,7.84190323 23.8232903,7.98029032 C24.0700645,8.01996774 24.3090968,8.06545161 24.5413548,8.11770968 C24.7736129,8.169 24.9990968,8.22706452 25.2178065,8.29093548 C25.3271613,8.32287097 25.4345806,8.35577419 25.5400645,8.3906129 C25.9629677,8.53190323 26.3568387,8.69641935 26.7187742,8.889 C27.1455484,6.16674194 26.715871,4.31545161 25.2439355,2.63835484 C23.6229677,0.791903226 20.6955484,0.000290322581 16.9494194,0.000290322581 L6.07587097,0.000290322581 C5.3103871,0.000290322581 4.65909677,0.557709677 4.53909677,1.31351613 L0.012,30.0244839 C-0.078,30.5915806 0.360387097,31.1035161 0.933290323,31.1035161 L7.64651613,31.1035161 L9.33232258,20.4109355 L11.1439355,8.92480645 Z" id="Fill-5" fill="#003087"></path>
            <g id="Group-9" transform="translate(6.774194, 8.856774)" fill="#009CDE">
                <path d="M19.9445806,0.0319354839 L19.9445806,0.0319354839 C19.9116774,0.24 19.875871,0.450967742 19.8332903,0.668709677 C18.4000645,8.03032258 13.4936129,10.5764516 7.22748387,10.5764516 L4.03683871,10.5764516 C3.27135484,10.5764516 2.62490323,11.133871 2.50587097,11.8896774 L0.872322581,22.2464516 L0.408774194,25.1845161 C0.330387097,25.68 0.713612903,26.1290323 1.21490323,26.1290323 L6.87329032,26.1290323 C7.54296774,26.1290323 8.11296774,25.6412903 8.21748387,24.9803226 L8.27264516,24.6919355 L9.33909677,17.9332258 L9.40780645,17.5596774 C9.51232258,16.8987097 10.0823226,16.4109677 10.752,16.4109677 L11.5987742,16.4109677 C17.0800645,16.4109677 21.372,14.1841935 22.6261935,7.74387097 C23.1497419,5.05258065 22.8787742,2.80548387 21.4939355,1.22709677 C21.0739355,0.749032258 20.5523226,0.354193548 19.9445806,0.0319354839" id="Fill-7"></path>
            </g>
            <path d="M25.2180968,8.29054839 C24.9993871,8.22667742 24.7739032,8.1686129 24.5416452,8.11732258 C24.3093871,8.06603226 24.0693871,8.02054839 23.8235806,7.98087097 C22.9622903,7.84151613 22.0216452,7.77570968 21.0113226,7.77570968 L12.4884194,7.77570968 C12.2784194,7.77570968 12.0790645,7.82312903 11.901,7.90925806 C11.507129,8.09796774 11.2158387,8.46958065 11.1442258,8.9253871 L9.3326129,20.4115161 L9.28035484,20.7463548 C9.3993871,19.9905484 10.0458387,19.433129 10.8113226,19.433129 L14.0019677,19.433129 C20.2680968,19.433129 25.1745484,16.8879677 26.6077742,9.5253871 C26.6503548,9.30764516 26.6861613,9.09667742 26.7190645,8.8886129 C26.3561613,8.697 25.9632581,8.53151613 25.5403548,8.39119355 C25.434871,8.35635484 25.3274516,8.32248387 25.2180968,8.29054839" id="Fill-10" fill="#012169"></path>
        </g>
    </g>
</svg>