<svg width="56" height="56" xmlns="http://www.w3.org/2000/svg"><defs><linearGradient x1="50%" y1="0%" x2="50%" y2="100%" id="a"><stop stop-color="#174065" offset="0%"/><stop stop-color="#3D8B94" offset="100%"/></linearGradient></defs><g fill="none" fill-rule="evenodd"><rect fill="url(#a)" width="56" height="56" rx="28"/><g fill="#FFF"><path d="M28.95 30.355l4.35-1.405v17.4h-4.35z"/><path d="M27.5 41.275c-8.008 0-14.5-6.33-14.5-14.137C13 19.33 19.492 13 27.5 13S42 19.33 42 27.137c0 7.808-6.492 14.138-14.5 14.138zm0-4.821c5.205 0 9.425-4.114 9.425-9.19 0-5.075-4.22-9.189-9.425-9.189-5.205 0-9.425 4.114-9.425 9.19 0 5.075 4.22 9.189 9.425 9.189z"/></g></g></svg>