<svg width="56" height="56" xmlns="http://www.w3.org/2000/svg"><g fill="none" fill-rule="evenodd"><rect fill="#FEF300" width="56" height="56" rx="28"/><path d="M26.994 10.549c-.196-.172-.33-.079-.448-.12-.026-.107.12-.082.138-.18-.599-.088-1.153-.44-1.808-.22.361-.452.897-.17 1.365-.321-.24-.136-.503-.094-.692-.257.647-.206 1.08-.186 1.656.057.259.109.515.256.815.203.217-.039.416-.093.23-.382-.224-.352.124-.628.16-1.022.46.508 1.082.747 1.436 1.27.08.117.178.15.316.14.574-.046 1.027.183 1.382.587.17.193.367.279.623.28.366 0 .73.045 1.097-.003.32-.042.579.09.803.292.067.06.142.132.084.224-.059.093-.165.071-.246.032-.575-.276-1.016.123-1.524.257.465.146.92.274 1.306.547.279.198.57.351.94.33.184-.01.364.07.514.167.342.221.67.463 1.06.737-.299.063-.475-.02-.654-.112-.198-.104-.392-.251-.635-.21-.707.123-1.354-.095-2.012-.28-.155-.043-.389-.227-.477-.023-.07.158.217.212.361.274.351.152.657.35.876.655.16.223.4.264.66.284.587.044 1.112.235 1.535.64.108.104.239.208.13.388-.144-.04-.19-.165-.284-.24-.225-.181-.47-.33-.778-.255-.592.145-1.133.1-1.593-.325-.03-.027-.078-.037-.15-.024.232.305.466.635.835.778.36.14.725.253 1.047.47.07.047.17.055.258.078.08.02.21-.007.198.115-.01.093-.124.12-.215.133-.079.01-.17.032-.238.006-.644-.245-1.375-.237-1.971-.627-.175-.114-.384-.202-.614-.106-.053.022-.116.045-.117.105 0 .06.062.085.116.101.206.063.42.107.618.188.434.178.85.384 1.045.837.055.126.176.195.296.261.19.105.362.23.464.422.115.216.352.263.553.36.072.034.16.069.137.161-.027.104-.13.063-.203.064-.246.003-.483-.035-.66-.218-.185-.193-.42-.287-.68-.35-.532-.128-.994-.427-1.543-.585-.007.264.183.4.347.532.164.133.361.227.543.34.36.223.67.476.795.897.092.31.359.455.683.526.19.042.5.06.461.28-.027.15-.357.137-.553.112-.408-.053-.746-.24-1.04-.522-.393-.378-.95-.368-1.448-.495-.068-.017-.153.022-.173.082-.023.073.058.11.121.13.362.12.621.354.834.647.08.11.204.174.332.223.468.179.789.507 1.042.907.094.147.157.316.317.42.049.03.092.076.046.132a.117.117 0 0 1-.153.029c-.078-.044-.172-.076-.228-.138-.446-.497-1.133-.562-1.724-.927.139.308.14.305.488.536.075.05.234.086.154.205-.053.079-.198.054-.287.001-.184-.108-.365-.221-.579-.273-.063-.016-.13-.018-.226-.03.041.222.196.321.365.358.556.12 1.054.335 1.486.693.088.073.228.097.349.126.095.024.186.04.177.155-.009.12-.122.123-.206.129-.373.025-.725-.04-1.046-.239-.37-.228-.76-.347-1.208-.143.131.09.27.076.397.086.406.03.752.168 1.024.463.052.057.122.1.178.153.1.095.362.162.288.263-.117.161-.299-.029-.436-.091a1.296 1.296 0 0 0-.73-.124c-.563.077-1.117.071-1.646-.169-.057-.026-.128-.051-.214.052.369.198.742.365 1.146.463.377.09.688.264.952.543.59.625.946.668 1.74.255.037-.02.082-.026.157-.049.003.201-.123.284-.257.358-.552.303-1.116.298-1.67.022-.645-.321-1.349-.441-2.072-.62.122.221.323.276.503.31.637.117 1.05.548 1.504.925.104.086.122.2.036.355-.451-.31-.848-.738-1.49-.658.04.15.17.126.256.154.343.113.598.326.767.618.119.205.252.386.46.511.057.034.14.059.087.14-.043.066-.12.06-.184.022-.145-.086-.297-.165-.428-.267-.484-.374-.983-.708-1.636-.76-.17-.015-.315-.12-.457-.214-.359-.24-.427-.205-.497.216-.085.506-.019.995.154 1.475.426 1.182 1.206 2.15 2.147 2.983.478.423 1.088.72 1.585 1.136 1.283 1.077 2.408 2.264 2.8 3.916.048.198.164.235.344.219.833-.076 1.524-.431 2.12-.97.808-.732 1.067-1.67 1.084-2.69a9.932 9.932 0 0 0-.444-3.117c-.366-1.18-.43-2.354.188-3.485.462-.847 1.21-1.43 2.033-1.94.077-.048.188-.115.246-.036.078.104-.06.165-.128.222-.622.53-1.119 1.143-1.447 1.877-.214.48-.3.976-.226 1.494.117.05.166-.048.232-.096a6.563 6.563 0 0 0 1.803-1.984c.057-.096.115-.267.258-.207.135.057.11.225.081.355-.1.455-.313.858-.609 1.226-.29.362-.6.713-.797 1.134-.179.38-.234.772-.13 1.176.07.272.174.308.395.118a4.292 4.292 0 0 0 1.011-1.303c.06-.117.097-.244.157-.36.063-.122.077-.346.228-.324.168.024.15.247.155.39.016.387-.142.737-.393 1.02-.856.96-.85 2.066-.644 3.206.148.82.233 1.635.036 2.458-.313 1.304-1.14 2.173-2.464 2.61-.241.08-.322.132-.207.394.23.524.38 1.064.076 1.63-.12.224-.065.492 0 .737.047.17.066.34.053.575-.342-.38-.504-.763-.495-1.21.009-.404-.009-.807-.216-1.173-.1-.175-.23-.479-.418-.394-.176.08.081.304.148.464.217.52.17 1.041.033 1.566-.166.636-.506 1.181-.962 1.667-.345.366-.663.747-.587 1.301-.311-.2-.41-.513-.289-.857.114-.321.313-.602.484-.896.346-.596.635-1.209.5-1.918-.02-.097-.002-.242-.168-.239a.225.225 0 0 0-.22.219c.012.583-.443 1.05-.443 1.635-.187-.234-.206-.502-.163-.77.057-.353.146-.701.213-1.054.053-.278.087-.56-.027-.834-.046-.11-.126-.19-.259-.17-.125.02-.147.124-.156.224-.118 1.355-.937 2.322-1.957 3.173-.482.402-1.016.739-1.55 1.075-.885.555-1.125 1.55-.529 2.386.296.414.3.852.303 1.305.001.223-.169.341-.362.434a9.164 9.164 0 0 0-3.08 2.398c-.064.076-.15.15-.175.238-.103.365-.335.597-.705.737-.249.093-.306.286-.225.538.12.378.052.506-.348.642-.78.264-1.575.214-2.37.054-.215-.043-.233-.176-.165-.344.148-.37.444-.63.748-.876.207-.17.44-.31.667-.457.231-.151.422-.33.516-.59.1-.276.355-.417.58-.581.914-.671 1.846-1.323 2.608-2.16.469-.514.48-.595.115-1.157-.682-1.052-1.229-2.155-1.432-3.389-.2-1.208.063-2.33.715-3.374.263-.42.54-.833.63-1.325.037-.198.13-.526-.049-.562-.23-.046-.173.29-.236.455-.158.411-.39.783-.622 1.156-1.025 1.653-1.195 3.362-.382 5.14.145.317.325.64.28.996-.084.646-.325.772-.87.67-.57-.108-1.128-.274-1.697-.394-.804-.17-1.615-.306-2.443-.309-.425-.001-.845.01-1.257.131-.23.067-.465.078-.705-.01-.45-.166-.62-.124-.844.274-.172.304-.41.384-.734.337-.536-.078-1.046-.23-1.506-.509-.406-.246-.416-.459-.002-.704a3.43 3.43 0 0 1 1.374-.473c.623-.068 1.25-.053 1.871-.19.504-.11 1.021.051 1.534.083 1.084.068 2.17.128 3.256.04.466-.038.733-.567.48-.948-.657-.996-1.218-2.036-1.632-3.145-.297-.797-.445-1.617-.36-2.464.04-.394.066-.398.414-.205.734.408 1.402.898 2.027 1.444.09.08.165.182.32.214.079-.166-.03-.286-.114-.402-.238-.33-.579-.551-.92-.773-1.616-1.052-3.148-2.2-4.478-3.579-.561-.58-.961-1.267-1.421-1.914a1.052 1.052 0 0 0-.708-.457 1.947 1.947 0 0 1-1.204-.75c-.21-.269-.52-.425-.817-.579-.533-.276-1.058-.56-1.53-.924a1.158 1.158 0 0 0-.26-.157c-.16-.066-.328-.102-.488.007-.168.116-.112.264-.063.412.161.493.207 1.002.212 1.512.004.535.14 1.03.405 1.497.117.205.187.418.173.653-.018.315.13.497.458.593.606.178.738.367.766.965.017.372-.014.74-.147 1.092-.212.564-.565.63-.964.18-.415-.47-.72-1.003-.962-1.57-.134-.312-.274-.619-.542-.857a.661.661 0 0 1-.213-.4c-.223-1.48-.463-2.959-.657-4.442-.143-1.087.806-1.908 1.94-1.718.778.13 1.551.274 2.267.613.08.038.164.085.263.03-.032-.168-.187-.24-.306-.334-.576-.453-1.089-.96-1.478-1.572a1.33 1.33 0 0 0-.254-.304c-.207-.175-.533-.147-.647.064-.344.637-.838 1.163-1.342 1.683-.434.448-.79.93-.837 1.563a.125.125 0 0 1-.02.062c-.29.402-.331.791-.005 1.207.111.142-.014.32-.126.444-.434.477-1.004.742-1.633.901-.22.056-.252-.095-.254-.247-.007-.507.083-.997.325-1.451.13-.246.223-.492.232-.773.012-.325.182-.607.369-.865.777-1.078 1.31-2.287 2.04-3.389.261-.395.506-.8.788-1.182.295-.401.719-.559 1.231-.456.398.08.787.216 1.052.512.507.568 1.193.9 1.812 1.322.25.171.498.442.767.465.276.023.483-.319.734-.484.349-.23.7-.45 1.11-.57.31-.09.565-.276.726-.522.428-.656 1.047-1.148 1.578-1.713.817-.871 1.276-1.92 1.687-2.992.153-.395-.022-.55-.468-.484-.442.067-.86-.07-1.282-.16-.312-.066-.622-.143-.937-.197a1.833 1.833 0 0 0-1.131.164c-.296.142-.61.196-.924.054-.097-.044-.228-.099-.205-.23.02-.113.143-.119.243-.145.23-.061.46-.13.687-.202.074-.024.164-.068.134-.16-.036-.109-.136-.096-.229-.064a6.015 6.015 0 0 1-1.13.264c-.219.03-.307-.047-.35-.247-.186-.847.463-1.769 1.365-1.887.716-.094 1.354-.388 1.999-.66.607-.258 1.114-.705 1.851-.834" fill="#000"/><path d="M27.274 8.34c.243.316.478.585.644.902.041.079.076.164.005.24-.065.07-.147.035-.22.007-.137-.05-.274-.1-.405-.162-.271-.127-.43-.278-.17-.565.081-.089.087-.24.146-.421" fill="#030300"/><path d="M26.826 32.042A11.711 11.711 0 0 1 25.2 30.89a11.539 11.539 0 0 1-2.15-2.348c-.077-.114-.258-.278-.109-.387.107-.078.249.115.34.218a42.932 42.932 0 0 0 3.494 3.481c.04.036.07.083.104.125l-.053.063z" fill="#FCFCFC"/><path d="M40.936 29.034c.206.247.213.534.258.808.23 1.407-.172 2.577-1.446 3.41-.108.07-.25.218-.354.12-.123-.116.026-.254.12-.358.09-.099.185-.194.288-.28.85-.717 1.15-1.64 1.135-2.686-.005-.338-.001-.676-.001-1.014" fill="#FDFDFD"/><path d="M31.34 28.632c-1.312-.76-2.182-1.817-2.411-3.303a.747.747 0 0 1 .006-.226c.01-.065.043-.126.126-.132.079-.005.126.04.149.108.014.04.029.083.033.125.1 1.15.78 2.007 1.571 2.806.194.196.41.37.617.555l-.092.067" fill="#FCFCFC"/><path d="M27.098 19.422c-.004-.137.098-.229.173-.33.556-.755 1.056-1.538 1.318-2.436.012-.042.034-.08.05-.12.03-.07.055-.173.14-.163.131.014.082.137.08.212-.009.438-.1.862-.322 1.247-.325.564-.755 1.054-1.23 1.51-.05.049-.095.13-.21.08" fill="#FBFBFB"/><path d="M26.634 21.424c-.163.055-.27-.05-.396-.085-.61-.175-1.223-.245-1.844-.047-.082.026-.184.08-.231-.037-.033-.081.042-.136.107-.181.58-.408 1.846-.278 2.31.237.026.03.035.073.054.113" fill="#FAFAFA"/><path d="M30.6 32.146c-.26-.373-.187-.64-.019-.9a.835.835 0 0 1 .733-.397c.073 0 .145.019.173.082.03.067-.019.135-.08.16-.452.18-.69.525-.807 1.055" fill="#F6F6F6"/><path d="M35.964 34.543c-.044.322-.088.622-.226.899-.044.086-.093.203-.21.16-.148-.055-.082-.186-.043-.278.106-.249.115-.503.09-.766-.016-.167-.069-.412.172-.41.195 0 .22.234.217.395" fill="#F7F7F7"/><path d="M27.454 11.464c.282.003.57.34.515.605-.038.186-.162.174-.267.075-.192-.18-.37-.33-.682-.264-.169.036-.126-.118-.071-.193.118-.163.3-.223.505-.223" fill="#FBFBFB"/><path d="M31.018 43.445a5.953 5.953 0 0 1-1.696 1.534 6.592 6.592 0 0 1 1.696-1.534" fill="#F6F6F6"/><path d="M29.962 38.024c-.405-.385-.346-1.381.038-1.633.042-.028.09-.077.144-.033.048.037.049.096.021.148-.25.458-.232.957-.203 1.518" fill="#F9F9F9"/><path d="M18.065 25.243c.505.178 1.012.373 1.437.717.043.035.081.089.045.142-.034.05-.1.051-.155.03a2.75 2.75 0 0 1-.31-.135c-.357-.191-.671-.454-1.074-.569-.058-.016-.14-.04-.1-.128.027-.057.085-.068.157-.057" fill="#F5F5F5"/><path d="M15.512 22.473c-.026-.295.094-.453.19-.613.147-.242.306-.478.467-.712.042-.062.111-.124.199-.093.1.036.078.143.047.193-.25.41-.497.823-.903 1.225" fill="#F4F4F4"/><path d="M24.348 12.206c.646-.208 1.26-.456 1.809-.837-.367.735-1.086.8-1.81.837" fill="#EDEDED"/><path d="M16.382 27.893c-.367-.325-.594-1.282-.428-1.605.021-.041.051-.08.096-.067.034.01.085.054.084.08-.025.525.144 1.025.248 1.592" fill="#F8F8F8"/><path d="M20.586 23.967c.3-.534.446-1.166 1.066-1.497l.078.05-1.073 1.493-.071-.046M28.113 13.384c-.379.342-.518 1.036-1.366.774.519-.221.935-.508 1.366-.774" fill="#F1F1F1"/><path d="M22.796 13.198c-.003.082-.067.091-.13.119-.099.043-.188.108-.28.164-.07.042-.106.184-.2.128-.109-.065-.057-.188-.014-.287.059-.135.094-.292.259-.35.158-.057.377.083.365.226" fill="#F5F5F5"/><path d="M18.57 21.74c.346.163.518.412.647.698.013.03-.002.093-.026.11-.027.02-.101.022-.12.002-.202-.226-.479-.41-.5-.81" fill="#EFEFEF"/><path d="M26.585 47.357c-.008.068-.048.098-.107.109-.091.016-.175.042-.18.152-.007.168-.12.21-.247.153-.158-.071-.052-.18.003-.265a.756.756 0 0 1 .27-.277c.15-.079.224-.003.26.128" fill="#F3F3F3"/><path d="M28.243 14.379c.263-.148.496-.318.714-.553-.067.445-.196.543-.714.553" fill="#E2E2E2"/></g></svg>