<?xml version="1.0" encoding="UTF-8"?>
<svg width="56px" height="56px" viewBox="0 0 56 56" version="1.1" xmlns="http://www.w3.org/2000/svg" xmlns:xlink="http://www.w3.org/1999/xlink">
    <!-- Generator: Sketch 52.4 (67378) - http://www.bohemiancoding.com/sketch -->
    <title>RCL</title>
    <desc>Created with Sketch.</desc>
    <g id="RCL" stroke="none" stroke-width="1" fill="none" fill-rule="evenodd">
        <rect id="Rectangle-1" stroke="#E1E1E1" fill="#FFFFFF" x="0.5" y="0.5" width="55" height="55" rx="27.5"></rect>
        <g id="Group" transform="translate(14.000000, 14.000000)" fill="#282222">
            <path d="M14.2707285,0.421466251 C15.720069,1.82370049 17.3397591,3.31083562 18.7425411,4.76017616 L17.1031321,6.87283922 L17.1031321,6.9769113 L21.4489627,8.91922481 L24.3859862,6.90132211 L22.6140222,4.93107346 L22.6140222,4.78865904 C24.4330925,3.50035634 25.9963645,2.25915994 27.758469,1.07547706 L26.9056258,9.90407526 L1.5383321,9.90407526 L0.686036604,1.07547706 C2.44814111,2.25915994 4.01086543,3.50035634 5.8299357,4.78865904 L5.8299357,4.93107346 L4.05797174,6.90132211 L6.99499516,8.91922481 L11.3413735,6.9769113 L11.3413735,6.87283922 L9.70196453,4.76017616 C11.1041988,3.31083562 12.7238889,1.82370049 14.1732294,0.421466251" id="Fill-2"></path>
            <path d="M26.7113944,11.4960493 L26.4555962,14.4385502 L17.0644611,14.434716 L17.0671998,24.6009142 L21.6408935,24.5707881 C22.6607998,24.5696926 23.7349332,23.4955592 23.5163818,22.7906079 C23.2704431,21.7668673 22.3513224,21.0849214 21.4990269,20.5738727 C21.6693764,20.5738727 24.8052323,18.2618295 26.273744,17.2676673 C26.2069188,17.9019592 25.1552431,26.2101971 25.1464791,26.3432998 L14.3081944,30.4640061 L14.1356539,30.4640061 L3.29791696,26.3432998 C3.28860525,26.2101971 2.23692958,17.9019592 2.1706521,17.2676673 C3.63916381,18.2618295 6.77501967,20.5738727 6.94536922,20.5738727 C6.09252597,21.0849214 5.173953,21.7668673 4.92746651,22.7906079 C4.70946291,23.4955592 5.78359624,24.5696926 6.8029548,24.5707881 L11.3771962,24.6009142 L11.379935,14.434716 L1.9893476,14.4385502 L1.7335494,11.4960493" id="Fill-4"></path>
        </g>
    </g>
</svg>