<svg width="56" height="56" xmlns="http://www.w3.org/2000/svg"><g fill="none" fill-rule="evenodd"><rect fill="#FFF" width="56" height="56" rx="28"/><circle fill="#2857AF" cx="28" cy="28" r="28"/><path d="M23.279 25.631h5.855c3.352-.04 6.541-1.332 6.541-4.563 0-3.11-2.18-3.554-4.683-3.554h-6.018l-1.695 8.117zM19.645 12.59h13.77c5.208-.082 8.601 1.977 8.601 7.55 0 3.917-2.746 7.188-6.622 7.753v.081c2.382.727 2.989 2.827 2.989 5.088 0 1.292-.204 3.23-.204 5.007 0 1.293.082 2.504.405 3.352h-6.178c-.162-.686-.284-1.292-.284-1.937 0-1.94.323-3.918.323-5.856 0-2.787-1.654-3.473-4.16-3.473h-5.977L19.927 41.42h-6.34l6.058-28.831z" fill="#F7F9FA"/></g></svg>