<?xml version="1.0" encoding="UTF-8"?>
<svg width="56px" height="56px" viewBox="0 0 56 56" version="1.1" xmlns="http://www.w3.org/2000/svg" xmlns:xlink="http://www.w3.org/1999/xlink">
    <!-- Generator: Sketch 52.4 (67378) - http://www.bohemiancoding.com/sketch -->
    <title>RMD</title>
    <desc>Created with Sketch.</desc>
    <g id="RMD" stroke="none" stroke-width="1" fill="none" fill-rule="evenodd">
        <rect id="Rectangle-1" stroke="#E1E1E1" fill="#FFFFFF" x="0.5" y="0.5" width="55" height="55" rx="27.5"></rect>
        <g id="Page-1" transform="translate(6.000000, 17.000000)">
            <path d="M0,10.0526784 C0.132525896,9.62557405 0.329211155,9.24491844 0.706585657,8.98592722 C1.29050598,8.58521112 2.05336255,8.59759746 2.61094422,9.02299649 C3.18737052,9.46271161 3.41815139,10.1985321 3.1978008,10.8940521 C2.97841434,11.5865653 2.36114343,12.0550023 1.65179681,12.0673887 C0.939557769,12.0797301 0.284860558,11.5854882 0.0561832669,10.8641184 C0.0411952191,10.8167721 0.0560079681,10.7559175 0,10.7258492 L0,10.0526784 Z" id="Fill-4" fill="#0098DF"></path>
            <path d="M44,13.5531662 C43.8248765,14.0646862 43.5225737,14.4554843 42.9999203,14.6217575 C42.2419721,14.8628872 41.4423904,14.4484384 41.1808446,13.687217 C40.9187729,12.9246492 41.2951394,12.0861028 42.0297291,11.7956521 C42.7681753,11.5036755 43.5866016,11.854577 43.908757,12.5986999 C43.936761,12.6633243 43.9286972,12.7471565 44,12.7902394 L44,13.5531662 Z" id="Fill-6" fill="#EE1427"></path>
            <path d="M14.5059761,-4.48780489e-06 C14.5336295,0.0648891707 14.6025219,0.0579330732 14.6514303,0.0828403902 C15.0706135,0.296145756 15.2910956,0.75260039 15.1839004,1.19702771 C15.0711394,1.66443259 14.6586614,1.99074088 14.2095896,1.9678082 C13.7468884,1.94411259 13.3689442,1.59671161 13.2926454,1.12495356 C13.2198964,0.675006244 13.4768406,0.227572098 13.9070677,0.0538042927 C13.9467291,0.0377828293 13.984988,0.0179916098 14.0239044,-4.48780489e-06 L14.5059761,-4.48780489e-06 Z" id="Fill-8" fill="#1C60B2"></path>
            <path d="M2.2351255,7.02796976 C2.23337251,6.19902732 2.88285458,5.52760683 3.68936056,5.5246 C4.50620916,5.52159317 5.16813745,6.19678341 5.16673506,7.03160488 C5.16537649,7.84964195 4.50480677,8.52110732 3.69681076,8.52595415 C2.89525697,8.53066634 2.23692231,7.85601463 2.2351255,7.02796976" id="Fill-10" fill="#008CD6"></path>
            <path d="M40.2007753,17.2583653 C39.4682892,17.253698 38.8813012,16.6428628 38.8919506,15.8963614 C38.9025124,15.1563223 39.4856876,14.5640219 40.2075243,14.5602072 C40.9343131,14.5563477 41.5291458,15.1669136 41.5264287,15.9139984 C41.5236677,16.6655711 40.9345323,17.2630326 40.2007753,17.2583653" id="Fill-12" fill="#E61930"></path>
            <path d="M6.05255936,2.96199161 C6.79924462,2.96248527 7.36309323,3.54423941 7.36247968,4.31335941 C7.36186614,5.05595649 6.78184622,5.65216137 6.05768685,5.6545399 C5.32217689,5.65696332 4.73330438,5.05793112 4.73312908,4.30712137 C4.73290996,3.54899649 5.30920478,2.96145307 6.05255936,2.96199161" id="Fill-14" fill="#0081CD"></path>
            <path d="M37.5813291,19.125714 C36.9230821,19.12347 36.4075721,18.5871774 36.4109466,17.9081276 C36.4143211,17.2338798 36.9384207,16.6999208 37.5953968,16.7014018 C38.2612693,16.7029725 38.7832653,17.2470291 38.7781817,17.9340671 C38.7731418,18.6052632 38.2481657,19.1279579 37.5813291,19.125714" id="Fill-16" fill="#DB1A39"></path>
            <path d="M7.48644661,2.30148546 C7.48539482,1.62369229 7.99801235,1.08775863 8.65235896,1.08241815 C9.31025538,1.07703278 9.85368167,1.6257118 9.85534701,2.29695278 C9.85701235,2.96747571 9.33475339,3.50542888 8.6795741,3.50812156 C7.99849442,3.51085912 7.48749841,2.99413327 7.48644661,2.30148546" id="Fill-18" fill="#0076C3"></path>
            <path d="M11.4743673,2.25152273 C10.8746701,2.25372176 10.3996542,1.78061737 10.3920287,1.17364176 C10.3846223,0.581251512 10.8738813,0.0709432195 11.4560048,0.0638524878 C12.0393554,0.0567617561 12.5290526,0.552305171 12.5337418,1.15438907 C12.5384749,1.7670642 12.0728375,2.24932371 11.4743673,2.25152273" id="Fill-20" fill="#006BB8"></path>
            <path d="M35.8561171,19.0690016 C35.8508143,19.6800611 35.3804876,20.1479147 34.7760574,20.1432923 C34.1909976,20.1388942 33.7053323,19.6280923 33.7217665,19.0344903 C33.738639,18.4257196 34.217906,17.9517177 34.8102406,17.9579557 C35.4006032,17.9642386 35.8614199,18.4537684 35.8561171,19.0690016" id="Fill-22" fill="#D21C42"></path>
            <path d="M32.0186072,18.2576064 C32.550902,18.2594016 32.9759139,18.6939557 32.9781052,19.2384611 C32.9802526,19.7763245 32.5486669,20.2178347 32.0179498,20.2206172 C31.4749618,20.2234894 31.040396,19.7782542 31.0480215,19.2267928 C31.0554717,18.6830952 31.4835076,18.2557664 32.0186072,18.2576064" id="Fill-24" fill="#CA1F49"></path>
            <path d="M30.4075805,18.4663926 C30.4032418,18.9540375 30.0196442,19.3427262 29.5432259,19.3422775 C29.0613733,19.3417838 28.6684849,18.9362658 28.672692,18.4437292 C28.6767677,17.9629506 29.0697876,17.5671711 29.5431821,17.5670365 C30.0287159,17.5669019 30.4120506,17.965778 30.4075805,18.4663926" id="Fill-26" fill="#C1214D"></path>
            <path d="M17.5803183,1.76308351 C17.5835614,2.25018985 17.1981231,2.64659766 16.7203024,2.64771961 C16.2354259,2.64884156 15.8598044,2.26728839 15.8574378,1.77111668 C15.8549837,1.26076351 16.2324896,0.869067902 16.7235016,0.87256839 C17.2007964,0.875934244 17.5770315,1.26700156 17.5803183,1.76308351" id="Fill-28" fill="#4053A8"></path>
            <path d="M28.3357283,17.0533489 C28.3374813,17.4985391 27.998541,17.8548708 27.5689275,17.859583 C27.1424255,17.8641606 26.7843777,17.5091752 26.7771466,17.0745313 C26.7697402,16.6285333 27.1251147,16.2552825 27.5590231,16.2533977 C27.9801347,16.2515577 28.3339753,16.6160572 28.3357283,17.0533489" id="Fill-30" fill="#B72353"></path>
            <path d="M18.6825052,3.95386829 C18.2428558,3.94552098 17.9126367,3.58268195 17.9244255,3.12097659 C17.9352502,2.69643024 18.2923339,2.34705463 18.7080112,2.35423512 C19.1460829,2.36181951 19.4932183,2.73349951 19.4807721,3.18151707 C19.4685012,3.6228478 19.1179036,3.96212585 18.6825052,3.95386829" id="Fill-32" fill="#55459E"></path>
            <path d="M20.2550801,4.121416 C20.6502474,4.12392917 20.9555303,4.44516624 20.9480363,4.85054966 C20.9408928,5.23614185 20.6216299,5.556616 20.2436857,5.55760332 C19.8591677,5.55859063 19.5436737,5.22837795 19.5457335,4.82712332 C19.5479247,4.41415551 19.8447932,4.11881307 20.2550801,4.121416" id="Fill-34" fill="#643397"></path>
            <path d="M26.010451,14.6677575 C26.4046542,14.6649301 26.7267219,14.9883214 26.7237418,15.3839214 C26.7207618,15.7813165 26.3984311,16.1068619 26.0104072,16.1045282 C25.6282996,16.1021497 25.3217458,15.7896189 25.3139888,15.3945575 C25.3061004,14.9908345 25.612961,14.6705848 26.010451,14.6677575" id="Fill-36" fill="#B0235E"></path>
            <path d="M25.4375,13.6307828 C25.4311454,13.9931731 25.1409821,14.2794501 24.7884124,14.2711028 C24.4386036,14.2628004 24.1547948,13.9569116 24.1675916,13.6018365 C24.1800817,13.2551087 24.4694562,12.9692355 24.8067749,12.9703575 C25.1541295,12.9715692 25.4437231,13.2747653 25.4375,13.6307828" id="Fill-38" fill="#A72668"></path>
            <path d="M21.4613944,7.23290088 C21.0952829,7.2350999 20.8212032,6.95793307 20.8233506,6.58768917 C20.8254104,6.23656332 21.1060199,5.94831161 21.4502191,5.94368917 C21.8024821,5.93902185 22.0904542,6.23485795 22.0876494,6.59841502 C22.0848008,6.95842673 21.8159801,7.23079161 21.4613944,7.23290088" id="Fill-40" fill="#702893"></path>
            <path d="M24.4174187,11.8469701 C24.4198729,12.183376 24.1844028,12.4337506 23.8625104,12.436937 C23.5466657,12.4399887 23.2807375,12.1778111 23.2796418,11.8623184 C23.2785462,11.5451653 23.5385582,11.2750892 23.8487056,11.2712297 C24.1708171,11.2672355 24.4150084,11.5144238 24.4174187,11.8469701" id="Fill-42" fill="#9E2271"></path>
            <path d="M22.3992386,8.93817698 C22.0748044,8.93687551 21.8309637,8.68712917 21.8313143,8.35655746 C21.8316211,8.04218673 22.0984697,7.77040527 22.4058124,7.77130283 C22.7184139,7.77229015 22.9698363,8.03572429 22.9708004,8.36328917 C22.9718084,8.690136 22.723892,8.93947844 22.3992386,8.93817698" id="Fill-44" fill="#842488"></path>
            <path d="M23.1404283,10.6360931 C22.8379064,10.6397731 22.6129104,10.414575 22.6135677,10.1088209 C22.6141813,9.81280527 22.8318147,9.58406185 23.1183845,9.57827259 C23.4157789,9.57225893 23.6472171,9.80463746 23.6466912,10.1086414 C23.6461215,10.4062277 23.4288825,10.6325926 23.1404283,10.6360931" id="Fill-46" fill="#95247C"></path>
        </g>
    </g>
</svg>