<svg width="56" height="56" xmlns="http://www.w3.org/2000/svg" xmlns:xlink="http://www.w3.org/1999/xlink"><defs><circle id="a" cx="28" cy="28" r="28"/></defs><g fill="none" fill-rule="evenodd"><mask id="b" fill="#fff"><use xlink:href="#a"/></mask><use fill="red" xlink:href="#a"/><g mask="url(#b)" fill="#FFF"><path d="M31.165 29.806c.776-.493 1.085-1.16 1.242-1.908.334-1.586-.028-3.039-.87-4.396-.73-1.177-1.624-2.232-2.459-3.333-.965-1.273-1.819-2.611-2.175-4.2-.273-1.217-.175-2.412.32-3.559.257-.596.653-1.087 1.234-1.41.038.055.075.085.072.11-.195 1.803.432 3.34 1.499 4.748a168.304 168.304 0 0 1 2.943 3.964c.97 1.362 1.738 2.81 1.5 4.575-.05.363.216.324.426.376 2.263.572 4.466 1.293 6.388 2.681a8.24 8.24 0 0 1 1.678 1.601c1.379 1.762 1.383 3.814.012 5.59-.898 1.165-2.072 1.985-3.358 2.652-2.814 1.462-5.845 2.16-8.978 2.389-3.638.266-7.255.114-10.785-.947-1.985-.596-3.89-1.36-5.528-2.673-.64-.513-1.196-1.101-1.629-1.802-1.039-1.683-.918-3.486.372-4.991 1.285-1.5 2.927-2.49 4.727-3.244a43.517 43.517 0 0 1 3.243-1.194c.4-.132.536-.034.69.343.627 1.547 1.719 2.796 2.711 4.106.789 1.04 1.581 2.078 2.289 3.177.508.79 1.082 1.554.996 2.658 1.217-1.015 1.302-2.267 1.123-3.584-.169-1.23-.735-2.307-1.445-3.295-.85-1.183-1.773-2.312-2.64-3.482-1.117-1.505-1.787-3.159-1.563-5.08.102-.881.384-1.694.961-2.387a1.83 1.83 0 0 1 .694-.54c.123.168.08.324.068.465-.138 1.519.395 2.817 1.27 4.019.869 1.194 1.834 2.31 2.765 3.454 1.199 1.473 2.415 2.94 2.207 5.117"/></g></g></svg>