<svg width="56" height="56" xmlns="http://www.w3.org/2000/svg"><g fill="none" fill-rule="evenodd"><path d="M56 28c0 15.464-12.536 28-28 28S0 43.464 0 28 12.536 0 28 0s28 12.536 28 28" fill="#FFF"/><path d="M27.84 9.843c.998.575 2.056 1.315 2.861 2.099l-.316.318c-1.59-.169-3.263.042-4.77.065-.167-.17-.506-.424-.19-.637l2.416-1.845zm28.097 19.742c.021.717.089 1.333-.19 2.067-2.904.826-4.81-2.248-7.627-1.784l.318 1.593c2.606.086 4.234 2.585 6.926 2.478-.383.764.17 2.777-1.524 1.972-1.76-.423-3.03-1.972-4.958-1.972-.233.427-.085 1.018-.126 1.523 2.033.32 3.496 2.038 5.528 2.355-.191.7-.38 1.481-.953 1.908-1.654-.403-2.945-1.889-4.706-1.846l-.314 1.463c1.674.043 2.755 1.524 4.258 1.968.042.617-.51 1.169-.828 1.72-1.335-.401-2.352-1.548-3.878-1.464-.02-.574.32-1.227.192-1.841-1.714.51-2.862-1.083-4.132-2.038-.036-3.125-3.326-5.175-3.5-8.102a4.349 4.349 0 0 1 .322-1.876c1.081-2.5.742-5.746-.444-8.077-.36-.614-.998-1.098-1.593-1.458.87 1.844 1.93 4.024 1.401 6.29-.06 1.752-1.094 3.433-1.106 5.12a3.518 3.518 0 0 0 .471 1.812c1.378 2.482 3.857 4.832 2.925 7.946-.256.956-1.02 1.695-1.21 2.668 1.612 1.336 3.137 2.841 5.276 2.926.762-.487.339-2.646 1.907-1.65l2.29 1.145c-.168.613-.68 1.162-1.145 1.584-.869-.423-1.716-.93-2.8-.888-.319.339-.594.72-.57 1.206.763.125 1.462.447 2.099.893-.296.636-.872 1.035-1.402 1.523l-1.776-.635c-.296.424-.912.87-.696 1.336.4.172.845.404 1.14.701-.784.848-1.777 1.393-2.733 1.968-.824-2.692-3.537-4.58-3.304-7.693l-.126-.126c-.638.717-.425 1.864-.384 2.795.763 1.95 2.584 3.456 2.86 5.595-.319.55-1.038.66-1.589.893.064-3.856-5.783-6.78-2.033-10.68 1.25-1.91 3.345-3.732 2.603-6.361-.762-2.539-3.458-4.112-3.434-6.957l.004-.222c.614-2.968 2.48-6.125.953-9.282-.425-1.27-1.375-2.713-2.668-3.244 1.927 2.206 2.691 5.805 1.589 8.773-.556 1.18-1.32 2.587-1.398 3.975h-.004c-.041.725.107 1.446.574 2.13 1.464 2.374 4.005 4.982 2.543 8.076-1.653 2.478-4.534 5-2.925 8.263 1.166 1.95 2.968 3.895 2.482 6.292l-1.907.635c1.271-4.47-4.959-7.097-2.35-11.569 1.61-2.394 4.49-4.64 2.859-7.818-.975-1.97-2.988-3.135-2.925-5.596l.07-.413c.656-3.49 3.308-6.793 1.453-10.523-.487-1.1-1.46-2.223-2.542-2.86l-.065.066c2.162 2.097 2.82 5.55 1.654 8.324-.544 1.628-1.738 3.25-1.98 4.994a4.103 4.103 0 0 0 .457 2.573c1.377 2.18 3.792 4.494 2.285 7.314-1.587 2.329-4.236 4.595-3.178 7.623 1.165 2.65 3.6 5.174 2.285 8.46L32.671 56c1.567-3.202-.783-6.38-2.16-9.156-1.675-3.984 3.598-5.892 3.683-9.534-.02-2.351-2.52-3.686-3.047-5.848-1.082-.912-2.203.363-3.496.126-.955.192-2.42-1.314-2.99.319-.68 2.393-3.77 4.153-2.412 6.991 1.293 2.523 4.404 4.368 3.365 7.632-.93 3.05-4.005 5.953-2.098 9.47-.784-.254-2.246.232-2.225-1.02-1.207-4.258 3.94-6.74 2.35-10.997-.74-2.607-4.11-4.048-3.368-7.184.548-2.581 3.445-4.386 3.038-7.213a4.179 4.179 0 0 0-.174-.732c-1.081-3.052-3.287-6.104-1.972-9.665.36-1.017 1.082-1.886 1.715-2.795-2.097 1.123-3.156 3.497-3.112 5.912-.092 2.626 1.848 4.876 2.124 7.28.109.97-.05 1.963-.727 3.016-1.376 1.868-3.176 3.837-2.35 6.296.784 2.48 3.877 3.983 3.686 6.866-.02 3.41-3.983 5.534-2.86 9.348l-1.972-.64c-.783-3.39 2.818-5.123 2.86-8.26.51-3.605-4.09-4.943-3.813-8.459-.02-2.67 2.33-4.362 3.369-6.609a4.302 4.302 0 0 0 .213-1.558c-.127-2.484-2.365-4.426-1.994-7.219.125-2.055.825-3.857 2.16-5.403-1.842.74-2.604 2.861-3.112 4.642-.884 2.854 1.225 5.422 1.436 7.98.094 1.13-.182 2.252-1.245 3.4-1.526 1.8-3.074 4.07-1.972 6.487 1.167 2.668 4.833 4.744 3.243 8.072-.868 2.098-2.945 3.686-2.86 6.165-.55-.233-1.121-.465-1.589-.888 0-3.157 4.49-5.129 2.35-8.456-.189.657-.23 1.549-.378 2.29-.742 1.93-2.33 3.474-2.925 5.468-.994-.383-2.033-1.19-2.86-2.037l1.145-.701c-.127-.425-.466-.784-.762-1.145-.743-.104-1.232.384-1.845.575-.53-.467-1.04-.891-1.463-1.463.38-1.083 3.35-.188 1.846-1.968-1.016-.635-2.036.272-2.926.696l-1.205-1.524c1.038-.635 2.073-1.527 3.365-1.271.318.573.34 1.416.953 1.715 2.183-.042 3.73-1.693 5.403-2.986-1.167-1.736-2.116-4.132-1.08-6.23.83-2.104 2.993-3.875 3.09-6.2a4.137 4.137 0 0 0-.291-1.686c-1.144-2.945-1.547-6.927.636-9.534-1.187.318-1.887 1.798-2.29 2.921-1.312 2.877.347 5.542.405 8.299.007.495-.033.992-.153 1.493-1.123 2.267-2.943 4.256-3.239 6.865-1.293.825-2.354 2.267-4.196 1.78-.065.488.083 1.23.252 1.781-1.46-.061-2.457 1.016-3.687 1.524-.655-.21-.825-1.057-1.079-1.65 1.44-.486 2.478-1.93 4.131-1.907.192-.532-.107-1.02-.191-1.528-2.057-.913-5.316 4.512-5.59-.191 2.055-.128 3.367-2.035 5.402-2.225l.061-1.524c-2.31-.233-3.795 2.141-6.103 1.907l-.51-2.033c2.671.167 4.262-2.226 6.805-2.355.338-.445.379-1.102.444-1.716-2.776-.361-4.68 2.715-7.627 1.78 0 0-.101-1.28-.156-2.001H.1c-.02-.283-.04-.48-.04-.48 2.628 1.02 4.936-.867 7.183-1.841.572-.171 1.463.125 1.72-.51-.023-.487.866-1.057.126-1.397-3.285-.446-5.468 3.517-8.837 1.715L0 26.562C.7 16.986 6.101 7.727 15.063 3.17 18.692 1.096 23.2.038 27.748.001c5.488-.046 11.033 1.394 15.158 4.315 4.006 2.457 7.837 6.507 9.917 10.618C54.81 18.536 55.727 22.58 56 26.882c-3.475 2.626-5.807-2.475-9.346-1.333.19.552.296 1.123.7 1.59 3.137-.023 5.297 3.262 8.58 1.967l.003.479zM16.015 17.79c-2.204-1.441-4.998-.084-7.052.7-.19-1.928-.974-3.686-2.607-4.957-.159-.08-.378-.245-.575-.257-.118-.008-.23.04-.318.191.74 4.555-2.22 7.734-4.318 11.19.698.57 1.82.485 2.668.317 2.224-.89 4.343-2.438 6.991-1.907.784-1.335 2.1-2.628 3.178-3.688.66-.57 1.565-.933 2.033-1.589zm6.738 2.86c-.042.275.022.764.445.575.657-.911 1.822-.19 2.542-.126v-.256c-.395-.62-1.208-.932-2.033-.901a3.01 3.01 0 0 0-.57.077.494.494 0 0 0-.384.632zm10.36-2.729c-.59-1.314-1.947-1.846-3.177-2.164a16.472 16.472 0 0 0-1.85-.13c-.117-.001-.233-.003-.349 0-1.737.035-3.396.48-4.41 1.91-.145.404-.785.971-.191 1.333 1.335-.085 2.858-.253 3.748.893 0 1.018.657 2.373-.444 2.86-.912-.845-1.993.36-2.986-.318-.467-.276-.762.046-.953.448-.276 2.627 1.099 5.527 3.556 6.988.996.36 2.335.701 3.374.191 2.5-1.164 3.536-3.832 4.001-6.29-.062-.469-.04-1.38-.696-1.402-.741.468-1.822.192-2.608 0-.464.15-.485.829-1.014.958l-.322-.257c-.276-1.164-.446-2.817.636-3.623 1.208-.487 2.628-.7 3.878-.317.233-.403-.127-.72-.192-1.08zm-1.275 2.09l-.248.008c-.444.297-1.738.084-1.27 1.08.805-.637 1.928-.19 2.733.126.298-.147.233-.444.253-.7-.259-.481-.876-.526-1.468-.514zm9.225-8.96c-1.568-.083-2.882.807-4.322 1.21-.126-1.226.806-2.522 1.018-3.753-2.33.15-4.175 1.553-6.103 2.673a939.562 939.562 0 0 1-1.336-3.243l2.542-2.417.066-.318-3.435-.191c-.591-1.037-.824-2.285-1.523-3.239-.573 1.08-.957 2.224-1.528 3.304l-3.43.192v.252l2.603 2.352c-.319 1.208-.614 2.52-1.398 3.434-1.525-.913-3.029-1.908-4.701-2.542-.402-.13-.976-.342-1.336-.066.529 1.166 1.27 2.42 1.145 3.693-.7-.129-1.25-.578-1.907-.766-.786-.215-1.719-.634-2.481-.379 1.271 1.779 2.31 3.64 2.668 5.782 4.218-2.036 9.137-3.156 14.244-2.286 2.393.38 4.594 1.356 6.734 2.16.084-2.246 1.503-4.05 2.48-5.852zm7.243 12.207c2.16.572 4.326 2.925 6.613 1.398-1.991-3.305-4.956-6.357-4.131-10.68.086-.294-.105-.593-.379-.635-1.292.528-2.292 1.801-2.804 3.053-.21.74-.334 1.526-.63 2.224-1.548-.806-3.2-1.586-5.085-1.397-.68.084-1.655.129-1.78.827 2.14 1.144 3.899 3.052 5.21 5.085.914-.15 2.033-.022 2.986.125zM25.68 26.245l.06.383c.829.552 1.083 1.487 2.23 1.402 1.016.06 1.779-.892 2.285-1.654-1.375-.19-3.05.104-4.575-.13zm1.144-1.715c.042.17-.104.424.127.51.678-.148 1.906.36 2.285-.445-.265-.296-.696-.43-1.15-.43-.452 0-.922.132-1.262.365z" fill="#007042"/></g></svg>