<?xml version="1.0" encoding="UTF-8"?>
<svg width="56px" height="56px" viewBox="0 0 56 56" version="1.1" xmlns="http://www.w3.org/2000/svg" xmlns:xlink="http://www.w3.org/1999/xlink">
    <title>SHOP</title>
    <g id="SHOP" stroke="none" stroke-width="1" fill="none" fill-rule="evenodd">
        <circle id="Oval" stroke="#EAEAEA" fill="#FFFFFF" cx="28" cy="28" r="27.5"></circle>
        <g id="Shopify_logo_2018" transform="translate(10.000000, 7.000000)" fill-rule="nonzero">
            <path d="M30.9172,7.70226667 C30.8894667,7.50026667 30.713,7.3882 30.5665333,7.376 C30.4212,7.3638 27.5736,7.32053333 27.5736,7.32053333 C27.5736,7.32053333 25.1920667,5.00783333 24.9568,4.77256667 C24.7216,4.53730667 24.2621333,4.60832667 24.0834667,4.66159333 C24.0812667,4.66270667 23.6362667,4.80031333 22.8872,5.03224667 C22.7618,4.62608667 22.5775333,4.1267 22.3145333,3.6251 C21.4667333,2.00710667 20.2249333,1.1515 18.7245333,1.14928667 C18.7223333,1.14928667 18.7212,1.14928667 18.719,1.14928667 C18.6146667,1.14928667 18.5114667,1.15927333 18.4072,1.16814667 C18.3628,1.11488 18.3184,1.06272667 18.2718,1.01167333 C17.6181333,0.312543333 16.7803333,-0.0281454 15.776,0.00181742 C13.8384,0.0573042 11.9086,1.45668 10.3438667,3.94248667 C9.243,5.69142667 8.40513333,7.88873333 8.16766667,9.58993333 C5.94263333,10.2790667 4.38678,10.7606667 4.35238,10.7718 C3.22932667,11.1246667 3.19382,11.1590667 3.04733333,12.2178 C2.93858,13.0178667 0,35.7408667 0,35.7408667 L24.6261333,40 L35.2995333,37.3466 C35.2995333,37.3466 30.9449333,7.90426667 30.9172,7.70226667 Z M21.6542667,5.41399333 C21.0872,5.58933333 20.4424,5.78908667 19.7432667,6.00548667 C19.7288667,5.02448 19.6123333,3.65950667 19.1551333,2.47985333 C20.6255333,2.7584 21.3490667,4.42189333 21.6542667,5.41399333 Z M18.4548667,6.40498667 C17.1642667,6.80446667 15.756,7.2406 14.3433333,7.67786667 C14.7406,6.15640667 15.4941333,4.64162 16.4196667,3.64840667 C16.7636667,3.27886667 17.2452667,2.86715333 17.8156667,2.63188667 C18.3516667,3.7505 18.4682,5.33409333 18.4548667,6.40498667 Z M15.8148,1.29132667 C16.2698,1.28134 16.6526667,1.38122 16.9800667,1.59650667 C16.4562667,1.86839333 15.9502,2.25902 15.4752667,2.76838667 C14.2445333,4.08897333 13.3012667,6.13865333 12.9250667,8.1162 C11.7520667,8.47906667 10.6046,8.83533333 9.54813333,9.1616 C10.2151333,6.04876667 12.8240667,1.37788667 15.8148,1.29132667 Z" id="Shape" fill="#95BF47"></path>
            <path d="M30.5676,7.37713333 C30.4222667,7.36493333 27.5746667,7.32166667 27.5746667,7.32166667 C27.5746667,7.32166667 25.1932,5.00896 24.9579333,4.7737 C24.8702667,4.68602667 24.7515333,4.64052667 24.6272,4.62166667 L24.6283333,39.9989333 L35.3006667,37.3466667 C35.3006667,37.3466667 30.9460667,7.9054 30.9183333,7.7034 C30.8905333,7.5014 30.713,7.38933333 30.5676,7.37713333 Z" id="Path" fill="#5E8E3E"></path>
            <path d="M18.7112,12.8648 L17.4716667,17.5023333 C17.4716667,17.5023333 16.0889333,16.8731333 14.4498667,16.9763333 C12.0461333,17.1284 12.0206,18.6442667 12.0450667,19.0249333 C12.176,21.099 17.6325333,21.5518 17.9388667,26.4102 C18.1796667,30.2321333 15.9113333,32.8466667 12.6432,33.0530667 C8.72026667,33.3005333 6.56072667,30.9867333 6.56072667,30.9867333 L7.39193333,27.4511333 C7.39193333,27.4511333 9.56586667,29.0913333 11.3059333,28.9814667 C12.4423333,28.9093333 12.8484667,27.9849333 12.8074,27.3312667 C12.6365333,24.6257333 8.19313333,24.7855333 7.9124,20.3399333 C7.676,16.5990667 10.133,12.8082 15.554,12.4664 C17.6425333,12.3321333 18.7112,12.8648 18.7112,12.8648 Z" id="Path" fill="#FFFFFF"></path>
        </g>
    </g>
</svg>