<svg width="56" height="56" xmlns="http://www.w3.org/2000/svg"><defs><linearGradient x1="81.559%" y1="13.366%" x2="22.204%" y2="90.225%" id="a"><stop stop-color="#4BBBBB" offset="0%"/><stop stop-color="#0099C4" offset="100%"/></linearGradient></defs><g fill="none" fill-rule="evenodd"><rect fill="url(#a)" width="56" height="56" rx="28"/><path d="M18.066 41.746v-4.96c3.112 1.301 5.775 1.952 7.989 1.952 1.55 0 2.77-.345 3.662-1.035.892-.69 1.338-1.627 1.338-2.812 0-.938-.28-1.729-.84-2.373-.56-.645-1.621-1.41-3.184-2.295l-1.933-1.075c-2.592-1.458-4.42-2.854-5.489-4.189-1.067-1.335-1.601-2.894-1.601-4.678 0-2.383.875-4.297 2.627-5.742 1.751-1.445 4.066-2.168 6.943-2.168 2.305 0 4.902.332 7.793.996v4.63c-2.956-1.108-5.293-1.661-7.012-1.661-1.328 0-2.392.296-3.193.889-.8.592-1.201 1.37-1.201 2.334 0 .794.28 1.49.84 2.09.56.598 1.614 1.334 3.164 2.206l2.07 1.153c2.787 1.562 4.707 3.001 5.762 4.316 1.054 1.315 1.582 2.917 1.582 4.805 0 2.682-.996 4.785-2.988 6.309-1.993 1.523-4.74 2.285-8.243 2.285-2.317 0-5.013-.326-8.086-.977z" fill="#FFF"/></g></svg>