<svg width="56" height="56" xmlns="http://www.w3.org/2000/svg"><g fill="none" fill-rule="evenodd"><path d="M56 28c0 15.464-12.536 28-28 28S0 43.464 0 28 12.536 0 28 0s28 12.536 28 28" fill="#004990"/><g fill="#FFF"><path d="M28.8 23.481c0-.558-.385-.862-.825-.862-.439 0-.833.295-.833.862v11.366c0 .567.394.863.833.863.44 0 .824-.31.824-.863v-3.724h3.985v3.433c0 2.786-2.19 4.237-4.828 4.237-2.522 0-4.8-1.405-4.8-4.237V23.77c0-2.826 2.278-4.235 4.8-4.235 2.593 0 4.828 1.453 4.828 4.235v3.074H28.8v-3.364zM37.743 23.993c0-.566.393-.862.832-.862.44 0 .826.305.826.862v14.57h3.988v-15.61c0-2.544-1.648-3.42-2.907-3.42-1.405 0-2.393 1.015-2.666 1.532h-.064V14.96h-3.989v23.603h3.98v-14.57zM15.99 34.553c0 .568.395.865.833.865.44 0 .823-.308.823-.865v-2.23c0-1.78-.381-2.426-1.702-3.668-1.127-1.06-1.695-1.605-2.423-2.291-.93-.88-2.004-2.106-2.004-4.399v-2.827c-.002-3.102 2.58-4.257 5.301-4.257 2.712 0 5.274 1.18 5.274 4.236v3.645h-4.446v-3.536c0-.557-.384-.863-.824-.863-.44 0-.833.295-.833.863v1.698c0 1.47.46 2.117 1.68 3.282.49.468 1.6 1.549 2.455 2.382 1.527 1.497 2.055 2.846 2.055 4.703v3.16c0 3.285-2.643 4.438-5.36 4.438-2.753 0-5.319-1.153-5.319-4.283v-4.525h4.49v4.472z"/></g></g></svg>