<svg width="56" height="56" xmlns="http://www.w3.org/2000/svg"><g fill="none" fill-rule="evenodd"><rect fill="#FFFC00" width="56" height="56" rx="28"/><path d="M27.901 45.215c-.094 0-.186-.003-.279-.007-.06.004-.12.007-.183.007-2.166 0-3.556-.983-4.9-1.934-.93-.656-1.805-1.275-2.837-1.447a9.153 9.153 0 0 0-1.49-.125c-.873 0-1.562.134-2.064.233-.306.06-.57.11-.77.11-.209 0-.435-.045-.534-.381a12.16 12.16 0 0 1-.207-.848c-.154-.703-.263-1.136-.558-1.18-3.435-.532-4.419-1.255-4.638-1.769a.661.661 0 0 1-.053-.22.387.387 0 0 1 .324-.403c5.281-.87 7.65-6.268 7.748-6.497l.009-.019c.323-.655.386-1.223.188-1.69-.362-.854-1.544-1.23-2.327-1.477-.191-.06-.373-.118-.516-.175-1.561-.617-1.691-1.25-1.63-1.574.105-.55.84-.933 1.435-.933.163 0 .306.029.427.085.703.329 1.336.496 1.882.496.755 0 1.084-.317 1.124-.359-.019-.358-.043-.73-.067-1.116-.157-2.497-.352-5.6.438-7.371 2.367-5.309 7.388-5.721 8.87-5.721l.65-.007h.089c1.485 0 6.517.413 8.886 5.725.79 1.772.595 4.877.438 7.372l-.007.109c-.022.347-.043.685-.06 1.008.037.039.34.33 1.025.357.52-.02 1.118-.186 1.774-.493.192-.09.405-.109.55-.109.223 0 .448.043.634.121l.012.005c.53.188.878.56.885.948.007.366-.272.916-1.642 1.457a8.801 8.801 0 0 1-.516.175c-.783.248-1.965.623-2.327 1.477-.198.466-.135 1.034.188 1.69l.009.02c.098.228 2.465 5.625 7.749 6.495a.388.388 0 0 1 .323.404.647.647 0 0 1-.054.221c-.218.51-1.2 1.233-4.637 1.764-.281.043-.39.409-.557 1.176-.061.28-.123.553-.208.842-.073.25-.23.367-.492.367h-.042c-.182 0-.441-.032-.77-.097a10.262 10.262 0 0 0-2.064-.218c-.484 0-.986.042-1.49.125-1.031.172-1.907.79-2.833 1.445-1.347.953-2.738 1.936-4.905 1.936" fill="#FFF"/><path d="M27.295 10.512c-1.541 0-6.762.43-9.225 5.952-.829 1.858-.63 5.014-.47 7.55.018.298.038.609.055.908-.127.071-.36.159-.726.159-.49 0-1.067-.155-1.718-.46a1.386 1.386 0 0 0-.592-.12c-.762 0-1.673.5-1.815 1.248-.102.538.139 1.323 1.868 2.006.156.061.344.12.542.183.715.227 1.795.57 2.088 1.26.152.358.091.819-.18 1.368-.112.26-2.398 5.47-7.473 6.306a.775.775 0 0 0-.648.807c.007.117.035.234.083.348.38.89 1.988 1.543 4.913 1.997.098.132.2.6.262.884.061.28.124.57.214.876.088.3.317.66.906.66.238 0 .519-.056.843-.12.488-.095 1.155-.225 1.99-.225.464 0 .945.04 1.428.12.944.158 1.746.725 2.675 1.381 1.33.94 2.836 2.006 5.126 2.006.063 0 .126-.002.189-.007.074.003.17.007.273.007 2.29 0 3.797-1.065 5.126-2.005.93-.658 1.732-1.225 2.676-1.381.483-.08.964-.12 1.427-.12.797 0 1.428.1 1.99.21.353.07.637.104.844.104.477 0 .784-.23.906-.646.088-.3.151-.581.214-.867.062-.284.163-.749.26-.88 2.927-.455 4.534-1.106 4.914-1.993a1.03 1.03 0 0 0 .083-.35.774.774 0 0 0-.647-.807c-5.077-.836-7.361-6.046-7.456-6.267-.289-.588-.349-1.048-.197-1.405.293-.69 1.373-1.034 2.087-1.26.2-.064.388-.123.542-.184 1.266-.5 1.901-1.114 1.888-1.825-.011-.558-.446-1.057-1.137-1.303a2.082 2.082 0 0 0-.781-.15c-.185 0-.459.025-.715.145-.602.282-1.143.435-1.61.456a1.43 1.43 0 0 1-.627-.156c.015-.257.031-.522.049-.799l.006-.108c.16-2.537.359-5.695-.47-7.554-2.465-5.525-7.697-5.955-9.242-5.955l-.738.006zm9.273 6.264c.751 1.685.56 4.738.404 7.191-.024.39-.048.766-.067 1.127l-.009.155.104.115c.041.046.432.455 1.301.488.603-.021 1.251-.2 1.954-.529a.936.936 0 0 1 .387-.072c.166 0 .343.031.488.092.39.138.651.382.656.602.002.125-.092.574-1.398 1.09-.128.05-.296.103-.491.165-.85.27-2.134.677-2.567 1.695-.244.575-.177 1.252.198 2.013.154.36 2.58 5.827 8.042 6.727-.115.306-.703 1.059-4.364 1.624-.573.088-.714.73-.877 1.476-.058.267-.118.537-.2.816-.025.084-.03.09-.12.09a4 4 0 0 1-.738-.09 10.712 10.712 0 0 0-2.139-.226c-.507 0-1.03.044-1.553.13-1.12.187-2.032.832-2.997 1.514-1.296.916-2.635 1.862-4.679 1.862-.088 0-.176-.002-.263-.007a3.657 3.657 0 0 1-.199.007c-2.043 0-3.383-.946-4.678-1.862-.965-.682-1.877-1.327-2.997-1.513a9.53 9.53 0 0 0-1.553-.131c-.908 0-1.62.138-2.14.24-.285.056-.532.104-.694.104-.132 0-.135-.008-.163-.104-.082-.279-.142-.555-.2-.822-.164-.747-.305-1.392-.877-1.48-3.661-.566-4.25-1.32-4.342-1.538 5.439-.989 7.865-6.455 8.02-6.816.375-.762.441-1.438.198-2.013-.432-1.018-1.717-1.426-2.567-1.696a7.821 7.821 0 0 1-.491-.165c-1.104-.436-1.443-.875-1.392-1.142.058-.307.59-.619 1.054-.619.105 0 .196.017.264.049.754.353 1.442.532 2.046.532.949 0 1.372-.441 1.416-.491l.103-.115-.008-.155c-.02-.36-.043-.736-.068-1.125-.154-2.453-.346-5.504.405-7.19 2.274-5.1 7.095-5.492 8.519-5.492l.653-.006c1.491 0 6.336.377 8.619 5.495z" stroke="#000" fill="#030303"/></g></svg>