<svg width="56" height="56" xmlns="http://www.w3.org/2000/svg"><g fill="none" fill-rule="evenodd"><path d="M56 28c0 15.464-12.536 28-28 28S0 43.464 0 28 12.536 0 28 0s28 12.536 28 28" fill="#FFF"/><path d="M28 0C12.536 0 0 12.536 0 28c0 15.465 12.536 28 28 28 15.465 0 28-12.535 28-28C56 12.537 43.465.001 28 .001V0zm12.84 40.384a1.744 1.744 0 0 1-2.4.579c-6.574-4.016-14.85-4.925-24.597-2.699a1.746 1.746 0 0 1-.776-3.403c10.665-2.438 19.814-1.388 27.195 3.123a1.745 1.745 0 0 1 .578 2.4zm3.428-7.625a2.182 2.182 0 0 1-3.003.72c-7.526-4.627-18.999-5.966-27.901-3.264a2.186 2.186 0 0 1-2.725-1.454 2.186 2.186 0 0 1 1.456-2.723c10.169-3.086 22.81-1.591 31.454 3.72a2.182 2.182 0 0 1 .719 3.001zm.294-7.939c-9.024-5.36-23.913-5.853-32.53-3.238a2.619 2.619 0 1 1-1.52-5.012c9.891-3.003 26.333-2.422 36.723 3.746a2.616 2.616 0 0 1 .916 3.588 2.617 2.617 0 0 1-3.588.916h-.001z" fill="#1ED760" fill-rule="nonzero"/></g></svg>