<?xml version="1.0" encoding="UTF-8"?>
<svg width="56px" height="56px" viewBox="0 0 56 56" version="1.1" xmlns="http://www.w3.org/2000/svg" xmlns:xlink="http://www.w3.org/1999/xlink">
    <!-- Generator: Sketch 61.2 (89653) - https://sketch.com -->
    <title>Square, Inc</title>
    <desc>Created with Sketch.</desc>
    <g id="Square,-Inc" stroke="none" stroke-width="1" fill="none" fill-rule="evenodd">
        <rect id="Rectangle-1" stroke="#E1E1E1" fill="#FFFFFF" x="0.5" y="0.5" width="55" height="55" rx="27.5"></rect>
        <path d="M39.9830645,10.0000003 C41.5786029,9.99953771 43.1091809,10.6330679 44.2375608,11.7611795 C45.3659408,12.8892812 46,14.4195156 46,16.0151359 L46,39.9812648 C46,43.3043896 43.3060256,45.9982003 39.9830645,45.9982003 L16.0151356,45.9982003 C12.6927799,45.9972186 10,43.3037351 10,39.9812648 L10,16.0151359 C10,12.6930583 12.6930581,10.0000003 16.0151356,10.0000003 L39.9830645,10.0000003 Z M37.5553131,16.5460766 L18.4463231,16.5460766 C17.942512,16.5460766 17.4593507,16.7463411 17.103263,17.102756 C16.7471754,17.4591709 16.547369,17.9425122 16.5478264,18.4463234 L16.5478264,37.5553134 C16.5478264,38.6038428 17.3978101,39.4538912 18.4463231,39.4538912 L37.5605492,39.4538912 C38.6090786,39.4538912 39.459127,38.6038428 39.459127,37.5553134 L39.4538909,18.4445726 C39.4538909,17.3960595 38.6038425,16.5460766 37.5553131,16.5460766 Z M31.8284904,23.0659888 C32.1182759,23.0664469 32.3959529,23.1821321 32.6004882,23.3875509 C32.8048598,23.5929861 32.9192359,23.8712685 32.9182604,24.1610704 L32.9182604,31.7882381 C32.9192359,32.0780236 32.8048598,32.3563552 32.6004882,32.5617085 C32.3959529,32.7672255 32.1182759,32.8829107 31.8284904,32.8834015 L24.1802637,32.8798017 C23.5817773,32.8750565 23.0991434,32.3885899 23.0991434,31.790038 L23.0991434,24.1610704 C23.0977651,23.8711212 23.2119612,23.5925606 23.4165128,23.3870436 C23.621048,23.1815266 23.8990523,23.0659888 24.1890015,23.0659888 L31.8284904,23.0659888 Z" id="Combined-Shape" fill="#3E4348"></path>
    </g>
</svg>