<svg width="56" height="56" xmlns="http://www.w3.org/2000/svg"><defs><linearGradient x1="50%" y1="0%" x2="50%" y2="100%" id="a"><stop stop-color="#F6C100" offset="0%"/><stop stop-color="#D61C15" offset="100%"/></linearGradient></defs><g fill="none" fill-rule="evenodd"><path d="M56 28c0 15.464-12.536 28-28 28S0 43.464 0 28 12.536 0 28 0s28 12.536 28 28" fill="#0053A2"/><path d="M46.78 31.547c-.315 1.878-.786 3.695-1.637 5.424-1.466 2.981-3.522 5.451-6.13 7.485a.897.897 0 0 1-.607.21c-.615-.013-1.23-.005-1.874-.005.063-.183.228-.223.347-.303 3.863-2.607 6.536-6.087 7.605-10.662 1.33-5.683.018-10.781-3.66-15.278-1.508-1.843-3.322-3.332-5.487-4.352-2.76-1.299-5.668-1.838-8.715-1.632a17.87 17.87 0 0 0-6.789 1.84 16.606 16.606 0 0 0-3.156 2.063c-1.661 1.362-2.907 3.06-4.008 4.876-.183.301-.387.43-.751.417-.837-.03-1.675-.01-2.513-.01-.469 0-.47-.002-.307-.425.97-2.507 2.459-4.67 4.388-6.526 3.032-2.918 6.606-4.785 10.772-5.486.327-.055.67-.03.978-.183h3.536c.04.096.128.071.201.078a19.508 19.508 0 0 1 8.625 2.924c1.91 1.195 3.555 2.694 5.003 4.42 2.348 2.8 3.728 6.01 4.186 9.63.073.575.135 3.05.213 3.533-.085.943-.158 1.597-.22 1.962z" fill="url(#a)"/></g></svg>