<svg width="56" height="56" xmlns="http://www.w3.org/2000/svg"><g fill="none" fill-rule="evenodd"><path d="M56 28c0 15.464-12.536 28-28 28S0 43.464 0 28 12.536 0 28 0s28 12.536 28 28" fill="#231F20"/><path d="M36.21 20.706l.063 14.182h3.303V24.01h2.806c1.135.004 1.285.844 1.309 1.185v1.901h3.304v-2.057c.013-.23.056-1.303-.686-2.431-1.121-1.903-3.803-1.902-3.803-1.902H36.21zM30.32 16c-.603 0-3.305.031-3.305.031v4.55H15.64s-2.682 0-3.803 1.902c-.775 1.18-.674 2.303-.654 2.462-.02.162-.091 1.287.686 2.463 1.123 1.902 3.77 1.9 3.77 1.9h5.985c.973 0 1.119.743 1.122 1.06-.003.317-.153 1.03-1.122 1.03H9v3.334h12.499s2.658.01 3.771-1.901c.774-1.173.7-2.304.686-2.462.01-.167.092-1.323-.686-2.494-1.116-1.91-3.771-1.901-3.771-1.901l-5.985.031c-.967.003-1.112-.743-1.122-1.06.008-.319.149-1.025 1.122-1.028.991.003 11.377 0 11.377 0h.124v6.39s-.007 2.687 1.902 3.802c1.127.74 2.209.697 2.43.686h3.554V31.49h-3.584c-.338-.024-.989-.212-.998-1.122.009-.524-.003-3.623 0-6.452l4.551-.031c0-.606-.031-3.304-.031-3.304h-4.52V16z" fill="#FFF"/></g></svg>