<svg width="56" height="56" xmlns="http://www.w3.org/2000/svg" xmlns:xlink="http://www.w3.org/1999/xlink"><defs><linearGradient x1="50%" y1="0%" x2="73.256%" y2="50%" id="b"><stop stop-color="#004960" offset="0%"/><stop stop-color="#008DA1" offset="100%"/></linearGradient><rect id="a" width="56" height="56" rx="28"/><linearGradient x1="73.513%" y1="15.951%" x2="50%" y2="115.56%" id="c"><stop stop-color="#06E4FF" offset="0%"/><stop stop-color="#004357" offset="43.087%"/><stop stop-color="#003448" offset="100%"/></linearGradient></defs><g fill="none" fill-rule="evenodd"><mask id="d" fill="#fff"><use xlink:href="#a"/></mask><use fill="url(#b)" xlink:href="#a"/><rect fill-opacity=".4" fill="url(#c)" mask="url(#d)" width="56" height="56" rx="28"/><g mask="url(#d)" fill="#FFF"><path d="M35.012 26.172l.086.066c.666-.758 1.354-1.498 1.994-2.278.785-.958 1.485-1.982 1.856-3.186.133-.428.21-.888.222-1.337.017-.65-.526-.959-1.083-.625-.282.17-.57.389-.75.658-.431.647-.853 1.312-1.183 2.015-.692 1.478-1.015 3.061-1.142 4.687m17.33-9.813c-.558.128-1.146.258-1.732.398-.848.201-1.69.43-2.542.605-.317.065-.409.21-.46.51-.554 3.202-1.096 6.407-1.697 9.6a42.557 42.557 0 0 1-1.61 6.105c-.582 1.68-1.89 2.458-3.39 3.05-.145.058-.323.028-.486.038.012-.16-.003-.33.041-.482.083-.283.184-.564.307-.833.486-1.063.818-2.17 1.023-3.327.244-1.374.542-2.738.768-4.149-.082.081-.164.16-.244.243-.889.913-1.744 1.862-2.675 2.728a8.038 8.038 0 0 1-3.141 1.809c-.709.217-1.433.322-2.175.204-1.314-.21-2.32-1.18-2.67-2.529-.434-1.67-.233-3.308.222-4.927.722-2.568 1.908-4.863 3.928-6.644.923-.813 1.922-1.504 3.148-1.77.235-.052.478-.092.717-.087 1.165.023 1.885.947 1.717 2.207-.13.979-.579 1.831-1.082 2.655-.904 1.483-2.077 2.73-3.326 3.92-.597.57-1.146 1.211-1.614 1.892-.538.783-.665 1.658-.138 2.545.524.882 1.116 1.095 2.04.667 1.718-.795 3.09-2.011 4.168-3.57 1.284-1.854 2.073-3.912 2.453-6.139.15-.887.293-1.776.453-2.661.041-.227-.037-.319-.244-.335-.334-.025-.669-.046-1.003-.072-.101-.007-.202-.022-.302-.034l-.045-.087c.201-.15.393-.316.604-.449a4.748 4.748 0 0 0 1.604-1.67c.19-.327.34-.682.473-1.037.808-2.146 1.99-4.01 3.876-5.355a11.708 11.708 0 0 1 3.982-1.826 48.627 48.627 0 0 1 3.693-.769c.357-.06.788.03 1.125.185.711.33 1.31.841 1.837 1.432.208.233.25.476.125.76-.47 1.058-1.112 1.992-1.967 2.766-.161.145-.402.2-.607.298l-.075-.1c.031-.083.054-.17.096-.247 1.045-1.89-.055-3.843-2.212-3.855-1.979-.011-3.581.848-4.757 2.424-.983 1.317-1.693 2.802-2.243 4.357-.321.908-.27.993.662.827 1.56-.277 3.106-.63 4.663-.92.771-.143 1.555-.219 2.334-.323a.33.33 0 0 1 .155.005c.13.05.324.084.365.18.041.096-.05.272-.122.388a1.138 1.138 0 0 1-.302.32c-1.674 1.189-2.466 2.952-3.058 4.836-.516 1.644-.824 3.328-.806 5.062.008.713.068 1.422.391 2.079.366.743 1.027.913 1.694.428.567-.413.944-.99 1.268-1.6 1.131-2.131 1.747-4.421 1.908-6.83.053-.786-.008-1.59-.104-2.376-.07-.568.078-.968.563-1.216.718-.368 1.439-.734 2.18-1.048a82.043 82.043 0 0 1 3.565-1.411c.376-.138.798-.187 1.202-.199.42-.012.659.217.753.633.235 1.041.145 2.088.048 3.134-.01.111-.018.223-.027.334l.073.046c.12-.118.26-.222.358-.358.42-.583.83-1.171 1.236-1.763.707-1.032 1.454-2.026 2.48-2.762.718-.515 1.503-.776 2.396-.654.896.123 1.353.575 1.294 1.487-.07 1.074-.186 2.155-.402 3.207-.434 2.116-.964 4.21-1.424 6.32-.237 1.087-.374 2.194-.315 3.313.026.486.116.969.158 1.455.026.293.08.635-.202.82-.268.174-.554.002-.798-.14a10.657 10.657 0 0 1-1.035-.67c-.881-.66-1.168-1.611-1.195-2.658-.044-1.757.377-3.446.765-5.138.35-1.527.691-3.056 1.03-4.585a2.36 2.36 0 0 0 .066-.63c-.023-.425-.276-.548-.61-.294-.199.15-.397.326-.533.533-.54.819-1.1 1.63-1.57 2.49-1.272 2.325-2.22 4.793-3.03 7.32a26.826 26.826 0 0 1-.856 2.321c-.465 1.091-1.377 1.616-2.559 1.568-.272-.01-.347-.097-.298-.365a779.9 779.9 0 0 0 .888-4.97c.35-2.002.705-4.004 1.036-6.009.068-.414.062-.845.049-1.267-.02-.578-.322-.814-.853-.62-.528.194-1.031.46-1.53.724-.266.14-.441.401-.395.709.225 1.476-.19 2.864-.546 4.255-.391 1.53-.858 3.041-1.559 4.459-.9 1.821-2.203 3.264-4.038 4.163-.697.342-1.435.536-2.218.504-1.264-.051-2.045-.688-2.404-1.914-.47-1.607-.346-3.213-.032-4.817.383-1.952 1.136-3.74 2.323-5.337.349-.47.635-.987.955-1.49M26.036 12.024c-.536.816-1.2 1.47-2.115 1.773-.925.306-1.863.573-2.806.819-1.248.325-2.51.597-3.758.92-1.17.302-1.897 1.112-2.346 2.207-.641 1.561-1.087 3.187-1.428 4.836-.774 3.752-1.498 7.515-2.237 11.274-.344 1.747-.699 3.49-1.331 5.158-.146.385-.328.757-.5 1.132-.565 1.238-1.634 1.86-2.822 2.322-.37.143-.758.24-1.14.345-.104.028-.22.008-.405.012.11-.288.167-.54.295-.747.532-.85.788-1.802 1-2.762.802-3.617 1.558-7.244 2.373-10.857a194.987 194.987 0 0 1 1.71-6.998c.417-1.578 1.218-2.97 2.29-4.197.357-.41.69-.843 1.003-1.33-.41.093-.821.181-1.23.28-1.162.282-2.327.553-3.485.856-1.983.518-3.93 1.136-5.653 2.302-1.862 1.26-2.884 3.012-2.888 5.3-.001.526.209 1.052.305 1.58.034.188.097.48.008.554-.126.105-.409.124-.576.056-1.12-.454-2.12-1.065-2.507-2.326-.27-.88-.103-1.734.27-2.536 1.112-2.399 2.852-4.117 5.356-5.015 2.02-.725 4.094-1.247 6.191-1.675 5.214-1.064 10.435-2.1 15.653-3.146.257-.051.515-.091.773-.137"/><path d="M22.775 22.495c-.145-.886-.82-1.186-1.37-.752-.258.204-.515.455-.67.742a28.734 28.734 0 0 0-1.22 2.503c-.415.994-.737 2.028-.849 3.111-.02.192.077.397.12.596.184-.097.42-.15.543-.299a53.926 53.926 0 0 0 1.854-2.322c.583-.779 1.094-1.61 1.39-2.549.12-.387.158-.801.202-1.03m2.565 8.644c-.143.15-.22.231-.298.31-.85.862-1.66 1.77-2.56 2.572-1.04.927-2.23 1.617-3.651 1.782-1.341.156-2.44-.363-3.295-1.368-.247-.29-.376-.747-.415-1.141-.434-4.375.808-8.172 3.88-11.303a8.412 8.412 0 0 1 3.301-2.085c.907-.312 2.139.162 2.581 1.023.245.476.175.999.015 1.458a10.271 10.271 0 0 1-.878 1.925c-1.194 1.977-2.644 3.737-4.487 5.14-.134.101-.257.216-.388.322-.556.449-.75 1.035-.601 1.728.136.63.278 1.263.474 1.876.151.471.387.576.879.525.648-.067 1.198-.37 1.706-.754 1.812-1.368 3.059-3.18 3.939-5.258.856-2.023 1.342-4.166 1.902-6.283.528-1.995 1.104-3.977 1.59-5.982.374-1.548 1.391-2.317 2.827-2.675.112-.027.226-.046.34-.064.04-.006.08.004.176.01-.059.45-.087.895-.18 1.324a1252.77 1252.77 0 0 1-1.862 8.53c-.613 2.757-1.304 5.498-1.652 8.31-.149 1.208-.144 2.41.077 3.61.046.249.065.507.058.76-.008.29-.156.388-.44.34a3.316 3.316 0 0 1-2.688-2.656c-.118-.625-.222-1.253-.35-1.976"/></g></g></svg>