<?xml version="1.0" encoding="UTF-8"?>
<svg width="56px" height="56px" viewBox="0 0 56 56" version="1.1" xmlns="http://www.w3.org/2000/svg" xmlns:xlink="http://www.w3.org/1999/xlink">
    <!-- Generator: Sketch 62 (91390) - https://sketch.com -->
    <title>Truist Financial Corp</title>
    <desc>Created with Sketch.</desc>
    <g id="Truist-Financial-Corp" stroke="none" stroke-width="1" fill="none" fill-rule="evenodd">
        <rect id="Rectangle-1" stroke="#E1E1E1" fill="#FFFFFF" x="0.5" y="0.5" width="55" height="55" rx="27.5"></rect>
        <path d="M42.7027027,11 C43.971465,11 45,12.028535 45,13.2972973 L45,42.7027027 C45,43.971465 43.971465,45 42.7027027,45 L13.2972973,45 C12.028535,45 11,43.971465 11,42.7027027 L11,13.2972973 C11,12.028535 12.028535,11 13.2972973,11 L42.7027027,11 Z M13.7567568,42.2432432 L42.2432432,42.2432432 L42.2432432,29.8378378 L33.5142432,29.8377297 L33.5135135,36.2702703 L30.2972973,36.2702703 L30.2972973,19.7297297 L33.5135135,19.7297297 L33.5142432,26.6207297 L42.2432432,26.6216216 L42.2432432,13.7567568 L13.7567568,13.7567568 L13.7567568,26.6216216 L22.4857568,26.6207297 L22.4864865,19.7297297 L25.7027027,19.7297297 L25.7027027,36.2702703 L22.4864865,36.2702703 L22.4857568,29.8377297 L13.7567568,29.8378378 L13.7567568,42.2432432 Z" id="Combined-Shape" fill="#522A75" fill-rule="nonzero"></path>
    </g>
</svg>