<?xml version="1.0" encoding="UTF-8"?>
<svg width="56px" height="56px" viewBox="0 0 56 56" version="1.1" xmlns="http://www.w3.org/2000/svg" xmlns:xlink="http://www.w3.org/1999/xlink">
    <!-- Generator: Sketch 52.4 (67378) - http://www.bohemiancoding.com/sketch -->
    <title>TFX</title>
    <desc>Created with Sketch.</desc>
    <g id="TFX" stroke="none" stroke-width="1" fill="none" fill-rule="evenodd">
        <rect id="Rectangle-1" stroke="#E1E1E1" fill="#FFFFFF" x="0.5" y="0.5" width="55" height="55" rx="27.5"></rect>
        <g id="Group-65" transform="translate(10.000000, 16.000000)" fill="#334D8C">
            <path d="M17.0865123,25.0449692 L15.9687863,25.041249 L11.7839096,25.0449692 L10.6203205,25.0449692 C10.6342932,16.1619803 10.6407863,9.69736343 10.6398,5.6511186 C10.6393068,3.75357329 10.615389,3.73249221 8.70048493,3.73199618 C6.1967589,3.73150016 3.69204658,3.70000254 1.18906027,3.74935707 C0.367717808,3.76572591 0.159115068,3.49415199 0.158621918,2.69530302 C0.157635616,0.235512878 0.12410137,0.23576089 2.61673151,0.236008903 C5.90037534,0.236256916 9.18426575,0.231048649 12.4681562,0.237744992 C15.3195534,0.243449285 17.049526,1.97780223 17.0638274,4.8651663 C17.0791151,7.96160509 17.0672795,11.0582919 17.0672795,14.1547307 C17.0672795,16.3291409 17.0736904,19.9592203 17.0865123,25.0449692 Z" id="Fill-9"></path>
            <path d="M35.5729988,25.0449692 L34.4552728,25.041249 L30.2703961,25.0449692 L29.106807,25.0449692 C29.1207796,16.1619803 29.1272728,9.69736343 29.1262865,5.6511186 C29.1257933,3.75357329 29.1018755,3.73249221 27.1869714,3.73199618 C24.6832454,3.73150016 22.1785331,3.70000254 19.6755468,3.74935707 C18.8542043,3.76572591 18.6456016,3.49415199 18.6451084,2.69530302 C18.6441221,0.235512878 18.6105879,0.23576089 21.103218,0.236008903 C24.3868618,0.236256916 27.6707522,0.231048649 30.9546427,0.237744992 C33.8060399,0.243449285 35.5360125,1.97780223 35.5503139,4.8651663 C35.5656016,7.96160509 35.5537659,11.0582919 35.5537659,14.1547307 C35.5537659,16.3291409 35.5601769,19.9592203 35.5729988,25.0449692 Z" id="Fill-9-Copy" transform="translate(27.108997, 12.639641) scale(-1, 1) translate(-27.108997, -12.639641) "></path>
        </g>
    </g>
</svg>