<?xml version="1.0" encoding="UTF-8"?>
<svg width="56px" height="56px" viewBox="0 0 56 56" version="1.1" xmlns="http://www.w3.org/2000/svg" xmlns:xlink="http://www.w3.org/1999/xlink">
    <!-- Generator: Sketch 52.4 (67378) - http://www.bohemiancoding.com/sketch -->
    <title>TIT</title>
    <desc>Created with Sketch.</desc>
    <g id="TIT" stroke="none" stroke-width="1" fill="none" fill-rule="evenodd">
        <rect id="Rectangle-1" stroke="#E1E1E1" fill="#FFFFFF" x="0.5" y="0.5" width="55" height="55" rx="27.5"></rect>
        <g id="Group-8" transform="translate(13.000000, 16.000000)" fill="#F0000D">
            <path d="M14.9805409,5.12149742 C10.5705653,5.12182853 6.16047456,5.12227001 1.75038382,5.12160779 C0.493712269,5.12149742 0.000735142297,4.65408429 0.000389839617,3.46684388 C0.00015963783,2.84182367 -0.000415866638,2.21669309 0.00050494051,1.59156251 C0.00188615123,0.521754821 0.536990205,0.00324078992 1.65013095,0.00313042082 C10.1633383,0.00213709892 18.6766608,0.00257857532 27.1899833,0.00257857532 C27.6309348,0.00257857532 28.0721165,-0.00426430887 28.512953,0.00434448092 C29.3096814,0.0197961549 29.9077456,0.476393121 29.9558578,1.2222675 C30.0137535,2.11868533 30.0160555,3.02426379 29.9547068,3.92024014 C29.9016452,4.6969075 29.2941427,5.11940041 28.3832343,5.11995226 C23.9157082,5.12260112 19.448067,5.12116632 14.9805409,5.12149742" id="Fill-8"></path>
            <path d="M23.5511661,14.6262944 C21.9675989,14.6262944 20.3839198,14.6156733 18.8006882,14.6339591 C18.4283407,14.6383389 18.2849495,14.5683714 18.2930027,14.1620345 C18.3210769,12.7583052 18.3143659,11.353481 18.2961344,9.94953278 C18.2918842,9.62104699 18.3687249,9.51078526 18.7238475,9.5122087 C21.9840408,9.52534813 25.244346,9.51417962 28.5045393,9.52403419 C29.3777495,9.52666208 29.9459457,10.0642838 29.9781583,10.914186 C30.0071274,11.6790104 30.0069037,12.4465722 29.9797242,13.2116156 C29.9487419,14.0907531 29.378868,14.6176443 28.4694185,14.6234475 C26.8300384,14.6337401 25.1905463,14.6262944 23.5511661,14.6262944" id="Fill-12"></path>
            <path d="M6.32288864,14.6271556 C4.75350918,14.6271556 3.18412973,14.6297845 1.61475027,14.6261698 C0.534405568,14.6235409 0.00270937291,14.1001728 0.000688568114,13.0489456 C-0.000434101218,12.4291849 0.000127233448,11.8094242 0.000239500381,11.1896635 C0.000576301181,10.0196982 0.502970827,9.52020917 1.68918324,9.51944241 C4.09932976,9.51768982 6.50947629,9.5191138 8.91962281,9.5191138 C9.68562009,9.5191138 10.4519542,9.53203917 11.2175024,9.51297972 C11.5548645,9.50454537 11.714059,9.55854714 11.7070985,9.94948492 C11.6818384,11.3708378 11.6857678,12.7931766 11.7050777,14.2147486 C11.7097929,14.5629669 11.5871974,14.6371235 11.2551118,14.6340565 C9.61118712,14.6190499 7.96703788,14.6272652 6.32288864,14.6271556" id="Fill-14"></path>
            <path d="M23.7225589,19.7661589 C25.2860248,19.7661589 26.8494908,19.763078 28.4129568,19.7672592 C29.4282031,19.7701201 29.9698244,20.2851778 29.989172,21.2754619 C30.0027042,21.9710814 30.0046054,22.6673612 29.9888365,23.3628707 C29.9663575,24.3530447 29.4192563,24.8674423 28.4063585,24.8681025 C25.2236204,24.869973 22.0407705,24.8616106 18.8581443,24.8780053 C18.4376413,24.880206 18.2854326,24.800103 18.2972872,24.3466629 C18.33218,23.0107697 18.3416861,21.6723457 18.2939321,20.3371127 C18.2752555,19.8127023 18.4651529,19.7495442 18.9206606,19.7565862 C20.5209205,19.7813433 22.1218515,19.7661589 23.7225589,19.7661589" id="Fill-16"></path>
            <path d="M6.3421146,19.7651597 C7.95018691,19.7650497 9.55848367,19.7770419 11.1663315,19.7563581 C11.5617003,19.7512971 11.7174686,19.8165391 11.7068072,20.2557399 C11.6735886,21.6298926 11.6820055,23.0054755 11.7031038,24.3799583 C11.7087151,24.7444553 11.6395844,24.8803303 11.2260352,24.8780199 C7.99126127,24.8601966 4.75626284,24.8705385 1.52137663,24.8669078 C0.545804531,24.8658076 0.00656330935,24.3251682 0.00263543364,23.3621611 C-0.000170191859,22.6472497 -0.00174134214,21.9322282 0.00319655874,21.2173167 C0.00936893485,20.3248326 0.552986932,19.7739613 1.46167292,19.7682403 C3.08848681,19.7580084 4.7153007,19.7652697 6.3421146,19.7651597" id="Fill-18"></path>
        </g>
    </g>
</svg>