<?xml version="1.0" encoding="UTF-8"?>
<svg width="56px" height="56px" viewBox="0 0 56 56" version="1.1" xmlns="http://www.w3.org/2000/svg" xmlns:xlink="http://www.w3.org/1999/xlink">
    <!-- Generator: Sketch 53.2 (72643) - https://sketchapp.com -->
    <title>TLRY</title>
    <desc>Created with Sketch.</desc>
    <g id="TLRY" stroke="none" stroke-width="1" fill="none" fill-rule="evenodd">
        <rect id="Rectangle-1" fill="#314067" x="0" y="0" width="56" height="56" rx="28"></rect>
        <g id="Group-16" transform="translate(7.000000, 12.000000)">
            <path d="M26,0 C23.7335,3.51816667 21.4651667,7.03516667 19.2023333,10.5558333 C18.783,11.2085 18.4011667,11.8851667 17.978,12.535 C16.2101667,15.2498333 17.2048333,18.0146667 20.3355,18.9136667 C22.0146667,19.396 23.7643333,19.5606667 25.4896667,19.8196667 C31.0546667,20.655 36.6183333,21.5008333 42.1921667,22.2716667 C43.2518333,22.4181667 43.3311667,23.3608333 43.9175,24 L0,24 L0,23.8333333 C0.6805,22.7836667 1.5575,21.8923333 2.37066667,20.9541667 C5.199,17.6905 8.00983333,14.4111667 10.8553333,11.1628333 C13.6463333,7.97683333 16.3841667,4.7445 19.2026667,1.5825 C19.6813333,1.0455 20.1058333,0.4605 20.6666667,0 L26,0 Z" id="Fill-4" fill="#FFFFFF"></path>
            <path d="M41.9292,21.1119 C39.1187,20.5385667 36.5172,20.0140667 33.9185333,19.4762333 C30.5568667,18.7804 27.1968667,18.0765667 23.8383667,17.3660667 C23.6073667,17.3172333 23.2250333,17.4342333 23.2553667,16.9692333 C23.2810333,16.5762333 23.4757,16.4079 23.8747,16.3439 C27.9485333,15.6904 32.0195333,15.0187333 36.0910333,14.3505667 C36.4897,14.2850667 36.8227,14.2924 37.1102,14.6814 C38.6563667,16.7745667 40.2285333,18.8484 41.9292,21.1119" id="Fill-18" fill="#FFAA00"></path>
            <path d="M21.54215,12.2884833 C20.93315,12.09515 20.9394833,11.7813167 21.19265,11.3244833 C22.2254833,9.46065 23.2343167,7.58365 24.2508167,5.71098333 C25.0034833,4.32465 25.7629833,2.94181667 26.4998167,1.54731667 C26.7123167,1.14481667 26.8574833,1.04898333 27.1699833,1.47381667 C28.2858167,2.99081667 29.4174833,4.49631667 30.5664833,5.98831667 C30.8273167,6.32681667 30.8539833,6.50698333 30.45665,6.75231667 C27.60665,8.51298333 24.76865,10.2929833 21.92615,12.0659833 C21.7888167,12.1514833 21.64615,12.2284833 21.54215,12.2884833" id="Fill-20" fill="#FFAA00"></path>
            <path d="M35.81835,12.9907167 C33.56585,13.2787167 31.43035,13.5552167 29.2936833,13.82405 C27.4830167,14.0518833 25.67235,14.2807167 23.8590167,14.4852167 C23.5116833,14.52455 23.0825167,14.70405 22.8956833,14.14655 C22.7141833,13.6052167 23.1946833,13.5433833 23.44435,13.3673833 C25.9795167,11.5823833 28.5390167,9.83205 31.06835,8.03921667 C31.57185,7.68221667 31.84735,7.64905 32.2400167,8.19921667 C33.3771833,9.79255 34.57835,11.34005 35.81835,12.9907167" id="Fill-22" fill="#FFAA00"></path>
        </g>
    </g>
</svg>