<?xml version="1.0" encoding="UTF-8"?>
<svg width="56px" height="56px" viewBox="0 0 56 56" version="1.1" xmlns="http://www.w3.org/2000/svg" xmlns:xlink="http://www.w3.org/1999/xlink">
    <!-- Generator: Sketch 52.4 (67378) - http://www.bohemiancoding.com/sketch -->
    <title>TMUS</title>
    <desc>Created with Sketch.</desc>
    <g id="TMUS" stroke="none" stroke-width="1" fill="none" fill-rule="evenodd">
        <rect id="Rectangle-1" stroke="#E1E1E1" fill="#FFFFFF" x="0.5" y="0.5" width="55" height="55" rx="27.5"></rect>
        <g id="Group-67" transform="translate(16.000000, 13.000000)">
            <path d="M14.3253,13.1683637 C14.3253,16.5115075 14.3231,19.8546514 14.3279,23.1979938 C14.3285,23.6272336 14.3461,24.058261 14.3875,24.485713 C14.5481,26.1383158 15.1165,26.7786993 16.7325,27.0939253 C17.1867,27.182713 17.6669,27.2675281 18.1187,27.2142952 C19.0383,27.1058432 19.2627,27.4844322 19.1981,28.3325829 C19.1563,28.8808021 18.9485,28.9834938 18.4655,28.9821034 C14.1661,28.9703842 9.8665,28.9622404 5.5671,28.98985 C4.9045,28.9944185 4.7775,28.7274596 4.8163,28.1667267 C4.8503,27.6747199 4.7143,27.1570897 5.5447,27.2198568 C6.1327,27.26435 6.7439,27.181124 7.3279,27.0683021 C8.8691,26.7701582 9.5273,26.0803158 9.5929,24.5075623 C9.6797,22.4257199 9.6693,20.3395075 9.6731,18.2548842 C9.6823,13.0249527 9.6445,7.79462397 9.7033,2.56528836 C9.7145,1.55942534 9.3211,1.49506918 8.5367,1.60908288 C5.1483,2.10069247 2.7819,4.49815822 2.0369,8.23379521 C1.9465,8.68746644 1.8933,9.14848699 1.8053,9.60275411 C1.7289,9.99643904 1.9839,10.6401993 1.1559,10.5049322 C0.5305,10.4026377 0.0403,10.3835692 0.1059,9.40730205 C0.2991,6.53769247 0.3267,3.65596644 0.3751,0.778411644 C0.3847,0.200795205 0.5693,0.0663226027 1.1175,0.0675143836 C8.3833,0.082610274 15.6489,0.0810212329 22.9147,0.0689047945 C23.4037,0.068110274 23.6093,0.161863699 23.6189,0.71504863 C23.6695,3.65835 23.7245,6.60304178 23.8725,9.54276781 C23.9207,10.5011582 23.3099,10.4056171 22.7607,10.4993705 C21.9637,10.6354322 22.2539,9.99723356 22.1967,9.6508226 C21.9373,8.07747329 21.5843,6.53928151 20.7683,5.13953493 C19.5629,3.07179521 17.7169,1.98787055 15.3859,1.60093904 C14.5815,1.46745959 14.2875,1.65735 14.3003,2.54343904 C14.3521,6.08441849 14.3217,9.62658973 14.3217,13.1683637 L14.3253,13.1683637 Z" id="Fill-4" fill="#E40878"></path>
            <path d="M23.80156,16.3291849 C23.80176,17.1215205 23.78316,17.9142534 23.80936,18.7057945 C23.82336,19.1282808 23.69296,19.2842055 23.24856,19.2782466 C21.65336,19.2567945 20.05756,19.2603699 18.46236,19.2792397 C18.03596,19.2842055 17.87216,19.1445685 17.87596,18.7145342 C17.89016,17.129863 17.89076,15.5451918 17.87156,13.9609178 C17.86596,13.4955274 18.02456,13.3213288 18.50536,13.3278836 C20.06716,13.3487397 21.62996,13.349137 23.19176,13.3229178 C23.67916,13.3145753 23.82656,13.4883767 23.80956,13.9525753 C23.78056,14.7439178 23.80156,15.5370479 23.80156,16.3291849" id="Fill-8" fill="#E40576"></path>
            <path d="M6.60156,16.3291849 C6.60176,17.1215205 6.58316,17.9142534 6.60936,18.7057945 C6.62336,19.1282808 6.49296,19.2842055 6.04856,19.2782466 C4.45336,19.2567945 2.85756,19.2603699 1.26236,19.2792397 C0.83596,19.2842055 0.67216,19.1445685 0.67596,18.7145342 C0.69016,17.129863 0.69076,15.5451918 0.67156,13.9609178 C0.66596,13.4955274 0.82456,13.3213288 1.30536,13.3278836 C2.86716,13.3487397 4.42996,13.349137 5.99176,13.3229178 C6.47916,13.3145753 6.62656,13.4883767 6.60956,13.9525753 C6.58056,14.7439178 6.60156,15.5370479 6.60156,16.3291849" id="Fill-8-Copy" fill="#E40576"></path>
        </g>
    </g>
</svg>