<svg width="56" height="56" xmlns="http://www.w3.org/2000/svg"><g fill="none" fill-rule="evenodd"><rect fill="#EF1320" width="56" height="56" rx="28"/><path d="M17.6 14.327A43.665 43.665 0 0 1 28.069 13c4.154.016 8.305.632 12.286 1.816 1.29.384 2.565.821 3.815 1.32-.248.641-.573 1.249-.9 1.852a36.59 36.59 0 0 0-11.69-2.917 40.117 40.117 0 0 0-3.6-.128 38.02 38.02 0 0 0-7.949.78 36.17 36.17 0 0 0-7.134 2.265c-.326-.605-.643-1.216-.897-1.856a45.632 45.632 0 0 1 5.6-1.805zm5.856 1.872c.438-.04.877-.08 1.317-.087.541.67 1.093 1.332 1.637 1.999l1.674 2.038c1.101-1.349 2.21-2.692 3.314-4.038 1.12.041 2.234.177 3.34.35 1.942.316 3.86.79 5.714 1.451.782.277 1.55.596 2.305.938-.084.152-.197.286-.301.425-.575.722-1.297 1.315-2.067 1.818-.623.398-1.279.748-1.966 1.023-.044-.43-.154-.87-.418-1.222-.22-.3-.537-.515-.877-.66-.493-.208-1.026-.306-1.555-.374-.976-.119-1.962-.13-2.944-.137-.026-.004-.04.007-.044.031l-4.44 24.975c-.019.099-.032.198-.062.294-.184-.982-.354-1.966-.532-2.948l-3.76-20.978c-.086-.46-.157-.922-.253-1.379-.708.007-1.416.011-2.122.062-.698.05-1.4.123-2.07.336-.436.143-.864.365-1.153.732-.287.358-.404.818-.452 1.267a11.585 11.585 0 0 1-2.154-1.148c-.657-.448-1.273-.964-1.784-1.576a4.79 4.79 0 0 1-.398-.541 29.517 29.517 0 0 1 2.541-1.02 32.636 32.636 0 0 1 7.51-1.63z" fill="#FFF"/></g></svg>