<?xml version="1.0" encoding="UTF-8"?>
<svg width="56px" height="56px" viewBox="0 0 56 56" version="1.1" xmlns="http://www.w3.org/2000/svg" xmlns:xlink="http://www.w3.org/1999/xlink">
    <title>TTWO</title>
    <g id="TTWO" stroke="none" stroke-width="1" fill="none" fill-rule="evenodd">
        <circle id="Oval" stroke="#EAEAEA" fill="#FFFFFF" cx="28" cy="28" r="27.5"></circle>
        <path d="M29.6360289,13 L29.6389576,15.1294732 C31.576108,13.776387 34.0067313,13.0342522 36.7757393,13.0309603 C42.7444549,13.0238404 47.8018777,16.2416311 47.8097052,22.6895626 C47.8137059,25.9134414 46.3353556,28.3114338 43.9851977,30.4053721 L37.0643124,35.5984713 L36.3678405,36.0348969 L48,36.0209814 L47.6602873,43.3405464 L24.9186701,43.3678556 L24.9104947,36.5278543 L35.0521278,28.8911893 C36.8801057,27.3206486 39.0563195,25.4883221 39.0530146,22.8742912 C39.0511012,21.1315459 37.9601242,19.738776 36.1304069,19.7410373 C33.342084,19.7443422 32.5614232,22.6206808 32.4334004,24.9297878 L24.8948398,23.4575255 C25.0362802,22.3529101 25.2905262,21.3194182 25.6475344,20.3653321 L23.3549098,20.3682694 L23.3827408,43.6108454 L14.4606294,43.6216299 L14.4327983,20.3790539 L8.0086972,20.3867074 L8,13.0259177 L29.6360289,13 Z" id="Combined-Shape" fill="#000000" fill-rule="nonzero"></path>
    </g>
</svg>