<svg width="56" height="56" xmlns="http://www.w3.org/2000/svg" xmlns:xlink="http://www.w3.org/1999/xlink"><defs><rect id="a" width="56" height="56" rx="28"/></defs><g fill="none" fill-rule="evenodd"><mask id="b" fill="#fff"><use xlink:href="#a"/></mask><use fill="#005DAA" xlink:href="#a"/><path fill="#FFF" mask="url(#b)" d="M1 11h40v52H1z"/><path d="M49 6v48.992H38.85c2.15-5.63 2.628-12.593 1.11-18.697-1.83-7.752-6.903-15.123-14.094-19.673-6.797-4.33-15.429-6.029-23.914-4.282l-1.95.48V6H49zm-35.51 7.68c-2.607-1.44-6.033-1.65-9.103-1.123l1.083.124.153-.077c1.423-.104 2.923-.054 4.25.238-.434.12-1.183.364-1.707.58.298.112.677.302.935.47.563-.206 1.747-.52 2.324-.635.515.151 1.839.764 2.66 1.365-.975.104-2.3.296-3.37.543.253.22.467.482.658.768a30.04 30.04 0 0 1 3.864-.413 6.74 6.74 0 0 1 1.573 1.98c-1.441-.095-3.357-.072-4.53.056.12.21.287.747.357 1.069 1.459-.062 3.835.045 4.832.19.327.785.515 1.634.591 2.52-1.664-.328-3.625-.604-5.156-.678.016.493-.004.964-.05 1.426 1.822.189 3.589.518 5.297.96-.023.868-.15 1.95-.378 2.786-1.355-.484-3.524-1.127-5.357-1.499a12.44 12.44 0 0 1-.75 2.204c1.794.6 3.566 1.382 5.263 2.223-.28.805-.684 1.708-1.06 2.376-1.699-.956-3.449-1.89-5.18-2.63-.524.958-1.19 1.98-1.816 2.82 1.688 1.027 3.282 2.14 4.867 3.333-.476.697-1.158 1.532-1.569 2.03-1.52-1.265-4.637-3.746-4.637-3.746-.917 1.104-1.701 1.93-2.857 2.825 1.28 1.31 2.953 3.182 4 4.478a10.506 10.506 0 0 1-1.704 1.452c-1.27-1.56-2.797-3.531-3.686-4.768-1.248.979-2.01 1.51-3.285 2.169v1.833l2.025 4.053c-.46.295-.834.474-1.424.729l-.602-1.182v2.13c7.812-3.47 15.763-11.124 18.075-19.434.846-2.873.993-6.57-.39-9.247-.813-1.761-2.454-3.404-4.196-4.297zm-1.166-1.207c.34.111.665.263.991.404l.183-.031c1.669.276 3.263.832 4.694 1.613-.777.006-1.58-.006-2.355.059.324.289.666.628.947.94a35.86 35.86 0 0 1 3.066.068c.993.729 2.002 1.705 2.567 2.713-1.161-.267-2.756-.495-4.18-.619.185.424.373.86.53 1.313a46.81 46.81 0 0 1 4.673.907c.504 1.042.886 2.14 1.05 3.301-1.682-.6-3.406-1.17-5.175-1.53.045.572.05 1.158.053 1.737 1.823.527 3.603 1.14 5.329 1.92a13.498 13.498 0 0 1-.38 3.351c-1.734-.865-3.504-1.722-5.346-2.347a24.423 24.423 0 0 1-.897 3.013c1.767.907 3.519 1.83 5.19 2.923a14.858 14.858 0 0 1-1.308 2.745c-1.642-1.123-3.286-2.215-4.999-3.166a20.357 20.357 0 0 1-2.196 3.587c1.526 1.202 3.09 2.455 4.56 3.785A17.91 17.91 0 0 1 17.46 41.5c-1.073-1.132-2.867-2.744-4.359-4.002-1.054 1.274-2.302 2.68-3.558 3.735.958 1.008 3.805 4.439 3.805 4.439a16.74 16.74 0 0 1-2.007 1.675S8.434 43.62 7.718 42.72C6 44.084 4.625 45.038 2.613 46.107c.797 1.359 2.776 5.04 2.776 5.04-.509.312-1.04.605-1.57.8-.934-1.552-2.058-3.799-2.657-5.08-.578.317-1.16.523-1.16.523v6.705c6.058-1.97 11.641-5.45 16.366-10.488 4.305-4.668 7.712-9.708 8.723-15.731.807-4.801-.783-9.325-4.594-12.381-2.31-1.98-5.175-2.67-8.173-3.022zm-2.017 3.197C7.655 12.99 3.589 12.765.001 13.61v.326c.75-.16 1.72-.313 2.611-.31-.581.351-1.14.777-1.645 1.193.215.047.443.12.653.208.809-.578 1.592-1.08 2.244-1.436.848.007 1.941.165 2.655.45-1.18.425-2.609 1.08-3.529 1.7.17.09.349.24.48.377a27.142 27.142 0 0 1 4.094-1.73c.633.254 1.315.703 1.7 1.081-1.706.404-3.34.851-4.985 1.52.159.188.332.47.414.646 1.189-.422 3.52-1.102 5.347-1.45.335.357.736.927.941 1.46-2.02.21-4.323.562-5.879 1.006.098.261.159.517.2.76 1.915-.367 4.022-.641 6.083-.724.184.593.287 1.227.29 1.877-2.053-.13-4.406-.04-6.277.147 0 .244-.034.731-.066 1.032 1.897-.057 4.017-.037 6.281.218-.08.615-.228 1.41-.425 2.095-2.117-.483-4.045-.719-6.178-.86-.076.413-.254.918-.452 1.348 1.993.363 3.983.915 5.906 1.606a17.971 17.971 0 0 1-.91 1.822c-1.439-.677-3.992-1.632-5.667-2.101a10.9 10.9 0 0 1-1.201 1.885c1.203.587 3.51 1.89 5.093 2.913a16.102 16.102 0 0 1-1.25 1.497c-1.532-1.194-3.052-2.316-4.716-3.376C1.281 29.4.622 30.06 0 30.582v.193l3.824 4.072c-.425.387-.857.744-1.31 1.072L0 32.704v5.674c3.882-2.28 7.811-6.02 10.021-9.984 1.803-3.173 3.167-7.469 1.42-11.118-.307-.564-.634-1.112-1.134-1.606zm11.423.041l1.129.138c1.126.585 2.163 1.41 3.095 2.398.344.375.714.755.953 1.164-.931-.263-1.833-.584-2.796-.792.326.511.558 1.01.797 1.595 1.074.309 2.14.68 3.183 1.051.669 1.27 1.157 2.633 1.39 4.077-1.203-.603-2.41-1.19-3.649-1.677.096.708.123 1.434.096 2.136 1.361.621 2.886 1.458 3.83 2.063.035.997-.065 2.769-.357 3.897-1.086-.791-2.65-1.807-3.92-2.462-.173.98-.64 2.503-1.124 3.579 1.324.899 2.649 1.819 3.902 2.9-.383 1.06-.876 2.077-1.408 3.068a74.633 74.633 0 0 0-3.864-3.111c-.755 1.492-1.589 2.837-2.728 4.236 1.278 1.18 2.496 2.332 3.717 3.596a19.764 19.764 0 0 1-2.049 2.534c-1.162-1.247-2.357-2.526-3.572-3.721-1.265 1.458-2.693 2.99-4.183 4.244.686.717 2.17 2.45 3.25 4.006-.742.636-1.435 1.235-2.176 1.78l-3.14-4.056c-1.939 1.514-3.999 2.76-6.058 3.886l1.647 2.75h5.108c7.806-5.332 14.856-13.25 17.029-22.09 1.312-5.404.066-10.944-3.657-14.969-1.99-2.144-4.196-2.862-5.753-3.343.399.265.856.665 1.308 1.123zm-21.728-.45v.944l.529-.367c.44.102.942.325 1.278.543-.61.358-1.237.71-1.8 1.096v.592c.753-.459 1.638-.996 2.339-1.352.282.181.536.45.733.718-1.011.404-2.422 1.092-3.08 1.44v.61c1.123-.548 2.365-1.096 3.546-1.463.152.269.306.607.36.918-1.255.243-2.71.773-3.899 1.235v.557c1.258-.438 2.949-.882 4.057-1.06.082.357.093.818.094 1.143-1.668.16-2.791.355-4.148.628v.637c1.209-.161 3.213-.308 4.081-.276-.083.436-.178.89-.346 1.286-.997-.092-2.613-.166-3.738-.135-.008 0-.008.85-.008.853 1.1.061 2.307.33 3.274.514a7.894 7.894 0 0 1-.588 1.146c-.753-.254-1.864-.604-2.686-.735v1.675c.53.239 1.297.62 1.557.789a6.08 6.08 0 0 1-.757.89c-.351-.235-.8-.495-.8-.495v2.142c.884-.87 1.752-1.78 2.442-2.74 1.71-2.466 3.057-5.664 1.83-8.747-.742-1.691-2.545-2.753-4.27-2.986zm28.618 4.72c.357.605.697 1.226.979 1.86l1.362.629c.966 1.576 1.737 3.234 2.158 5.04-.751-.474-1.516-.967-2.282-1.383.12.819.148 1.557.169 2.419.861.603 1.76 1.24 2.594 1.98.08 1.515-.03 3.008-.259 4.409a22.72 22.72 0 0 0-2.803-2.33c-.228 1.296-.697 2.76-1.24 4.06a26.626 26.626 0 0 1 2.922 2.764 21.096 21.096 0 0 1-1.45 3.285c-.926-.998-1.938-2.035-2.948-2.923-.62 1.208-1.88 3.16-2.985 4.663 1.01 1.035 1.944 2.119 2.869 3.205-.655.919-1.406 1.794-2.177 2.645-.937-1.08-1.815-2.189-2.793-3.242-1.481 1.726-2.721 3.067-4.491 4.554 1.045 1.27 2.63 3.377 2.63 3.377h.892c1.655-1.47 3.25-3.127 4.701-4.801 3.572-4.373 6.398-9.044 7.384-14.471 1.068-5.691-.423-11.232-4.188-15.349l-1.044-.392zm3.573 2.85l-.017.04c1.632 2.009 2.932 4.164 3.602 6.561l-.013.026-1.259-.954c.161.974.288 1.879.323 2.894a10.708 10.708 0 0 1 1.75 1.65c.086 1.653.086 3.416-.197 5.04-.565-.752-1.07-1.299-1.953-2.18-.195 1.202-.646 3.097-1.189 4.36a21.164 21.164 0 0 1 2.063 2.673c-.29.996-.852 2.334-1.451 3.452-.711-.918-1.215-1.661-2.143-2.753a40.32 40.32 0 0 1-3.197 5.015c.81.956 1.557 1.953 2.263 2.961a31.64 31.64 0 0 1-2.17 2.742c-.738-1.015-1.525-2.024-2.292-3.027-1.071 1.25-2.15 2.518-3.454 3.661h6.013c3.872-4.494 6.68-9.468 7.828-15.092 1.182-5.666.247-11.663-3.403-15.935-.341-.378-.695-.855-1.104-1.135zm5.131 7.877c.236 1.082.335 1.977.472 3.402.445.484.98 1.308.98 1.308.056 1.656-.038 3.325-.384 5.038l-.912-1.126a27.464 27.464 0 0 1-1.236 4.643l1.01 1.754c-.3 1.054-.874 2.507-1.435 3.665-.378-.613-.73-1.289-1.12-1.824-.908 1.768-1.997 3.488-3.176 5.146l1.412 2.278h.327c3.404-5.053 5.685-10.628 5.92-16.966.116-2.654-.716-4.966-1.717-7.179l-.14-.139zm2.702 9.09c-.115.851-.174 1.713-.328 2.52l-.269-.367a26.28 26.28 0 0 1-1.312 4.959l.42 1.163a33.244 33.244 0 0 1-1.336 3.726c-.13-.399-.38-.873-.605-1.24-.754 1.502-1.648 3.101-2.545 4.433h2.254c1.232-2.371 2.187-4.894 2.898-7.495.593-2.434 1.133-5.034.833-7.7h-.01zm.139 6.208c-.473 2.485-1.328 5.548-2.044 7.735a5.526 5.526 0 0 1-.239-.518c-.337.68-.848 1.769-.848 1.769h1.155c.996-2.35 1.698-5.742 1.976-8.986zm-35.87 7.068a38.123 38.123 0 0 1-4.294 1.65v.263h5.363l-1.069-1.913zm11.744.36c-.558.399-1.266 1.029-2.118 1.566h3.144s-.68-1.023-1.026-1.567z" fill="#005DAA" mask="url(#b)"/></g></svg>