<?xml version="1.0" encoding="UTF-8"?>
<svg width="56px" height="56px" viewBox="0 0 56 56" version="1.1" xmlns="http://www.w3.org/2000/svg" xmlns:xlink="http://www.w3.org/1999/xlink">
    <!-- Generator: Sketch 54.1 (76490) - https://sketchapp.com -->
    <title>Uber</title>
    <desc>Created with Sketch.</desc>
    <g id="Uber" stroke="none" stroke-width="1" fill="none" fill-rule="evenodd">
        <rect id="Rectangle-1" fill="#010202" x="0" y="0" width="56" height="56" rx="28"></rect>
        <g id="Uber_logo_2018" transform="translate(8.000000, 21.000000)" fill="#FFFFFF" fill-rule="nonzero">
            <path d="M2.30110032,9.91624595 C2.47011866,10.3647896 2.70412082,10.7483064 3.00314995,11.0667961 C3.30217907,11.385329 3.65644013,11.6290831 4.06593312,11.7981014 C4.47546926,11.9671197 4.92073355,12.0516073 5.40176915,12.0516073 C5.86981661,12.0516073 6.30856526,11.9638403 6.7181014,11.7883064 C7.12763754,11.6127724 7.48513484,11.3657821 7.79063646,11.0472923 C8.09613808,10.7287594 8.33341963,10.3485221 8.50243797,9.90649407 C8.67145631,9.46446602 8.75594391,8.97048544 8.75594391,8.42442287 L8.75594391,0 L10.8035383,0 L10.8035383,13.650658 L8.77544768,13.650658 L8.77544768,12.3830852 C8.3204315,12.8640777 7.78412082,13.2346063 7.16660194,13.494671 C6.54903991,13.7546494 5.88280475,13.8846602 5.16776699,13.8846602 C4.43969795,13.8846602 3.7604315,13.7578857 3.12988134,13.5043797 C2.49937433,13.2508738 1.95331176,12.8901402 1.49182309,12.4220928 C1.03033441,11.9540453 0.666278317,11.3918447 0.39978425,10.7352751 C0.133247033,10.0787487 0,9.34748652 0,8.54140237 L0,0 L2.04759439,0 L2.04759439,8.42442287 C2.04759439,8.97048544 2.13208198,9.46770227 2.30110032,9.91624595 Z" id="Path"></path>
            <path d="M14.3330313,0 L14.3330313,4.97272923 C14.7880475,4.51771305 15.3146063,4.1569795 15.9126214,3.89044229 C16.5106365,3.62390507 17.1606904,3.49065804 17.8626969,3.49065804 C18.5907659,3.49065804 19.2732255,3.62714132 19.9102913,3.90015102 C20.5473139,4.17316073 21.0998058,4.54368932 21.5678533,5.01173679 C22.0359008,5.47978425 22.4064293,6.03227616 22.6794391,6.66929881 C22.9524488,7.30636462 23.088932,7.98239482 23.088932,8.69743258 C23.088932,9.41242718 22.9524488,10.0852211 22.6794391,10.7157282 C22.4064293,11.3462783 22.0359008,11.8955771 21.5678533,12.3635383 C21.0998058,12.8315858 20.5473139,13.2021143 19.9102913,13.4751241 C19.2732255,13.7481338 18.5907228,13.884617 17.8626969,13.884617 C17.1606472,13.884617 16.5074002,13.75137 15.9028695,13.4848328 C15.2983387,13.2183387 14.7685437,12.857562 14.3135275,12.4025458 L14.3135275,13.6506149 L12.363452,13.6506149 L12.363452,0 L14.3330313,0 Z M14.5572816,10.0429773 C14.7327724,10.4590291 14.9765696,10.8230421 15.2885868,11.1350593 C15.6006041,11.4470766 15.964617,11.69411 16.3806257,11.8761165 C16.7966775,12.058123 17.245178,12.1491262 17.7262136,12.1491262 C18.1942611,12.1491262 18.636246,12.058123 19.0522546,11.8761165 C19.4682632,11.69411 19.8289968,11.4471197 20.1345847,11.1350593 C20.4400863,10.8230852 20.6838403,10.4590291 20.8658468,10.0429773 C21.0478533,9.62696872 21.1388565,9.17846818 21.1388565,8.69743258 C21.1388565,8.21639698 21.0478533,7.76461704 20.8658468,7.34209277 C20.6838403,6.9195685 20.4400863,6.55231931 20.1345847,6.24030205 C19.8290399,5.92832794 19.4683064,5.68453074 19.0522546,5.50903991 C18.6362028,5.33354908 18.1942179,5.24573894 17.7262136,5.24573894 C17.2582093,5.24573894 16.8161812,5.33350593 16.4001726,5.50903991 C15.984164,5.68457389 15.620151,5.92832794 15.3080906,6.24030205 C14.9961165,6.55231931 14.7490831,6.9195685 14.5670766,7.34209277 C14.3850701,7.76461704 14.2940669,8.21639698 14.2940669,8.69743258 C14.2940237,9.17846818 14.3817907,9.62696872 14.5572816,10.0429773 Z" id="Shape"></path>
            <path d="M24.200302,6.68884574 C24.4602805,6.06481122 24.8178641,5.51555556 25.2728371,5.0410356 C25.7278101,4.56651564 26.2674002,4.19275081 26.8914347,3.9197411 C27.5154693,3.64673139 28.1914995,3.51024811 28.9195254,3.51024811 C29.6345631,3.51024811 30.2976052,3.6402589 30.9086516,3.90023732 C31.5196548,4.1602589 32.0461704,4.5210356 32.4881985,4.98256742 C32.9302265,5.44405609 33.2747789,5.99011866 33.521726,6.62062567 C33.7687594,7.25117584 33.8922546,7.93695793 33.8922546,8.6780151 L33.8922546,9.3215534 L25.7993959,9.3215534 C25.8644229,9.72457389 25.9944337,10.0983387 26.1894283,10.4428047 C26.384466,10.7873139 26.6281769,11.086343 26.9206904,11.339849 C27.2132039,11.5933981 27.5447249,11.7916721 27.9152535,11.9346278 C28.2857821,12.0776268 28.6790076,12.1491694 29.0950593,12.1491694 C30.2781446,12.1491694 31.2337001,11.6616181 31.961726,10.6865588 L33.3852859,11.7395901 C32.8912621,12.4026321 32.2802589,12.9226753 31.552233,13.2996764 C30.824164,13.6766775 30.0051348,13.8651996 29.0951025,13.8651996 C28.3540453,13.8651996 27.6617907,13.7351456 27.0182524,13.4751672 C26.3747141,13.2151888 25.8157066,12.8511327 25.3411866,12.3830852 C24.8666667,11.9150378 24.4929018,11.3657821 24.2198921,10.7352751 C23.9468824,10.1047681 23.810356,9.41894283 23.810356,8.6779288 C23.8102697,7.97592233 23.9403236,7.31288026 24.200302,6.68884574 Z M26.9401942,5.9185329 C26.3876591,6.38006472 26.0204099,6.99434736 25.8384035,7.7613808 L31.9032147,7.7613808 C31.7341963,6.99434736 31.3734196,6.38006472 30.8208846,5.9185329 C30.2683495,5.45704423 29.621575,5.22627832 28.8805609,5.22627832 C28.1395038,5.22627832 27.4927292,5.45704423 26.9401942,5.9185329 Z" id="Shape"></path>
            <path d="M37.5778209,6.14278317 C37.1618123,6.59779935 36.9537864,7.21531823 36.9537864,7.99538296 L36.9537864,13.6507012 L34.984164,13.6507012 L34.984164,3.70519957 L36.9342395,3.70519957 L36.9342395,4.93376483 C37.1812729,4.53074434 37.5030421,4.21221143 37.8995469,3.97820928 C38.2960518,3.74416397 38.7673355,3.62714132 39.3133981,3.62714132 L39.9959008,3.62714132 L39.9959008,5.46023732 L39.1768716,5.46023732 C38.5268608,5.46028047 37.9938296,5.68776699 37.5778209,6.14278317 Z" id="Path"></path>
        </g>
    </g>
</svg>