<?xml version="1.0" encoding="UTF-8"?>
<svg width="56px" height="56px" viewBox="0 0 56 56" version="1.1" xmlns="http://www.w3.org/2000/svg" xmlns:xlink="http://www.w3.org/1999/xlink">
    <!-- Generator: Sketch 52.4 (67378) - http://www.bohemiancoding.com/sketch -->
    <title>UCG</title>
    <desc>Created with Sketch.</desc>
    <g id="UCG" stroke="none" stroke-width="1" fill="none" fill-rule="evenodd">
        <rect id="Rectangle-1" stroke="#E1E1E1" fill="#FFFFFF" x="0.5" y="0.5" width="55" height="55" rx="27.5"></rect>
        <g id="Page-1" transform="translate(6.000000, 6.000000)" fill="#D0021B">
            <path d="M5.80638371,36.7591979 C5.94839429,36.5781032 6.04756889,36.4616189 6.1358017,36.3379558 C10.077643,30.8076189 13.9955054,25.2603768 17.9704049,19.7536611 C19.595844,17.5020189 21.3493255,15.3413874 23.0355266,13.1325874 C23.9218123,11.9712189 23.8771139,11.7442716 22.6637382,10.9826084 C21.8777911,10.4893453 21.0538969,10.0477242 20.310553,9.49795579 C19.9520345,9.23256632 19.4407964,8.66241895 19.5285636,8.42204 C19.6787223,8.01145053 20.2029975,7.56936632 20.6469551,7.46492421 C21.7711668,7.20022947 22.9347223,7.02006105 24.0889657,6.97675579 C28.3106377,6.81789263 32.5351033,6.72942947 36.7579393,6.61016632 C36.8964578,6.60622947 37.0335795,6.55273474 37.2140028,6.51313474 C30.4568599,-0.65516 16.779844,-2.86951789 7.06632022,6.04164 C-2.45025121,14.7721663 -1.83471682,28.8060821 5.80638371,36.7591979" id="Path"></path>
            <path d="M41.2407577,7.15334047 C42.4108317,9.00967731 41.7119534,10.1814668 40.5195302,11.2562247 C39.0551915,12.5759931 37.6225143,13.9304984 36.1695831,15.2627721 C28.9591704,21.8738878 21.5417947,28.2441615 13.7470434,34.1686457 C10.9787683,36.2730036 8.15368889,38.3034878 5.35445079,40.367551 C5.40892698,40.4777826 5.46317037,40.5880142 5.51787937,40.6984773 C6.12223915,40.4034457 6.79341376,40.1943299 7.31489524,39.7925405 C7.99375238,39.2698668 8.44655661,39.2383721 9.20526561,39.7661405 C13.6816254,42.879951 18.6384931,44.252751 24.1228952,43.689551 C39.0638053,42.1551089 48.121054,26.4575299 41.8497735,12.8900142 C41.4789164,12.0878247 41.3476148,11.5422247 42.0404402,10.7814878 C43.1271704,9.58792995 42.852927,8.16163521 41.2407577,7.15334047" id="Path"></path>
        </g>
    </g>
</svg>