<svg width="56" height="56" xmlns="http://www.w3.org/2000/svg"><g fill="none" fill-rule="evenodd"><rect fill="#FFF" width="56" height="56" rx="28"/><path d="M47.04 48a27.773 27.773 0 0 1-19.54 8 27.773 27.773 0 0 1-19.54-8h39.08z" fill="#F7B600"/><path d="M47.04 8A27.773 27.773 0 0 0 27.5 0 27.773 27.773 0 0 0 7.96 8h39.08z" fill="#1F4DB7"/><g fill="#1F4DB7"><path d="M23.507 20.498l-2.325 13.645H24.9l2.327-13.645zM38.388 20.834c-.737-.276-1.892-.573-3.334-.573-3.674 0-6.263 1.85-6.285 4.503-.02 1.96 1.848 3.054 3.259 3.707 1.447.668 1.934 1.095 1.927 1.692-.009.915-1.156 1.333-2.225 1.333-1.488 0-2.279-.207-3.5-.716l-.48-.217-.522 3.054c.87.38 2.475.71 4.143.728 3.91 0 6.447-1.83 6.476-4.662.014-1.552-.977-2.733-3.122-3.707-1.3-.63-2.096-1.052-2.088-1.691 0-.567.674-1.174 2.13-1.174a6.86 6.86 0 0 1 2.783.523l.333.157.505-2.957M43.338 29.306c.308-.786 1.482-3.814 1.482-3.814-.022.036.305-.79.493-1.302l.252 1.176s.712 3.257.86 3.94h-3.087zm4.586-8.794H45.05c-.89 0-1.556.242-1.947 1.131L37.58 34.147h3.905s.639-1.681.783-2.05l4.763.005c.111.478.452 2.045.452 2.045h3.451l-3.01-13.635zM18.063 20.508l-3.641 9.305-.388-1.891c-.678-2.18-2.79-4.541-5.15-5.724l3.329 11.933 3.934-.005 5.855-13.618h-3.939"/><path d="M11.044 20.5H5.048L5 20.784c4.666 1.13 7.753 3.859 9.034 7.138l-1.304-6.27c-.225-.864-.878-1.122-1.686-1.152"/></g></g></svg>