<svg width="56" height="56" xmlns="http://www.w3.org/2000/svg"><g fill="none" fill-rule="evenodd"><rect fill="#FFF" width="56" height="56" rx="28"/><path d="M55.942 28.004c.056 15.304-12.43 28.055-28.069 27.99C12.381 55.927-.027 43.23.047 27.86.122 12.43 12.663-.057 28.183.011c15.428.068 27.815 12.723 27.76 27.993" fill="#0090DF"/><path d="M27.928 51.963C14.658 51.894 4 41.203 4.035 27.935c.036-13.246 10.718-23.9 23.98-23.894 13.187.006 23.853 10.778 23.853 23.983 0 13.067-10.565 23.906-23.94 23.939" fill="#FEFEFE"/><path d="M34.607 36.982l-1.04-2.44c-.81-1.903-1.623-3.803-2.426-5.708-.085-.201-.19-.272-.41-.27-1.633.008-3.266.01-4.9-.003-.28-.002-.405.09-.512.349-1.097 2.654-2.208 5.302-3.32 7.95-.05.12-.063.268-.213.358-.49-1.033-.979-2.06-1.465-3.089l-4.537-9.606c-1.248-2.642-2.493-5.285-3.746-7.925-.103-.217-.095-.368.053-.57 1.47-1.986 3.286-3.59 5.352-4.928.21-.136.304-.113.413.117 1.277 2.683 2.562 5.362 3.845 8.042 1.218 2.547 2.438 5.092 3.65 7.641.09.187.204.245.401.244 1.671-.006 3.342-.008 5.012.001.213.002.303-.089.384-.265 1.37-2.968 2.745-5.933 4.118-8.9 1.02-2.201 2.04-4.402 3.052-6.608.11-.237.197-.276.425-.127 1.93 1.27 3.615 2.801 5.015 4.645.13.172.14.309.052.503-2.46 5.49-4.916 10.983-7.372 16.476-.595 1.333-1.187 2.667-1.831 4.113M35.473 46.338l11.193-24.912.11.02c1.654 4.847 1.515 9.658-.512 14.374-2.135 4.966-5.758 8.467-10.697 10.601l-.094-.083M8.91 22.514l12.12 24.06-.085.074c-4.388-1.741-7.838-4.62-10.2-8.732-2.79-4.854-3.337-10.017-1.836-15.402" fill="#0090DF"/><path d="M28.179 33.388l1.257 3.1c1.38 3.405 2.756 6.813 4.145 10.215.125.305.085.404-.245.496-3.4.954-6.806.943-10.226.126-.198-.047-.309-.066-.209-.326 1.727-4.466 3.443-8.936 5.163-13.406.016-.042.045-.08.115-.205M28.234 21.55l-1.054-2.447c-1.429-3.32-2.855-6.641-4.291-9.958-.122-.282-.111-.39.223-.474 3.41-.843 6.804-.814 10.19.123.285.079.383.156.248.471-1.73 4.026-3.448 8.057-5.167 12.088-.03.068-.046.142-.149.198" fill="#0090DF"/></g></svg>