<?xml version="1.0" encoding="UTF-8"?>
<svg width="56px" height="56px" viewBox="0 0 56 56" version="1.1" xmlns="http://www.w3.org/2000/svg" xmlns:xlink="http://www.w3.org/1999/xlink">
    <!-- Generator: Sketch 61.2 (89653) - https://sketch.com -->
    <title>Wayfair inc</title>
    <desc>Created with Sketch.</desc>
    <g id="Wayfair-inc" stroke="none" stroke-width="1" fill="none" fill-rule="evenodd">
        <rect id="Rectangle-1" stroke="#E1E1E1" fill="#FFFFFF" x="0.5" y="0.5" width="55" height="55" rx="27.5"></rect>
        <g id="Group-4" transform="translate(10.000000, 10.000000)">
            <g id="Group-5">
                <path d="M35.6783377,11.5905974 L33.4421299,3.14883117 C33.3668571,2.8641039 33.1452468,2.64249351 32.860987,2.56581818 L24.4187532,0.328675325 C24.1354286,0.254805195 23.8362078,0.334753247 23.6295584,0.541402597 L17.9705455,6.20041558 L29.8098701,18.0378701 L35.4656104,12.3788571 C35.6731948,12.1736104 35.7536104,11.8725195 35.6783377,11.5905974" id="Fill-1" fill="#7DBF6D"></path>
                <path d="M0.262285714,24.4860779 L2.4998961,32.925974 C2.57516883,33.2097662 2.79818182,33.4318442 3.08103896,33.5071169 L11.5246753,35.7470649 C11.8061299,35.8209351 12.1058182,35.7405195 12.3124675,35.5338701 L17.9728831,29.8734545 L6.13542857,18.0350649 L0.474077922,23.6968831 C0.268831169,23.9035325 0.187012987,24.2046234 0.262285714,24.4860779" id="Fill-3" fill="#F3CB31"></path>
                <path d="M11.5223377,0.32587013 L3.0801039,2.56441558 C2.79584416,2.63968831 2.57376623,2.8612987 2.49849351,3.14602597 L0.261350649,11.5868571 C0.186077922,11.8683117 0.267428571,12.1694026 0.474077922,12.3746494 L6.1358961,18.0350649 L17.9705455,6.20041558 L12.3110649,0.538597403 C12.1048831,0.331948052 11.8037922,0.250597403 11.5223377,0.32587013" id="Fill-4" fill="#C0D03A"></path>
            </g>
            <path d="M35.3884675,23.6164675 L29.8108052,18.0378701 L17.9724156,29.8734545 L23.5514805,35.4539221 C23.8076883,35.7101299 24.1812468,35.8106494 24.5314286,35.7176104 L32.7506494,33.5389091 C33.1036364,33.4444675 33.379013,33.1690909 33.4725195,32.8161039 L35.6521558,24.5968831 C35.7451948,24.2462338 35.6446753,23.8726753 35.3884675,23.6164675" id="Fill-6" fill="#AF7AA8"></path>
            <polyline id="Fill-7" fill="#692A6B" points="17.971013 6.20041558 6.13636364 18.0350649 17.9719481 29.8734545 29.8103377 18.0374026 17.971013 6.20041558"></polyline>
        </g>
    </g>
</svg>