<svg width="56" height="56" xmlns="http://www.w3.org/2000/svg"><g fill="none" fill-rule="evenodd"><rect fill="#FFF" width="56" height="56" rx="28"/><path d="M24.529 6h.456c-.187 1.448-.238 2.91-.377 4.365-1.06.082-2.114.225-3.17.342.168-1.407.41-2.805.683-4.197A51.716 51.716 0 0 1 24.53 6" fill="#A6BDD3"/><path d="M30.927 6h.405c.812.178 1.633.322 2.434.546.25 1.379.492 2.76.672 4.151a76.877 76.877 0 0 0-3.17-.347c-.073-1.452-.208-2.902-.341-4.35" fill="#58AEE2"/><path d="M14.556 10.302c.965-.824 2.074-1.479 3.206-2.046-.497 1.167-1.033 2.32-1.411 3.532-.976.268-1.931.598-2.887.928a21.41 21.41 0 0 1 1.092-2.414" fill="#93C944"/><path d="M38.106 8.238c.967.478 1.877 1.06 2.759 1.676.218.16.46.318.573.575.338.732.698 1.456.97 2.216-.95-.321-1.898-.65-2.864-.92-.41-1.21-.916-2.383-1.438-3.547M24.987 10.767a40.914 40.914 0 0 1 5.912-.001c.031 1.047.119 2.093.166 3.139-2.08-.105-4.168-.126-6.246.006.05-1.048.131-2.095.168-3.144" fill="#58AEE2"/><path d="M16.66 12.126c1.412-.369 2.837-.702 4.284-.907a144.59 144.59 0 0 0-.362 3.073c-1.62.213-3.222.54-4.822.868.276-1.018.55-2.038.9-3.034" fill="#51ADA7"/><path d="M34.964 11.213c1.44.218 2.861.539 4.27.909.32 1.01.651 2.021.886 3.055-1.6-.348-3.207-.667-4.831-.877-.072-1.033-.27-2.052-.325-3.087" fill="#93C944"/><path d="M43.176 13.475c.758.28 1.482.636 2.213.973a.907.907 0 0 1 .394.329c.698.945 1.32 1.945 1.855 2.991-1.163-.516-2.332-1.025-3.539-1.43-.267-.966-.595-1.914-.923-2.863" fill="#51ADA7"/><path d="M10.483 14.433c.739-.338 1.462-.72 2.237-.97-.316.958-.648 1.91-.92 2.883-1.213.404-2.374.936-3.555 1.42.452-.974 1.046-1.873 1.658-2.752.163-.22.318-.47.58-.581" fill="#A6BDD3"/><path d="M20.966 14.673c1.13-.15 2.265-.266 3.405-.31-.084 1.873-.13 3.75-.218 5.624-1.205.001-2.41.066-3.615.117.122-1.812.248-3.623.428-5.431" fill="#93C944"/><path d="M31.514 14.366c1.138.048 2.273.165 3.402.308.171 1.805.309 3.613.415 5.424-1.206-.044-2.415-.111-3.623-.136-.028-1.866-.123-3.731-.194-5.596" fill="#51ADA7"/><path d="M12.164 16.612c1.006-.285 2.001-.608 3.016-.866a62.4 62.4 0 0 0-.888 4.84c-1.028.107-2.055.235-3.082.365.236-1.461.508-2.926.954-4.339" fill="#93C944"/><path d="M40.71 15.746c1.023.286 2.048.565 3.051.913.363 1.412.7 2.833.901 4.279-1.025-.114-2.048-.245-3.073-.354-.218-1.625-.532-3.236-.879-4.838" fill="#58AEE2"/><path d="M24.582 20.376c2.238-.053 4.477-.047 6.715-.004.056 1.23.023 2.462.088 3.692-2.295-.002-4.59.004-6.885-.003.057-1.227.04-2.458.082-3.685" fill="#51ADA7"/><path d="M14.679 20.964c1.805-.171 3.613-.304 5.422-.42-.061 1.21-.086 2.421-.148 3.63-1.862.037-3.724.12-5.586.198.04-1.14.16-2.279.312-3.408" fill="#58AEE2"/><path d="M35.76 20.528a194.9 194.9 0 0 1 5.462.421c.145 1.134.252 2.272.329 3.412-1.872-.024-3.745-.142-5.618-.166-.13-1.218-.058-2.447-.173-3.667" fill="#A6BDD3"/><path d="M7.144 22.003c1.185-.2 2.37-.404 3.56-.56a60.168 60.168 0 0 0-.35 3.16c-1.452.101-2.904.214-4.354.349v-.403c.187-.788.287-1.6.541-2.37.173-.127.403-.125.603-.176" fill="#58AEE2"/><path d="M45.2 21.44c1.383.18 2.755.428 4.129.668.272.932.453 1.888.58 2.85a129.27 129.27 0 0 0-4.376-.341c-.09-1.062-.24-2.117-.334-3.178" fill="#93C944"/><path d="M20.348 24.583c1.242-.059 2.487-.034 3.729-.108.016 2.31.014 4.622-.002 6.933-1.24-.07-2.482-.048-3.722-.108-.025-2.24-.024-4.479-.005-6.717" fill="#A6BDD3"/><path d="M31.806 24.492c1.235.06 2.47.046 3.705.095.053 2.238.041 4.476.003 6.715-1.233.046-2.467.032-3.702.087-.003-2.298.007-4.597-.006-6.897" fill="#93C944"/><path d="M10.786 24.98c1.043-.015 2.083-.122 3.125-.157a53.217 53.217 0 0 0-.008 6.243c-1.046-.056-2.091-.133-3.14-.174-.116-1.968-.167-3.95.023-5.913M41.972 24.827c1.045.031 2.088.132 3.132.163.164 1.961.15 3.94.009 5.903-1.047.04-2.093.119-3.14.171.124-2.075.131-4.163 0-6.237" fill="#51ADA7"/><path d="M6 30.96c1.454.062 2.9.245 4.353.31.092 1.058.215 2.113.351 3.168-1.403-.192-2.81-.39-4.192-.702-.177-.815-.358-1.627-.512-2.446v-.33" fill="#93C944"/><path d="M45.534 31.266c1.461-.071 2.917-.209 4.374-.335-.138.96-.301 1.92-.585 2.848-1.383.229-2.759.483-4.149.664a64.33 64.33 0 0 0 .36-3.177M14.364 31.518c1.868.063 3.733.157 5.601.192.028 1.21.09 2.418.136 3.626-1.81-.11-3.62-.245-5.427-.417a38.95 38.95 0 0 1-.31-3.401" fill="#58AEE2"/><path d="M35.914 31.7c1.87-.014 3.738-.134 5.608-.185a38.492 38.492 0 0 1-.312 3.404c-1.808.174-3.62.308-5.433.423.052-1.215.107-2.427.137-3.641" fill="#93C944"/><path d="M24.501 31.818c2.297.003 4.593-.002 6.891.001-.079 1.229-.038 2.462-.095 3.692-2.238.04-4.476.051-6.714-.007-.045-1.229-.03-2.457-.082-3.686" fill="#51ADA7"/><path d="M11.202 34.93c1.035.109 2.068.248 3.104.36.235 1.623.51 3.242.898 4.836-1.042-.193-2.03-.583-3.055-.848-.44-1.417-.715-2.883-.947-4.347" fill="#A6BDD3"/><path d="M41.588 35.3c1.028-.103 2.052-.247 3.08-.353-.209 1.442-.541 2.864-.904 4.275-1.006.348-2.03.642-3.061.903.37-1.593.66-3.205.885-4.826" fill="#58AEE2"/><path d="M20.54 35.775c1.211.06 2.422.11 3.635.136.034 1.869.134 3.737.193 5.606-1.138-.033-2.272-.166-3.401-.304-.18-1.81-.31-3.625-.427-5.438" fill="#93C944"/><path d="M31.708 35.922c1.208-.035 2.417-.093 3.623-.139-.105 1.811-.238 3.62-.417 5.427-1.129.14-2.264.27-3.403.303.07-1.864.166-3.726.197-5.59" fill="#58AEE2"/><path d="M9.786 40.67A22.506 22.506 0 0 1 8.229 38.1c1.163.531 2.34 1.039 3.552 1.445.28.964.59 1.918.92 2.866a30.994 30.994 0 0 1-2.21-.977c-.33-.15-.5-.488-.705-.763" fill="#51ADA7"/><path d="M44.077 39.538c1.217-.406 2.385-.939 3.568-1.43-.467 1.009-1.087 1.936-1.722 2.845-.144.194-.294.403-.525.502-.733.348-1.473.684-2.234.968.303-.963.657-1.908.913-2.885" fill="#A6BDD3"/><path d="M15.789 40.703c1.584.365 3.183.667 4.795.882.114 1.025.237 2.049.354 3.075a28.292 28.292 0 0 1-4.323-.938c-.25-1.014-.662-1.985-.826-3.02" fill="#93C944"/><path d="M35.3 41.593c1.618-.234 3.23-.511 4.822-.89-.255 1.027-.57 2.039-.886 3.05a40.246 40.246 0 0 1-4.294.915c.123-1.025.253-2.048.357-3.075" fill="#51ADA7"/><path d="M24.813 41.977c2.086.09 4.173.071 6.259.004-.05 1.048-.104 2.093-.171 3.14-1.955.167-3.923.11-5.884.033-.149-1.053-.131-2.118-.204-3.177" fill="#A6BDD3"/><path d="M13.472 43.175c.952.324 1.904.652 2.873.926.396 1.208.911 2.372 1.423 3.535-.961-.468-1.858-1.052-2.735-1.657-.223-.163-.473-.322-.584-.587a29.053 29.053 0 0 1-.977-2.217" fill="#58AEE2"/><path d="M39.537 44.09c.974-.258 1.92-.602 2.877-.912-.294.75-.622 1.486-.971 2.211-.08.202-.247.34-.417.464a20.995 20.995 0 0 1-2.933 1.8c.534-1.165 1.04-2.346 1.444-3.563" fill="#93C944"/><path d="M21.441 45.177c1.049.147 2.1.265 3.157.35.118 1.451.213 2.905.354 4.356h-.397c-.816-.187-1.65-.304-2.45-.56-.235-1.38-.486-2.758-.664-4.146" fill="#58AEE2"/><path d="M31.28 45.525a57.15 57.15 0 0 0 3.156-.339c-.172 1.387-.43 2.762-.661 4.14-.85.245-1.72.402-2.59.557h-.217c.064-1.455.228-2.904.312-4.358" fill="#51ADA7"/></g></svg>