<svg width="56" height="56" xmlns="http://www.w3.org/2000/svg"><g fill="none" fill-rule="evenodd"><rect fill="#CD1309" width="56" height="56" rx="28"/><g fill="#FF0"><path d="M46.892 27.227c0-1.265-.158-2.37-.631-3.32-.632-.79-1.739-.945-3.477-.945h-3.951V27.7h1.265c1.896 0 2.212-.473 2.212-2.842h1.58v7.9h-1.58c0-2.688-.316-3.319-2.212-3.319h-1.265v4.11c0 1.423.158 1.423 1.58 1.423h1.739v1.893h-9.64v-1.893h.947c1.265 0 1.738-.16 1.738-1.423v-9.326c0-1.261-.475-1.42-1.738-1.42h-.947v-1.736H48.63v6.161h-1.739v-.001z"/><path d="M27.714 21.064v1.896h1.107c.947 0 1.265.16 1.265.632 0 .317 0 .633-.159 1.265l-3 7.901h-.16c-1.422-3.95-3.318-8.533-3.318-8.533-.158-.316-.158-.475-.158-.633 0-.474.316-.632 1.107-.632h1.265v-1.896h-8.375v1.896h1.107c1.264 0 1.738.632 1.896 1.897l-3.16 7.901h-.157c-1.424-4.266-3.32-8.69-3.32-8.69-.157-.159 0-.317 0-.475-.157-.473.316-.63 1.265-.63h.631v-1.9H7.644v1.897h.316c1.107 0 2.053.632 2.528 2.055l4.74 11.85h2.844l3.477-8.69 3.635 8.69h2.844l4.424-12.01c.632-1.423.948-1.896 2.37-1.896h.159v-1.895h-7.267z"/></g></g></svg>