<svg xmlns="http://www.w3.org/2000/svg" version="1.1" xmlns:xlink="http://www.w3.org/1999/xlink" xmlns:svgjs="http://svgjs.dev/svgjs" width="1500" height="215" viewBox="0 0 1500 215"><g transform="matrix(1,0,0,1,-0.9090909090909918,0.6184144841329271)"><svg viewBox="0 0 396 57" data-background-color="#ffffff" preserveAspectRatio="xMidYMid meet" height="215" width="1500" xmlns="http://www.w3.org/2000/svg" xmlns:xlink="http://www.w3.org/1999/xlink"><g id="tight-bounds" transform="matrix(1,0,0,1,0.2400000000000091,-0.16395174695617243)"><svg viewBox="0 0 395.52 57.32790349391233" height="57.32790349391233" width="395.52"><g><svg viewBox="0 0 487.1908495576823 70.61496259749184" height="57.32790349391233" width="395.52"><g transform="matrix(1,0,0,1,91.67084955768237,9.75937616217145)"><svg viewBox="0 0 395.52 51.09621027314894" height="51.09621027314894" width="395.52"><g id="textblocktransform"><svg viewBox="0 0 395.52 51.09621027314894" height="51.09621027314894" width="395.52" id="textblock"><g><svg viewBox="0 0 395.52 51.09621027314894" height="51.09621027314894" width="395.52"><g transform="matrix(1,0,0,1,0,0)"><svg width="395.52" viewBox="0.5 -37 291.03 37.6" height="51.09621027314894" data-palette-color="#111111"><path d="M16 0L11.25 0 11.25-30.8 0.5-30.8 0.5-35 26.75-35 26.75-30.8 16-30.8 16 0ZM35.75 0L31.25 0 31.25-26 35.75-26 35.75 0ZM33.5-30.45L33.5-30.45Q32.2-30.45 31.27-31.4 30.35-32.35 30.35-33.6L30.35-33.6Q30.35-35.05 31.2-35.9 32.05-36.75 33.5-36.75L33.5-36.75Q34.8-36.75 35.72-35.83 36.65-34.9 36.65-33.6L36.65-33.6Q36.65-32.2 35.8-31.33 34.95-30.45 33.5-30.45ZM48.25 0L43.75 0 43.75-26 48.1-26 48.1-21.65Q49.5-23.75 51.65-25.18 53.8-26.6 56.55-26.6L56.55-26.6Q59.65-26.6 61.62-25.1 63.6-23.6 64.4-21.1L64.4-21.1Q65.95-23.4 68.07-25 70.2-26.6 73.34-26.6L73.34-26.6Q77.59-26.6 79.67-23.93 81.75-21.25 81.75-16.95L81.75-16.95 81.75 0 77.25 0 77.25-16.6Q77.25-19.3 76-20.98 74.75-22.65 72.55-22.65L72.55-22.65Q70.3-22.65 68.37-20.98 66.45-19.3 65-17.05L65-17.05 65 0 60.5 0 60.5-16.6Q60.5-19.3 59.25-20.98 58-22.65 55.8-22.65L55.8-22.65Q53.6-22.65 51.65-21.03 49.7-19.4 48.25-17.2L48.25-17.2 48.25 0ZM99.89 0.6L99.89 0.6Q94.29 0.6 91.02-2.98 87.74-6.55 87.74-13L87.74-13Q87.74-16.9 89.22-19.98 90.69-23.05 93.34-24.83 95.99-26.6 99.49-26.6L99.49-26.6Q103.24-26.6 105.72-24.98 108.19-23.35 109.44-20.6 110.69-17.85 110.69-14.55L110.69-14.55Q110.69-12.8 110.54-11.15L110.54-11.15 92.34-11.15Q92.79-7.5 94.89-5.45 96.99-3.4 100.44-3.4L100.44-3.4Q102.69-3.4 104.49-3.88 106.29-4.35 107.94-5.1L107.94-5.1 108.99-1.25Q107.19-0.45 104.94 0.08 102.69 0.6 99.89 0.6ZM92.29-14.8L92.29-14.8 106.54-14.8Q106.54-18.6 104.64-20.65 102.74-22.7 99.39-22.7L99.39-22.7Q96.49-22.7 94.59-20.68 92.69-18.65 92.29-14.8ZM136.69 0L132.19 0 132.19-35 138.84-35 148.54-12.85 158.09-35 164.89-35 164.89 0 160.14 0 160.14-28.95 150.79-7.9 146.09-7.9 136.69-28.95 136.69 0ZM183.34 0.6L183.34 0.6Q180.09 0.6 177.44-1.05 174.79-2.7 173.21-5.73 171.64-8.75 171.64-12.85L171.64-12.85Q171.64-16.75 173.21-19.85 174.79-22.95 177.56-24.78 180.34-26.6 183.94-26.6L183.94-26.6Q186.19-26.6 188.01-25.83 189.84-25.05 191.19-23.9L191.19-23.9 191.19-26 195.29-26 195.29-6.3Q195.29-4.4 196.21-3.83 197.14-3.25 198.24-3.25L198.24-3.25 197.29 0.25Q192.49 0.25 191.49-3.65L191.49-3.65Q190.34-2.05 188.36-0.73 186.39 0.6 183.34 0.6ZM184.34-3.4L184.34-3.4Q186.24-3.4 187.94-4.33 189.64-5.25 190.79-6.65L190.79-6.65 190.79-20.6Q189.44-21.55 187.81-22.13 186.19-22.7 184.39-22.7L184.39-22.7Q181.99-22.7 180.16-21.48 178.34-20.25 177.29-18.07 176.24-15.9 176.24-13L176.24-13Q176.24-10.2 177.29-8.03 178.34-5.85 180.19-4.63 182.04-3.4 184.34-3.4ZM208.73 0L204.23 0 204.23-26 208.58-26 208.58-20.35Q209.23-22 210.33-23.43 211.43-24.85 213.08-25.73 214.73-26.6 216.93-26.6L216.93-26.6Q217.68-26.6 218.43-26.53 219.18-26.45 219.68-26.3L219.68-26.3 218.33-21.65Q217.38-22.05 216.08-22.05L216.08-22.05Q214.23-22.05 212.56-21 210.88-19.95 209.81-17.75 208.73-15.55 208.73-12.15L208.73-12.15 208.73 0ZM245.23-2.5L242.13 0.5 228.68-13.35 228.68 0 224.18 0 224.18-37 228.68-37 228.68-15.85 240.43-26.5 243.03-23.65 232.98-14.75 245.23-2.5ZM259.38 0.6L259.38 0.6Q253.78 0.6 250.5-2.98 247.23-6.55 247.23-13L247.23-13Q247.23-16.9 248.7-19.98 250.18-23.05 252.83-24.83 255.48-26.6 258.98-26.6L258.98-26.6Q262.73-26.6 265.2-24.98 267.68-23.35 268.93-20.6 270.18-17.85 270.18-14.55L270.18-14.55Q270.18-12.8 270.03-11.15L270.03-11.15 251.83-11.15Q252.28-7.5 254.38-5.45 256.48-3.4 259.93-3.4L259.93-3.4Q262.18-3.4 263.98-3.88 265.78-4.35 267.43-5.1L267.43-5.1 268.48-1.25Q266.68-0.45 264.43 0.08 262.18 0.6 259.38 0.6ZM251.78-14.8L251.78-14.8 266.03-14.8Q266.03-18.6 264.13-20.65 262.23-22.7 258.88-22.7L258.88-22.7Q255.98-22.7 254.08-20.68 252.18-18.65 251.78-14.8ZM285.28 0.6L285.28 0.6Q281.53 0.6 279.35-1.88 277.18-4.35 277.18-8.95L277.18-8.95 277.18-21.15 272.68-21.15 272.68-25.05 277.28-25.05 278.23-33.25 281.68-33.25 281.68-25.05 288.88-25.05 288.88-21.15 281.68-21.15 281.68-8.6Q281.68-5.7 282.9-4.55 284.13-3.4 285.82-3.4L285.82-3.4Q287.07-3.4 288.2-3.8 289.32-4.2 290.28-4.75L290.28-4.75 291.53-1.15Q290.53-0.55 288.82 0.03 287.13 0.6 285.28 0.6Z" opacity="1" transform="matrix(1,0,0,1,0,0)" fill="#111111" class="wordmark-text-0" data-fill-palette-color="primary" id="text-0"></path></svg></g></svg></g></svg></g></svg></g><g><svg viewBox="0 0 79.60826062123846 70.61496259749184" height="70.61496259749184" width="79.60826062123846"><g><svg xmlns="http://www.w3.org/2000/svg" xmlns:xlink="http://www.w3.org/1999/xlink" version="1.1" x="0" y="0" viewBox="1.555 6.69 96.26499999999999 85.38999999999999" enable-background="new 0 0 100 100" xml:space="preserve" height="70.61496259749184" width="79.60826062123846" class="icon-icon-0" data-fill-palette-color="accent" id="icon-0"><rect x="76.732" y="46.587" width="9.364" height="5.245" fill="#059669" data-fill-palette-color="accent"></rect><rect x="50.507" y="71.545" width="5.245" height="9.364" fill="#059669" data-fill-palette-color="accent"></rect><rect x="67.55" y="27.483" transform="matrix(0.7071 -0.7071 0.7071 0.7071 -0.132 59.8931)" width="9.364" height="5.245" fill="#059669" data-fill-palette-color="accent"></rect><rect x="67.55" y="65.692" transform="matrix(0.7071 0.7071 -0.7071 0.7071 69.4617 -31.0665)" width="9.364" height="5.245" fill="#059669" data-fill-palette-color="accent"></rect><path d="M38.17 63.372l12.437-12.442V25.783h7.953v28.293c-0.553 0.553-14.762 14.922-14.762 14.922L38.17 63.372z" fill="#059669" data-fill-palette-color="accent"></path><path d="M55.125 6.69v7.507c19.4 0 35.185 15.785 35.185 35.188 0 19.402-15.785 35.187-35.185 35.187-17.803 0-32.552-13.298-34.86-30.481l5.355 5.282 5.309-5.309L16.261 39.396 1.555 54.065l5.309 5.309 5.783-5.783c2.12 21.573 20.361 38.489 42.48 38.489 23.539 0 42.693-19.153 42.693-42.694C97.818 25.844 78.666 6.69 55.125 6.69z" fill="#059669" data-fill-palette-color="accent"></path></svg></g></svg></g></svg></g><defs></defs></svg><rect width="395.52" height="57.32790349391233" fill="none" stroke="none" visibility="hidden"></rect></g></svg></g></svg>